<?xml version="1.0" encoding="utf-8"?>
<svg version="1.1" id="Layer_1" xmlns="http://www.w3.org/2000/svg" xmlns:xlink="http://www.w3.org/1999/xlink" x="0px" y="0px"
	 viewBox="0 0 1452.108 1660.963" enable-background="new 0 0 1452.108 1660.963" xml:space="preserve">
<g id="Man_Head_Silhouette">
	<g>
		<g>
			<g>
				<g>
					<path fill="#E717BB" d="M821.392,610.818c0.988,10.097-0.496,17.089-4.724,25.255c-13.372,26.796,7.216,37.737,19.103,28.418
						c9.046-7.091-2.405-4.458-7.001-10.043c-2.743-3.334-3.477-10.253-0.032-14.356c3.464-4.123,11.757-5.715,17.068-0.722
						c5.854,5.501,7.094,18.893-2.307,28.224c-18.409,18.27-59.568,8.443-53.027-18.785c3.972-16.507,25.327-15.914,24.116-37.325
						L821.392,610.818z M807.482,597.69c-12.272-10.182,3.029-28.948,15.373-18.709C835.29,589.294,819.599,607.738,807.482,597.69z
						"/>
				</g>
				<g>
					<path fill="#1391A9" d="M309.095,118.951c-2.618,3.676-5.158,5.588-8.961,7.092c-12.312,5.083-8.602,14.767-1.893,15.112
						c5.106,0.263,0.495-2.198,0.585-5.414c0.054-1.92,1.828-4.455,4.183-4.825c2.366-0.371,5.613,1.517,5.936,4.743
						c0.357,3.555-3.139,8.41-9.018,8.794c-11.512,0.751-22.448-14.567-12.301-21.79c6.154-4.377,13.144,2.06,18.992-5.476
						L309.095,118.951z M308.263,110.484c-1.142-7,9.471-8.826,10.621-1.785C320.044,115.79,309.393,117.394,308.263,110.484z"/>
				</g>
				<g>
					<path fill="#053F45" d="M209.099,364.267c0.672,14.155-1.888,23.803-8.358,34.898c-20.529,36.443,7.424,53.146,24.658,40.979
						c13.115-9.259-3.043-6.387-9.063-14.5c-3.593-4.843-4.133-14.546,0.961-20.028c5.121-5.509,16.8-7.148,23.86,0.188
						c7.781,8.083,8.573,26.851-5.194,39.209c-26.959,24.197-83.685,7.606-72.654-29.917c6.697-22.748,36.444-20.425,36.254-50.377
						L209.099,364.267z M190.614,344.98c-16.406-15.063,6.252-40.169,22.755-25.021C229.993,335.215,206.813,359.845,190.614,344.98
						z"/>
				</g>
				<g>
					<path fill="#716BC1" d="M371.905,524.664c-7.565-7.746-10.998-14.556-12.931-24.178c-6.762-31.235-31.206-26.595-34.878-10.901
						c-2.795,11.944,4.979,2.105,12.534,3.685c4.51,0.943,9.741,6.213,9.612,11.929c-0.13,5.745-5.971,12.608-13.726,11.998
						c-8.546-0.67-18.521-10.99-16.926-25.035c3.125-27.502,43.95-46.805,56.686-19.771c7.716,16.394-10.457,30.159,4.848,47.174
						L371.905,524.664z M392.251,526.304c17.015,0.282,16.809,26.12-0.305,25.839C374.709,551.862,375.455,526.031,392.251,526.304z
						"/>
				</g>
				<g>
					<path fill="#E7C779" d="M551.811,390.355c6.284-11.403,12.93-17.724,23.333-23.297c33.604-18.65,19.759-45.174,0.415-43.941
						c-14.721,0.938-0.691,6.464,0.118,15.711c0.483,5.52-3.764,13.375-10.388,15.215c-6.659,1.849-16.59-2.487-18.587-11.627
						c-2.201-10.071,6.208-25.144,22.931-28.193c32.745-5.97,69.167,34.31,42.478,58.375c-16.187,14.585-38.355-1.546-52.617,21.992
						L551.811,390.355z M557.001,414.346c5.595,19.685-24.22,28.436-29.851,8.638C521.478,403.044,551.472,394.917,557.001,414.346z
						"/>
				</g>
				<g>
					<path fill="#9B7193" d="M190.156,201.928c3.119-2.024,5.644-2.719,9.013-2.72c10.972-0.166,11.062-8.709,6.026-11.005
						c-3.832-1.748-1.045,1.534-2.087,3.971c-0.622,1.455-2.75,2.86-4.665,2.43c-1.925-0.432-3.841-2.862-3.112-5.432
						c0.803-2.832,4.951-5.493,9.572-4.007c9.047,2.91,12.788,17.958,2.826,20.419c-6.04,1.49-9.447-5.558-16.209-1.555
						L190.156,201.928z M188.229,208.667c-1.244,5.709-9.929,3.894-8.678-1.848C180.81,201.034,189.456,203.031,188.229,208.667z"/>
				</g>
				<g>
					<path fill="#754BC7" d="M712.118,640.934c-1.827,5.145-4.147,8.212-8.074,11.224c-12.639,9.998-5.11,20.034,2.811,18.21
						c6.028-1.387-0.153-2.722-1.115-6.493c-0.574-2.251,0.65-5.79,3.266-7.001c2.63-1.217,7.034-0.097,8.48,3.55
						c1.594,4.018-0.862,10.826-7.575,13.222c-13.144,4.693-30.949-9.502-21.539-21.272c5.708-7.134,15.976-1.964,20.28-12.671
						L712.118,640.934z M708.342,631.359c-3.651-7.766,8.092-13.41,11.766-5.6C723.808,633.625,711.948,639.024,708.342,631.359z"/>
				</g>
				<g>
					<path fill="#9D3109" d="M358.256,189.757c-5.751,0.452-9.709-0.467-14.305-2.959c-15.087-7.892-21.53,3.693-16.361,10.551
						c3.933,5.219,2.56-1.319,5.785-3.871c1.925-1.523,5.866-1.866,8.161,0.138c2.306,2.014,3.121,6.745,0.225,9.71
						c-3.191,3.268-10.817,3.828-16.019-1.618c-10.186-10.663-4.153-33.953,11.254-29.939c9.34,2.437,8.771,14.57,20.956,14.114
						L358.256,189.757z M365.87,181.992c5.921-6.866,16.423,2.036,10.468,8.942C370.341,197.891,360.027,188.771,365.87,181.992z"/>
				</g>
				<g>
					<path fill="#B3DF7B" d="M788.023,734.288c-0.469,11.628-3.257,19.338-9.348,27.95c-19.416,28.338,2.251,44.014,17.225,35.299
						c11.396-6.631-2.03-5.444-6.372-12.514c-2.592-4.22-2.335-12.198,2.227-16.316c4.586-4.139,14.259-4.64,19.506,1.87
						c5.784,7.173,5.083,22.584-7.07,31.704c-23.796,17.857-69.011,0.204-57.287-29.701c7.115-18.129,31.285-14.089,33.283-38.607
						L788.023,734.288z M774.288,717.18c-12.338-13.503,8.004-32.413,20.416-18.833C807.207,712.023,786.472,730.506,774.288,717.18
						z"/>
				</g>
				<g>
					<path fill="#4B89A7" d="M878.658,722.695c8.385,3.59,13.252,7.784,17.859,14.648c15.332,22.13,32.861,10.639,30.659-2.76
						c-1.675-10.197-4.554-0.033-10.943,1.173c-3.814,0.72-9.585-1.695-11.327-6.186c-1.751-4.514,0.583-11.737,6.815-13.763
						c6.867-2.233,17.958,2.583,21.244,14.028c6.433,22.411-19.117,50.595-37.744,33.661c-11.29-10.272-1.584-26.844-18.981-35.152
						L878.658,722.695z M862.294,727.977c-13.333,5.266-21.502-14.91-8.093-20.209C867.708,702.431,875.455,722.775,862.294,727.977
						z"/>
				</g>
				<g>
					<path fill="#A9D1BD" d="M440.45,69.462c2.858-3.106,5.438-4.584,9.143-5.537c12.018-3.282,9.704-12.701,3.518-13.804
						c-4.707-0.84-0.716,1.982-1.174,4.956c-0.273,1.775-2.216,3.921-4.444,3.99c-2.239,0.069-5.032-2.062-4.956-5.094
						c0.083-3.341,3.893-7.438,9.393-7.11c10.771,0.644,19.134,16.135,8.875,21.655c-6.221,3.345-11.958-3.443-18.263,2.869
						L440.45,69.462z M440.235,77.416c0.244,6.629-9.818,7.087-10.065,0.419C429.921,71.119,439.992,70.872,440.235,77.416z"/>
				</g>
				<g>
					<path fill="#278B11" d="M872.7,354.699c1.749-13.018,5.692-21.388,13.442-30.426c24.797-29.804,2.096-49.697-15.647-41.477
						c-13.503,6.254,1.709,6.331,5.845,14.732c2.469,5.015,1.342,13.953-4.217,18.101c-5.588,4.169-16.511,3.715-21.724-4.152
						c-5.746-8.668-3.338-25.913,11.277-34.884c28.617-17.565,77.573,7.025,61.254,39.398c-9.901,19.624-36.637,12.544-41.46,39.886
						L872.7,354.699z M886.337,375.368c12.446,16.471-12.401,35.583-24.921,19.018C848.803,377.703,874.046,359.113,886.337,375.368
						z"/>
				</g>
				<g>
					<path fill="#EFDD6D" d="M881.161,664.139c2.014,3.814,2.555,6.804,2.206,10.698c-0.949,12.696,8.913,13.688,12.091,8.108
						c2.418-4.246-1.664-1.367-4.371-2.825c-1.616-0.87-3.019-3.475-2.323-5.644c0.699-2.18,3.707-4.141,6.6-3.031
						c3.189,1.223,5.832,6.293,3.634,11.478c-4.304,10.152-22.082,12.909-23.89,1.142c-1.093-7.135,7.405-10.338,3.483-18.569
						L881.161,664.139z M873.575,661.211c-6.468-2.032-3.467-11.879,3.039-9.836C883.166,653.432,879.96,663.215,873.575,661.211z"
						/>
				</g>
				<g>
					<path fill="#33190D" d="M339.854,656.954c2.901-2.475,5.375-3.521,8.802-3.973c11.136-1.638,10.084-10.337,4.655-11.999
						c-4.131-1.265-0.857,1.7-1.591,4.318c-0.438,1.563-2.414,3.276-4.419,3.096c-2.016-0.182-4.289-2.396-3.892-5.107
						c0.438-2.987,4.3-6.249,9.198-5.356c9.59,1.748,15.408,16.551,5.607,20.387c-5.943,2.324-10.351-4.388-16.692,0.588
						L339.854,656.954z M338.797,664.064c-0.501,5.973-9.576,5.289-9.073-0.718C330.23,657.296,339.29,658.169,338.797,664.064z"/>
				</g>
				<g>
					<path fill="#8737C9" d="M868.76,624.615c-3.464-2.377-5.285-4.709-6.747-8.225c-4.932-11.377-13.884-7.766-14.097-1.515
						c-0.162,4.757,2.054,0.425,5.049,0.456c1.788,0.019,4.177,1.629,4.559,3.814c0.384,2.196-1.321,5.249-4.318,5.603
						c-3.303,0.39-7.879-2.784-8.332-8.25c-0.887-10.702,13.193-21.131,20.081-11.804c4.174,5.657-1.703,12.268,5.407,17.588
						L868.76,624.615z M876.627,623.704c6.497-1.177,8.369,8.672,1.835,9.857C871.88,634.755,870.214,624.868,876.627,623.704z"/>
				</g>
				<g>
					<path fill="#A5B3AB" d="M745.932,170.609c5.338,1.122,8.683,3.01,12.189,6.496c11.585,11.179,20.516,2.385,17.654-5.213
						c-2.178-5.783-2.674,0.515-6.279,1.971c-2.152,0.869-5.819,0.13-7.367-2.299c-1.556-2.441-1.034-6.951,2.383-8.869
						c3.765-2.115,10.833-0.591,14.101,5.735c6.4,12.387-5.277,31.909-18.185,24.163c-7.824-4.699-4.076-15.555-15.251-18.387
						L745.932,170.609z M736.956,175.625c-7.201,4.651-14.356-6.222-7.115-10.901C737.135,160.01,744.063,171.031,736.956,175.625z"
						/>
				</g>
				<g>
					<path fill="#7B5971" d="M740.31,292.942c-0.79-5.325-0.188-9.068,1.837-13.507c6.379-14.552-4.82-19.807-10.872-14.555
						c-4.606,3.996,1.392,2.299,3.975,5.137c1.542,1.694,2.113,5.342,0.396,7.606c-1.727,2.276-6.079,3.338-9.025,0.833
						c-3.247-2.76-4.258-9.824,0.478-15.017c9.273-10.167,31.343-6.046,28.595,8.555c-1.669,8.852-13.001,9.101-11.794,20.415
						L740.31,292.942z M748.027,299.531c6.772,5.072-0.841,15.42-7.653,10.319C733.513,304.714,741.341,294.527,748.027,299.531z"/>
				</g>
				<g>
					<path fill="#8341FB" d="M763.752,642.617c-2.885-9.056-2.896-15.752-0.624-24.062c6.996-27.169-14.01-33.155-23.072-22.288
						c-6.896,8.27,3.078,3.612,8.383,7.827c3.167,2.516,5.196,8.711,2.844,13.145c-2.365,4.456-9.65,7.54-15.494,4.008
						c-6.441-3.892-10.203-15.917-3.42-26.308c13.282-20.346,52.914-19.414,52.26,6.812c-0.403,15.901-20.082,19.544-14.774,38.921
						L763.752,642.617z M779.069,651.916c13.239,6.922,2.901,27.112-10.415,20.153C755.241,665.06,765.998,645.087,779.069,651.916z
						"/>
				</g>
				<g>
					<path fill="#9B13BD" d="M482.576,627.96c-6.622-11.612-8.598-20.819-7.907-32.915c1.664-39.422-28.984-41.503-38.265-23.899
						c-7.064,13.396,5.291,4.067,13.824,8.311c5.093,2.533,9.699,10.46,7.762,17.248c-1.947,6.823-11.065,13.199-20.139,10.052
						c-10-3.466-18.698-18.905-12.411-35.185c12.31-31.878,67.099-42.205,73.881-5.939c4.104,21.99-21.898,32.766-8.921,57.865
						L482.576,627.96z M506.369,636.264c20.238,5.643,11.933,36.445-8.423,30.772C477.443,661.324,486.39,630.7,506.369,636.264z"/>
				</g>
				<g>
					<path fill="#E33707" d="M406.473,592.77c5.076,10.893,6.168,19.288,4.656,30.075c-4.4,35.198,22.907,39.324,32.521,24.237
						c7.317-11.481-4.441-4.035-11.773-8.467c-4.376-2.646-7.918-10.088-5.682-16.027c2.248-5.969,10.888-11.009,18.786-7.52
						c8.704,3.843,15.358,18.318,8.524,32.441c-13.382,27.654-63.233,32.864-66.634-0.13c-2.055-20.005,22.038-27.742,12.263-51.188
						L406.473,592.77z M385.768,583.574c-17.717-6.549-8.003-33.534,9.817-26.95C413.535,563.255,403.258,590.034,385.768,583.574z"
						/>
				</g>
				<g>
					<path fill="#490D07" d="M115.984,424.142c-11.733-0.02-19.609-2.529-28.522-8.33c-29.304-18.459-44.254,3.98-34.892,18.727
						c7.124,11.223,5.406-2.257,12.36-6.906c4.151-2.775,12.198-2.827,16.524,1.609c4.348,4.459,5.229,14.184-1.125,19.725
						c-7.001,6.106-22.555,5.999-32.215-5.889c-18.915-23.279-2.89-69.518,27.694-58.87c18.541,6.463,15.411,30.97,40.19,32.03
						L115.984,424.142z M132.686,409.639c13.124-12.956,32.966,6.802,19.768,19.835
						C139.162,442.602,119.735,422.432,132.686,409.639z"/>
				</g>
				<g>
					<path fill="#97C369" d="M831.056,395.738c0.02,6.729-1.397,11.252-4.7,16.378c-10.507,16.854,2.401,25.367,10.833,19.959
						c6.417-4.116-1.309-3.094-3.994-7.069c-1.603-2.373-1.654-6.987,0.878-9.48c2.545-2.505,8.12-3.037,11.314,0.592
						c3.52,3.998,3.501,12.918-3.291,18.49c-13.298,10.91-39.858,1.844-33.834-15.723c3.656-10.65,17.718-8.921,18.26-23.133
						L831.056,395.738z M822.694,386.199c-7.465-7.491,3.812-18.923,11.322-11.389C841.58,382.397,830.065,393.592,822.694,386.199z
						"/>
				</g>
				<g>
					<path fill="#AB7761" d="M546.563,363.266c-3.411,2.481-6.229,3.421-10.046,3.626c-12.42,0.851-12.005,10.534-6.162,12.831
						c4.447,1.749,1.091-1.801,2.125-4.624c0.617-1.685,2.942-3.406,5.138-3.035c2.207,0.373,4.524,3.01,3.853,5.965
						c-0.739,3.257-5.277,6.522-10.601,5.117c-10.425-2.75-15.572-19.571-4.435-22.961c6.753-2.053,11.038,5.726,18.456,0.782
						L546.563,363.266z M548.339,355.516c1.065-6.543,11.013-5.011,9.943,1.569C557.205,363.714,547.29,361.975,548.339,355.516z"/>
				</g>
				<g>
					<path fill="#0307EB" d="M118.006,547.769c-7.414,9.114-14.331,13.657-24.464,16.932c-32.835,11.154-24.809,36.931-7.435,38.947
						c13.221,1.535,1.653-5.628,2.422-13.968c0.459-4.978,5.493-11.27,11.67-11.838c6.21-0.571,14.33,4.877,14.633,13.313
						c0.335,9.296-9.556,21.326-24.894,21.344c-30.033,0.034-55.894-41.587-28.327-58.661c16.718-10.346,33.806,7.541,50.254-11.064
						L118.006,547.769z M117.257,525.633c-1.802-18.377,26.078-21.352,27.893-2.869
						C146.979,541.381,119.041,543.773,117.257,525.633z"/>
				</g>
				<g>
					<path fill="#B3A19D" d="M441.248,352.772c-8.398,10.492-16.269,15.752-27.829,19.59c-37.458,13.057-28.042,42.47-8.151,44.618
						c15.137,1.636,1.84-6.453,2.643-16c0.48-5.699,6.18-12.941,13.242-13.648c7.098-0.709,16.436,5.448,16.859,15.095
						c0.468,10.63-10.737,24.481-28.281,24.641c-34.354,0.312-64.313-47.061-32.936-66.843
						c19.029-11.986,38.738,8.319,57.384-13.112L441.248,352.772z M440.19,327.459c-2.228-21.005,29.635-24.661,31.879-3.535
						C474.331,345.203,442.395,348.193,440.19,327.459z"/>
				</g>
				<g>
					<path fill="#B16F85" d="M315.013,344.448c7.046-3.263,12.472-3.956,19.439-2.962c22.736,2.897,25.444-14.74,15.71-20.976
						c-7.407-4.746-2.614,2.863-5.489,7.594c-1.716,2.824-6.53,5.101-10.364,3.647c-3.854-1.462-7.097-7.052-4.83-12.15
						c2.497-5.618,11.86-9.895,20.974-5.458c17.848,8.689,21.137,40.907-0.186,43.054c-12.929,1.297-17.891-14.282-33.055-8.002
						L315.013,344.448z M309.039,357.813c-4.259,11.437-21.68,5.119-17.398-6.385C295.953,339.84,313.24,346.521,309.039,357.813z"
						/>
				</g>
				<g>
					<path fill="#D1EB65" d="M798.55,474.737c11.437,3.061,18.466,7.549,25.654,15.517c23.791,25.596,44.186,7.59,38.879-9.217
						c-4.038-12.79-5.857,0.8-13.843,3.531c-4.767,1.63-12.628-0.405-15.697-5.852c-3.084-5.475-1.422-15.187,6.21-18.943
						c8.41-4.14,23.549-0.003,29.888,14.094c12.411,27.603-15.202,68.54-42.266,50.228c-16.405-11.109-7-34.195-30.888-41.651
						L798.55,474.737z M778.504,484.55c-16.156,9.232-30.383-15.179-14.135-24.467C780.734,450.727,794.449,475.432,778.504,484.55z
						"/>
				</g>
				<g>
					<path fill="#A385BB" d="M829.539,713.465c-0.75,3.711-2.044,6.044-4.445,8.496c-7.699,8.101-1.548,14.255,3.712,12.228
						c4.003-1.542-0.371-1.854-1.401-4.349c-0.615-1.489-0.121-4.039,1.557-5.126c1.687-1.093,4.82-0.755,6.17,1.607
						c1.488,2.602,0.467,7.517-3.907,9.819c-8.565,4.508-22.179-3.495-16.87-12.497c3.221-5.456,10.776-2.912,12.683-10.685
						L829.539,713.465z M826.01,707.261c-3.267-4.974,4.243-9.999,7.53-4.997C836.85,707.303,829.236,712.17,826.01,707.261z"/>
				</g>
				<g>
					<path fill="#CBA1D5" d="M475.424,284.372c-4.045-1.412-6.462-3.221-8.841-6.291c-7.898-9.878-15.743-3.928-14.28,2.28
						c1.113,4.725,2.135-0.131,5.091-0.902c1.764-0.46,4.547,0.486,5.508,2.534c0.966,2.059,0.105,5.52-2.751,6.67
						c-3.147,1.268-8.5-0.633-10.408-5.891c-3.737-10.297,7.331-24.328,16.606-16.991c5.622,4.451,1.606,12.53,10.027,15.864
						L475.424,284.372z M482.923,281.37c6.08-2.897,10.558,6.296,4.443,9.211C481.208,293.517,476.923,284.231,482.923,281.37z"/>
				</g>
				<g>
					<path fill="#9BF961" d="M85.669,715.505c5.929-1.664,10.265-1.52,15.594,0.139c17.434,5.143,21.784-8.323,14.952-14.436
						c-5.199-4.652-2.408,1.911-5.258,5.251c-1.701,1.994-5.758,3.168-8.576,1.545c-2.832-1.632-4.665-6.418-2.245-10.123
						c2.665-4.083,10.536-6.247,17.112-1.621c12.875,9.06,11.376,34.7-5.59,33.685c-10.287-0.62-12.202-13.444-24.868-10.445
						L85.669,715.505z M79.302,725.213c-4.781,8.416-17.621,1.267-12.814-7.199C71.33,709.487,84.019,716.904,79.302,725.213z"/>
				</g>
				<g>
					<path fill="#8F0F15" d="M646.762,711.62c4.705-0.878,8.051-0.466,12.061,1.186c13.139,5.187,17.438-4.936,12.572-10.14
						c-3.703-3.961-1.996,1.313-4.433,3.701c-1.454,1.426-4.676,2.054-6.745,0.602c-2.079-1.459-3.167-5.291-1.038-7.991
						c2.345-2.976,8.588-4.107,13.357-0.071c9.339,7.903,6.405,27.647-6.657,25.687c-7.919-1.191-8.515-11.25-18.527-9.805
						L646.762,711.62z M641.162,718.694c-4.283,6.184-13.727-0.238-9.421-6.458C636.078,705.971,645.388,712.589,641.162,718.694z"
						/>
				</g>
				<g>
					<path fill="#BB4567" d="M916.284,642.298c3.454,1.113,5.537,2.595,7.616,5.144c6.891,8.201,13.411,3.002,12.044-2.225
						c-1.04-3.978-1.805,0.155-4.292,0.868c-1.484,0.426-3.86-0.318-4.716-2.033c-0.86-1.724-0.202-4.671,2.192-5.704
						c2.638-1.138,7.21,0.361,8.934,4.774c3.376,8.641-5.706,20.75-13.711,14.728c-4.852-3.653-1.618-10.576-8.817-13.226
						L916.284,642.298z M909.996,644.995c-5.088,2.578-9.069-5.113-3.952-7.707C911.198,634.674,915.018,642.448,909.996,644.995z"
						/>
				</g>
				<g>
					<path fill="#A93767" d="M625.922,759.989c-10.74,0.212-17.997-1.931-26.268-7.066c-27.183-16.321-40.427,4.509-31.569,17.823
						c6.74,10.132,4.904-2.172,11.177-6.563c3.745-2.621,11.109-2.826,15.156,1.149c4.067,3.996,5.064,12.88-0.644,18.075
						c-6.288,5.726-20.526,5.932-29.601-4.76c-17.768-20.936-4.006-63.571,24.195-54.424c17.096,5.552,14.711,28.044,37.411,28.529
						L625.922,759.989z M640.924,746.387c11.759-12.115,30.306,5.581,18.481,17.768C647.496,776.431,629.321,758.35,640.924,746.387
						z"/>
				</g>
				<g>
					<path fill="#6B7519" d="M193.164,598.432c5.333,7.402,7.34,13.508,7.745,21.767c1.719,26.875,22.67,26.072,27.696,13.455
						c3.826-9.602-3.885-2.378-9.983-4.642c-3.64-1.351-7.338-6.398-6.515-11.145c0.829-4.771,6.556-9.757,12.942-8.277
						c7.037,1.63,14.056,11.479,10.966,22.983c-6.051,22.524-42.488,33.492-49.712,9.369c-4.374-14.627,12.494-23.82,1.873-39.917
						L193.164,598.432z M176.416,594.515c-14.143-2.367-10.732-23.872,3.493-21.493
						C194.237,575.417,190.377,596.848,176.416,594.515z"/>
				</g>
				<g>
					<path fill="#BFC15D" d="M1037.414,393.555c-2.911,2.087-5.31,2.87-8.554,3.021c-10.554,0.651-10.257,8.878-5.308,10.863
						c3.767,1.511,0.937-1.523,1.832-3.915c0.534-1.428,2.519-2.876,4.382-2.548c1.873,0.33,3.825,2.583,3.238,5.089
						c-0.646,2.762-4.52,5.509-9.034,4.285c-8.839-2.396-13.112-16.713-3.634-19.527c5.747-1.704,9.342,4.927,15.671,0.771
						L1037.414,393.555z M1038.967,386.983c0.942-5.551,9.383-4.193,8.436,1.391C1046.45,393.997,1038.039,392.462,1038.967,386.983
						z"/>
				</g>
				<g>
					<path fill="#27FBB9" d="M382.922,139.085c-4.379-1.19-7.066-2.92-9.809-5.984c-9.081-9.844-16.924-2.973-14.914,3.476
						c1.529,4.908,2.246-0.298,5.31-1.333c1.829-0.618,4.839,0.174,6.007,2.265c1.174,2.103,0.523,5.823-2.407,7.251
						c-3.229,1.574-9.025-0.033-11.434-5.445c-4.717-10.597,5.925-26.246,16.271-19.189c6.271,4.281,2.633,13.115,11.778,16.008
						L382.922,139.085z M390.619,135.353c6.205-3.515,11.623,5.861,5.382,9.397C389.716,148.313,384.495,138.825,390.619,135.353z"
						/>
				</g>
				<g>
					<path fill="#337FEB" d="M301.039,284.441c9.251-6.416,16.829-8.757,27.028-9.073c33.197-1.525,32.671-27.392,17.214-33.874
						c-11.762-4.933-3.02,4.741-5.948,12.214c-1.748,4.461-8.057,8.912-13.895,7.791c-5.868-1.128-11.893-8.305-9.926-16.151
						c2.167-8.646,14.475-17.088,28.599-13.02c27.657,7.965,40.381,53.165,10.458,61.543c-18.144,5.073-29.112-15.943-49.208-3.196
						L301.039,284.441z M295.835,305.018c-3.234,17.397-29.691,12.712-26.441-4.786
						C272.667,282.607,299.023,287.844,295.835,305.018z"/>
				</g>
				<g>
					<path fill="#713D69" d="M400.229,689.339c12.27,0.901,20.319,4.115,29.206,10.852c29.265,21.504,46.584-0.844,37.898-16.97
						c-6.61-12.272-5.823,1.955-13.445,6.296c-4.55,2.591-12.97,2.042-17.162-2.922c-4.213-4.99-4.405-15.228,2.656-20.546
						c7.781-5.861,24.04-4.583,33.252,8.576c18.038,25.766-2.191,72.926-33.38,59.495c-18.907-8.15-13.796-33.547-39.632-36.514
						L400.229,689.339z M381.672,703.256c-14.698,12.566-33.969-9.587-19.188-22.228
						C377.372,668.293,396.178,690.847,381.672,703.256z"/>
				</g>
				<g>
					<path fill="#B76703" d="M921.09,499.413c-4.145-12.842-4.198-22.347-1.017-34.157c9.784-38.611-20.07-46.995-32.876-31.517
						c-9.746,11.778,4.389,5.112,11.944,11.067c4.51,3.555,7.424,12.339,4.109,18.647c-3.333,6.34-13.659,10.757-21.976,5.774
						c-9.166-5.49-14.572-22.542-4.999-37.331c18.746-28.958,75.017-27.849,74.231,9.387c-0.485,22.577-28.404,27.856-20.763,55.337
						L921.09,499.413z M942.886,512.532c18.833,9.755,4.266,38.476-14.677,28.668C909.128,531.322,924.292,502.908,942.886,512.532z
						"/>
				</g>
				<g>
					<path fill="#07B57F" d="M68.465,481.146c1.043,6.196,0.426,10.578-1.836,15.805c-7.113,17.127,6.075,23.004,13.019,16.738
						c5.285-4.769-1.677-2.651-4.756-5.904c-1.838-1.942-2.588-6.185-0.635-8.868c1.963-2.696,7.018-4.034,10.514-1.177
						c3.852,3.148,5.192,11.368-0.216,17.535c-10.59,12.076-36.439,7.768-33.564-9.333c1.747-10.368,14.965-10.916,13.3-24.092
						L68.465,481.146z M59.309,473.632c-8.018-5.765,0.631-18.014,8.696-12.217C76.129,467.253,67.225,479.32,59.309,473.632z"/>
				</g>
				<g>
					<path fill="#A1750B" d="M290.834,771.487c-2.793-13.245-1.851-22.734,2.558-34.183c13.799-37.496-15.108-48.984-29.503-34.881
						c-10.955,10.731,3.844,5.559,10.758,12.29c4.127,4.018,6.116,13.087,2.149,19.032c-3.988,5.976-14.752,9.304-22.528,3.462
						c-8.57-6.436-12.18-24.013-1.083-37.766c21.731-26.929,77.754-19.938,73.075,17.128c-2.845,22.473-31.25,24.82-26.502,53.035
						L290.834,771.487z M311.207,786.855c17.768,11.702,0.232,38.832-17.641,27.065C275.563,802.07,293.664,775.309,311.207,786.855
						z"/>
				</g>
				<g>
					<path fill="#7D1711" d="M297.358,556.426c10.833,3.777,17.305,8.617,23.681,16.832c21.159,26.439,42.158,10.499,38.232-6.124
						c-2.987-12.65-5.717,0.354-13.63,2.421c-4.724,1.234-12.174-1.296-14.75-6.779c-2.589-5.512-0.287-14.779,7.358-17.862
						c8.424-3.398,22.758,1.683,27.875,15.76c10.018,27.564-19.599,65.148-44.442,45.514c-15.058-11.91-4.316-33.547-26.868-42.463
						L297.358,556.426z M277.282,564.474c-16.274,7.765-28.276-16.844-11.908-24.656
						C281.859,531.948,293.345,556.805,277.282,564.474z"/>
				</g>
				<g>
					<path fill="#DF0F27" d="M174.301,238.689c8.396,2.596,13.482,6.125,18.587,12.24c16.919,19.664,32.56,6.888,29.101-5.73
						c-2.631-9.602-4.367,0.427-10.368,2.225c-3.582,1.073-9.355-0.66-11.476-4.788c-2.132-4.149-0.623-11.306,5.146-13.874
						c6.356-2.831,17.468,0.668,21.768,11.305c8.42,20.829-13.228,50.407-32.781,36.054c-11.852-8.707-4.219-25.564-21.726-31.775
						L174.301,238.689z M159.152,245.397c-12.247,6.388-22.105-12.124-9.788-18.551C161.769,220.373,171.24,239.088,159.152,245.397
						z"/>
				</g>
				<g>
					<path fill="#DB6749" d="M972.451,463.879c3.148-7.151,6.783-11.284,12.704-15.17c19.091-12.941,9.401-28.057-2.097-26.288
						c-8.749,1.346-0.068,3.901,0.909,9.385c0.583,3.274-1.536,8.196-5.398,9.649c-3.882,1.46-10.049-0.602-11.73-5.958
						c-1.853-5.902,2.369-15.361,12.203-18.076c19.255-5.315,43.175,16.818,28.505,32.627c-8.898,9.582-23.009,1.122-30.278,15.953
						L972.451,463.879z M976.834,477.943c4.395,11.468-12.96,18.289-17.382,6.756C954.997,473.082,972.492,466.624,976.834,477.943z
						"/>
				</g>
				<g>
					<path fill="#795139" d="M646.856,301.299c7.706-7.936,14.569-11.627,24.344-13.862c31.719-7.752,26.318-32.592,10.189-35.917
						c-12.274-2.531-2.015,5.142-3.424,12.902c-0.841,4.632-6.082,10.118-11.924,10.141c-5.872,0.023-13.038-5.757-12.626-13.694
						c0.453-8.747,10.723-19.214,25.111-17.965c28.173,2.447,48.994,43.62,21.728,57.36c-16.535,8.324-31.086-9.864-48.05,6.229
						L646.856,301.299z M645.731,322.123c0.173,17.386-26.222,17.875-26.399,0.388C619.153,304.899,645.555,304.961,645.731,322.123
						z"/>
				</g>
				<g>
					<path fill="#97EB11" d="M948.987,624.503c-8.561-9.753-12.236-18.124-13.937-29.763c-6.102-37.818-35.657-33.822-41.052-15.27
						c-4.107,14.118,5.826,2.837,14.768,5.21c5.338,1.417,11.264,8.058,10.745,14.891c-0.522,6.869-7.951,14.71-17.194,13.486
						c-10.187-1.347-21.468-14.335-18.663-31.045c5.493-32.718,55.588-53.221,69.109-20.051c8.19,20.114-14.439,35.432,2.796,56.774
						L948.987,624.503z M973.235,627.763c20.348,1.422,18.454,32.335-2.012,30.909C950.609,657.236,953.148,626.366,973.235,627.763
						z"/>
				</g>
				<g>
					<path fill="#51B133" d="M565.378,64.392c2.572-5.078,5.38-7.942,9.841-10.535c14.399-8.661,7.945-20.04-0.488-19.207
						c-6.418,0.634-0.203,2.835,0.291,6.863c0.295,2.405-1.441,5.902-4.307,6.807c-2.882,0.909-7.287-0.834-8.299-4.797
						c-1.115-4.367,2.33-11.081,9.59-12.669c14.217-3.108,30.746,13.938,19.451,24.86c-6.851,6.62-16.783-0.091-22.656,10.411
						L565.378,64.392z M568.011,74.796c2.745,8.516-10.15,12.794-12.912,4.229C552.317,70.399,565.299,66.39,568.011,74.796z"/>
				</g>
				<g>
					<path fill="#33A173" d="M459.767,117.652c-2.534,3.085-4.892,4.618-8.34,5.714c-11.175,3.737-8.49,12.509-2.589,13.222
						c4.49,0.543,0.571-1.91,0.845-4.742c0.164-1.691,1.885-3.821,3.985-4.004c2.111-0.184,4.861,1.68,4.951,4.547
						c0.099,3.159-3.282,7.231-8.493,7.212c-10.205-0.037-18.926-14.221-9.531-19.979c5.697-3.489,11.475,2.617,17.094-3.678
						L459.767,117.652z M459.548,110.129c-0.583-6.248,8.896-7.213,9.483-0.93C469.623,115.529,460.125,116.296,459.548,110.129z"/>
				</g>
				<g>
					<path fill="#17BFBD" d="M680.576,60.084c-4.313-0.264-7.153-1.358-10.302-3.686c-10.369-7.426-16.355,0.496-13.236,6.121
						c2.374,4.281,2.037-0.712,4.694-2.268c1.587-0.929,4.546-0.772,6.039,0.953c1.501,1.734,1.612,5.329-0.845,7.226
						c-2.707,2.092-8.422,1.712-11.714-2.869c-6.444-8.971,0.457-25.618,11.467-21.035c6.674,2.781,4.988,11.721,14.073,12.653
						L680.576,60.084z M687.033,55.117c5.108-4.476,11.97,3.221,6.833,7.724C688.693,67.376,681.992,59.537,687.033,55.117z"/>
				</g>
				<g>
					<path fill="#2B1BF5" d="M411.008,283.439c-0.039,4.101-0.937,6.846-2.989,9.946c-6.531,10.192,1.271,15.478,6.45,12.245
						c3.942-2.459-0.774-1.895-2.38-4.338c-0.959-1.458-0.955-4.271,0.607-5.771c1.57-1.508,4.972-1.789,6.891,0.447
						c2.115,2.463,2.035,7.899-2.146,11.243c-8.187,6.548-24.304,0.821-20.5-9.839c2.309-6.462,10.866-5.302,11.303-13.959
						L411.008,283.439z M405.984,277.562c-4.492-4.622,2.467-11.503,6.986-6.855C417.523,275.389,410.42,282.124,405.984,277.562z"
						/>
				</g>
				<g>
					<path fill="#57E785" d="M535.903,606.005c-1.715-11.123-0.501-18.958,3.68-28.263c13.164-30.501-10.312-41.354-22.905-30.301
						c-9.583,8.41,2.938,4.79,8.372,10.693c3.244,3.524,4.482,11.143,0.917,15.899c-3.583,4.78-12.671,7.052-18.86,1.849
						c-6.822-5.733-9.019-20.49,0.821-31.402c19.267-21.367,65.459-13.012,59.887,17.547c-3.385,18.527-27.074,19.182-24.417,42.823
						L535.903,606.005z M552.117,619.691c14.218,10.524-1.575,32.249-15.878,21.667C521.833,630.7,538.079,609.307,552.117,619.691z
						"/>
				</g>
				<g>
					<path fill="#13FB61" d="M159.896,370.632c-4.764,2.132-8.416,2.551-13.091,1.823c-15.256-2.143-17.228,9.687-10.74,13.962
						c4.937,3.253,1.781-1.902,3.755-5.056c1.178-1.883,4.433-3.372,6.997-2.362c2.577,1.016,4.709,4.801,3.141,8.207
						c-1.727,3.754-8.056,6.548-14.144,3.487c-11.92-5.994-13.853-27.676,0.497-28.935c8.701-0.76,11.901,9.753,22.147,5.663
						L159.896,370.632z M164.026,361.702c2.961-7.65,14.615-3.254,11.638,4.441C172.666,373.894,161.106,369.254,164.026,361.702z"
						/>
				</g>
				<g>
					<path fill="#D14953" d="M380.879,803.624c-5.289-11.11-6.477-19.695-5.02-30.752c4.208-36.074-23.783-40.068-33.5-24.54
						c-7.395,11.816,4.581,4.093,12.124,8.569c4.503,2.672,8.192,10.261,5.953,16.361c-2.251,6.13-11.054,11.363-19.17,7.858
						c-8.944-3.862-15.878-18.625-9-33.142c13.467-28.425,64.462-34.179,68.222-0.428c2.272,20.464-22.329,28.588-12.123,52.51
						L380.879,803.624z M402.155,812.865c18.194,6.556,8.476,34.265-9.824,27.674C373.898,833.902,384.194,806.399,402.155,812.865z
						"/>
				</g>
				<g>
					<path fill="#53FB1B" d="M1054.27,478.274c-3.716,0.538-6.326,0.108-9.417-1.316c-10.135-4.487-13.828,3.311-10.18,7.547
						c2.776,3.223,1.607-0.965,3.594-2.76c1.186-1.071,3.731-1.46,5.307-0.257c1.583,1.21,2.313,4.249,0.558,6.298
						c-1.934,2.258-6.864,2.945-10.474-0.372c-7.068-6.494-4.137-21.879,6.041-19.924c6.17,1.187,6.315,9.092,14.21,8.279
						L1054.27,478.274z M1058.886,472.907c3.555-4.711,10.754,0.626,7.179,5.365
						C1062.465,483.045,1055.378,477.558,1058.886,472.907z"/>
				</g>
				<g>
					<path fill="#E70F7B" d="M832.758,174.114c10.46,6.274,16.151,12.713,21.011,22.643c16.309,32.099,41.615,20.046,41.124,1.894
						c-0.373-13.814-6.028-0.868-14.712-0.428c-5.184,0.263-12.393-3.982-13.889-10.247c-1.503-6.298,2.897-15.447,11.522-17.003
						c9.504-1.716,23.327,6.674,25.609,22.434c4.467,30.861-34.491,63.579-56.106,37.768c-13.1-15.654,2.762-35.855-18.786-50.014
						L832.758,174.114z M810.119,178.15c-18.621,4.564-25.792-23.649-7.064-28.242C821.918,145.281,828.499,173.64,810.119,178.15z"
						/>
				</g>
				<g>
					<path fill="#B33DC1" d="M119.452,297.266c7.798-1.328,13.317-0.562,19.901,2.273c21.579,8.913,28.946-7.704,21.04-16.431
						c-6.016-6.641-3.333,2.118-7.422,6.001c-2.44,2.318-7.781,3.273-11.162,0.82c-3.399-2.465-5.096-8.826-1.508-13.233
						c3.953-4.857,14.299-6.564,22.076,0.229c15.228,13.303,9.868,45.855-11.669,42.278c-13.057-2.174-13.779-18.813-30.363-16.685
						L119.452,297.266z M110.014,308.811c-7.238,10.108-22.679-0.75-15.401-10.918C101.944,287.652,117.156,298.831,110.014,308.811
						z"/>
				</g>
				<g>
					<path fill="#C50013" d="M723.082,822.165c-9.096-6.632-13.795-13.02-17.442-22.549c-12.338-30.853-36.596-21.865-37.644-5.139
						c-0.798,12.728,5.469,1.296,13.488,1.609c4.787,0.187,11.062,4.684,11.919,10.566c0.861,5.913-3.94,13.959-11.996,14.676
						c-8.878,0.792-20.89-8.062-21.685-22.737c-1.556-28.736,36.958-55.591,54.693-30.079c10.747,15.472-5.501,32.729,13.135,47.525
						L723.082,822.165z M744.224,820.325c17.493-2.656,21.753,23.869,4.159,26.544C730.663,849.564,726.957,822.952,744.224,820.325
						z"/>
				</g>
				<g>
					<path fill="#E1977B" d="M67.41,659.072c2.217,4.067,2.841,7.27,2.521,11.456c-0.838,13.647,9.766,14.571,13.098,8.534
						c2.536-4.594-1.806-1.444-4.734-2.971c-1.748-0.911-3.291-3.688-2.575-6.027c0.72-2.351,3.921-4.499,7.044-3.349
						c3.441,1.267,6.352,6.674,4.066,12.272c-4.477,10.962-23.527,14.176-25.635,1.567c-1.276-7.646,7.804-11.206,3.475-19.988
						L67.41,659.072z M59.223,656.036c-6.974-2.09-3.892-12.705,3.122-10.605C69.411,647.546,66.107,658.097,59.223,656.036z"/>
				</g>
				<g>
					<path fill="#91F7EB" d="M572.628,132.245c8.644-5.417,15.601-7.217,24.846-7.074c30.111,0.017,30.724-23.417,17.007-29.934
						c-10.438-4.96-2.933,4.164-5.898,10.804c-1.77,3.964-7.668,7.727-12.905,6.466c-5.264-1.268-10.415-8.017-8.304-15.036
						c2.325-7.735,13.821-14.857,26.433-10.58c24.697,8.374,34.31,49.82,6.874,56.143c-16.636,3.828-25.678-15.656-44.404-4.964
						L572.628,132.245z M567.051,150.65c-3.66,15.61-27.409,10.256-23.73-5.445C547.025,129.391,570.66,135.24,567.051,150.65z"/>
				</g>
				<g>
					<path fill="#9D0D6B" d="M717.846,358.751c11.369,7.393,17.431,14.777,22.43,26.006c16.823,36.322,45.427,23.953,45.614,3.765
						c0.143-15.363-6.662-1.208-16.329-1.069c-5.77,0.083-13.608-4.924-15.017-11.946c-1.415-7.058,3.843-17.045,13.488-18.425
						c10.629-1.523,25.648,8.357,27.546,25.959c3.717,34.468-40.888,69.247-63.862,39.697
						c-13.922-17.922,4.516-39.725-18.852-56.327L717.846,358.751z M692.531,362.322c-20.873,4.318-27.701-27.317-6.708-31.664
						C706.967,326.279,713.133,358.053,692.531,362.322z"/>
				</g>
				<g>
					<path fill="#F9A7CB" d="M1007.618,356.264c-12.107,2.915-20.857,2.298-31.501-1.456
						c-34.842-11.707-44.648,15.177-31.302,28.044c10.155,9.793,5.011-3.68,11.02-10.215c3.587-3.901,11.874-5.967,17.445-2.475
						c5.6,3.511,8.942,13.321,3.774,20.625c-5.693,8.049-21.762,11.83-34.7,1.985c-25.333-19.277-20.372-70.977,13.835-67.646
						c20.74,2.027,23.643,28.086,49.464,22.98L1007.618,356.264z M1021.216,337.127c10.295-16.646,35.703-1.231,25.351,15.512
						C1036.142,369.505,1011.059,353.561,1021.216,337.127z"/>
				</g>
				<g>
					<path fill="#879189" d="M969.19,737.217c-2.315-9.668-1.813-16.653,1.195-25.147c9.382-27.804-12.07-35.66-22.356-25.019
						c-7.828,8.097,2.933,4.004,8.143,8.808c3.11,2.868,4.752,9.485,1.958,13.93c-2.809,4.467-10.644,7.125-16.47,2.992
						c-6.42-4.554-9.422-17.386-1.549-27.704c15.416-20.204,56.685-16.19,53.99,11.116c-1.64,16.555-22.447,18.846-18.398,39.465
						L969.19,737.217z M984.454,748.093c13.278,8.236,0.946,28.504-12.41,20.222C958.59,759.975,971.344,739.967,984.454,748.093z"
						/>
				</g>
				<g>
					<path fill="#FBF555" d="M591.115,546.061c4.467,1.865,7.07,4.068,9.547,7.689c8.242,11.672,17.49,5.49,16.258-1.611
						c-0.937-5.403-2.417,0.004-5.802,0.674c-2.021,0.4-5.095-0.854-6.041-3.229c-0.951-2.387,0.253-6.232,3.551-7.337
						c3.634-1.218,9.543,1.285,11.341,7.344c3.521,11.863-9.905,26.943-19.871,18.044c-6.041-5.398-0.968-14.239-10.241-18.565
						L591.115,546.061z M582.456,548.943c-7.051,2.858-11.482-7.81-4.391-10.686C585.208,535.359,589.416,546.119,582.456,548.943z"
						/>
				</g>
				<g>
					<path fill="#8FBD4D" d="M870.438,812.156c-7.481-4.547-11.538-9.191-14.985-16.339c-11.57-23.106-29.783-14.561-29.506-1.531
						c0.21,9.916,4.323,0.648,10.557,0.368c3.722-0.167,8.878,2.909,9.925,7.412c1.052,4.526-2.144,11.074-8.341,12.154
						c-6.828,1.192-16.714-4.887-18.285-16.208c-3.077-22.167,25.02-45.486,40.425-26.871c9.336,11.29-2.132,25.722,13.273,35.973
						L870.438,812.156z M886.703,809.354c13.383-3.197,18.412,17.081,4.952,20.299C878.097,832.895,873.493,812.514,886.703,809.354
						z"/>
				</g>
				<g>
					<path fill="#816B09" d="M266.637,633.984c5.597-2.264,9.837-2.594,15.21-1.556c17.546,3.12,20.324-10.473,13.004-15.688
						c-5.571-3.969-2.14,2.124-4.553,5.687c-1.441,2.127-5.267,3.711-8.189,2.435c-2.937-1.283-5.241-5.748-3.286-9.621
						c2.154-4.268,9.589-7.23,16.498-3.435c13.528,7.431,14.849,32.579-1.793,33.429c-10.091,0.512-13.348-11.777-25.365-7.48
						L266.637,633.984z M261.486,644.134c-3.746,8.719-17.033,3.146-13.267-5.625C252.012,629.675,265.181,635.526,261.486,644.134z
						"/>
				</g>
				<g>
					<path fill="#01694F" d="M468.199,809.737c5.405-2.646,9.598-3.273,15.013-2.619c17.665,1.865,19.469-11.845,11.823-16.514
						c-5.818-3.554-1.977,2.262-4.126,5.975c-1.283,2.216-4.975,4.061-7.97,2.998c-3.01-1.068-5.616-5.346-3.945-9.333
						c1.841-4.395,9.024-7.865,16.16-4.579c13.973,6.435,17.06,31.343,0.573,33.362c-9.996,1.22-14.101-10.768-25.745-5.649
						L468.199,809.737z M463.793,820.192c-3.109,8.933-16.712,4.328-13.587-4.657C453.354,806.485,466.859,811.373,463.793,820.192z
						"/>
				</g>
				<g>
					<path fill="#7137CD" d="M255.156,328.689c5.37,10.406,6.764,18.536,5.716,29.097c-2.899,34.442,23.848,37.385,32.616,22.317
						c6.673-11.466-4.482-3.753-11.795-7.78c-4.365-2.404-8.106-9.51-6.163-15.38c1.954-5.9,10.167-11.147,17.994-8.061
						c8.625,3.4,15.673,17.23,9.575,31.249c-11.941,27.45-60.271,34.483-64.88,2.494c-2.787-19.396,20.365-27.876,9.925-50.319
						L255.156,328.689z M234.636,320.55c-17.506-5.68-9.111-32.334,8.498-26.624C260.87,299.676,251.918,326.151,234.636,320.55z"/>
				</g>
				<g>
					<path fill="#9F4383" d="M361.583,84.056c6.245-1.432,10.743-1.065,16.198,0.926c17.859,6.218,23.054-7.557,16.261-14.252
						c-5.17-5.095-2.598,1.865-5.727,5.193c-1.867,1.987-6.142,3.003-8.989,1.175c-2.861-1.838-4.526-6.903-1.826-10.632
						c2.974-4.109,11.262-5.964,17.863-0.827c12.925,10.059,10.083,36.629-7.497,34.723c-10.658-1.159-12.006-14.582-25.318-12.1
						L361.583,84.056z M354.48,93.825c-5.39,8.506-18.374,0.433-12.955-8.123C346.983,77.084,359.798,85.427,354.48,93.825z"/>
				</g>
				<g>
					<path fill="#23D93F" d="M520.93,324.168c-3.645,3.536-6.845,5.135-11.361,6.026c-14.661,3.12-12.525,14.593-5.17,16.341
						c5.597,1.33,0.995-2.332,1.749-5.873c0.45-2.114,2.93-4.559,5.611-4.489c2.695,0.07,5.904,2.821,5.605,6.458
						c-0.328,4.007-5.185,8.669-11.77,7.898c-12.894-1.511-21.88-20.69-9.18-26.619c7.702-3.592,14.128,4.954,22.134-2.197
						L520.93,324.168z M521.732,314.628c0.16-7.98,12.278-7.841,12.119,0.185C533.691,322.898,521.577,322.506,521.732,314.628z"/>
				</g>
				<g>
					<path fill="#FDBFAD" d="M1054.458,424.62c-0.328,4.146-1.43,6.861-3.724,9.853c-7.326,9.852,0.196,15.75,5.665,12.844
						c4.161-2.211-0.65-1.972-2.103-4.557c-0.867-1.543-0.666-4.389,1.021-5.796c1.695-1.415,5.156-1.46,6.941,0.937
						c1.967,2.642,1.503,8.136-2.963,11.225c-8.745,6.049-24.65-0.88-20.05-11.398c2.792-6.376,11.368-4.6,12.42-13.329
						L1054.458,424.62z M1049.789,418.32c-4.22-4.993,3.306-11.465,7.551-6.444C1061.616,416.933,1053.956,423.247,1049.789,418.32z
						"/>
				</g>
				<g>
					<path fill="#2F596D" d="M516.805,736.204c6.634-12.365,13.718-19.258,24.861-25.39c35.986-20.507,20.742-48.923-0.089-47.358
						c-15.853,1.19-0.666,6.974,0.319,16.929c0.588,5.942-3.893,14.46-11.009,16.523c-7.154,2.074-17.909-2.478-20.172-12.303
						c-2.495-10.826,6.384-27.172,24.368-30.662c35.215-6.833,74.956,36.131,46.488,62.39
						c-17.266,15.914-41.352-1.199-56.435,24.341L516.805,736.204z M522.69,761.995c6.269,21.145-25.754,30.939-32.063,9.673
						C484.271,750.247,516.495,741.124,522.69,761.995z"/>
				</g>
				<g>
					<path fill="#AD6B5F" d="M301.155,433.626c3.509-2.05,6.302-2.68,9.981-2.508c11.99,0.382,12.526-8.942,7.145-11.708
						c-4.095-2.105-1.22,1.621-2.483,4.229c-0.754,1.556-3.149,2.982-5.219,2.414c-2.08-0.57-4.047-3.322-3.119-6.091
						c1.022-3.051,5.688-5.744,10.657-3.884c9.73,3.642,13.042,20.265,2.039,22.442c-6.672,1.317-10.03-6.554-17.62-2.529
						L301.155,433.626z M298.706,440.886c-1.652,6.17-11.042,3.743-9.381-2.463C290.996,432.171,300.334,434.794,298.706,440.886z"
						/>
				</g>
				<g>
					<path fill="#992B81" d="M244.431,552.17c2.472-11.598,6.599-18.861,14.199-26.462c24.378-25.118,5.315-44.592-11.224-38.417
						c-12.586,4.699,1.102,5.817,4.245,13.665c1.876,4.685,0.245,12.653-5.045,16.003c-5.318,3.367-15.119,2.206-19.269-5.236
						c-4.574-8.199-1.217-23.557,12.558-30.624c26.973-13.838,69.346,11.675,52.423,39.691
						c-10.267,16.983-33.845,8.765-40.073,33.045L244.431,552.17z M255.281,571.717c10.068,15.686-13.618,31.176-23.746,15.401
						C221.332,571.229,245.339,556.236,255.281,571.717z"/>
				</g>
				<g>
					<path fill="#791967" d="M241.938,783.881c1.512,5.009,1.462,8.695,0.142,13.25c-4.079,14.897,7.434,18.369,12.513,12.462
						c3.866-4.494-1.664-2.014-4.549-4.379c-1.722-1.412-2.787-4.839-1.455-7.26c1.339-2.433,5.375-4.07,8.563-2.076
						c3.513,2.196,5.483,8.847,1.662,14.51c-7.482,11.089-29.29,10.243-28.71-4.188c0.355-8.749,11.218-10.59,8.459-21.301
						L241.938,783.881z M233.585,778.634c-7.229-3.921-1.37-14.949,5.902-11.006C246.812,771.599,240.722,782.503,233.585,778.634z"
						/>
				</g>
				<g>
					<path fill="#65A36F" d="M177.096,807.833c4.409-1.53,7.695-1.62,11.802-0.61c13.423,3.091,16.097-7.295,10.648-11.605
						c-4.146-3.281-1.734,1.556-3.736,4.213c-1.195,1.586-4.21,2.66-6.416,1.562c-2.217-1.104-3.823-4.641-2.163-7.554
						c1.829-3.211,7.683-5.209,12.869-2.011c10.154,6.262,10.196,25.726-2.684,25.736c-7.809,0.003-9.846-9.61-19.29-6.76
						L177.096,807.833z M172.725,815.468c-3.23,6.585-13.271,1.766-10.023-4.858C165.974,803.939,175.912,808.967,172.725,815.468z"
						/>
				</g>
				<g>
					<path fill="#5BB35F" d="M561.385,455.151c-8.024,6.381-14.77,8.96-24.02,9.856c-30.074,3.365-28.055,26.838-13.624,31.807
						c10.982,3.782,2.462-4.488,4.677-11.453c1.323-4.158,6.79-8.579,12.162-7.907c5.4,0.675,11.302,6.838,9.982,14.085
						c-1.454,7.986-12.135,16.39-25.212,13.536c-25.606-5.59-39.862-45.904-13.171-55.3c16.185-5.691,27.404,12.752,44.905-0.029
						L561.385,455.151z M564.887,436.143c1.902-16.001,26.222-13.321,24.312,2.773C587.275,455.127,563.014,451.939,564.887,436.143
						z"/>
				</g>
				<g>
					<path fill="#DDDFBF" d="M548.571,210.012c-12.467,3.65-21.616,3.45-32.897,0.078c-36.898-10.434-45.754,18.075-31.196,30.806
						c11.078,9.689,5.035-4.089,10.965-11.202c3.54-4.246,12.07-6.819,18.052-3.462c6.013,3.375,9.992,13.428,4.977,21.3
						c-5.525,8.676-22.077,13.429-36.056,3.826c-27.373-18.804-24.821-72.925,10.991-71.187
						c21.713,1.062,26.057,28.068,52.704,21.441L548.571,210.012z M561.771,189.383c9.884-17.866,37.139-3.091,27.201,14.88
						C578.962,222.365,552.019,207.022,561.771,189.383z"/>
				</g>
				<g>
					<path fill="#1567F5" d="M654.437,362.351c1.426,4.737,1.377,8.222,0.125,12.529c-3.867,14.083,7.016,17.373,11.823,11.792
						c3.658-4.247-1.572-1.906-4.298-4.144c-1.627-1.336-2.632-4.577-1.371-6.865c1.268-2.3,5.085-3.844,8.098-1.957
						c3.32,2.079,5.178,8.369,1.562,13.721c-7.082,10.479-27.701,9.665-27.143-3.979c0.342-8.272,10.614-10.005,8.013-20.134
						L654.437,362.351z M646.542,357.384c-6.833-3.712-1.285-14.135,5.588-10.402C659.053,350.741,653.288,361.046,646.542,357.384z
						"/>
				</g>
				<g>
					<path fill="#EF49FB" d="M776.997,220.992c7.044,4.531,10.81,9.071,13.932,15.99c10.502,22.378,28.128,14.651,28.181,2.183
						c0.041-9.488-4.118-0.725-10.087-0.61c-3.563,0.069-8.419-2.999-9.311-7.33c-0.896-4.354,2.32-10.538,8.272-11.42
						c6.559-0.973,15.865,5.081,17.092,15.946c2.403,21.274-25.036,42.891-39.315,24.713c-8.653-11.024,2.665-24.547-11.818-34.726
						L776.997,220.992z M761.374,223.276c-12.877,2.732-17.192-16.784-4.241-19.533
						C770.177,200.972,774.084,220.576,761.374,223.276z"/>
				</g>
				<g>
					<path fill="#418D2D" d="M672.887,540.958c-3.977-0.669-6.505-1.964-9.2-4.434c-8.893-7.912-15.228-1.148-12.886,4.38
						c1.782,4.207,1.96-0.46,4.58-1.644c1.564-0.707,4.295-0.27,5.511,1.478c1.223,1.757,0.972,5.104-1.495,6.624
						c-2.718,1.675-7.985,0.761-10.589-3.815c-5.099-8.96,2.943-23.732,12.711-18.396c5.921,3.237,3.477,11.369,11.818,13.127
						L672.887,540.958z M679.368,536.983c5.181-3.652,10.792,4.167,5.583,7.84C679.703,548.524,674.255,540.589,679.368,536.983z"/>
				</g>
				<g>
					<path fill="#BD613D" d="M808.204,128.323c-13.228-3.663-21.333-8.936-29.586-18.246c-27.326-29.913-51.151-9.241-45.167,10.297
						c4.554,14.869,6.798-0.869,16.084-3.955c5.543-1.842,14.636,0.596,18.139,6.941c3.521,6.378,1.497,17.622-7.389,21.899
						c-9.792,4.715-27.302-0.232-34.51-16.638c-14.113-32.126,18.31-79.309,49.503-57.809c18.908,13.043,7.773,39.714,35.394,48.597
						L808.204,128.323z M831.543,117.147c18.823-10.541,35.073,17.901,16.143,28.507
						C828.619,156.337,812.965,127.558,831.543,117.147z"/>
				</g>
				<g>
					<path fill="#CB2763" d="M423.178,190.513c-1.573,3.883-3.456,6.155-6.567,8.332c-10.025,7.238-4.592,15.185,1.542,14.054
						c4.667-0.86-0.026-2.091-0.636-5.015c-0.365-1.745,0.693-4.417,2.739-5.257c2.057-0.844,5.395,0.163,6.381,3.007
						c1.087,3.134-1.025,8.27-6.252,9.881c-10.234,3.155-23.405-8.326-15.795-17.031c4.616-5.276,12.313-0.967,15.972-9.031
						L423.178,190.513z M420.606,183.046c-2.537-6.076,6.655-10.007,9.208-3.897C432.386,185.304,423.113,189.043,420.606,183.046z"
						/>
				</g>
				<g>
					<path fill="#A95723" d="M650.338,682.407c-5.875-1.953-9.405-4.514-12.91-8.896c-11.625-14.1-22.831-5.334-20.582,3.605
						c1.711,6.802,3.082-0.236,7.336-1.413c2.539-0.703,6.579,0.604,8.012,3.542c1.44,2.954,0.271,7.972-3.83,9.696
						c-4.519,1.9-12.293-0.729-15.165-8.285c-5.622-14.795,10.064-35.307,23.623-24.908c8.219,6.308,2.593,18.068,14.831,22.702
						L650.338,682.407z M661.107,677.907c8.721-4.318,15.39,8.867,6.619,13.211C658.893,695.494,652.5,682.172,661.107,677.907z"/>
				</g>
				<g>
					<path fill="#C5F9AB" d="M457.234,514.004c3.541-1.791,6.3-2.241,9.877-1.857c11.664,1.077,12.735-7.979,7.653-10.992
						c-3.867-2.293-1.284,1.509-2.669,3.976c-0.827,1.473-3.245,2.721-5.229,2.046c-1.994-0.678-3.75-3.476-2.682-6.12
						c1.176-2.914,5.883-5.264,10.617-3.159c9.27,4.122,11.521,20.521,0.667,21.995c-6.581,0.891-9.391-6.978-17.026-3.502
						L457.234,514.004z M454.419,520.936c-1.973,5.917-10.983,2.999-9-2.953C447.417,511.988,456.365,515.095,454.419,520.936z"/>
				</g>
				<g>
					<path fill="#63F19F" d="M655.606,592.344c-9.05,4.829-16.154,6.147-25.418,5.356c-30.203-2.126-32.459,21.338-19.156,28.836
						c10.123,5.707,3.234-3.971,6.673-10.424c2.053-3.852,8.233-7.214,13.398-5.583c5.191,1.641,9.886,8.772,7.276,15.664
						c-2.874,7.596-14.904,13.935-27.256,8.762c-24.187-10.129-30.928-52.377-2.964-56.798c16.956-2.674,24.661,17.503,44.193,8.089
						L655.606,592.344z M662.489,574.272c4.764-15.402,28.212-8.368,23.422,7.124C681.088,597,657.79,589.478,662.489,574.272z"/>
				</g>
				<g>
					<path fill="#DFE3D3" d="M707.274,543.613c-3.212-13.515-2.494-23.275,1.729-35.137c13.176-38.83-16.782-49.858-31.181-35.013
						c-10.958,11.296,4.089,5.602,11.359,12.327c4.339,4.015,6.617,13.266,2.703,19.47c-3.935,6.236-14.891,9.931-23.022,4.142
						c-8.961-6.378-13.125-24.317-2.099-38.717c21.59-28.197,79.248-22.49,75.418,15.66c-2.331,23.13-31.411,26.281-25.801,55.104
						L707.274,543.613z M728.577,558.846c18.535,11.54,1.255,39.833-17.39,28.229C692.408,575.389,710.277,547.46,728.577,558.846z"
						/>
				</g>
				<g>
					<path fill="#D15931" d="M754.415,320.958c13.247-1.661,22.497,0.041,33.391,5.311c35.728,16.631,49.383-10.843,36.699-26.146
						c-9.652-11.646-5.778,3.324-12.961,9.569c-4.287,3.728-13.363,4.941-18.883,0.555c-5.548-4.409-7.938-15.261-1.56-22.427
						c7.027-7.897,24.599-10.008,37.21,2.025c24.692,23.563,13.237,78.057-22.814,70.426c-21.856-4.635-21.84-32.747-49.962-30.388
						L754.415,320.958z M737.643,339.726c-12.956,16.508-38.188-2.948-25.16-19.553
						C725.603,303.446,750.427,323.427,737.643,339.726z"/>
				</g>
				<g>
					<path fill="#D5EB1B" d="M149.525,487.525c10.306,8.062,15.512,15.669,19.373,26.883c13.116,36.327,41.65,26.843,43.527,7.454
						c1.429-14.755-6.302-1.721-15.605-2.401c-5.553-0.406-12.666-5.878-13.43-12.745c-0.767-6.903,5.127-16.06,14.514-16.576
						c10.344-0.57,23.95,10.189,24.295,27.268c0.674,33.443-45.124,63.121-64.721,32.786c-11.875-18.397,7.681-37.804-13.385-55.726
						L149.525,487.525z M124.892,488.829c-20.426,2.396-24.329-28.586-3.785-30.999
						C141.798,455.398,145.054,486.458,124.892,488.829z"/>
				</g>
				<g>
					<path fill="#CF33C1" d="M699.46,217.705c-13.287-1.521-21.887-5.368-31.242-13.077c-30.835-24.65-50.634-1.142-41.912,16.756
						c6.636,13.621,6.411-1.866,14.881-6.244c5.056-2.613,14.177-1.644,18.511,3.932c4.356,5.605,4.112,16.734-3.793,22.198
						c-8.71,6.022-26.313,3.915-35.737-10.784c-18.453-28.783,5.603-79.11,38.885-63.144c20.176,9.688,13.501,37.046,41.432,41.411
						L699.46,217.705z M720.23,203.411c16.52-12.999,36.471,11.914,19.858,24.991C723.355,241.574,703.927,216.247,720.23,203.411z"
						/>
				</g>
				<g>
					<path fill="#29C141" d="M745.061,683.772c-2.527,9.349-6.213,15.091-12.746,20.954c-20.988,19.41-6.3,36.131,7.46,31.824
						c10.472-3.277-0.642-4.793-2.86-11.331c-1.324-3.903,0.357-10.329,4.819-12.829c4.485-2.512,12.427-1.132,15.484,5.119
						c3.369,6.888-0.046,19.265-11.591,24.421c-22.607,10.096-56.038-12.577-41.003-34.679c9.121-13.397,27.988-5.656,34.137-25.183
						L745.061,683.772z M737.074,667.352c-7.519-13.236,12.479-24.824,20.044-11.513C764.738,669.246,744.5,680.416,737.074,667.352
						z"/>
				</g>
				<g>
					<path fill="#4B11C5" d="M941.851,213.381c3.14,6.539,3.857,11.598,3.02,18.119c-2.41,21.275,14.1,23.574,19.797,14.401
						c4.336-6.981-2.708-2.404-7.164-5.028c-2.66-1.566-4.849-6.033-3.541-9.633c1.315-3.619,6.495-6.721,11.286-4.67
						c5.28,2.259,9.397,10.949,5.371,19.52c-7.884,16.784-37.935,20.276-40.218,0.386c-1.38-12.06,13.107-16.898,7.044-30.98
						L941.851,213.381z M929.29,207.975c-10.738-3.829-5.064-20.184,5.737-16.334C945.907,195.518,939.891,211.752,929.29,207.975z"
						/>
				</g>
				<g>
					<path fill="#5B01E5" d="M117.219,629.12c7.196,1.282,11.756,3.673,16.597,8.197c15.981,14.496,27.581,2.347,23.433-7.713
						c-3.156-7.656-3.561,0.8-8.33,2.899c-2.847,1.253-7.789,0.414-9.964-2.775c-2.185-3.206-1.673-9.268,2.825-11.979
						c4.956-2.989,14.487-1.24,19.127,7.099c9.086,16.329-5.75,42.963-23.361,33.12c-10.676-5.972-6.103-20.668-21.19-24
						L117.219,629.12z M105.403,636.21c-9.454,6.528-19.489-7.741-9.981-14.308C104.997,615.286,114.733,629.763,105.403,636.21z"/>
				</g>
				<g>
					<path fill="#E90D2F" d="M1002.559,298.852c-3.93-2.194-6.103-4.504-8.01-8.111c-6.384-11.653-15.58-6.916-15.19-0.226
						c0.296,5.091,2.233,0.251,5.432-0.011c1.909-0.157,4.617,1.326,5.241,3.62c0.627,2.306-0.891,5.731-4.055,6.404
						c-3.486,0.742-8.681-2.194-9.704-7.981c-2.002-11.332,11.992-23.848,20.261-14.576c5.012,5.624-0.607,13.257,7.504,18.232
						L1002.559,298.852z M1010.863,297.103c6.816-1.897,9.785,8.427,2.93,10.336
						C1006.889,309.363,1004.136,298.978,1010.863,297.103z"/>
				</g>
				<g>
					<path fill="#8751B9" d="M1064.296,533.63c-0.369,8.751-2.478,14.549-7.074,21.022c-14.653,21.3,1.633,33.129,12.915,26.59
						c8.586-4.975-1.52-4.1-4.778-9.427c-1.945-3.18-1.74-9.184,1.699-12.276c3.457-3.109,10.738-3.472,14.678,1.435
						c4.343,5.406,3.794,17.004-5.365,23.851c-17.934,13.406-51.939,0.057-43.074-22.434c5.38-13.634,23.565-10.56,25.103-29.01
						L1064.296,533.63z M1053.982,520.735c-9.267-10.18,6.069-24.383,15.391-14.146
						C1078.765,516.9,1063.133,530.781,1053.982,520.735z"/>
				</g>
				<g>
					<path fill="#5B37C5" d="M92.408,357.708c1.774-4.033,3.823-6.365,7.161-8.557c10.763-7.301,5.295-15.823-1.188-14.823
						c-4.933,0.761-0.038,2.2,0.515,5.292c0.33,1.846-0.864,4.622-3.042,5.442c-2.189,0.824-5.667-0.337-6.616-3.357
						c-1.046-3.328,1.333-8.662,6.877-10.196c10.856-3.002,24.35,9.474,16.082,18.392c-5.015,5.405-12.975,0.638-17.07,9.003
						L92.408,357.708z M94.882,365.637c2.481,6.466-7.304,10.316-9.8,3.814C82.567,362.901,92.432,359.256,94.882,365.637z"/>
				</g>
				<g>
					<path fill="#0FF3B7" d="M683.853,424.731c-12.214,5.465-21.578,6.537-33.561,4.67c-39.11-5.499-44.17,24.83-27.537,35.791
						c12.657,8.342,4.568-4.875,9.627-12.962c3.02-4.827,11.366-8.643,17.939-6.052c6.607,2.605,12.07,12.309,8.051,21.042
						c-4.427,9.624-20.656,16.785-36.262,8.935c-30.558-15.37-35.506-70.957,1.283-74.18c22.307-1.946,30.508,25.008,56.777,14.526
						L683.853,424.731z M694.445,401.837c7.594-19.611,37.469-8.337,29.835,11.389C716.591,433.096,686.955,421.199,694.445,401.837
						z"/>
				</g>
				<g>
					<path fill="#E3379D" d="M511.603,57.548c1.868,5.909,1.866,10.275,0.373,15.69c-4.6,17.705,9.088,21.638,15.012,14.565
						c4.508-5.382-2.002-2.36-5.455-5.116c-2.061-1.645-3.375-5.687-1.835-8.575c1.548-2.902,6.303-4.903,10.109-2.591
						c4.194,2.547,6.63,10.393,2.193,17.158c-8.69,13.247-34.529,12.583-34.065-4.516c0.285-10.367,13.122-12.715,9.689-25.357
						L511.603,57.548z M501.629,51.463c-8.622-4.532-1.853-17.682,6.82-13.125C517.185,42.926,510.141,55.934,501.629,51.463z"/>
				</g>
				<g>
					<path fill="#F10D45" d="M1018.087,767.872c-5.134,6.366-9.936,9.549-16.979,11.857c-22.823,7.86-17.161,25.78-5.062,27.132
						c9.207,1.03,1.134-3.922,1.645-9.73c0.305-3.467,3.79-7.861,8.089-8.275c4.321-0.415,9.989,3.353,10.224,9.224
						c0.26,6.47-6.589,14.873-17.266,14.93c-20.906,0.112-39.028-28.784-19.889-40.75c11.607-7.251,23.554,5.15,34.949-7.848
						L1018.087,767.872z M1017.5,752.465c-1.308-12.787,18.09-14.939,19.407-2.078
						C1038.236,763.341,1018.795,765.087,1017.5,752.465z"/>
				</g>
				<g>
					<path fill="#B16D05" d="M690.343,135.067c-3.115-3.364-4.492-6.285-5.202-10.38c-2.511-13.298-12.91-11.609-14.641-5.007
						c-1.318,5.024,2.084,0.947,5.264,1.701c1.898,0.45,4.054,2.74,3.935,5.158c-0.12,2.431-2.669,5.27-5.945,4.924
						c-3.61-0.38-7.716-4.861-6.883-10.788c1.632-11.606,19.13-19.318,24.217-7.731c3.082,7.026-4.766,12.649,1.521,20.023
						L690.343,135.067z M698.937,135.991c7.199,0.311,6.821,11.246-0.42,10.934C691.224,146.612,691.831,135.686,698.937,135.991z"
						/>
				</g>
				<g>
					<path fill="#FB975D" d="M223.893,704.352c-10.182,7.62-18.641,10.572-30.143,11.345c-37.414,3.076-35.766,32.255-18.052,38.942
						c13.479,5.09,3.216-5.475,6.217-14.031c1.791-5.107,8.732-10.39,15.369-9.361c6.671,1.034,13.765,8.89,11.864,17.828
						c-2.094,9.849-15.644,19.88-31.755,15.865c-31.547-7.864-47.754-58.372-14.315-69.05c20.277-6.467,33.515,16.811,55.681,1.601
						L223.893,704.352z M228.929,680.91c2.942-19.772,33-15.562,30.044,4.325C255.997,705.265,226.03,700.428,228.929,680.91z"/>
				</g>
				<g>
					<path fill="#577F3D" d="M1025.225,631.398c6.942,3.441,10.872,7.229,14.454,13.27c11.957,19.496,27.369,10.579,26.135-0.89
						c-0.938-8.728-3.861-0.244-9.338,0.477c-3.269,0.43-8.049-1.892-9.315-5.783c-1.271-3.911,1.05-9.928,6.432-11.351
						c5.931-1.569,15.109,3.041,17.355,12.904c4.396,19.314-18.609,42.01-33.607,26.765c-9.09-9.247-0.073-22.844-14.436-30.714
						L1025.225,631.398z M1011.096,635.104c-11.559,3.835-17.532-13.664-5.908-17.524
						C1016.897,613.691,1022.505,631.314,1011.096,635.104z"/>
				</g>
				<g>
					<path fill="#C9BD17" d="M466.332,436.272c1.439-8.99,4.317-14.722,9.844-20.849c17.702-20.22,2.318-34.4-10.12-29.013
						c-9.465,4.099,1.074,4.417,3.794,10.31c1.623,3.518,0.687,9.692-3.237,12.469c-3.945,2.792-11.505,2.287-14.981-3.255
						c-3.831-6.107-1.862-18.014,8.422-23.976c20.136-11.673,53.63,6.219,41.759,28.367c-7.203,13.426-25.605,8.054-29.423,26.916
						L466.332,436.272z M475.422,450.832c8.337,11.63-9.213,24.44-17.6,12.744C449.373,451.796,467.188,439.354,475.422,450.832z"/>
				</g>
				<g>
					<path fill="#E5B547" d="M893.185,156.104c-3.376-1.608-5.302-3.406-7.076-6.295c-5.919-9.319-13.289-4.898-12.607,0.628
						c0.519,4.205,1.865,0.088,4.503-0.301c1.574-0.232,3.899,0.852,4.539,2.72c0.643,1.878-0.431,4.799-3.018,5.527
						c-2.85,0.802-7.315-1.353-8.474-6.096c-2.268-9.288,8.663-20.416,16.016-13.172c4.457,4.394,0.208,11.024,7.2,14.714
						L893.185,156.104z M899.976,154.208c5.549-1.939,8.565,6.462,2.984,8.412C897.339,164.586,894.499,156.124,899.976,154.208z"/>
				</g>
				<g>
					<path fill="#7D13D7" d="M395.717,488.894c7.008-4.364,12.643-5.805,20.124-5.668c24.369,0.084,24.92-18.881,13.834-24.187
						c-8.436-4.039-2.384,3.363-4.799,8.73c-1.442,3.204-6.224,6.236-10.459,5.203c-4.257-1.039-8.41-6.513-6.685-12.188
						c1.9-6.255,11.22-11.992,21.418-8.502c19.968,6.834,27.653,40.4,5.433,45.454c-13.473,3.059-20.746-12.73-35.925-4.121
						L395.717,488.894z M391.161,503.777c-2.998,12.625-22.206,8.237-19.193-4.462C375.003,486.524,394.117,491.313,391.161,503.777
						z"/>
				</g>
				<g>
					<path fill="#BB4363" d="M585.83,494.276c5.39,3.289,8.31,6.645,10.786,11.804c8.315,16.68,21.462,10.542,21.28,1.143
						c-0.138-7.152-3.117-0.473-7.614-0.28c-2.685,0.116-6.399-2.11-7.149-5.359c-0.753-3.266,1.561-7.984,6.032-8.756
						c4.926-0.851,12.049,3.547,13.167,11.714c2.19,15.992-18.106,32.775-29.193,19.328c-6.719-8.155,1.572-18.549-9.526-25.964
						L585.83,494.276z M574.095,496.276c-9.657,2.288-13.257-12.344-3.545-14.647C580.333,479.308,583.627,494.014,574.095,496.276z
						"/>
				</g>
				<g>
					<path fill="#7FBB99" d="M686.872,620.032c-3.969,3.172-7.31,4.457-11.892,4.911c-14.9,1.702-13.873,13.332-6.715,15.778
						c5.447,1.862,1.215-2.227,2.305-5.681c0.651-2.062,3.355-4.259,6.018-3.933c2.677,0.329,5.609,3.376,4.963,6.969
						c-0.711,3.959-5.995,8.136-12.479,6.737c-12.696-2.741-19.807-22.703-6.59-27.391c8.015-2.839,13.596,6.289,22.254-0.065
						L686.872,620.032z M688.586,610.608c0.924-7.932,12.98-6.632,12.051,1.346C699.703,619.99,687.676,618.438,688.586,610.608z"/>
				</g>
				<g>
					<path fill="#97512B" d="M494.977,153.31c2.238-3.179,4.417-4.839,7.687-6.153c10.584-4.438,7.341-12.764,1.559-13.03
						c-4.4-0.203-0.416,1.896-0.478,4.667c-0.037,1.654-1.554,3.847-3.581,4.177c-2.037,0.331-4.843-1.281-5.137-4.059
						c-0.324-3.061,2.664-7.261,7.728-7.619c9.915-0.702,19.41,12.445,10.701,18.716c-5.282,3.8-11.335-1.712-16.337,4.808
						L494.977,153.31z M495.734,160.601c1.017,6.026-8.119,7.649-9.143,1.589C485.559,156.085,494.728,154.653,495.734,160.601z"/>
				</g>
				<g>
					<path fill="#3D0325" d="M831.656,546.839c5.79,0.898,9.487,2.733,13.446,6.271c13.066,11.33,22.144,1.387,18.639-6.601
						c-2.666-6.078-2.839,0.705-6.623,2.473c-2.259,1.055-6.234,0.472-8.034-2.045c-1.808-2.53-1.507-7.397,2.049-9.65
						c3.918-2.484,11.586-1.253,15.454,5.346c7.573,12.922-3.838,34.53-18.127,26.959c-8.662-4.594-5.261-16.452-17.411-18.852
						L831.656,546.839z M822.315,552.733c-7.459,5.401-15.756-5.854-8.255-11.287C821.615,535.973,829.676,547.399,822.315,552.733z
						"/>
				</g>
				<g>
					<path fill="#D50D63" d="M1042.337,710.895c-3.594-0.435-5.914-1.492-8.432-3.595c-8.302-6.726-13.702-0.399-11.373,4.461
						c1.772,3.698,1.739-0.494,4.039-1.664c1.373-0.698,3.84-0.42,5.003,1.097c1.169,1.525,1.083,4.536-1.066,6.001
						c-2.368,1.615-7.129,1.013-9.653-2.982c-4.943-7.823,1.657-21.401,10.636-17.021c5.443,2.658,3.588,10.051,11.14,11.281
						L1042.337,710.895z M1047.984,707.063c4.494-3.489,9.85,3.289,5.33,6.799C1048.762,717.397,1043.548,710.508,1047.984,707.063z
						"/>
				</g>
				<g>
					<path fill="#17E5A1" d="M787.892,551.973c-5.234-3.68-7.966-7.264-10.131-12.644c-7.312-17.412-21.009-12.069-21.441-2.554
						c-0.33,7.241,3.12,0.683,7.68,0.783c2.722,0.059,6.332,2.554,6.876,5.888c0.547,3.352-2.103,7.971-6.674,8.457
						c-5.037,0.536-11.95-4.378-12.544-12.71c-1.164-16.314,20.46-31.95,30.787-17.625c6.258,8.687-2.808,18.652,7.927,26.878
						L787.892,551.973z M799.889,550.722c9.915-1.68,12.594,13.352,2.622,15.043C792.467,567.469,790.102,552.383,799.889,550.722z"
						/>
				</g>
				<g>
					<path fill="#6D0785" d="M991.69,578.459c0.017-11.213,2.413-18.74,7.956-27.258c17.635-28.008-3.812-42.291-17.903-33.341
						c-10.724,6.81,2.158,5.166,6.602,11.81c2.653,3.966,2.704,11.656-1.534,15.792c-4.26,4.156-13.554,5-18.85-1.072
						c-5.837-6.69-5.737-21.554,5.622-30.788c22.243-18.081,66.435-2.774,56.264,26.456c-6.173,17.72-29.594,14.733-30.602,38.413
						L991.69,578.459z M1005.554,594.418c12.384,12.54-6.495,31.505-18.952,18.895
						C974.053,600.612,993.326,582.043,1005.554,594.418z"/>
				</g>
				<g>
					<path fill="#391B8B" d="M253.366,167.266c2.489,3.343,3.449,6.118,3.693,9.888c0.977,12.264,10.542,11.748,12.748,5.948
						c1.679-4.413-1.792-1.058-4.593-2.049c-1.672-0.591-3.398-2.87-3.055-5.044c0.344-2.185,2.925-4.504,5.852-3.873
						c3.226,0.694,6.503,5.143,5.173,10.42c-2.603,10.332-19.169,15.603-22.641,4.635c-2.103-6.65,5.537-10.97,0.57-18.247
						L253.366,167.266z M245.688,165.596c-6.477-0.98-5.073-10.828,1.442-9.843C253.692,156.745,252.082,166.562,245.688,165.596z"
						/>
				</g>
				<g>
					<path fill="#C3375D" d="M271.551,251.055c-0.228-3.833,0.434-6.455,2.151-9.483c5.444-9.941-2.184-14.376-6.814-11.023
						c-3.523,2.551,0.845,1.721,2.503,3.899c0.989,1.3,1.167,3.928-0.195,5.43c-1.37,1.509-4.529,1.991-6.465,0.026
						c-2.134-2.165-2.41-7.247,1.28-10.64c7.226-6.643,22.649-2.332,19.782,7.87c-1.741,6.185-9.808,5.652-9.659,13.767
						L271.551,251.055z M276.622,256.22c4.494,4.028-1.564,10.904-6.084,6.853C265.984,258.994,272.185,252.246,276.622,256.22z"/>
				</g>
				<g>
					<path fill="#D7DBD1" d="M536.248,274.158c8.956-4.105,15.844-4.957,24.68-3.662c28.833,3.788,32.356-18.577,20.037-26.536
						c-9.375-6.058-3.331,3.62-7.002,9.608c-2.192,3.574-8.311,6.44-13.168,4.576c-4.882-1.874-8.97-8.983-6.068-15.44
						c3.196-7.116,15.097-12.496,26.64-6.821c22.602,11.113,26.617,52.008-0.45,54.627c-16.411,1.581-22.63-18.21-41.901-10.316
						L536.248,274.158z M528.602,291.085c-5.46,14.491-27.533,6.388-22.043-8.187C512.087,268.217,533.988,276.78,528.602,291.085z"
						/>
				</g>
				<g>
					<path fill="#A15DF9" d="M136.062,785.895c-4.376,1.664-7.669,1.85-11.817,0.958c-13.551-2.706-15.928,7.787-10.338,11.95
						c4.254,3.168,1.693-1.611,3.623-4.334c1.152-1.626,4.144-2.791,6.388-1.754c2.256,1.043,3.969,4.542,2.39,7.512
						c-1.74,3.273-7.552,5.448-12.846,2.393c-10.366-5.982-10.979-25.499,1.937-25.887c7.831-0.232,10.155,9.348,19.542,6.214
						L136.062,785.895z M140.221,778.111c3.046-6.698,13.256-2.16,10.193,4.577C147.33,789.474,137.216,784.723,140.221,778.111z"/>
				</g>
			</g>
		</g>
		<path d="M1340.796,601.28c135.051-210.709,92.413-400.434-15.252-504.93L965.702,811.993
			C1103.609,826.011,1241.32,756.484,1340.796,601.28z"/>
		<path d="M164.683,811.993c-5.43,17.276-9.33,34.839-11.679,52.464c-2.312,17.522,0,35.044,8.262,53.229
			c-38.324,59.84-126.542,148.113-134.138,190.431c-4.627,25.456,25.439,34.383,39.978,43.31
			c13.877,4.629,29.074,1.322,38.324,12.563c6.608,8.265-2.312,22.151-4.296,32.4c-0.331,16.861-20.15,25.126-18.17,40.664
			c1.985,13.225,13.216,18.515,23.458,26.78c10.904,8.595-27.755,25.126-15.201,40.335c12.885,14.877,31.72,32.069,25.108,53.228
			c-9.581,32.73-28.086,66.783-12.885,92.24c15.201,25.126,36.343,40.003,69.052,46.614c40.286,0,80.78,0.618,121.316,0.881
			c22.576,0.147,43.112,12.994,53.219,33.181c16.145,32.245,22.672,65.655,20.066,100.168h519.041
			c-21.808-102.492-47.909-271.101-36.674-312.427c18.504-70.089,78.302-122.987,100.772-179.191
			c47.971-119.871,51.206-233.227,15.464-326.871H164.683z"/>
	</g>
</g>
</svg>
