<?xml version="1.0" encoding="utf-8"?>
<!-- Generator: Adobe Illustrator 25.3.1, SVG Export Plug-In . SVG Version: 6.00 Build 0)  -->
<svg version="1.1" id="Ebene_1" xmlns="http://www.w3.org/2000/svg" xmlns:xlink="http://www.w3.org/1999/xlink" x="0px" y="0px"
	 viewBox="0 0 672.4 613.8" style="enable-background:new 0 0 672.4 613.8;" xml:space="preserve">
<style type="text/css">
	.st0{fill:#6B9080;}
	.st1{opacity:0.17;fill:#83A58A;enable-background:new    ;}
	.st2{fill:#86A89D;}
	.st3{fill:#DFE5E1;}
	.st4{fill:#98A39D;}
	.st5{fill:#F5F0EA;}
	.st6{fill:#5F5051;}
	.st7{fill:#14261B;}
	.st8{fill:#DEBB88;}
	.st9{fill:#525C79;}
	.st10{fill:#4D569B;}
	.st11{fill:#C5BEBE;}
	.st12{fill:#8A1822;}
	.st13{fill:#E3DEDD;}
	.st14{fill:#E2DDDC;}
	.st15{fill:#8E1E27;}
	.st16{fill:#FC957A;}
	.st17{fill:#CE9A85;}
	.st18{fill:#8DBFCE;}
	.st19{fill:#FCECDB;}
	.st20{fill:#F6FFF8;}
	.st21{fill:#38564B;}
	.st22{fill:#D09F8D;}
	.st23{fill:#6D5855;}
	.st24{fill:#8E766E;}
	.st25{fill:#D7DDD8;}
	.st26{fill:#D7D8E2;}
	.st27{fill:#FFFFFF;}
	.st28{fill:#F6FFF8;stroke:#A4C3B3;stroke-width:0.4295;stroke-miterlimit:10;}
	.st29{fill:#36544E;}
	.st30{fill:#A4C3B3;}
	.st31{fill:#29382E;}
	.st32{fill:#1B3024;}
	.st33{fill:#2C665B;}
	.st34{fill:#4B4C51;}
</style>
<g>
	<path class="st0" d="M232.3,117.3c10.1,1.7,10.3,3.7,18,6.1c6.6,8.3,10.8,22.4,16.7,32.3c5.9,9.9,12.1,27.9,13.4,45.4
		c-0.2,36.9-30.9,83.2-26.5,75.9c-6.2-17.5-2.6-7-10.1-33.4c-5.7-19.8-4.8-39.9-5.7-60.6c-0.4-8.6,0.9-17.5-2.9-28.7
		c-11.4,11.8-16.4,28.5-24.8,41.7s-16,27.4-25,43.4c16,15.6,26.5,35.8,32,60.3c3.3,14.1,5,28.1,5.3,42.4c0.6,16.2-5,29.2-14.1,39.1
		c-12.3,13.4-26.3,9-32.7-11c-6.1-19.1-6.1-39.1-4.8-59c1.3-18.6,3.9-36.9,6.4-59.5c-19.5,20.8-36.7,38-45.6,66.3
		c-12.3,39.1-31.6,72-56.4,99.2c-11,11.9-23.2,19.7-38,19.7c-15.1,0-22.8-9.7-23.7-29.2c-0.6-10.7,2-20.2,5.5-29.6
		c9.2-23.5,24.6-38,42.4-48.9c16.9-10.3,33.8-20.8,51.3-29.9c17.3-9.2,30.9-23.9,42.3-42.3c2-0.6,4.4-0.7,5.7-5
		c-3.1-0.6-5.7-1.5-7.3,2.9c-14.5,5.1-29,10.7-43.7,15.6c-13.8,4.6-27.7,4.2-41.9,0.7c-6.1-1.7-11.9-4.4-17.1-8.8
		c-8.3-7-14.1-16.7-13.2-29.8c0.9-13.6,7.2-23.2,17.5-27.2c29.6-11.6,59.2-7.2,88.6,4c11.8,4.4,23.2,10.3,35.8,16
		c16.4-20.9,28.8-45.9,42.8-75.5c-31.1,18.4-60.8,26.6-92.2,26.6c-4.2,0-8.6,0.4-12.9-0.4c-23.5-4-52.4-32.5-26.6-59.9
		c2.2-2.4,7.7-15.8,46.3-13.4c9.4,0.6,20,1.1,29.9,1.8c9.7,1.3,19.3,2.8,29,4"/>
	<g>
		<path class="st1" d="M138.3,388.5c23.2-10.5,37.1-10.8,72.4-17.5c15.1-2.8,36-7.2,61.7-14c4.6-1.3,7.7-5.9,5.9-8.6
			c-17.1-26.8-44.3-39-64.5-56.6c-1.5-1.3-3.9-1.5-6.2-0.6c-26.5,9.9-49.8,19.1-73.5,27.4c-26.6,9.4-53.7,16.7-79.2,15.4
			c-20.6-0.9-26.8-12.9-23.7-30.5c3.3-19.1,17.5-29.9,39.5-34.9c19.1-4.2,36.9-4.6,54.8-3.9c13.2,0.6,39.5,13.8,58.4,2.8
			c1.5-0.9-16.9-29.9-44.5-34.9c-39-7.2-77-13.6-85.4-18C-1,187,34.3,112.4,64.4,91.1c109-77.2,119.1,49.2,129.2,70.4
			c16.5,34.5,11.6,84.9,42.6,111.3c1.3,1.1-37.5-26.1-36.4-27.9c6.2-9.6,4.4-24.3,2.4-31.6c-3.9-14-2.8-29.2,0.4-44.6
			c3.3-16.5,15.4-28.8,35.5-33.3c19.3-4.2,31.6,1.3,34.7,16.5c3.9,18.2-2.2,37.9-9.6,57.5c-7.3,20-16.9,39.9-26.5,61.7
			c-0.7,1.8-0.6,3.7,0.9,4.8c18,14.7,34.2,31.4,58.6,43.4c3.9,1.8,10.1-1.5,11-5.7c9-47.6-24.4-82.9,23.2-131.6
			c0.7-0.7,10.7-10.3,17.5-14c41-21.7,44.8,0.9,41.5,30.7c-3.9,35.5-25.9,70.4-43.5,105.5c-5.5,11-16.2,21.5-17.8,35.5
			c-0.2,1.3,0.4,2.4,1.3,3.3c20.2,16.4,43.5,31.6,71.8,45.6c3.7,1.8,9.9-1.3,10.8-5.3c11.9-53.1-4-95.7,42.6-146.8
			c0.6-0.7,7.3-7.2,13-10.5c43.4-25.7,55.7,0.4,44.8,36.2c-9.7,31.8-30.5,62.3-52.7,92.4c-10.1,13.8-20.4,27.4-31.8,42.8
			c-1.7,2.2-1.7,5,0,6.2c23.3,18.2,53.8,28.7,79,43.7c2.2,1.3,6.1,0.6,8.6-1.7c14.7-12.9,10.5-23,11.6-32.7
			c3.1-32,6.1-63.8,19.1-96.8c10.5-26.3,29.2-42.8,50-44.5c23.5-2,37.3,13.6,32.2,39.5c-7.9,40.2-36.6,77.7-62.5,115.6
			c-7.2,10.5-18.7,19.8-22.8,31.4c-0.6,1.5-0.2,2.8,0.6,3.7c7,9.2,16.2,16,24.4,23.9c9,8.6-11.4,24.8-20.9,16.5
			c-7.3-6.2-14-13.2-23.3-18.7c-2-1.1-5.9-0.4-8.3,1.5c-16,12.9-29.8,24.8-44.8,35.3c-40.8,28.5-79.2,60.5-127.9,77.5
			c-24.6,8.6-45.4,11.4-59.7-1.8c-0.9-0.7-1.3-2-1.1-3.3c3.1-29,13.2-42.4,45.8-57.3c39.5-18.2,79.7-33.1,120.5-44.1
			c13-3.5,26.1-7.7,43.5-13.2c5.5-1.8,8.1-7.7,4-9.9c-31.2-16.4-58.2-30.5-85.4-44.8c-1.8-0.9-4.6-0.7-7,0.7
			c-17.5,10.3-31.6,21.7-47,32c-49.1,32.9-97.4,69.1-156.7,76.8c-1.5,0.2-2.8-0.2-3.9-0.7c-8.1-4.4-20.9-3.9-25.9-16.2
			c-2.9-13.8,9-28.1,28.7-40.6c0.4-0.2,0.9-0.6,1.3-0.7c55.7-27.6,113.9-38.8,175.7-58.4c5.1-1.7,7.7-7.2,4.6-9.6
			c-24.4-18-45.9-32.7-69.5-42.8c-1.8-0.7-4.4-0.4-6.6,0.7L186.8,431c-3.1,2-45.2,28.3-75.9,18.6c-2-0.6-23.9-7.9-20.8-23.2
			C93.6,408.7,128.1,393.1,138.3,388.5z"/>
		<g>
			<path class="st2" d="M322.7,579.6c-81.4-23.2-65.8-97.6-131.9-101.2c-87.3,0.7-86.4-39.3-65-122.7c20.2-79.7,100-133,46.7-170.9
				C83.5,121.2,195-17.3,430.6,19.6c37.1,5.9,129.5-5.5,123.3,63.2c-10.7,115.8-34,127.7,24.8,164.3c51.6,32,50.7,76.8,12.9,123.8
				c-32.7,53.8-94.1,25.2-124.9,105.3C428.2,575,420.5,607.4,322.7,579.6z"/>
			<path class="st3" d="M181.4,408.4c-13.2-105.3,56.8-109.1,65.2-165.4c8.8-59.3-23-103.3,8.5-145.3c34.5-46.5,166.3-50.3,216.1-9
				c89.8,74.4,18.4,87.8,45.2,142.9c22.8,46.7,39,70,31.6,110.1c-10.3,57,49.4,54.2,56.8,83c21.1,83.6-49.1,134.5-176.4,142.4
				c-148.5,9.2-67.6-29.8-149.2-91C255.3,458.5,188.6,465.7,181.4,408.4z"/>
			<ellipse class="st4" cx="391.8" cy="439.1" rx="131.7" ry="27.4"/>
			<path class="st5" d="M466,318c-0.7-1.3-1.5-2.4-2.2-3.7C464.6,315.6,465.3,316.7,466,318z"/>
			<path class="st5" d="M454.1,286.9c-0.7-1.3-1.7-2.6-2.4-3.7C452.4,284.3,453.2,285.6,454.1,286.9z"/>
			<path class="st6" d="M442.2,258.1c-0.9-1.1-1.8-2-2.8-3.1C442.2,254,441.6,256.6,442.2,258.1z"/>
			<path class="st7" d="M327,371.8c5.9-4.6,11.8-9.9,17.6-13.8c4,19.5,8.1,39,11.9,58.2c-12.5,4.6-14.9-14.9-26.6-12.3
				C323.6,393.9,325.5,382.8,327,371.8z"/>
			<path class="st7" d="M361.7,415.5c0,5.9,2.2,12.5-5.7,15.3c-10.5-7.3-22-13.8-26.5-27.6c11.8-2.8,14.1,16.9,26.6,12.3
				C357.8,415.5,359.8,415.5,361.7,415.5z"/>
			<path class="st8" d="M457.4,342.2c0.7-0.6,1.7-0.9,2.4-1.5C459.2,341.7,458.5,342.2,457.4,342.2z"/>
			<path class="st9" d="M417,288.6c-2.9-2.4-6.1-4.6-9-7c2-5.3,4-10.7,6.1-15.8C419.6,269.5,413.9,284,417,288.6z"/>
			<path class="st8" d="M360,338.6"/>
			<path class="st10" d="M397.9,289.9c-1.1,0.9-2,1.7-3.1,2.6C395.7,291.5,396.8,290.6,397.9,289.9z"/>
			<path class="st11" d="M353.2,458.5"/>
			<path class="st11" d="M390.5,458.2"/>
			<path class="st12" d="M368.8,421.6c0-0.2-0.2-0.2-0.4-0.4c0.7-0.4,1.5-0.4,2,0l-0.2,0.2C369.9,421.6,369.4,421.4,368.8,421.6z"/>
			<path class="st12" d="M409.1,421.2c0,0.2-0.2,0.2-0.2,0.4c-0.6,0-0.9,0-1.5,0c-0.2,0-0.2-0.2-0.4-0.2
				C407.6,421.1,408.3,421.1,409.1,421.2z"/>
			<path class="st13" d="M407.2,421.6c0.6,0,0.9,0,1.5,0c2.6,0.4,3.9,2.2,5,4.6l0,0c-0.6-0.7-1.1-1.5-1.7-2
				c-0.9-1.1-2.2-1.8-3.7-1.8c-0.4,0-0.6,0-0.9,0c-1.5,0.2-2.6,0.7-3.7,1.8c-0.4,0.6-0.7,0.9-1.1,1.5c0,0.2-0.2,0.4-0.4,0.4
				C403.4,423.6,404.9,422,407.2,421.6z"/>
			<path class="st14" d="M408.5,423.4c2.6,0.4,4.2,1.8,5.1,4.2c-0.4-0.4-0.7-0.9-1.1-1.3c-1.1-1.3-2.4-2-3.9-2.2c-0.6,0-0.9,0-1.5,0
				c-1.7,0.2-2.8,0.9-3.9,2.2c-0.2,0.2-0.4,0.6-0.6,0.7l0,0c0.9-2,2.4-3.3,4.6-3.7C407.8,423.4,408.2,423.4,408.5,423.4z"/>
			<path class="st15" d="M408.5,423.4c-0.4,0-0.7,0-1.1,0c0-0.4,0.2-0.7,0.2-1.1c0.4,0,0.6,0,0.9,0
				C408.5,422.7,408.5,423.1,408.5,423.4z"/>
			<path class="st14" d="M402.8,427.1C402.8,427.1,402.8,427.3,402.8,427.1C402.7,427.1,402.7,427.1,402.8,427.1L402.8,427.1z"/>
			<path class="st13" d="M413.7,426.2L413.7,426.2L413.7,426.2L413.7,426.2z"/>
			<path class="st14" d="M413.7,429L413.7,429L413.7,429z"/>
			<path class="st13" d="M364.1,426.2L364.1,426.2C363.9,426.2,363.9,426.2,364.1,426.2C363.9,426.2,363.9,426.2,364.1,426.2
				L364.1,426.2z"/>
			<path class="st14" d="M364.3,429C364.3,429,364.1,429,364.3,429C364.1,429,364.1,429,364.3,429C364.1,429,364.3,429,364.3,429z"
				/>
			<path class="st16" d="M399.2,248.3c0-0.4,2.6-1.3,10.8-3.9"/>
			<path class="st17" d="M401.2,201.1"/>
			<path class="st18" d="M93.2,278.1"/>
			<path class="st19" d="M389.2,214.9"/>
			<path class="st7" d="M399.5,298.1c0.2,2.8,38,51.1,38.2,54.4c3.5,0,6.2,0,8.8,0c12.9,39.1,7.2,55.1-26.6,75.1
				c-7.9-4-22.2,2.2-29.4-1.5c-3.7-4-8.8,5-14-67.4c-1.1-16.5-5.3-30.3,1.1-42.8C383,306,394.2,301.8,399.5,298.1z"/>
			<path class="st20" d="M459.8,340.8c-2.2-1.3-3.7-16.5-7.2-28.5c-2.9-10.5-10.3-30.7-11.9-35.1c-3.7-9.7-7.3-14.7-17.5-36.2
				c0.9-0.2,0.6,1.1,1.7,1.1c4,3.1,8.1,6.2,12.1,9.4l-0.4-0.2c0.9,1.1,1.8,2,2.8,3.1c7.5,6.6,3.3,18,9.6,25.2
				c0.7,1.3,1.7,2.6,2.4,3.7c3.3,5.5,6.8,10.8,9.2,23.2c1.3,9.2,0.7,9.9,2,19.1C463.3,331.6,459.2,337.6,459.8,340.8z"/>
			<path class="st21" d="M352.1,345.7c1.1-1.1,7.3-7.9,8.8-8.8l3.1-2c8.6-5,13.6-11.4,15.3-18.7c7.2,16.7,3.3,36,2.6,52.9
				c-0.7,16.9,14.1,47.2-4.2,57.3c-1.1,0.9-18-1.1-18.9-0.2c-1.8,0-2-5.9-2.2-8.5c-3.7-18.2-7.9-34-11.8-52.4
				c-0.6-2.6-1.5-6.6-0.4-9"/>
			<path class="st20" d="M327,371.8c-12.7-7.2-17.8-18.4-15.6-33.3c0.2-3.1,3.1-17.5,2.9-21.9c1.5-8.6,4.8-28.7,6.1-32.9
				c3.3-29.2,19.1-37.3,39.9-45.6c2.9,2.6,5.1,5.5,7.7,8.5c15.3,17.5,25.5,12.3,38.6-6.4c0.4,1.8,8.5,3.9,8.8,5.5
				c-0.6,14.9-21.5,34.5-33.1,39.3c-14.5-11.6-29.6-20.9-40.4-11.8c3.7,8.6-13.6,22.6-6.8,36.9c16.5-7.7,30.5-19.7,47.2-25.2
				c1.3,2.2,11,5.1,12.3,7.3c-11.6,6.2,7,12.3-15.4,23.5c-2.4,11.9-11.4,17.8-19.8,22.8c-7.5,4.4-14.9,18.2-14.9,19.3
				C338.7,362.6,332.8,367.2,327,371.8z"/>
			<path class="st21" d="M382.3,285.6c-16.9,5.5-30.9,17.5-47.2,25.2c-6.6-14.3,4-48.5,19.8-47.6c12.1,0.6,13,2.6,27.6,14.1
				C382.3,279.9,382.3,282.9,382.3,285.6z"/>
			<path class="st6" d="M396,255.1c-4.8,5-7,5-10.8,5c-3.5,0-7.5-1.1-9.4-3.9c-2.6-3.7-14.5-13.2-12.5-15.1
				c5.3,4.6,11.6,10.3,18.6,13.6c1.7,0.7,3.3,0.4,3.5,0.4c5.1,0.6,17.5-9.6,17.5-9.6"/>
			<path class="st22" d="M389.6,297.9c-0.6,0.6,2.4-6.8,1.7-7.2c-1.8-1.1-2.2-0.9-5-2.4c-3.1-0.6-2.6-0.4-4.4-1.8
				c-0.2-0.2-0.2-0.6-0.2-0.7c0.9-3.1,2-6.1,3.7-8.6c0.4-0.7,1.1-1.3,1.8-1.8c8.8-5.7,12.1-16.4,13-18c0-0.2,1.1-1.7,1.3-1.8
				c1.3-0.9,1.7-0.7,2.8-1.1c2.2-0.6,5.5,0.2,7,2c0.4,0.4,0.6,0.9,0.7,2.6c0.7,7.5,0.2,11-2,19.3c0.4,1.7-6.8,9.2-12.7,12.1
				c0,0-0.2,0-0.2,0.2c-0.9,0.9-2,1.7-2.9,2.6l0,0C392.7,294.6,391.3,296.3,389.6,297.9z"/>
			<path class="st22" d="M391.6,298.5c-0.6,0.6,2.4-6.8,1.7-7.2c-1.8-1.1-2.2-0.9-5-2.4c-3.1-0.6-2.6-0.4-4.4-1.8
				c-0.2-0.2-0.2-0.6-0.2-0.7c0.9-3.1,2-6.1,3.7-8.6c0.4-0.7,1.1-1.3,1.8-1.8c8.8-5.7,12.1-16.4,13-18c0-0.2,1.1-1.7,1.3-1.8
				c1.3-0.9,1.7-0.7,2.8-1.1c2.2-0.6,5.5,0.2,7,2c0.4,0.4,0.6,0.9,0.7,2.6c0.7,7.5,0.2,11-2,19.3c0.4,1.7-6.8,9.2-12.7,12.1
				c0,0-0.2,0-0.2,0.2c-0.9,0.9-2,1.7-2.9,2.6l0,0C394.8,295.2,393.1,296.8,391.6,298.5z"/>
			<path class="st17" d="M358.4,237.1c-5.1-18.6,1.3-24.6,7.5-31.2c7.5,4,28.5-1.5,37.5-3.7c-3.7,8.8,12.7,29.9-0.4,43.5
				c-8.6,7-17.1,17.3-35.3,1.5C364.8,244.7,361.3,239.9,358.4,237.1z"/>
			<path class="st23" d="M364.4,230.5c-1.1-1.3,0.2-3.1,1.7-3.3c3.5-0.2,6.1-1.7,8.6-3.9c1.7-0.7,2.4,0.6,1.3,2.2
				C375.5,226.8,370.1,230.5,364.4,230.5z"/>
			<path class="st23" d="M384.1,223c0-2.6,2-1.3,2.9-0.9c3.3,1.1,6.1,0.6,9.2-0.4c1.3,0.9,1.5,2,0.2,3.5
				C392.2,226.3,388.1,226.5,384.1,223z"/>
			<path class="st23" d="M346.1,224.1c-0.7,4,1.3,6.8,2.8,8.3c2.9,2.8,9.4,6.8,10.1,7.3c8.1,6.4,3.5-2,2.8-9c-0.2-1.5-3.5-5.9-2.8-7
				c1.1-1.5,0-4.2,2.2-6.1c0.4-0.2,0.6-0.6,0.9-0.7c1.1-1.1,2.2-1.8,3.9-1.5c-0.6,1.5-2.4,1.3-2.6,2.8c0,0.4,0.2,0.7,0.4,1.1
				c0.6,0.4,1.1,0.7,1.7,0.9c0.2,0,0.4,0.2,0.6,0.2c0.4,0.2,0.9,0.2,1.3,0.2c1.8-0.6,2.2,3.9,7.7,0.9c3.3-1.7,4-5,3.9-8.6
				c0-0.4,0-0.7,0.2-1.1c1.5-2.4,4-1.5,5.5-0.4c4,3.1,8.6,4.4,13,4.8c2.4,0.2,4.6,1.7,5.5,3.9c0.2,0.4,0.2,0.6,0.4,0.9
				c0.9,2.2,3.1,3.9,5.5,4c0.9,0,1.8,0,2.6,0.2c0.4-0.2,0.7-0.4,1.1-0.7c3.9-5.1,3.9-10.5,0.2-15.8c-1.7-2.6-3.9-4.6-6.8-6.1
				c-2.8-1.5-5-3.3-6.8-6.1c-2.6-4-6.1-6.8-10.3-8.8c-0.4-0.2-0.7-0.4-1.1-0.4c-4.8-1.3-9.6-2.2-14,1.5c-4,4.6-4.8,5.3-11,5.1
				c-1.7,0-6.8,0.4-8.6,1.1c-5.5,2.4-9.4,7.7-7.7,13.8c1.1,4,5.9,7.5,2.8,9.9c-0.9,0.7-2,1.3-2.8,3.3L346.1,224.1z"/>
			<path class="st24" d="M411.3,249.1c-4.8-9.9-7.5-13.4-9.2-14.7c-0.2-0.2-1.7-1.3-3.7-2.9c-1.1-0.9-2.4-2-2.8-2.4
				c-2-2.2-2.8-4.4-5.5-7.9c-1.5-2.8-2.9-6.1-1.3-8.1c0,0,1.1-1.3,2.8-2.6c2.9-2.2,8.6,4.8,11.4,4.8c2.2,0,6.1,4.4,8.1,7.5
				c7,11,9.7,17.8,16.5,28.8c-0.9,0.4-1.8,0.7-2.8,0.9c-2.2-0.6-4.4-1.1-6.6-1.7C416.1,250.4,413.7,249.8,411.3,249.1z"/>
			<path class="st17" d="M411.3,244.3c-4.8-9.9-7.5-13.4-9.2-14.7c-0.2-0.2-1.7-1.3-3.7-2.9c-1.1-0.9-2.4-2-2.8-2.4
				c-2-2.2-2.8-4.4-5.5-7.9c-1.5-2.8-2.9-6.1-1.3-8.1c0,0,1.1-1.3,2.8-2.6c2.9-2.2,8.6,4.8,11.4,4.8c2.2,0,6.1,4.4,8.1,7.5
				c7,11,9.7,17.8,16.5,28.8c-0.9,0.4-1.8,0.7-2.8,0.9c-2.2-0.6-4.4-1.1-6.6-1.7C416.1,245.8,413.7,245,411.3,244.3z"/>
			<path class="st20" d="M458.7,342.2c-5.5,7.3,1.3-1.5-12.3,13.2c-2.6,0-15.1,2-18.6,2c-0.2-3.3-0.4-6.1-0.6-8.8
				c4-6.1,3.7-12.1,0.6-18.6c-7.5-15.4-11.4-32-12.7-49.2c-0.7-7.5-1.7-15.1-2.4-22.6c-0.6-6.2-6.2-10.1-1.1-14
				c2,1.1,12.3-3.1,14.3-2.2c12.1,15.3,14.7,39.7,29,53.5c4,4,6.4,8.8,6.1,14.7c0,8.5-1.1,9,1.8,17.1c0,1.7-2.2,11.8-2.8,13.4
				C459.4,341.3,459.4,341.9,458.7,342.2z"/>
			<path class="st25" d="M430.4,358c-2.2-1.3,6.1-25.7-2.9-32.9c-7-5.7-10.8-39.7-12.5-44.3c-3.7-9.7-5-26.6-5-35.1
				c0.9-0.2,0.6,1.1,1.7,1.1c4,3.1,5.7,16.9,11.8,24.1c0.7,1.3,3.7,16.4,4.4,17.6c3.3,5.5,2.2,4,4.4,16.4c1.3,9.2,3.1,27.9,4.4,37.3
				C437.6,348.3,429.8,354.9,430.4,358z"/>
			<path class="st21" d="M401.7,282.5l-4.6,3.3c-1.3,0.9-6.2,5-6.8,6.4c-2,4.8-5.5,16.7-1.3,34.5c5.7,23.5,2,20.9,4,43
				c1.8,19.7,2.2,18.9,3.3,26.8c1.3,8.6-5.7,25.5,4.2,27.9c5.7,1.5,13.2-0.2,16.4,0c2.8,0.2,5.5-0.9,7.3-3.1
				c2.4-2.9,5.1-7.7,5.1-14.3c-0.2-6.4,0.2-14.3,0.7-34.5c0.6-21.1,0.2-25.2-0.4-36c-0.6-10.8-9.2-26.3-9.7-35.5
				c-0.6-9.2-0.9-19.8-8.5-19.8h-4.6C405,280.9,403.2,281.4,401.7,282.5z"/>
			<g>
				<path class="st26" d="M369,448.4c-2,0-4,0-6.1-0.2C365.2,445.3,367.2,445.5,369,448.4z"/>
				<path class="st27" d="M424.1,433.7c0.4,0.6,0.4,1.3,0.4,2c0,1.3,0.2,2.6,0.7,3.9c0.9,2.4,1.3,4.8,1.5,7.3c0,1.1,0.2,2.2,0.2,3.3
					c0,0.2,0,0.4,0,0.4c-0.6-0.2-1.1-0.4-1.7-0.6c-1.3-0.4-2.6-1.1-3.7-2c-2-1.7-4.4-2.9-7.2-3.5c-2.9-0.6-5.7-1.7-8.6-1.5
					c0-0.4,0-0.9-0.2-1.3c0-0.7,0.2-1.5,0.2-2.2c0.2-1.3,0.4-2.4,1.3-3.3c0.9-0.9,1.7-1.8,2.4-2.9c0.9-1.1,1.8-2.2,2.8-3.3
					c0.6-0.7,1.1-1.3,1.7-2.2c0.7,0.6,1.7,1.1,2.6,1.5c1.5,0.6,2.8,1.3,3.7,2.4c0.7,0.7,1.5,1.7,2.2,2.6c0.6,0.6,0.9,0.6,1.1,0
					C424,433.9,424,433.7,424.1,433.7z"/>
				<path class="st27" d="M354.3,439.8c0.6-1.7,0.9-3.1,0.9-5c0-0.4,0.2-0.9,0.4-1.3c0,0.2,0.2,0.2,0.2,0.4c0.2,0.6,0.7,0.7,1.1,0.2
					c0.6-0.7,1.3-1.5,1.8-2.2c1.1-1.3,2.4-2.2,3.9-2.8c1.1-0.4,2-0.7,2.9-1.5c0.4,0.6,0.7,1.1,1.1,1.5c0.9,1.1,1.7,2,2.6,3.1
					c0.9,1.1,1.8,2.2,2.8,3.3c0.6,0.6,0.9,1.3,1.3,2c0.4,1.1,0.4,2.2,0.6,3.3c0,0.6,0,1.3,0,2c-1.1,0-2,0-3.1,0.2
					c-2,0.4-3.9,0.9-5.9,1.5c-2.4,0.6-4.4,1.7-6.4,3.1c-0.6,0.6-1.3,0.9-2,1.3c-1.1,0.6-2.4,0.9-3.7,1.5"/>
				<path class="st28" d="M388,447.1c0,0.9,0,1.7,0,2.6c-0.9-0.7-1.8-1.5-2.6-2.4c-1.3-1.3-2.8-2.4-4.4-2.8
					c-2.4-0.7-4.6-1.5-7.2-1.7c0-0.7,0.2-1.3,0-2c-0.2-1.1-0.2-2.2-0.6-3.3c-0.2-0.7-0.7-1.5-1.3-2c-0.9-1.1-1.8-2.2-2.8-3.3
					c-0.9-0.9-1.7-2-2.6-3.1c-0.4-0.6-0.9-0.9-1.1-1.5l0.2-0.2c0.9-0.9,1.7-2,2-3.3c1.8-0.6,3.7-0.6,5.5,0v0.2
					c0.9,2.2,2.2,3.9,4.4,4.6c2,0.7,3.7,1.8,5,3.5c0.6,0.6,1.1,1.3,1.7,1.8c0.4,0.4,0.6,0.4,0.9,0l0.2-0.2c0.4,1.3,0.6,2.6,0.6,3.9"
					/>
				<path class="st28" d="M414,427.8c-0.6,0.7-1.1,1.5-1.7,2.2c-0.9,1.1-1.8,2.2-2.8,3.3c-0.7,0.9-1.5,2-2.4,2.9
					c-0.9,0.9-1.1,2.2-1.3,3.3c0,0.7-0.4,1.5-0.2,2.2c0,0.4,0,0.9,0.2,1.3c-0.2,0-0.6,0-0.7,0c-1.8,0.2-3.7,0.7-5.5,1.3
					c-2.2,0.6-3.9,1.7-5.5,3.3c-0.7,0.7-1.5,1.5-2.4,2.2c0-3.3,0.2-6.4,1.5-9.4c0.4-0.7,0.4-1.7,0.4-2.4c0-1.3,0-2.6,0.6-3.7
					c0.4,0.6,0.7,0.6,0.9,0.4c0.4-0.4,0.7-0.9,1.1-1.3c0.9-1.1,2-2.2,3.3-2.9c0.9-0.6,2-0.9,3.1-1.5c0.9-0.4,1.5-0.9,2.2-1.7
					c0.7-0.9,1.1-1.8,1.7-2.9c1.8-0.6,3.5-0.6,5.3,0c0,0.2,0,0.2,0,0.4C412.4,425.8,413.1,426.9,414,427.8z"/>
				<path class="st29" d="M425.8,452.8c-0.7,0.2-1.5,0.2-2.2,0.2c-9.7,0-19.5,0-29,0c-0.7,0-1.5-0.2-2.2-0.2c-0.4,0-0.6-0.2-0.7-0.4
					c0,0,0-0.2,0.2-0.2c0.9-0.7,1.7-1.5,2.4-2.4c0.6-0.6,1.3-1.1,2-1.7c1.1-0.7,2.4-1.1,3.7-1.5c1.5-0.4,2.9-0.9,4.4-1.1
					c1.5-0.2,2.8-0.2,4.2,0c0.9,0.2,1.8,0.4,2.8,0.6c0.7,0.2,1.7,0.4,2.4,0.6c0.7,0.2,1.5,0.4,2.2,0.6c1.5,0.6,2.9,1.1,4,2
					c1.5,1.1,2.9,2.2,4.6,2.8C425.1,452.5,425.4,452.5,425.8,452.8z"/>
				<path class="st29" d="M354.3,452.7c1.8-0.6,3.7-1.7,5.1-2.9c0.9-0.7,1.8-1.3,2.9-1.7c1.5-0.7,3.3-0.9,4.8-1.5
					c1.1-0.4,2.4-0.6,3.5-0.7c1.7-0.4,3.1-0.4,4.8,0c1.8,0.4,3.7,0.9,5.3,1.3c1.7,0.6,3.1,1.3,4.4,2.6c0.7,0.6,1.3,1.3,2,1.8
					c0.4,0.4,0.7,0.6,0.9,0.9c-0.2,0.4-0.6,0.4-0.9,0.4c-0.9,0.2-1.8,0.2-2.6,0.2c-9.4,0-18.9,0-28.3,0c-0.7,0-1.7,0-2.4-0.2"/>
				<path class="st30" d="M406.5,424.2c-0.6,0.9-0.9,2-1.7,2.9c-0.6,0.7-1.3,1.3-2.2,1.7c-1.1,0.6-2,0.9-3.1,1.5
					c-1.3,0.7-2.4,1.8-3.3,2.9c-0.4,0.4-0.7,0.9-1.1,1.3c-0.4,0.4-0.6,0.2-0.9-0.4c-0.2-0.7-0.2-1.5,0.4-2.2
					c0.7-1.1,1.1-2.4,1.1-3.9c0-1.1,0.2-2.2,0.4-3.3c0.2-1.1,0.7-2,1.5-2.9c2.2-2.6,5-4.4,8.1-5.7c0.6-0.2,1.1-0.6,1.8-0.9
					c0.4-0.2,0.6-0.2,0.9,0c0.2,0,0.2,0.2,0.4,0.2c-2.4,0.4-3.9,2-4.8,4.2c0.2,0,0.2-0.2,0.4-0.4c0.4-0.6,0.7-1.1,1.1-1.5
					c0.9-1.1,2.2-1.7,3.7-1.8c0,0.4-0.2,0.7-0.2,1.1c-2.2,0.4-3.9,1.5-4.6,3.7c0,0-0.2,0.2,0,0.2c0,0,0,0,0.2,0
					c0.2-0.2,0.4-0.6,0.6-0.7c0.9-1.3,2.2-2,3.9-2.2c0,0.6-0.2,1.3-0.4,1.8c-2,0.6-3.7,1.5-4.2,2.8c1.1-1.1,2.4-1.8,3.9-2
					c-0.2,0.9-0.6,1.7-0.9,2.6c-1.1,0.4-2.2,0.9-2.9,1.7C404.7,424.7,405.4,424.4,406.5,424.2z"/>
				<path class="st30" d="M385.7,434.1l-0.2,0.2c-0.4,0.4-0.6,0.4-0.9,0c-0.6-0.6-1.1-1.1-1.7-1.8c-1.3-1.7-3.1-2.8-5-3.5
					c-2.2-0.7-3.7-2.4-4.4-4.6v-0.2c0.9,0.2,1.7,0.6,2.6,0.9c-0.7-0.9-1.8-1.3-2.9-1.7c-0.4-0.9-0.7-1.7-0.9-2.6
					c1.5,0.2,2.8,0.9,3.9,2c0-0.4-0.2-0.4-0.4-0.7c-1.1-1.1-2.2-1.8-3.7-2c-0.2-0.6-0.4-1.3-0.4-1.8c2,0.2,3.3,1.5,4.6,3.1
					c-0.9-2.2-2.4-3.5-4.8-3.9c0-0.4-0.2-0.7-0.2-1.1c1.5,0.2,2.8,0.7,3.7,2c0.4,0.6,0.9,1.1,1.3,1.7c-0.7-2.2-2.2-3.9-4.6-4.2
					l0.2-0.2c0.2-0.2,0.6-0.2,0.7,0c2.6,1.1,5.1,2.2,7.2,4c1.1,0.9,2,1.7,2.9,2.8c0.9,1.1,1.3,2.6,1.5,4c0,1.1,0.2,2,0.4,3.1
					c0,0.9,0.4,1.7,0.9,2.4C385.7,432.4,385.9,433.2,385.7,434.1z"/>
				<path class="st30" d="M414,427.8c-1.1-0.9-1.7-2-2.2-3.3c0-0.2,0-0.2,0-0.4c0.9,0.2,1.8,0.7,2.8,1.1c-0.9-0.9-2-1.5-3.1-1.8
					c-0.4-0.9-0.7-1.7-0.9-2.6c0.9,0.2,1.7,0.6,2.4,0.9c0.7,0.4,1.1,0.9,1.8,1.3l0,0l0,0c-0.2-0.4-0.4-0.7-0.7-0.9
					c-1.1-1.1-2.4-1.8-3.9-2c0-0.6-0.2-1.3-0.4-1.8c1.7,0.2,2.9,0.9,3.9,2.2c0.4,0.4,0.7,0.9,1.1,1.3c-0.9-2.4-2.6-3.9-5.1-4.2
					c-0.2-0.4-0.2-0.7-0.2-1.1c1.5,0.2,2.8,0.7,3.7,1.8c0.6,0.7,1.1,1.3,1.7,2c0,0,0,0.2,0.2,0l0,0c-0.9-2.2-2.2-4-5-4.6
					c0-0.2,0.2-0.2,0.2-0.4c0.4,0,0.7,0,1.1,0.2c2,0.9,4,1.8,5.9,3.1c1.5,1.1,2.8,2.2,3.9,3.5c0.7,0.9,1.1,2,1.3,3.3
					c0.2,1.3,0.2,2.6,0.4,3.9c0,0.9,0.4,1.7,0.9,2.2c0.4,0.6,0.6,1.3,0.6,2c0,0.2-0.2,0.2-0.2,0.4c-0.4,0.6-0.7,0.6-1.1,0
					c-0.7-0.9-1.5-1.7-2.2-2.6c-1.1-1.1-2.4-1.8-3.7-2.4C415.7,428.8,415,428.4,414,427.8z"/>
				<path class="st30" d="M367.9,424.2c-0.4,1.3-1.1,2.4-2,3.3l-0.2,0.2c-0.9,0.7-1.8,1.1-2.9,1.5c-1.5,0.6-2.8,1.7-3.9,2.8
					c-0.6,0.7-1.3,1.5-1.8,2.2c-0.4,0.6-0.9,0.4-1.1-0.2c0-0.2-0.2-0.2-0.2-0.4c0-0.7,0.2-1.5,0.6-2c0.7-1.1,0.9-2.2,0.9-3.5
					c0.2-1.3,0.2-2.4,0.4-3.7c0.4-1.7,1.5-2.8,2.6-3.9c2.2-2,4.8-3.5,7.5-4.8c0.4-0.2,0.7-0.4,1.1-0.6c0.4-0.2,0.6-0.2,0.9-0.2
					c0.2,0,0.2,0.2,0.4,0.4c-2.6,0.4-3.9,2.2-5,4.6c0,0,0,0,0,0.2l0,0c0,0,0,0,0-0.2c0.2,0,0.2-0.2,0.4-0.4c0.4-0.6,0.9-1.3,1.3-1.8
					c0.9-1.1,2-1.7,3.5-1.8c0.2,0,0.2,0,0.2,0.2c0,0.4,0,0.6-0.2,0.9c-2.6,0.4-4.2,1.8-5.1,4.2c0.4-0.4,0.7-0.9,1.1-1.3
					c1.1-1.3,2.4-2,4-2.2c-0.2,0.6-0.4,1.3-0.6,1.8c-0.2,0-0.2,0-0.4,0c-1.7,0.4-3.1,1.3-4,2.8v0.2l0,0c0.2-0.2,0.4-0.2,0.4-0.4
					c1.1-0.9,2.2-1.7,3.7-1.8c-0.2,0.9-0.6,1.7-0.9,2.6c-1.1,0.4-2.2,0.9-3.1,1.8C366.3,424.9,367,424.4,367.9,424.2z"/>
				<path class="st30" d="M425.8,452.8c-0.4-0.4-0.7-0.4-1.1-0.6c-1.7-0.6-3.1-1.7-4.6-2.8c-1.3-0.9-2.6-1.7-4-2
					c-0.7-0.2-1.5-0.4-2.2-0.6c-0.7-0.2-1.7-0.4-2.4-0.6c-0.9-0.2-1.8-0.6-2.8-0.6c-1.5-0.2-2.8-0.2-4.2,0c-1.5,0.2-2.9,0.7-4.4,1.1
					c-1.3,0.4-2.6,0.7-3.7,1.5c-0.7,0.6-1.5,0.9-2,1.7c-0.7,0.7-1.7,1.7-2.4,2.4c0,0,0,0.2-0.2,0.2c-0.6-0.7-0.6-1.8,0.2-2.6
					c0.9-0.6,1.7-1.3,2.4-2.2c1.5-1.7,3.3-2.8,5.5-3.3c1.8-0.4,3.7-1.1,5.5-1.3c0.2,0,0.6,0,0.7,0c2.9-0.2,5.9,0.9,8.6,1.5
					c2.6,0.6,5,1.7,7.2,3.5c1.1,0.9,2.4,1.5,3.7,2c0.6,0.2,1.1,0.4,1.7,0.6c0.6,0.6,0.6,1.1,0.4,1.7
					C426.9,452.8,426.4,452.8,425.8,452.8z"/>
				<path class="st31" d="M369.9,415.7c0-0.2-0.2-0.2-0.4-0.4c0.7-0.4,1.5-0.4,2,0l-0.2,0.2C371,415.5,370.5,415.5,369.9,415.7z"/>
				<path class="st31" d="M410,415.4c0,0.2-0.2,0.2-0.2,0.4c-0.6,0-0.9,0-1.5,0c-0.2,0-0.2-0.2-0.4-0.2
					C408.7,415.2,409.5,415,410,415.4z"/>
				<path class="st14" d="M367.9,424.2c-0.9,0.2-1.8,0.7-2.8,1.1c0.9-0.9,2-1.5,3.1-1.8c1.5-0.4,2.9-0.4,4.6,0
					c1.1,0.4,2.2,0.9,2.9,1.7c-0.7-0.4-1.7-0.7-2.6-0.9C371.6,423.6,369.8,423.6,367.9,424.2z"/>
				<path class="st14" d="M411.3,423.4c1.1,0.4,2.2,0.9,3.1,1.8c-0.9-0.4-1.7-0.9-2.8-1.1c-1.8-0.6-3.5-0.6-5.3,0
					c-0.9,0.2-1.8,0.6-2.6,0.9c0.9-0.9,1.8-1.3,2.9-1.7C408.3,423.1,409.8,423.1,411.3,423.4z"/>
				<path class="st31" d="M411.3,423.4c-1.5-0.4-2.9-0.4-4.6,0c0.4-0.9,0.7-1.7,0.9-2.6c0.9-0.2,1.8-0.2,2.8,0
					C410.6,421.8,410.9,422.5,411.3,423.4z"/>
				<path class="st13" d="M408.3,415.7c0.6,0,0.9,0,1.5,0c2.6,0.4,3.9,2.2,5,4.6l0,0c-0.6-0.7-1.1-1.5-1.7-2
					c-0.9-1.1-2.2-1.8-3.7-1.8c-0.4,0-0.6,0-0.9,0c-1.5,0.2-2.6,0.7-3.7,1.8c-0.4,0.6-0.7,0.9-1.1,1.5c0,0.2-0.2,0.4-0.4,0.4
					C404.5,417.7,406,416.1,408.3,415.7z"/>
				<path class="st14" d="M409.6,417.6c2.6,0.4,4.2,1.8,5.1,4.2c-0.4-0.4-0.7-0.9-1.1-1.3c-1.1-1.3-2.4-2-3.9-2.2
					c-0.6,0-0.9,0-1.5,0c-1.7,0.2-2.8,0.9-3.9,2.2c-0.2,0.2-0.4,0.6-0.6,0.7l0,0c0.9-2,2.4-3.3,4.6-3.7
					C408.9,417.6,409.3,417.6,409.6,417.6z"/>
				<path class="st14" d="M410.4,420.9c-0.9-0.2-1.8-0.2-2.8,0c-1.5,0.2-2.8,0.9-3.9,2c0.6-1.3,2.2-2.4,4.2-2.8c0.7,0,1.5,0,2.2,0
					c1.5,0.4,2.8,0.9,3.9,2c0.2,0.4,0.6,0.6,0.7,0.9l0,0c-0.6-0.4-1.1-0.9-1.8-1.3C412.2,421.2,411.3,420.9,410.4,420.9z"/>
				<path class="st31" d="M410,419.9c-0.7,0-1.5,0-2.2,0c0.2-0.6,0.4-1.3,0.4-1.8c0.6,0,0.9,0,1.5,0
					C409.8,418.8,410,419.4,410,419.9z"/>
				<path class="st31" d="M409.6,417.6c-0.4,0-0.7,0-1.1,0c0-0.4,0.2-0.7,0.2-1.1c0.4,0,0.6,0,0.9,0
					C409.5,416.6,409.5,417.2,409.6,417.6z"/>
				<path class="st14" d="M403.9,421.2C403.8,421.2,403.8,421.4,403.9,421.2C403.8,421.2,403.8,421.2,403.9,421.2
					C403.8,421.2,403.8,421.2,403.9,421.2z"/>
				<path class="st31" d="M373.1,423.4c-1.5-0.4-2.9-0.4-4.6,0c0.4-0.9,0.7-1.7,0.9-2.6c0.9-0.2,1.8-0.2,2.8,0
					C372.3,421.6,372.7,422.5,373.1,423.4z"/>
				<path class="st13" d="M369.9,415.7c0.6,0,1.1,0,1.7,0c2.4,0.4,3.7,2,4.6,4.2c-0.4-0.6-0.7-1.1-1.3-1.7c-0.9-1.1-2.2-1.8-3.7-2
					c-0.4,0-0.7,0-1.1,0c-1.5,0-2.6,0.7-3.5,1.8c-0.6,0.6-0.9,1.1-1.3,1.8c0,0.2-0.2,0.4-0.4,0.4l0,0
					C366.1,417.9,367.4,416.1,369.9,415.7z"/>
				<path class="st14" d="M370.1,418.1c-1.7,0.2-2.9,0.9-4,2.2c-0.4,0.4-0.7,0.9-1.1,1.3c0.9-2.4,2.6-3.9,5.1-4.2c0.4,0,0.7,0,1.1,0
					c2.4,0.4,3.9,1.7,4.8,3.9c-1.1-1.7-2.6-2.9-4.6-3.1C371,418.1,370.5,418.1,370.1,418.1z"/>
				<path class="st14" d="M372.2,420.9c-0.9-0.2-1.8-0.2-2.8,0c-1.5,0.2-2.6,0.9-3.7,1.8c-0.2,0.2-0.4,0.2-0.4,0.4l0,0
					c0.9-1.7,2.4-2.4,4-2.8c0.2,0,0.2,0,0.4,0c0.7,0,1.5,0,2.2,0c1.5,0.4,2.8,0.9,3.7,2c0.2,0.4,0.2,0.4,0.4,0.7
					C374.9,421.8,373.6,421.1,372.2,420.9z"/>
				<path class="st31" d="M371.8,420.1c-0.7-0.2-1.5,0-2.2,0c0.2-0.6,0.4-1.3,0.6-1.8c0.6,0,0.9,0,1.5,0
					C371.6,418.8,371.8,419.4,371.8,420.1z"/>
				<path class="st31" d="M371.2,417.6c-0.4,0-0.7,0-1.1,0c0-0.4,0-0.6,0.2-0.9c0-0.2,0-0.2-0.2-0.2c0.4-0.2,0.7,0,1.1,0
					C371.2,416.6,371.2,417.2,371.2,417.6z"/>
				<path class="st13" d="M414.8,420.1C414.8,420.3,414.8,420.3,414.8,420.1C414.8,420.3,414.8,420.3,414.8,420.1
					C414.8,420.3,414.8,420.1,414.8,420.1z"/>
				<path class="st14" d="M414.6,423.1L414.6,423.1L414.6,423.1z"/>
				<path class="st13" d="M365,420.1C365.2,420.3,365,420.3,365,420.1C365,420.3,365,420.3,365,420.1C365,420.3,365,420.1,365,420.1
					L365,420.1z"/>
				<path class="st14" d="M365.2,423.1L365.2,423.1C365.2,423.1,365.2,422.9,365.2,423.1C365.2,422.9,365.2,422.9,365.2,423.1z"/>
			</g>
			<path class="st32" d="M300.3,410.8c-19.3-9.6-20.9-12.1-13.4-25c3.9-6.6-0.2-9.4-5.5-12.7c-7.2-4.6-12.9-11.2-6.6-16.2
				c10.3-8.5,6.4-16-5.7-25c7,0.4,14,4.6,17.3,9.4c3.7,5.7,2.2,9.6-1.1,12.7c-6.6,6.1-8.5,11.9,4.2,18.6c4.6,2.4,6.4,7.2,5.3,11.9
				C291.1,398.3,291.3,398.3,300.3,410.8z"/>
			<path class="st33" d="M493.2,258.8c-20.8-4.6-23-6.6-20.4-19.5c1.5-6.6-3.3-8.3-9-10.1c-8.1-2.6-15.3-7.3-11.4-13
				c6.4-9.6,0.7-15.4-13.4-20.9c6.4-1.1,14.1,1.1,18.7,4.8c5.3,4.2,5.1,7.9,3.1,11.6c-4,6.8-3.7,12.3,9.9,15.6c5,1.3,8.3,5,8.6,9.6
				C480.7,249.6,480.7,249.6,493.2,258.8z"/>
			<path class="st32" d="M383.4,123c-11.9,17.6-14.5,18.9-25.5,11.8c-5.7-3.7-8.8,0-12.7,4.8c-5.3,6.4-12.5,11.6-16.4,5.7
				c-6.6-9.6-14.1-6.4-24.4,4.8c1.5-6.4,6.4-12.9,11.4-15.6c5.9-3.3,9.4-1.8,11.8,1.5c4.8,6.2,10.1,8.1,18.2-3.5
				c2.9-4.2,7.7-5.9,12.1-4.6C370.3,131.1,370.3,131.1,383.4,123z"/>
			<path class="st33" d="M306.2,174.8c6.2,20.4,5.5,23.3-7,27.2c-6.4,2-5.5,6.8-4.4,12.9c1.7,8.3,1.1,16.9-5.9,16.4
				c-11.6-0.9-13.8,7-11.8,21.9c-4-5.1-5.9-13-5-18.7c1.1-6.6,4.4-8.5,8.5-8.3c7.9,0.2,12.5-2.8,8.8-16.4c-1.5-5,0.4-9.6,4-12.1
				C304.4,190.1,304.4,190.1,306.2,174.8z"/>
			<path class="st33" d="M467.5,183.1c-12.3-8.3-13.6-9.9-10.8-16.7c1.5-3.5-1.3-5.7-4.8-8.3c-4.8-3.7-8.8-8.3-5.9-10.7
				c4.8-3.9,1.8-8.8-6.4-15.8c4,1.1,8.6,4.4,11.2,7.9c2.9,3.9,2.6,6.1,0.9,7.5c-3.1,2.9-3.3,6.2,4.8,11.8c2.9,2,4.6,5.1,4.6,7.9
				C460.7,174.3,460.7,174.5,467.5,183.1z"/>
			<path class="st34" d="M396.2,149.9c14.9,1.1,16.7,2,17.6,9.4c0.6,3.7,3.9,4.4,8.3,5c5.9,0.9,11.8,2.9,10.3,6.4
				c-2.4,5.7,2.8,8.6,13.4,10.7c-4,1.1-9.7,0.4-13.6-1.3c-4.4-2-5.1-4-4.4-6.2c1.3-4-0.2-7-9.9-7.9c-3.7-0.4-6.6-2.2-7.7-4.6
				C406.5,154.1,406.5,154.1,396.2,149.9z"/>
			<path class="st32" d="M487,296.1c-7.5,0.9-8.3,0.2-6.2-7c1.1-3.7-0.6-3.9-2.8-3.9c-2.9,0-5.3-1.5-3.3-5.1c3.3-6.2,1.5-8.3-3.5-9
				c2.6-1.7,5.3-1.7,6.8-0.6c1.7,1.5,1.3,3.3,0.4,5.7c-2,4.2-2.4,7.2,2.6,6.6c1.8-0.2,2.8,1.3,2.6,3.7
				C482.9,293.4,483.1,293.4,487,296.1z"/>
			<path class="st34" d="M377.5,164.6c-1.7,7.5-2.6,7.9-8.8,3.5c-3.1-2.2-3.9-0.7-4.6,1.1c-1.1,2.8-3.1,4.4-5.9,1.3
				c-4.6-5.1-7.3-4.2-9.6,0.2c-0.6-2.9,0.4-5.7,1.8-6.6c1.8-1.1,3.7-0.2,5.3,1.7c3.3,3.5,5.9,4.8,7.2-0.2c0.6-1.8,2.2-2.2,4.4-1.1
				C373.4,167.3,373.4,167.3,377.5,164.6z"/>
			<path class="st34" d="M291.5,304.6c-7.2-2.8-7.3-3.9-2-9.2c2.8-2.8,1.3-3.7-0.6-4.8c-2.4-1.5-4-3.9-0.4-6.1
				c5.9-3.9,5.3-6.6,1.3-9.6c3.1-0.2,5.5,1.1,6.2,2.9c0.7,2-0.4,3.7-2.4,5.1c-3.9,2.8-5.5,5.1-0.9,7.2c1.7,0.7,1.8,2.4,0.6,4.4
				C289.5,300.2,289.5,300.2,291.5,304.6z"/>
		</g>
	</g>
	<path class="st0" d="M527.8,548.2c-8.6,0.4-11.6,6.8-18.4,6.1c-7-5.9-10.3-32-16.9-39.3c-6.6-7.5-15.3-21.9-19.7-36.6
		c-7-31.6,9.2-77,7.2-69.8c8.5,14,3.5,5.5,14.7,27c8.5,16,11.6,33.4,16.2,51.1c1.8,7.3,2.6,15.3,7.9,24.1c7-11.9,7.9-27.4,12.3-40.2
		c4.2-12.9,7.7-26.5,12.1-41.7c-16.2-10.7-28.5-26.1-37.7-46.1c-5.3-11.6-9.4-23.3-12.5-35.5c-3.5-13.8-1.5-25.9,4-36.2
		c7.5-13.8,19.8-12.3,28.8,3.7c8.6,15.3,12.5,32.5,15.1,49.8c2.6,16.2,3.9,32.5,6.2,52.2c11.9-21.3,22.8-39.1,24.6-64.9
		c2.6-35.8,11.9-67.4,27.2-95c6.6-12.1,15.1-20.9,27.2-23.5c12.3-2.6,20.6,4.4,25,20.9c2.4,9,2.2,17.8,1.1,26.3
		c-3.1,21.9-12.9,37.1-25.4,49.4c-11.9,11.8-23.7,23.7-36.2,34.7c-12.3,10.8-20.6,25.9-26.5,43.7c-1.7,0.9-3.3,1.5-3.7,5.1
		c2.6,0,5,0.2,5.3-3.7c10.8-7,21.7-14.3,32.7-20.9c10.3-6.2,21.9-8.5,34-7.9c5.3,0.2,10.5,1.7,15.6,4.6c8.1,4.6,14.7,11.9,16.4,23.3
		c1.8,11.8-1.5,21.1-9,26.5c-21.9,15.3-46.9,16.5-73.1,12.1c-10.5-1.7-20.9-4.8-32.3-7.5c-9.4,20.8-14.9,44.5-20.6,72.4
		c21.9-21.3,44.6-33.6,70.2-39.1c3.5-0.7,7-1.8,10.5-2c20-0.7,49.1,18.7,33.1,46.7c-1.5,2.4-3.3,14.9-35.3,19.7
		c-7.7,1.1-16.5,2.6-24.8,3.7c-8.1,0.6-16.4,1.1-24.4,1.7"/>
</g>
</svg>
