<svg id="Ebene_1" data-name="Ebene 1" xmlns="http://www.w3.org/2000/svg" viewBox="0 0 315 276"><defs><style>.cls-1{fill:#6b9080;}</style></defs><g id="Layer_1"><g id="_2145413079968"><path class="cls-1" d="M309.72.68a2,2,0,0,1,2.8.4,2,2,0,0,1-.43,2.8L129.15,139.55l185,132.57a2,2,0,0,1,.44,2.8,2,2,0,0,1-2.77.44L124.59,141.19a2.58,2.58,0,0,1-.43-.44,2,2,0,0,1,.43-2.77L309.72.68Z"/><path class="cls-1" d="M186,.68a2,2,0,0,1,2.77.4,2,2,0,0,1-.4,2.8L5.39,139.55l185,132.57a2,2,0,0,1,.47,2.8,2,2,0,0,1-2.8.44L.84,141.19a1.32,1.32,0,0,1-.44-.44A2,2,0,0,1,.8,138Z"/></g></g></svg>