<?xml version="1.0" encoding="utf-8"?>
<!-- Generator: Adobe Illustrator 25.3.1, SVG Export Plug-In . SVG Version: 6.00 Build 0)  -->
<svg version="1.1" id="Ebene_1" xmlns="http://www.w3.org/2000/svg" xmlns:xlink="http://www.w3.org/1999/xlink" x="0px" y="0px"
	 viewBox="0 0 1003 825" style="enable-background:new 0 0 1003 825;" xml:space="preserve">
<style type="text/css">
	.st0{fill:#385953;}
	.st1{fill:#F6FFF8;}
	.st2{opacity:0.17;fill:#83A58A;enable-background:new    ;}
	.st3{fill:#E0663E;}
	.st4{fill:#A4C3B3;}
	.st5{fill:#E2E8E5;}
	.st6{fill:#A3755B;}
	.st7{fill:#2C665B;}
	.st8{fill:#86A89D;}
	.st9{fill:#B7805A;}
	.st10{fill:#6D645C;}
	.st11{fill:#254F47;}
	.st12{fill:#527062;}
	.st13{fill:#99AA86;}
	.st14{fill:#DFE5E1;}
	.st15{fill:#331C1C;}
	.st16{fill:#1C1018;}
	.st17{fill:#77A1AA;}
	.st18{fill:none;stroke:#331C1C;stroke-width:2.44;stroke-linecap:round;stroke-miterlimit:10;}
	.st19{opacity:0.8;}
	.st20{clip-path:url(#SVGID_2_);}
	.st21{opacity:0.12;}
	.st22{fill:#FFF8F8;}
	.st23{fill:#FFFFFF;}
	.st24{fill:#F0E6DE;}
	.st25{fill:#7C5345;}
	.st26{fill:#B47042;}
	.st27{fill:#D7935D;}
	.st28{fill:#FDFCFC;}
</style>
<path class="st0" d="M721.8,76c116.7,65.3,175.1,97.9,197.1,128.3c56.6,78-30.8,114.5-5,266.6c17,100.5,66.2,149.8,28.6,180.2
	c-37.6,30.4-99.2-7.3-173.2,23.5c-85.6,35.7-62.9,110.9-131.7,128.3c-57.5,14.5-84.7-35.2-221.7-60.4c-89.5-16.5-101,0.5-185.8-17.8
	c-38.9-8.4-137.6-29.7-186.2-79.3c-81.7-83.2,2-221.2,44.3-290.9C198.7,172.2,439.2-23.4,605.2,16.3C622.3,20.4,655.4,38.9,721.8,76
	z"/>
<path class="st1" d="M295.6,750.3c61.5,114.3,171.3-64.1,216.1-48.1c75.8,27.1,279,100.7,325,56.6c58.9-56.6,20.1-69.7,39.4-130
	c19.4-60.2,142.1-237.3,93.6-305.2c-26.7-37.4-35.7-36.1-101.3-52c-154.5-37.4-129-254.4-273.8-239.1
	C152.4,79.3,411.1,231.8,378.7,252.9c-117.8,76.6-195.3,37.4-226.8,199.5c-11.3,58,29.3,75.2,63.8,132.2
	C237.5,620.5,229.3,627.2,295.6,750.3z"/>
<path class="st2" d="M581.4,300.6c19.8,17.1,24.7,30.2,43.9,60.5c8.2,12.9,20.1,30.8,36.2,52c2.8,3.8,9.4,4.8,12.2,1.8
	c26.4-27.9,32.4-58.8,46.8-85.5c1-2.1,0.4-4.5-1.4-6.1c-20.2-20.5-38.7-38.5-56.1-57.1c-19.5-21-36.9-43.2-43.6-67.8
	c-5.4-19.8,6.9-30.9,28.7-35.7c23.7-5.2,41.2,3.3,54.1,21.9c11.1,16,17.3,32.8,22.1,49.9c3.6,12.7-3.8,43.2,15.4,56.2
	c1.6,1.1,30.3-29.1,27.5-57.4c-3.9-39.9-8.2-78.4-5.8-88.3C776.9,81,877,81.3,912.1,100.4c126.6,68.6-20.7,133.8-42.7,152.6
	c-35.9,30.8-97.5,48.4-119.2,89c-0.9,1.6,19.2-46.9,21.6-46.6c13.3,1.7,30.3-6.6,38.3-11.7c15.5-9.7,33.8-15.4,53.3-19.4
	c20.6-4.2,39.4,1.7,51,18.8c11.1,16.4,8.4,30.3-8.7,40c-20.5,11.7-45.8,14.6-71.4,16.4c-26.1,1.8-52.9,1.7-82,2.3
	c-2.3,0-4.5,1.1-5.4,2.9c-11.7,23.4-26.6,46-32.9,74.2c-0.5,4,3,7.5,7.9,7.9c0.8,0.1,1.6,0,2.4-0.1c59.5-12.4,90.9-59.5,164-36.2
	c1,0.3,15.7,5.4,22.3,10.3c38.8,29.1,13.2,42.6-23.3,52.5c-43.4,11.9-92,6.7-139.3,5.4c-14.9-0.4-30.7-5.7-47.8-1.1
	c-1.6,0.4-2.8,1.4-3.4,2.6c-14,28.3-24.5,57.7-31.4,87.8c-0.5,3.9,3.1,7.4,7.9,7.8c0.7,0.1,1.3,0,2,0
	c67.1-12.1,112.8-45.9,188.5-24.6c5.9,2,11.6,4.5,16.7,7.6c44.4,29.7,17.2,52.7-28.9,58.1c-41,4.8-83.9-1.2-126.8-9L663.6,577
	c-3-0.7-6.2,0.5-7.5,2.8c-14.2,30.1-17.1,63.3-26.9,93.6c-0.7,3.1,1.3,6.1,4.8,7.4c20,8.1,30.7-0.2,42.6-3.5
	c39-11,77.8-22.4,121.5-24.6c34.5-1.7,60.3,8.7,69,27.4c9.8,21.3-4.3,41.1-36.8,47.7c-50.4,10.2-104.3-0.3-157.6-8
	c-14.8-2.1-29.6-8.8-44.8-7.6c-1.8,0.1-3.3,0.9-4.3,2.1c-8.7,10.6-13.9,22.4-20.5,33.6c-7.3,12.3-33.1,0.2-26.5-12.4
	c5-9.6,11.1-18.9,14.9-30.3c0.4-2.9-1.3-5.7-4.5-7.1c-20.4-9.4-39-17.2-56.3-26.7c-46.9-25.8-97.3-47.9-133-86.3
	c-18.1-19.5-27.9-37.8-16.9-57.1c0.7-1.2,2-2.1,3.5-2.5c35.6-9.8,54.8-6.1,82.8,17.8c34.1,28.8,64.5,60.4,90.9,94.2
	c8.4,10.8,17.6,21.2,29.6,35.1c3.9,4.6,11.8,4.2,13-0.5c9.6-36.5,17.8-68.2,26.2-100.3c0.5-2.4-0.7-4.8-3.1-6.3
	c-17.8-11.9-35.9-20.3-52.9-30.2c-54.8-31.7-113.2-61.3-141.4-113.7c-0.6-1.2-0.8-2.6-0.4-3.8c2.8-9.5-2.2-21.4,11-31.6
	c15.6-8.8,36.2-3.8,57.6,9.1c0.4,0.3,0.9,0.6,1.3,0.9c50.5,40.2,82.5,90.2,125.4,139.7c3.6,4.2,11,4.2,12.8,0
	c13.7-31,24.4-57.8,29-84.2c0.2-2.2-0.9-4.4-3.1-5.8L546.2,365c-3.3-2-48.1-30.1-46.3-63.2c0-2.1,1.8-26,21-29.8
	C543.2,267.5,572.7,293,581.4,300.6z"/>
<path class="st3" d="M745.5,498.3c-6.7-1.6-13.2-4.2-20.4-1c0.7-2.7,1.1-3.1,4.3-3.6C735.6,492.8,740.8,494.9,745.5,498.3z"/>
<path class="st4" d="M116.2,182c-0.1,12.3,10.7,21.7,23,27.4c12.2,5.3,25.2,9.4,38.7,12c33.4,7.4,68.1,11.4,102.5,14.8
	c16.5,1.6,33,3,49.7,3.9c11.8,0.7,23.1-9,22.6-18.5c-0.3-10.1-10.2-18.3-22.6-18.5c-21.6-1.3-43.1-3.2-64.6-5.5l6,0.7
	c-29.4-3.2-59.1-7.1-87.6-14c-6.2-1.5-12.4-3.2-18.4-5.3l5.4,1.8c-5-1.6-9.7-3.7-14.1-6.3l4.5,2.9c-1.5-0.9-2.8-2-4-3.2l3.5,3.7
	c-0.7-0.7-1.3-1.6-1.8-2.4l2.3,4.4c-0.3-0.6-0.5-1.2-0.6-1.8l0.8,4.9c0-0.4,0-0.8,0-1.1c0-9.7-10.4-18.9-22.6-18.5
	C126.5,163.7,116.5,171.9,116.2,182L116.2,182z"/>
<path class="st5" d="M330,196.4c-2.8-0.2-5.3-0.5-8-0.8l6,0.7c-21-2.3-41.8-6-62.3-10c-22.3-4.3-44.3-9.1-66-14.7
	c-9.5-2.5-18.9-5.1-28.1-8.2l5.4,1.8l-0.5-0.2c-5.8-2-11.1-3.3-17.4-1.9c-5.7,1.3-10.5,4.4-13.5,8.5c-3.1,4.3-3.9,9.4-2.3,14.2
	c1.7,4.2,5.1,9.1,10.4,11c21.1,7.1,42.7,13,64.7,17.7c24.2,5.4,48.5,10.2,73.1,14c12.7,2,25.6,3.7,38.5,4.7c6,0,11.7-1.9,15.9-5.4
	c8.8-7.2,8.8-18.9,0.1-26.1c0,0,0,0-0.1-0.1C341.5,198.5,335.9,196.6,330,196.4L330,196.4z"/>
<path class="st4" d="M344.1,348.5c-28.6,0.9-57.3,4.3-85.7,7.3c-29.1,3.2-58.3,4.8-87.7,4.9c-19.3,0.2-38.6-0.7-57.8-2.6l6,0.7
	c-6.6-0.7-13.1-1.7-19.5-2.9c-11.5-2.3-25.1,3-27.9,12.9c-2.6,9.5,3.5,20.3,15.8,22.8c18.6,3.4,37.6,5.3,56.6,5.8
	c19,0.7,38.1,0.6,57.2,0c30.7-1.1,60.7-4.9,91.1-7.7c17.1-1.6,34.4-3.4,51.6-3.9c11.8-0.3,23.1-8.2,22.6-18.5
	c-0.5-9.7-9.9-18.9-22.6-18.5L344.1,348.5z"/>
<path class="st4" d="M74.3,295.9c55.4,4.6,111,7.5,166.6,10c14.3,0.6,28.7,1.2,43.1,1.7c12.4-0.1,22.5-8.3,22.6-18.5
	c-0.3-10.1-10.2-18.3-22.6-18.5c-55.9-1.9-111.7-4.7-167.6-8.6c-13.9-1-28.1-2-42.1-3.2c-6,0-11.7,2-15.9,5.4
	c-8.8,7.2-8.8,18.9-0.1,26.1c0,0,0,0,0.1,0.1C62.7,293.8,68.4,295.7,74.3,295.9z"/>
<path class="st5" d="M324.7,337.7c-22.5,0.7-45.1,3.2-67.4,5.4c-26.8,2.6-53.4,5.8-80.4,6.8c-20.3,0.9-40.5,1-60.8,0.3
	c-12.4,0.1-22.5,8.3-22.6,18.5c0.3,10.1,10.2,18.3,22.6,18.5c35.8,1.2,71.6,0,107.1-3.7c22.3-2.3,44.6-4.7,66.9-6.6
	c11.5-1,23-2,34.6-2.3c11.6-0.3,23.1-8.2,22.6-18.5C346.6,346.5,337.2,337.3,324.7,337.7L324.7,337.7z"/>
<path class="st5" d="M300.5,258.9c-53.4-0.8-107-2-160.3-5.3c-13.8-0.9-27.6-1.9-41.3-3.4l6,0.6c-5-0.5-9.9-1.2-14.9-1.9
	c-5.9-1.2-12.1-0.5-17.4,1.9c-5.1,2.5-8.8,6.4-10.4,11c-2.5,9.1,3.3,20.8,15.8,22.8c27.9,4.3,56.6,5.8,84.9,7.3
	c31.6,1.6,63.3,2.6,95,3.3c14.2,0.3,28.4,0.6,42.6,0.8c11.8,0.2,23.1-8.6,22.6-18.5C322.9,267.4,312.9,259.2,300.5,258.9
	L300.5,258.9z"/>
<path class="st6" d="M734.2,472.3c-0.2-0.9,0-1.8,0.5-2.6c2.8-3.4,13.1,4.3,13.7-1.7c0-0.4-4-1.8-18.1-5.2c-2-0.5-3.6-1.5-4.8-2.9
	c-13.5-16.6-31.1-44-33.8-52.9c0,0-1.1-3.2-11.1,0c0,0-4.5-3.2-7.4-0.7c-1,0.8-0.3,6.1,0,7c1,4.7,2.9,9.2,5.6,13.4
	c0.5,0.7,1.4,2.8,2.1,3.9c2.1,2.8,1.5,3.8,11.5,12.3c19.3,13.2,24.5,17.3,19,37.9c-0.4,1.3-1.3,6.6,1.6,5.4c1.8-0.8,2.8-8.1,4.4-9.1
	c2.3-1.6,1.5,2.6,1.5,4.7c0,5.3,3.4,10.5,5,6.5c0.1-1.3,0-2.7-0.3-4c-0.9-5.5-0.8-9.2,1.4-8.5c0.5,0.2,0.4,3.3,1.7,7.2
	c1.5,4.2,1.6,6,3.7,6.4c3,0,1.8-1.6,1.3-4.9c-0.8-4.6-3.5-9.5-2.2-9.3c0.8,0.1,2,1.5,7.6,11.1c3.1,0.3,2.8-2.4,0.9-6.4
	C737.5,478.9,734.2,472.8,734.2,472.3z"/>
<path class="st7" d="M193.7,417.6c-7.4,4.9-6.5,14.8-5.6,21.7c1.9,10.4,4.8,20.6,8.8,30.5c3.3,8.9,7.1,17.7,10.6,26.5
	c4.7,11.8,8,24.1,12.2,36.1c19,54.3,45.6,106.3,72.8,158.2c18.8,36,42.7,70,61.2,106.1c1.1,3,4.9,4.7,8.6,4c3.7-0.9,5.9-4,4.9-7
	c-16.2-31.6-36.2-61.8-53.9-92.9c-15.2-26.9-28.9-54.6-42.4-82.2c-12-24.3-22.8-49-32.1-74.1c-5.6-15.1-10.4-30.3-15.5-45.5
	c-2.4-7.2-5.6-14.2-8.5-21.3c-4.6-10.8-8.4-21.9-11.3-33.1c-1.3-4.3-1.8-8.7-1.8-13.1c0-0.4,0-0.9,0-1.3c0-0.4,0.4-2.3,0-0.5
	c0.2-0.8,0.5-1.6,0.7-2.5c0.2-0.8,0.8-1.3-0.1,0.1c0.3-0.3,0.5-0.7,0.7-1.1c0.3-0.8-1.1,0.6-0.3,0.2c0.3-0.1,0.7-0.5,1-0.8
	c2.7-2.2,2.7-5.8,0-8.1c-2.8-2.2-7.1-2.2-9.9,0L193.7,417.6z"/>
<path class="st8" d="M186.6,599.6c13.9,1,21.1,5,40.2,11.9c8.2,2.9,19.7,6.8,34.1,10.7c2,0.5,4.2-0.4,4.9-2c0.2-0.4,0.2-0.8,0.2-1.2
	c-2.1-20.5-12.6-35.9-18.5-52.1c-0.4-1.2-1.6-2-3-2.3c-15.5-2.3-29.4-4-43.2-6.5c-15.5-2.7-30.7-6.7-43.1-15.1
	c-10-6.8-10.2-15.6-4.5-24.7c6.3-10,15.9-12,28-8.1c10.3,3.5,19.8,8.4,28.2,14.4c6.5,4.3,16.3,19.9,28.4,19.3
	c1,0-10.8-26.3-13.8-33.7c-5.6-14.4-6.2-18.8-15-34.1c-4.4-8.1-8.3-16.4-11.6-24.8c-3.8-7.9-9.2-23.3-9.2-31.8
	c0-16.6,15.7-17.2,32.6-13.9l4.9,1.6c10.6,4.3,9.9,4.8,12.4,12.6c4.3,13.5,3.8,44.3,3.8,59.5c0,25,11.7,58.7,20.7,83.4
	c0.4,1-12.4-26.5-11.4-27.1c5.4-3.6,8-12.7,8.7-17.5c1.7-9,5.4-17.7,10.9-25.7c5.6-8.5,14.6-12.1,25.7-8.5
	c10.6,3.4,15.4,10.3,13.3,20.1c-2.4,11.7-10.2,21.2-18.5,30.3c-8.3,9.1-18,17.9-27.9,27.6c-0.9,0.8-1.1,2-0.7,3
	c5.6,13.9,9.4,28.5,18.8,42.7c1,1.5,3.3,2.1,5.2,1.3c0.7-0.3,1.2-0.8,1.6-1.3c15.9-24.7,7.7-55.2,43-68.9c3.8-1.4,7.9-2.4,12.1-2.8
	c25.6,0,22.1,14.1,13.3,30.3c-10.4,19.3-29.7,32.8-47,47.6c-5.4,4.6-13.2,7.5-17.3,15c-0.3,0.7-0.3,1.5,0,2.3
	c6.5,16.6,14.8,32.7,24.8,48.1c1,1.5,3.3,2.1,5.2,1.3c0.6-0.3,1.1-0.7,1.5-1.2c18.7-27.1,21-56.5,56.4-71.8c2.8-1.1,5.9-1.8,9-2.1
	c27.9-1.6,27.6,17.1,13.6,34.5c-12.5,15.4-30.1,26.7-48.3,37.3l-26.1,15.1c-1.4,0.8-2,2.3-1.5,3.6c7.3,17.6,19.8,32.9,28.8,49.2
	c0.8,1.5,2.8,2.2,4.7,1.7c10.4-3,10.8-10.1,13.6-15.4c9.3-17.4,18.3-35,32.8-50.1c11.5-12,24.8-15.8,35.6-10.5
	c12.1,6,15.3,19.2,6.5,32.6c-13.6,20.8-36.9,33.8-58.9,47.7c-6.1,3.9-13.9,5.8-18.9,11.3c-0.5,0.7-0.8,1.5-0.6,2.3
	c1.6,7.2,3.8,14.2,6.5,21.2c2.5,7.7-11.6,10.8-14.4,3.2c-1.9-6-4.4-12-7.3-17.7c-0.9-1.3-2.7-2-4.5-1.6c-11.1,2.5-20.8,5.2-30.7,6.8
	c-27.3,3.9-54,10.8-82.3,5.8c-14.3-2.5-25.3-7.2-29.3-19.1c-0.3-0.8-0.2-1.6,0.2-2.3c8.5-15.8,16.7-20.5,36.5-19.2
	c24,1.4,47.6,5.2,70.5,11.2c7.4,1.9,14.9,3.4,24.8,5.5c2,0.4,4.1-0.6,4.7-2.2c0.2-0.7,0.1-1.5-0.3-2.2l-31.7-51.8
	c-0.7-1.1-2.1-1.8-3.7-1.7c-11.1,0.6-21,2.9-31,4.2c-32.3,4.1-65,10.3-96.4-3.2c-0.8-0.3-1.4-0.9-1.7-1.5c-2.9-5-9.5-8.5-9-17.2
	c1.9-8.9,11.1-13.4,24-14.8h0.8c34.2,1,65.9,12.2,101.4,19.6c2.1,0.4,4.1-0.6,4.7-2.3c0.2-0.6,0.1-1.2-0.1-1.8
	c-7.8-17.8-15-32.9-24.2-45.8c-0.7-1-2-1.6-3.5-1.5l-74.3,2.9c-2,0.2-29.3,2.6-42.2-12.3c-0.8-1-10-11.8-4.8-19.7
	C159.6,597.7,180.5,599.1,186.6,599.6z"/>
<path class="st9" d="M735.6,468.8c0.6-0.7,1-1.6,0.9-2.6c-0.7-4-13.9-0.6-11.6-6.2c0.2-0.4,4.5-0.3,18.9,1.4c2.1,0.3,4.2-0.1,6-1
	c20.8-10.5,59.2-38.4,66.9-35.4c12.7,5.1,24.1,7.7,17.8,15.4c-9.5,2.8,9-2-29.3,10.8c-5,1.7,1.4-0.4-16.1,5
	c-24.2,5.3-31.1,7.3-36.6,27.8c-0.4,1.3-2.2,6.5-4.3,4.3c-1.2-1.3,1.6-8.3,0.7-9.8c-1.3-2.3-2.8,1.9-3.8,3.7
	c-2.8,4.8-8.4,8.4-7.8,4.2c0.6-1.3,1.3-2.5,2.3-3.5c3.6-4.6,5.6-8.1,3.1-8.2c-0.6,0-2,2.9-5.3,5.9s-4.5,4.9-6.6,4.6
	c-2.6-1.1-0.8-2.1,1.4-4.9c3-3.9,8.1-7.4,6.8-7.7c-0.7-0.1-2.6,0.7-12.5,7.5c-3-0.8-1.2-3.1,2.4-6.1
	C729.3,473.7,735.4,469.3,735.6,468.8z"/>
<path class="st10" d="M747.4,302.1c-8.7-4.1-28.3,6.5-28.2,7.5s4.3,10.8,2.8,8.3c-3.4-5.3-3,3.4,1.6,2.5c5.3-1.4,10.5-3.2,15.4-5.5
	c9.6-3.8,11.5-5.3,12.1-6.8C751.6,305.6,750.1,303.2,747.4,302.1z"/>
<path class="st11" d="M762.3,317.5c-8.7-4.1-25.9,7.3-36,7.3c-2,0-3.3,0-3.3,0c-6.4-0.4-8.4-1.8-9.1-1c-1.3,1.3,0.6,7.6,6,10.9
	c6,3.7,13.9,2.1,18.6,1.2c5.3-1.4,10.5-3.3,15.4-5.5c9.6-3.8,11.5-5.2,12.1-6.8C766.5,321.1,765,318.7,762.3,317.5z"/>
<path class="st1" d="M690.7,445.4c0-3.6,0.5-7.2,1.6-10.7c18,5.9,37.4,8,56.6,6l25.6-5.1c0,2.9,1.1,5.6,0.9,8.5
	c-12.8,2.7-19.3,4.8-32.5,6.2c-16,1.6-32.3,0.3-47.6-3.8C693,445.9,692.9,446,690.7,445.4z"/>
<path class="st12" d="M728.3,803.1c-12.8,2.6-25.9,2.1-39,2.3c-2.9,0.4-5.7-1-6.8-3.2c0.8-2.7,3.6-3.2,6.4-3.7
	c5.9-1.1,11.5-3.4,16.3-6.5c5.9-3.7,12.5-6.8,19.5-10.5c0.6-4.3,1.6-8.9,2-13.7c0.8-11.2,2.3-22.5,1.8-33.7
	c-1.1-28-6.2-55.4-18.3-82c-8.1-17.7-13.5-36.2-20.1-54.4c-0.4-1.7-0.5-3.4-0.4-5c10.6,0,21.3,0.5,31.8-1.5c1.8-0.1,3.6,0,5.3,0.3
	c0.8,5.5,1.4,11.1,2.6,16.6c1.8,8.5,3.8,17.1,6.3,25.5c2.8,9.5,5,19.3,10.6,28.2c9.3,14.9,11.7,31,15.4,47
	c1.8,7.9,1.9,16.1,4.3,24.1c0.3,1.7,0.3,3.4,0,5c-0.6,0.7-1.1,1.4-1.5,2.1c-4.8,11.8-9.4,23.7-14.5,35.5c-3.7,8.4-3.9,8.4,0.5,18
	C757.8,789.9,729.8,802.8,728.3,803.1z"/>
<path class="st6" d="M730,591c-2.7-0.2-5.4-0.2-8.1,0c-10.5,2-21.2,1.6-31.8,1.5c-3.1-4.2-3.1-9.1-4.2-13.7
	c-2.3-9.7-4.1-19.4-6.1-29c8,1.2,16.1,2.1,24,3.7c8.4,1.6,17.7,1.1,20,1.6c-0.9,1.7-1.3,3.5-1.1,5.3c-0.2,2.5-0.1,4.9,0.3,7.4
	c1.2,7.7,2.8,15.4,4.2,23.1L730,591z"/>
<path class="st13" d="M780,785.5c-3.7,5-7.2,5.8-11.1,2.5c-2.1-1.7-4.2-3.5-6.2-5.3c0.2-2.8,0.2-5.5,0-8.3
	c-1.6-12.1-3.3-24.2-5-36.3c0-2.5-0.2-5-0.6-7.5c-0.9-12.6-1.4-7.4-2.8-21.4c-1.3-16-2.1-33.2-9.3-47.9c-4.7-8.6-8.4-17.5-11-26.6
	c-2-8.4-3.5-16.8-4.9-25.3c-0.9-5.5-1.4-11-2-16.5v-0.7c13.2,4.9,28,6.2,42.2,3.9c6.4-1.1,12.8-1.6,19.2-2.3
	c-1.4,11.4-2.8,22.7-4.2,34c-1.1,7.7-2.8,15.4-3.8,23.1c-0.2,2.2,0.2,4.4,1.2,6.4c10.6,22.1,8.4,44.8,7,68.8
	c-1,17-6.5,34.9-6.1,50.6C781.5,779.5,780.9,782.6,780,785.5z"/>
<path class="st9" d="M787.6,595.6c-5.8,0.9-11.6,1.5-17.3,2.7c-12.9,2.6-26.5,1-38.1-4.4c-1-8.7-2.1-17.3-3-25.9
	c-0.4-3.7,0-8.7,0-12.9c3.6-0.4,6.4,0.5,9.4,0.1c10-1,20.1-1.7,30.1-3c7.2-0.9,15.2,1.5,22.3,0.2c0.3,14.5-1.8,24.9-3.4,39.3
	C787.6,593.1,787.6,594.4,787.6,595.6z"/>
<path class="st9" d="M700,281.8c2.8-2.3-11.1-13.3-10.3-16.5c2.2-10.1,15.9-13.3,23.8-20c7.6,12.4,19.5,5,37.8,10.5
	c-2.4-2.2,7,8.7,4.5,6.5c3.5-1.9,7.8,9.1,10.4,9.6c2.6,0.4,4.5,14.3,7.2,14.6c2.1,3.7-15.4,3.7-16.9,7c-2.2,4.8-1.3,9.5-1.3,14.2
	c0.8,2.1-0.2,7.1,0.6,9.1c-3.8,1.3-5.1,2.1-8.7,3.6c-1.5,0.5-2.9,1.2-4.2,2c-5.4,1.3-10.6,2.9-15.8,4.7c0.2-1.1-7.2-8.4-6.9-9.5
	c12.1-0.5,21.3-4.4,26-13.5c0.3-0.1,0.6-0.2,0.9-0.3c0.1,0,0-0.3,0.2-0.5c-0.4,0.3-0.7,0.5-1,0.8c-4.4,1.1-8.7,2.5-13.2,3.4
	c-4.5,0.9-9.1,1.4-13.7,2.1c-6,0.5-10.3-1.9-14.2-5c-0.2-1.7-0.6-3.3-1.3-4.9C700.9,294,699.6,287.9,700,281.8z"/>
<path class="st7" d="M672.6,406.4c2.5-10.2,3.8-20.6,3.9-31c0-7.6,0.3-15.2,0.7-22.8c0.3-4.5,1-8.9,2-13.4c0.6-1.6,1.8-3.1,3.3-4.2
	c1.8-1.4,3.6-2.8,5.6-4.1l22.8-5.1c0.4-2.6,0.7-4.8,1.1-6.8c0.3-1.7,2.1-2.1,3.9-2.3l22.3,0.1c17.7,0,18.8-1,17.7,0
	c-3.5,3.3-26.9,10-32,11.7c-2.8,0.9-3.9,2.5-1.5,5c9.2,1.2,18.6,0.1,26.9-3.2c4.7-1.7,10.6-2.5,13.2-6.8l25.9,2.8
	c6.3,0.6,11.4,4.5,12.7,9.5c0.4,1.9,3.7,2.9,6.1,12.7c4.6,8.7,27.9,68.3,31.8,84.5c2.6,11.1-36.8,8.1-38.1,3.5
	c-2.5-9-7.7-4.9-10.3-13.8c-1.7-9.1-3.1-18.3-5.2-27.4c-1.3-5.8-3.6-11.4-5.2-17.1c-0.7-3.3-3.7-5.9-7.6-6.8
	c-2.6,1.5-4.9,3.3-6.8,5.3c-6.6,9-14.2,17.7-18.1,27.8c-1.3,2.9-2.3,5.9-2.8,9c-0.9,7.6,0.1,15.3,3.1,22.5c0.5,1.6,0.9,3.3,1.1,4.9
	c-20.4,1.6-29.3,3.1-48.2-3.2c-1.3-3.1-2-6.3-2.1-9.6c2.4-32.7-1.9-32.9-5.6-16.5C692.4,414.8,676.2,408.2,672.6,406.4z"/>
<path class="st11" d="M698.7,403.3c1.9,0-8.8-23,1.6-29.7c4.6-2.9-0.6-9.3-1-9.4c-1.8-0.5-1.9,3.8-4.8,7.7c-3,3.9-3.3,3.9-2.8,11.8
	c0.4,4.3,1.7,8.5,3.8,12.4C697.7,400.8,698.7,403.3,698.7,403.3z"/>
<path class="st14" d="M775.5,444.2c3.2,5.2,11.6,21.8,15.7,29.9c12,24,16.1,41.6,20.1,50.8c1.6,6,0.7,7.3,2.3,13.3
	c0.7,2.7,0.7,7.4,1.6,10.7l-5.3,1.3c-10.3,1.1-20.5,2.6-30.7,3.4c-14.2,1.1-28.5,1.8-42.7,2.6c-2.3-0.6-4.7-1-7.1-1.2
	c-8.6,0.2-17.1-0.4-25.6-1.6c-7.9-1.5-16-2.5-24-3.7l-9.4-3.6c0-3.9-1-4.9,1.7-23.5c1.4-15,16.3-71.7,18.7-77.3
	c2.3,0.6,2.4,0.5,4.7,1.1c15.3,4.1,31.6,5.4,47.6,3.8C756.2,449,762.8,446.9,775.5,444.2z"/>
<path class="st15" d="M343.8,178.4h224c20.4,0,37,13.6,37,30.3v566.3c0,16.7-16.6,30.3-37,30.3h-224c-20.4,0-37-13.6-37-30.3V208.8
	C306.8,192,323.4,178.4,343.8,178.4z"/>
<path class="st16" d="M747.9,310.2c1.4-0.2,2.4,0.6,3.7,0.8c3.9,0.8,5.3,0.3,6.7-2.6c0.6-1.2,1.1-1.5,2.5-0.5
	c1.7,1.5,4.4,1.5,6.2,0.2c0.3-0.2,0.5-0.5,0.7-0.7c2-1.8,2.5-1.9,5.3-0.8c2.4,1.3,5.6,0.8,7.2-1.2c0.3-0.4,0.6-0.9,0.7-1.4
	c0.6-2.2,2.9-3.7,5.6-3.8c1.3,0,2.4-0.8,2.4-1.9c0-0.1,0-0.3,0-0.4c0-1.2-0.2-2.5-0.4-3.7c-0.4-0.9,0.3-1.9,1.4-2.2
	c0.1,0,0.1,0,0.2,0c1.4-0.4,2.6-1,3.8-1.8c1.8-1,2.6-2.8,2.1-4.5c-0.6-1.5,0.2-3,1.9-3.7c2.5-1.3,2.8-2.1,2.1-4.5
	c-0.2-0.8-0.5-1.6-0.9-2.3c-1.6-2-1.4-4.7,0.4-6.6c0.5-0.7,1-1.5,1.3-2.3c0.7-1.5,0.4-3.3-0.9-4.6c-1.1-1-1.3-2.4-0.5-3.6
	c2.5-4.9,1.6-7.2-4.1-9.9c-1.3-0.6-1.4-1.2-0.8-2.3c2.3-4.4,1.8-5.7-3.1-8.4c-0.9-0.4-1.5-1.1-1.7-1.9c-0.2-0.7-0.3-1.4-0.4-2.1
	c-0.5-3.7-2.2-5.1-6.7-5.4c-1.7-0.1-2.6-0.4-3.2-1.9c-0.7-2.4-3.6-4-6.6-3.5c-1.8,0.2-3.5-0.6-4.1-2c-0.6-1.2-1.4-2.3-2.4-3.3
	c-1.7-2.1-5.2-2.6-7.7-1.2c-0.1,0.1-0.2,0.1-0.3,0.2c-1.4,1-3.5,1-5,0c-1.1-0.7-2.3-1.3-3.5-1.8c-1.9-0.9-4.2-0.8-5.9,0.3
	c-2,1.6-5.1,1.6-7.1,0c-4.3-2.6-7.6-2-10.1,1.9c-0.6,1-1.9,1.5-3.2,1.3c-1.1-0.2-2.1-0.5-3-0.9c-2.7-1.5-6.4-0.9-8.2,1.3
	c-0.2,0.3-0.4,0.5-0.6,0.8c-0.9,1.4-1.6,1.7-3.4,0.8c-3.9-2-6.9-1.2-8.7,2.3c-1.2,2.3-1.3,2.8-4.8,1.7c-1.7-0.6-3.6,0-4.5,1.3
	c-0.6,0.7-1,1.5-1.2,2.3c-0.9,2.9-0.9,2.8-4.4,3.2c-3,0.2-5.3,2.4-5,4.9c0,1.6-0.3,2.4-2.8,2.6c-3.3,0.3-5.8,2.7-5.6,5.4
	c0.1,1.5-1,2.9-2.8,3.3c-3.7,1.3-5.5,4.7-3.9,7.8c0.1,0.3,0.3,0.5,0.5,0.8c0.9,1.1,0.8,2.6-0.3,3.6c-4.7,4.7-2.8,6.5,0.7,10
	c1.5,1.2,2,3,1.4,4.6c-0.3,1.2-0.5,2.4-0.5,3.7c-0.3,0.9,0.1,1.8,0.9,2.4c1.7,0.9,1.6,2.1,1.5,3.5c-0.6,2.7,1.4,5.3,4.6,6
	c2.8,1,3.1,1.7,2.6,4c-0.9,3.4-0.4,4.1,3.9,4.8c3.2,0.2,5.8,2.3,6.1,4.9c0,1.4,1.4,2.5,3.1,2.5c0.2,0,0.4,0,0.6-0.1
	c2.2-0.1,4.2,0.7,5.3,2.3c2.2,2.4,2.8,2.6,6.4,1.8c1.3-0.5,2.8-0.3,3.9,0.5c1.7,1.2,4,0.4,6,0c1.4-1.9,1.1,1.1,1.8-1
	c0.6-1.7-3.7-7.4-4.9-8.8c-3-3.2-2.8-3.7-3.7-11c-0.5-2.9-0.5-5.9-0.3-8.9c0.2-3.1-0.3-6.2-1.3-9.1c0-2.7,4-14.1,9.6-17.4
	c1.7-1.4,4.4-1.4,6.1,0c0.5,0.4,0.9,1,1.1,1.6c0.8,1.9,3.1,3.1,5.6,2.9c0.7-0.1,1.4,0.2,1.8,0.8c2.1,3.2,3.4,3.6,7.7,2.7
	s6.7,0,7.9,3.8c0.4,1.6,2,2.8,4,2.9c3.1,0.4,3.9,1.1,4.3,3.6c0.3,3.2,2.8,6,6.4,7.2c1.2,0.5,2.1,1.3,2.6,2.3
	c0.6,1.1,1.1,2.3,1.6,3.4c0.8,1.3,0.2,2.9-1.4,3.6c-0.7,0.3-1.4,0.4-2.1,0.3c-1.3,0-1.6,0.3-1.9,1.1c-0.9,3-2.7,5.7-5.2,8
	c-0.7,0.7-1.6,1.3-1.7,2.3C748.9,303.2,747.9,306.6,747.9,310.2z"/>
<path class="st11" d="M744.7,411.5c-2.5,10.3,3.5,27,1.3,29.1s22-3.3,22-3.3l6.6-1.6c0,0-10.8-17.9,5.6-38.1
	c7.4-9.1,0-20.8-0.7-21.6l-5.8-5.5C777.6,367.9,754.8,370,744.7,411.5z"/>
<path class="st17" d="M357.3,186.2h199.2c20.4,0,37,13.6,37,30.3v550.1c0,16.7-16.6,30.3-37,30.3H357.3c-20.4,0-37-13.6-37-30.3
	V216.5C320.3,199.8,336.9,186.2,357.3,186.2z"/>
<path class="st17" d="M353.8,784.8c-9.7-0.2-17.3-6.8-17.1-14.7V213c-0.2-7.9,7.4-14.5,17.1-14.7h210.9c9.7,0.2,17.3,6.8,17.1,14.7
	v557.1c0.2,7.9-7.4,14.5-17.1,14.7H353.8z"/>
<path class="st18" d="M593.5,451.1V216.8c0.3-18.4-12.2-35.3-32.3-43.6l-91.7-36.5c-6.5-2.6-14.1-2.7-20.7-0.1l-95.7,37
	c-20.4,8.2-33.2,25.2-32.9,43.8v233.8"/>
<ellipse class="st14" cx="459.2" cy="147.7" rx="20" ry="17.2"/>
<g class="st19">
	<g>
		<defs>
			<path id="SVGID_1_" d="M349.4,254.5h201.9c9,0,16.4,6,16.4,13.4v507.9c0,7.4-7.3,13.4-16.4,13.4H349.4c-9,0-16.4-6-16.4-13.4
				V267.9C333.1,260.5,340.4,254.5,349.4,254.5z"/>
		</defs>
		<clipPath id="SVGID_2_">
			<use xlink:href="#SVGID_1_"  style="overflow:visible;"/>
		</clipPath>
		<g class="st20">
			<g class="st21">
				<polygon class="st22" points="278.3,696 729.1,326.6 729.1,448.3 273.5,821.6 				"/>
				<polygon class="st22" points="278.3,601.7 729.1,232.3 729.1,285.9 273.5,659.1 				"/>
			</g>
		</g>
	</g>
</g>
<path class="st23" d="M724.1,555.2c-2.2,0.3-1.4,10.8-1.1,12.7c5,31.8,11.1,60.2,11.1,60.2c1.3,5.9,2.8,12.7,6.1,23.6
	c3.8,10.7,3.5,12.4,6,19.7c0,0,4.8,3.1,5.4,15.8c0.2,3.6-0.4-5-0.4-7.6c0-0.3-0.4-7.5-1.5-13.9c-0.8-4.6-2.4-4-4.6-8.9
	c-0.3-0.7-1.4-4.3-1.6-5c-9.7-43.8-14.4-61.3-14.5-65.8C729.1,578.5,729.3,554.5,724.1,555.2z"/>
<path class="st7" d="M726.9,774.5c-9,5.4-15.3,13.2-27,16.1c2.3,3.3,0,9.9,6.2,10c14.9,0.3,29.7-1,44.1-4.1
	c0.5-4.4,0.7-8.8,1.4-13.3c0.7-4.4,0.3-8.7-3.7-12C741,774,734.1,775.9,726.9,774.5z"/>
<path class="st24" d="M687.3,807.9c18.5-0.9,36.9-1.5,55.7-4.3c6.2-0.9,8.4-3.1,7.4-6.8c-14.4,3.1-29.2,4.5-44.1,4.1
	c-6.2,0-4-6.6-6.2-10c-7.7,0.8-12.6,5.1-17.3,8.9"/>
<path class="st25" d="M726.9,774.5c7.2,1.5,14.1-0.5,21-3.3c1.3-1.5,1.7-3.3,1.2-5.1c-7.3,0.8-13.9-2-21.6,0.8
	C726.4,769.3,726.2,772,726.9,774.5z"/>
<path class="st7" d="M761.4,775.2c-9,5.4-15.3,13.3-27,16.2c2.3,3.3,0,9.9,6.2,10c14.9,0.3,29.7-1,44.1-4.1
	c0.5-4.4,0.7-8.8,1.4-13.3c0.7-4.4,0.3-8.7-3.7-12C775.6,774.7,768.6,776.7,761.4,775.2z"/>
<path class="st24" d="M721.7,808.6c18.5-0.9,36.9-1.5,55.7-4.3c6.2-0.9,8.4-3.1,7.4-6.8c-14.4,3.1-29.2,4.5-44.1,4.1
	c-6.2,0-4-6.6-6.2-10c-7.7,0.8-12.6,5.1-17.3,8.9"/>
<path class="st25" d="M761.4,775.2c7.2,1.5,14.2-0.5,21-3.3c1.3-1.5,1.7-3.3,1.2-5.1c-7.3,0.8-13.9-2-21.6,0.8
	C760.9,770.1,760.7,772.7,761.4,775.2z"/>
<g class="st19">
	<path class="st26" d="M476.3,474.6c0.3-0.9,0-1.9-0.8-2.5c-4-3.3-19.3,4.2-20.3-1.6c0-0.4,6-1.8,26.7-5.1c2.6-0.4,5.1-1.3,7.1-2.8
		c20-16.2,45.9-42.7,50-51.4c0,0,1.6-3.1,16.7,0c0,0,6.6-3.1,10.9-0.6c1.4,0.8,0,4.6,0.2,5.5c1.1,8.6,3.2,11.9-1.4,16.9
		c-2.6,3.1-5.8,5.9-9.4,8.2c-8.2,4.2,3.4,0.9-17.6,4.8c-31.6,5.8-36.2,16.8-28,36.7c0.5,1.3,1.9,6.4-2.5,5.2
		c-2.8-0.8-4.2-7.9-6.4-8.8c-3.5-1.6-2.2,2.6-2.2,4.6c0,5.2-5,10.2-7.4,6.3c-0.2-1.3-0.1-2.6,0.4-3.8c1.3-5.3,1.2-9-2.1-8.2
		c-0.8,0.2-0.5,3.2-2.6,7c-2.2,4.1-2.3,5.8-5.4,6.3c-4.4,0-2.8-1.6-1.9-4.8c1.1-4.6,5.3-9.3,3.3-9.1c-1.1,0.1-3,1.4-11.1,10.8
		c-4.7,0.3-4-2.3-1.4-6.2C471.5,481,476.4,475.1,476.3,474.6z"/>
	<path class="st12" d="M487.3,796.9c19.2,0,7.1,0,13.6,0c4.8,0-4.2-14.2-4.8-18.7c-1.2-10.9,2.5-20.5,7.2-30.7
		c12.6-27.2-0.8-55.8,17.2-81.6c21.2-15.7,20-35.2,29.6-52.8c0.5-1.6,0.7-3.2,0.6-4.9c-15.7,0-31.5,0.5-47-1.5
		c-2.4-0.3-23.9-0.5-26.5-0.4c-1.2,5.4-10,39.9-13.7,48.1c-4.2,9.2-4.5,9.7-12.7,18.3c-13.7,14.4-7.2,18.8-12.6,34.2
		c-2.8,7.7-3.8,7-7.3,14.7c-0.7,1.6,3.6,25.5,3.7,27.2c0.8,0.7,2.6,13.7,2.8,14.5c3.8,14.2,3.8,35.1,19.5,34.8
		C462.3,798,479.3,796.9,487.3,796.9z"/>
	<path class="st26" d="M440,609.3c4.7,0,17.4-0.2,21.7,0c28.1,2,56.6,1.5,85.1,1.5c8.4-4.1,8.4-8.9,11.3-13.3
		c6.2-9.4,14.4-24.5,19.8-33.9c-21.5,1.2-47.8,4.2-68.9,5.7c-22.6,1.6-46,4.6-52.3,5.1c3.8,3,3.1,4.2,3.1,5.1c0,3.6,0.6,4-0.7,7.1
		c-3.2,7.5-7.5,14.9-11.3,22.4L440,609.3z"/>
	<path class="st27" d="M376.5,612.3c10.5,0.8,21.2,1.4,31.6,2.6c23.3,2.6,47.1,1.1,69.7-4.3c13,1.8,8.7-14.9,10.2-23.3
		c0.6-3.5,1.6-12.1-1.4-16.3c-6.6-0.4-15.3,2.4-20.7,2.1c-18.3-0.9-37.1,0.7-55.4-0.5c-13.2-0.9-24.3-2.3-37.5-3.4
		c-0.6,13.2,0.4,26.4,3.2,39.4C376.4,609.9,376.4,611.1,376.5,612.3z"/>
	<path class="st10" d="M453.4,303.8c12.8-4,41.8,6.3,41.6,7.3c-0.2,1.3-4.2,4.6-5.9,7.5l-2.8,2.5c-4.7-0.6-8.1,0.6-20.2-2.5
		c-14.2-3.7-17.1-7.4-18-8.9C446.8,307.4,449.7,304.9,453.4,303.8z"/>
	<path class="st11" d="M434.7,324.4c12.8-3.9,38.2,7.1,53.2,7.1c3,0,4.9,0,4.9,0c9.4-0.4,12.3-1.8,13.5-1c2,1.2-0.9,7.4-8.9,10.5
		c-8.9,3.6-20.7,2.1-27.5,1.2c-7.7-1.4-15.3-3.1-22.7-5.3c-14.3-3.7-17-5.1-17.9-6.6C428.2,328.1,431,325.6,434.7,324.4z"/>
	<path class="st1" d="M541.7,450.5c0-3.6-0.8-7.1-2.4-10.4c-27.9,6.1-54,2.4-84.1,0.9c-16.2-2.1-27.7-1.9-43.9-4
		c-27.6,6.8-2.6,10-2.4,12.8c18.9,2.7,35.9,4.2,55.5,5.5c23.5,1.6,47.2,0.4,70.4-3.6C538.2,451,538.2,451.1,541.7,450.5z"/>
	<path class="st26" d="M516.1,282.2c-3.5-2.6,9.2-14.3,8.4-17.9c-2.8-11.1-20.1-14.6-30-22c-9.6,13.7-24.5,5.5-47.6,11.6
		c3.1-2.4-8.8,9.6-5.6,7.1c-4.4-2.1-9.8,10.1-13.1,10.5c-3.3,0.4-5.6,15.7-9,16c-2.8,4.1,19.5,4.1,21.3,7.7
		c2.8,5.3,10.8,13.2,10.7,18.5c-1.1,2.3-3.2,8-4.3,10.3c4.8,1.5,0.8-0.7,5.6,1c1.9,0.5,3.7,1.3,5.3,2.3c11.9,2.8,21,3.7,31,6.8
		c-0.3-1.2,0.8-14.2,0.5-15.5c-15.3-0.6-29.8-1.3-35.7-11.4c-0.4-0.1-0.7-0.2-1.1-0.3c-0.2,0-0.2-0.4-0.3-0.5l1.3,0.9
		c5.6,1.3,11.1,2.7,16.7,3.7s11.5,1.6,17.2,2.3c7.6,0.6,13-2.1,17.9-5.5c0.5-1.8,4.3-3.1,5.3-4.8
		C514.6,296.5,516.4,289.4,516.1,282.2z"/>
	<path class="st7" d="M567.3,410.6c-3.7-9.7-5.7-19.9-5.7-30c0-7.4-0.4-14.8-1-22.2c-0.5-4.4-1.5-8.7-3-12.9
		c-0.5-1.5-2.8-2.9-4.8-4.1c-2-1.2-5.4-2.7-8.1-4l-33.7-5c-0.6-2.5-1.1-4.6-1.7-6.7c-0.5-1.7-3.1-2-5.8-2.3h-32.9
		c-26.2,0-27.9-0.9-26.2,0c5.1,3.2,39.7,9.7,47.4,11.4c4.2,0.9,5.6,2.4,2.2,4.8c-13.4,1.1-26.9,0.1-39.8-3.1
		c-7-1.7-15.7-2.4-19.5-6.7l-38.2,2.7c-9.5,0.7,0,0-21,3.9c-18.1,4.9-25.6,5.2-32,12.3c-17.5,19.7-13.9,71.4-19.5,87.1
		c-0.2,17.4,52.2,8,54.1,3.6c3.6-8.7,11.4-4.7,15.2-13.4c2.5-8.8,4.7-17.7,7.7-26.5c1.9-5.6,5.3-11,7.6-16.6
		c1.3-3.2-15.7,4.2-13.5,6.2c9.7,8.8-3.6,12.9,2.1,22.8c1.6,2.9-2.8,12.9,8.6,25.3c5.6,6.1,10.6,1.7,20.5,3.1
		c2.1,0.3,30.7,3.5,28.2,3.4c30.1,1.6,43.4,2.9,71.3-3.1c2-1.8,9.4-0.5,9.4-1.6c11.4,6.1,12.8-21.2,5.6-27.4
		C536.3,408.4,562.2,412.4,567.3,410.6z"/>
	<path class="st11" d="M538.9,411.2c-2.8,0,2.8-25.8-12.6-32.3c-6.8-2.9,0.9-9,1.4-9.1c2.8-0.5,2.8,3.7,7.2,7.5s4.8,3.8,4.1,11.4
		C538.7,392,542.6,406.1,538.9,411.2L538.9,411.2z"/>
	<path class="st16" d="M451.1,313.7c-1.8-0.3-3.1,0.6-4.6,0.9c-4.9,0.9-6.6,0.4-8.4-2.9c-0.7-1.4-1.3-1.6-3.1-0.6
		c-2.4,1.8-6.2,1.7-8.5-0.3c-0.1-0.1-0.2-0.2-0.3-0.3c-2.5-1.9-3.1-2-6.6-0.9c-4.7,1.5-8.4,0.6-10-2.8c-1-2.5-3.9-4.3-7.2-4.2
		c-2.3-0.1-3-1.1-3-2.5c0.1-1.3,0.2-2.7,0.6-4c0.4-1-0.3-2.2-1.6-2.5c-0.1,0-0.3-0.1-0.4-0.1c-1.7-0.4-3.3-1.1-4.7-1.9
		c-2.2-0.9-3.3-3-2.6-4.9c0.7-1.8-0.2-3-2.4-4c-3.1-1.4-3.5-2.3-2.6-4.9c0.2-0.9,0.6-1.8,1.2-2.6c2-2.2,1.8-5.3-0.6-7.2
		c-0.7-0.8-1.3-1.7-1.6-2.6c-0.9-1.7-0.5-3.6,1.1-4.9c1.3-1,1.6-2.7,0.6-3.9c-3.1-5.4-2-7.9,5.1-10.9c1.6-0.7,1.8-1.3,1.1-2.5
		c-3-4.9-2.3-6.3,4-9.3c1.1-0.4,1.8-1.2,2.2-2.1c0.2-0.8,0.4-1.5,0.5-2.3c0.6-4,2.8-5.6,8.4-6c2.1-0.1,3.3-0.5,4-2.1
		c1.2-2.8,4.8-4.5,8.4-3.9c2.1,0.3,4.3-0.6,5.1-2.3c0.8-1.3,1.8-2.6,3-3.7c2.6-2.4,6.9-2.9,10.2-1.1c1.9,1.1,4.4,1.1,6.3,0
		c1.4-0.7,2.8-1.4,4.3-2c2.4-1,5.2-0.9,7.5,0.3c2.6,1.7,6.3,1.7,8.9,0c5.4-2.9,9.5-2.3,12.7,2.1c0.8,1.2,2.4,1.8,4,1.4
		c1.3-0.2,2.6-0.5,3.8-1c3.7-1.9,8.6-1,10.9,2c0.1,0.1,0.1,0.2,0.2,0.3c1.1,1.6,2,1.8,4.2,0.9c4.9-2.3,8.7-1.4,11,2.5
		c1.5,2.6,1.7,3.1,6,1.9c2.1-0.6,4.4-0.1,5.7,1.4c0.7,0.7,1.2,1.6,1.5,2.4c1.1,3.2,1.1,3.2,5.6,3.5c3.6,0.1,6.4,2.5,6.3,5.4
		c0,1.7,0.3,2.6,3.3,2.9c3.9,0.1,7,2.8,7,6c0,1.9,1.1,2.9,3.5,3.7c5.3,1.8,7.1,5.8,4.3,9.4c-1.1,1.2-1,2.9,0.3,3.9
		c5.9,5.2,3.5,7.1-0.9,11c-1.8,1.2-2.5,3.1-1.8,4.9c0.4,1.3,0.7,2.7,0.7,4c0.3,1-0.1,2.1-1.1,2.7c-2.1,1-2,2.3-1.9,3.9
		c0.4,3.4-1.3,5.3-5.8,6.7c-3.3,1-3.9,1.9-3.2,4.4c1.1,3.8,0.5,4.6-4.9,5.3c-4.3,0.6-7.2,2.3-7.7,5.4c-0.3,2-1.9,2.9-4.6,2.7
		c-2.6-0.2-5.1,0.7-6.7,2.5c-2.8,2.6-3.5,2.8-8.1,1.9c-1.7-0.5-3.5-0.3-4.9,0.6c-2.1,1.3-5,0.4-7.6,0c-1.7-2.1-5.2-0.6-2.3-1.1
		c2.6-0.9,4.8-2.3,6.5-4.1c5.6-4.4,9.3-10.3,10.4-16.6c0.2-3.5-0.2-6.9-1-10.3c-0.8-4.1-3.2-10.6-3.2-10.8c0-3-5-15.5-12-19.1
		c-3.8-2-7.2-1.3-9.1,1.8c-1.3,2.2-4.1,3.5-7.1,3.2c-0.9-0.1-1.8,0.2-2.2,0.8c-2.8,3.5-4.3,3.9-9.7,3c-5.4-1-8.4,0.1-9.9,4.2
		c-0.7,1.9-2.7,3.2-5.1,3.2c-3.9,0.5-4.9,1.2-5.6,4c-0.5,3.7-3.7,6.8-8.1,7.9c-1.4,0.5-2.6,1.3-3.3,2.5c-0.8,1.2-1.4,2.5-2,3.8
		c-1.2,2.5,0.7,4.4,4.4,4.2c1.6,0,2,0.3,2.3,1.2c1.3,3.3,3.5,6.4,6.6,8.8c0.9,0.8,2,1.5,2.1,2.4
		C449.9,306.1,451.2,309.9,451.1,313.7z"/>
	<path class="st11" d="M402.2,416.3c2.4,8.1,1,5.4,6.3,13.2c8.5,12.7,11.1,10.9,11.1,10.9l-17.3,0.3c0,0-20.4-13-7.9-38.2
		C401.3,388.8,394,388.9,402.2,416.3z"/>
	<path class="st27" d="M463.3,508.3c-0.5-1-0.2-2.2,0.6-3.1c4.1-4.2,22.3,4.2,22.8-2.9c0-0.5-6.9-1.8-30.5-4.8
		c-3.2-0.3-6.1-1.4-8.6-3.1c-24.4-18.6-49.9-67.7-64.1-66.9c-23.5,1.3-48.4-5.8-52.2,16.2c12.6,6.3-12.5-5.3,37.3,21.9
		c6.5,3.5-1.7-1,21.2,11c33.6,14.1,42.7,18.6,35.6,43.1c-0.4,1.6-1.5,7.9,3.3,6.2c3-1,4-9.7,6.4-11c3.8-2,2.8,3,3,5.4
		c0.6,6.2,6.8,12.1,9,7.2c0.1-1.6-0.2-3.2-0.9-4.7c-2-6.4-2.3-10.8,1.4-10c0.9,0.2,1,3.9,3.7,8.3c3,4.8,3.3,6.8,6.7,7.3
		c5-0.3,2.9-2,1.7-5.9c-1.7-5.3-6.9-10.9-4.7-10.8c1.2,0,3.5,1.6,13.7,12.5c5.3,0.1,4.3-3,0.9-7.5
		C469.3,515.8,463.3,508.8,463.3,508.3z"/>
	<path class="st13" d="M390.4,796.9c8.4,0,12.5,0.3,20.9,0c5.6,0.8,11.5-0.4,14.9,0c0.3-3.7,1.1-7.4,2.1-11
		c2.8-11.8,0.7-26.4,3.8-38.1c0-2.5,0.3-4.9,1.1-7.3c1.6-12.2,2.8-7.1,4.8-20.7c2.5-15.5,3.8-32.2,16.9-46.5
		c7.8-8.5,15.8-16.6,19.9-25.8c3.6-8.1,6.3-16.3,8.9-24.5c1.7-5.3,2.5-10.7,3.7-16v-0.6c-25.1,4.8-51,6-76.6,3.8
		c-11.5-1.1-23.2-1.6-34.8-2.3c2.5,11,4.8,22,7.7,33c2,7.5,5,14.9,6.9,22.4c0.3,2.2-0.4,4.5-2.2,6.2c-19.1,21.5-15.3,43.4-12.7,66.7
		c1.8,16.5,6.9,34.8,6.1,50.2C383.8,789,382.5,797.8,390.4,796.9z"/>
	<path class="st14" d="M409.1,448.4c-4.7,6.4-3.8,10.1-23.1,24c-35.6,25.7-41.2,68.1-47.2,79.6c-2.4,7.5-4.9,17.9-7.3,25.4
		c-1.1,3.4,25.1,0.7,33,2.4c15.2,1.4,30.3,3.2,45.5,4.2c21,1.4,42.1,2.3,63.1,3.3c3.4-0.7,6.9-1.2,10.4-1.5
		c12.7-0.2,25.2,0,37.7-2.1c11.7-1.9,23.7-3.1,35.6-4.6l13.9-4.6c22.6-2.1,25.3-10,21.3-33.3c-2.1-18.7-5.6-77.4-51.4-92.6
		c-3.5,0.7-3.5,0.7-7,1.4c-22.9,5.1-46.7,6.7-70.4,4.8C445.1,453.7,427,451.5,409.1,448.4z"/>
</g>
<path class="st28" d="M728.9,299.6c-5.4-1.4-10.4,0.1-15.4-0.7c0.7-3.1,4.4-5.2,8.3-4.6c0,0,0.1,0,0.1,0
	C725.5,294.4,728.5,296.6,728.9,299.6z"/>
<path class="st28" d="M495.1,303.8c-5.4-1.4-10.4,0.1-15.4-0.7c0.8-3.1,4.5-5.2,8.3-4.6c0,0,0,0,0.1,0
	C491.7,298.6,493.9,300.1,495.1,303.8z"/>
</svg>
