<?xml version="1.0" encoding="utf-8"?>
<!-- Generator: Adobe Illustrator 25.3.1, SVG Export Plug-In . SVG Version: 6.00 Build 0)  -->
<svg version="1.1" id="Ebene_1" xmlns="http://www.w3.org/2000/svg" x="0px" y="0px"
	 viewBox="0 0 670 619" style="enable-background:new 0 0 670 619;" xml:space="preserve">
<style type="text/css">
	.st0{fill:#526D64;}
	.st1{fill:#7C9C91;}
	.st2{fill:#E4F9ED;}
	.st3{fill:#D5E0DC;}
	.st4{fill:#F6EFE5;}
	.st5{fill:#CECBD8;}
	.st6{fill:#E8AEA0;}
	.st7{fill:#897979;}
	.st8{fill:#D09F8D;}
	.st9{fill:#E8B4AA;}
	.st10{fill:#C1A199;}
	.st11{fill:#FCFCFC;}
	.st12{fill:#E8D1D1;}
	.st13{fill:#2A443F;}
	.st14{fill:#AD8982;}
	.st15{fill:#223D38;}
	.st16{fill:#DAEEEF;}
	.st17{fill:none;stroke:#DAEEEF;stroke-width:4.6067;stroke-miterlimit:10;}
	.st18{fill:#E5F9F1;}
	.st19{fill:#FF5582;}
	.st20{fill:#593434;}
	.st21{fill:#A8CCAE;}
	.st22{fill:#6B9080;}
	.st23{fill:#BCDBE7;}
	.st24{fill:#86A89D;}
	.st25{fill:#A4C3B3;}
	.st26{fill:#94AFA5;}
</style>
<g>
	<g>
		<path class="st0" d="M459.7,51.5c-88.1-48-226.7-53.9-266.9,19c-24.2,43.9-10.5,112.3,19.5,156.8c65.5,97,201.6,69.6,208.3,111.6
			c8.7,54.7-220,110.9-214.8,161.5c5.8,56.5,307.2,150.6,410.1,2.4C704,376,605.6,131.1,459.7,51.5z"/>
		<path class="st1" d="M199.5,92.7c-28.3,33.1-67.7,26.4-84.1,36.1C65.9,158.3-0.6,213.5,12,270.3c14.6,66.4,116,51.2,139.8,130.4
			c18.5,61.6-29.7,102.3-7.9,148.7c25.6,54.6,128.6,75.5,186.7,28.3c58-47.1,24-123.7,92.2-217.9c51.4-70.9,98.8-69.3,116-96.4
			C590,182.2,471.3,1.6,410.4,8.6c-54.6,6.3-35.7,97.4-95.6,99.2C279.7,108.8,267.6,13,199.5,92.7z"/>
		<ellipse class="st0" cx="300.8" cy="493.2" rx="105.3" ry="15.3"/>
		<path class="st2" d="M239.1,237.8c0.8-8.5-3.9-15.9-3.1-23.4c-3.9-0.4,12.9-0.4,18.5-4.3c1.5-17.3,7.6-39.5,9.2-57.9
			c-7.4-2.7-17.8,4-23.8,7.2c-0.2,10.4,5.1,27.6,4.9,36.3c-2.2,2.3-20.8,6-27.6,7.1C222.4,215.2,234.5,232.1,239.1,237.8z"/>
		<path class="st2" d="M450.1,362.5c1-0.3,7.1-1.1,13,4.4c6.8,6.3,7.3,16.9,7.3,18l-286.2,6l-41.4-7.2l0,0c-1.3,0-8-13.1-6.2-13.1
			l307.8-7.6"/>
		<path class="st3" d="M559.9,488.8H166.1l-22.3,1.5c-1.6,3.9,4.9-21.5,9.1-33.1c0.3-0.8,0.6-2.7,0.7-3.5l0.5-2.9
			c0-1.3,0.5-3.1,1.1-7.7c1-7.7-0.3-13.6-0.9-16.4l-2.6-17.2c-1.4-9.4-12.7-25.7-7.4-25.7l32.9,0.1h382.6
			c16.7,0,30.2,23.5,30.2,52.4v0C590.1,465.3,576.6,488.8,559.9,488.8z"/>
		<path class="st4" d="M497.3,431.4c0.5,1.2,0.9,2.4,1.4,3.7C498.2,433.8,497.7,432.6,497.3,431.4z"/>
		<path class="st5" d="M260.7,464.8c0.2-1.1,0.5-2.1,0.7-3.2C261.2,462.7,261,463.8,260.7,464.8z"/>
		<g>
			<path class="st6" d="M348.1,241.7c22.2,35.3,32.9,73.8,34.8,85.9c-2.7,11.9-13.1,15.8-23.2,16c-11.2,0.2-22.4,10.1-33.6,0
				c-1.1-11.7-5.4-10.7-14.2-7c-6.5,2.8-10.3,4.7-16.7,7.9c-6.4-1.8-16.7-5.9-22.9-8.5c-7.6-3.2-14.7-5.6-22.2,0.6
				c-15.5,12.7-16.6,12.2-22.6-9.4c4.7-23.6,9.4-47.2,14-70.8c4.2-21.4,16.5-24,33.8-32.2c5.4,13-8,31,6.5,42
				c6.2-3.2,7.2-11.3,14-12.8c8.9,4,18.1,5.6,23-9c11.4,0,6.7-3.9,9-11.5C331.8,232.5,342.7,236.4,348.1,241.7z M343.7,300.7
				c0,5.3-6,9.6-2,15.7C351.5,312.9,351.5,312.9,343.7,300.7z"/>
			<path class="st6" d="M325.9,343.6c11.2,10.1,22.4,0.3,33.6,0c10.1-0.2,19.6-2.1,23.2-16c18,1.9,20.1,4.9,16.5,25.7
				c-6.3,36.4-14.6,77.3-24.6,112.6c-7.2,0.2-12.1-4-19.3-3.8c-0.2-18.2-0.4-36.4-0.6-54.6c0.2-1.2,0.4-2.5,0.6-3.7
				c-1.6-3-3.2-6-4.8-9c-9.1-7.7-18.7,2.4-27.9-1.3c-7.9-3.9-18.5-0.2-23.5-12.1c3.2-11.2,6.5-22.5,9.5-33.1
				C314.6,344.5,320,342.5,325.9,343.6z"/>
			<path class="st6" d="M221.7,327.5c9.1-2.2,6.2,2,7.2,5.4c4.8,15.9,7,15.2,21,3.7c7.5-6.1,14.6-3.7,22.2-0.6
				c5.4,2.3,11.2,3.5,16.8,5c2.2,0.6,4.2,2.3,4.9,4.8c0.6,2.2,0.2,4.6-1.1,7.1c-4.7,8.5-3.1,17.1-0.5,25.8c0.1,7.3-3.1,9.8-8.9,9.8
				c-3.9,0-8.4-1.6-11.8,1.9c-1.2,1.3-2.9,1.8-4.6,1.8h-10.4c-3.8,0-6.9,3.4-7,7.7c-0.7,18.2-1.4,38.8-3.2,57
				c-0.4,4.2,1.1,13.6-2.6,13.5c-3.5-0.1-8.6,5.3-12,4.1c-2.4-0.8-4.2-17.8-4.7-20.6c-7.8-38.2-16.9-76-20.9-114.2
				c-0.3-3.1,1-6.2,3.4-7.9C213.6,329,217.7,328.5,221.7,327.5z"/>
			<path class="st6" d="M284.1,204.6c-0.3,7.5,3.5,8.5,1.5,16.3c-3.4,10.5,11.7,26.9,7.9,19.2c-3.9-7.8,2.2-19.1,11.5-19.8
				c5.9,5.5,21.5,10.6,17.6,22.6c-6.9,21.4-18.2,14.6-27.1,10.6c-0.9,0.2-2.1,0.7-3.4,1.6c-2,1.4-3.1,3.2-3.7,4.2
				c-1.3,1.9-3.3,4.4-6.8,7.1c-14.5-11.1-1.1-29.1-6.5-42C277.1,215.3,275.4,210.3,284.1,204.6z"/>
			<path class="st6" d="M355.4,403.8c-0.2,1.2-0.4,2.5-0.6,3.7C353.3,405.9,354.1,404.8,355.4,403.8z"/>
			<path class="st6" d="M286.6,193.1c-0.6,1-1.1,2-1.7,3C285.5,195.1,286.1,194.1,286.6,193.1z"/>
			<path class="st7" d="M341.8,286.2c6.1,9.6,10.8,20.4,6.7,26.4c-1.9,2.8-10.1,5.8-8.4-1.9C341.8,302.7,341.8,290.3,341.8,286.2z"
				/>
			<path class="st7" d="M292.2,378.8c2.4,0.9,1.9,0.7,4.3,1.6c5,11.9,30.3,8.4,38.2,12.2c-4.3,1.9-11.2,2.2-29.1,0
				c-8.4-1.1-12.8,2.9-21.2,1.8c-4.7-0.7-18.9-2.1-23.6-2.8c3.4-5.8,18.1-3,22.6-3C289.1,388.5,292.3,386.1,292.2,378.8z"/>
		</g>
		<path class="st8" d="M320.6,330.4l20.5-15.2l2.1,0.4c0.6-0.2,2.1-0.5,3.4-1.3c1.1-0.6,1.6-1.3,1.9-2.1l1.1-9.2l4.5,8.5
			c0,0.7,4.4,4.1-1.4,7.2c-0.2,0.1-4.4,1.6-5.6,2.3l-2.4,1.3l-6.5,4.5c-0.1,0.1-0.1,0.1-0.2,0.1l-5.7,3.2c-0.5,0.3-3.2,1.6-3.7,1.7
			c-2.6,0.3-6.7,1.4-7.2,1.1c-0.6-0.3-4.8,0.8-5.3,0.8l-1.4,0.6L320.6,330.4z"/>
		<path class="st8" d="M400.8,311.5"/>
		<path class="st9" d="M300.3,262.3c1.1,0.4,2.9,0.9,5,0.7c4.3-0.4,7-3.4,8.2-4.7c0.7-0.8,7.1-11.8,1.9-5.4
			c-2.8,3.4,6.2-5.4,0.7-2.3c-1.5,0.9-1.6,15-14.1,5.7c-4.5-3.3-9.2-10.4-10.4-15.1c-0.7-2.5-4.4-4.5-6.2-9.5
			c-1.3-3.5,0.5-7.9,0.4-11.2c-0.4-22.4,22.2-28.7,24.4-30.1c1.9-1.2,8.3,7.6,9,7.7c0.6,0,0,4,1.7,5.3c3.9,3.3,4.7-6.6,8.3-3.6
			c1.6,1.4-0.2,23.3,0.9,25c2.1,3.3-1.8,19-11,22.3"/>
		<path class="st10" d="M292.1,255l-3.7,4.2l16.7,4.2l4-0.8c3.1-0.6,5.8-2.7,7.4-5.8l6.7-12.9l-11.3,9.4c-1,0.9-3.3,2.7-4.6,2.8
			l-1.5,0.1c-3.7,0.2-9.5-6.9-10.2-6.9l-0.6,1.8C293.8,253.3,293.2,254.2,292.1,255z"/>
		<path class="st11" d="M512.2,318.2c30.1-2,47.1-14.9,49.3-9.7c2.9,6.9-17.4,16.1-19.7,38.5c-1.6,15.5,2.4,21.3,2.3,31.9
			c0,8.8,7.1,2.3-24.7,5c-19.1,1.6-29.4,1.3-40.2-1c-20.8-4.4-10.7-56.3,5.8-69C490.9,309.3,488.8,319.7,512.2,318.2z"/>
		<path class="st12" d="M438.8,341.6"/>
		<path class="st13" d="M326,343.6c-1.9,0-3.7-0.1-5.6-0.1c-3.9,1.6-7.7,3.2-11.6,4.8c-3.1,6.1-6.2,12.2-9.2,18.3
			c-0.1,3.5-0.1,7-0.2,10.5c-0.3,2.2-0.7,4.4-1,6.6c0.2,0.4,0.4,0.8,0.7,1.2c1.4,1.9,3.1,2.7,4.2,3.1c1.4,0.6,3.5,1.4,6,2.2
			c9,3,13.5,4.5,18.5,4.2c6.9-0.5,7.5-3.6,13-2.6c4.8,0.8,6.3,3.5,9.7,3c4-0.5,7-4.7,9.2-8.9c1.9-3.7,3.8-7.3,5.7-11
			c3.6-11.8,7.3-23.6,10.9-35.3c-7,1-13.9,2.1-20.9,3.1c-5.3,1.1-10.5,2.2-15.8,3.2c-4.1-0.3-8.1-0.6-12.2-0.9
			C327,344.6,326.5,344.1,326,343.6z"/>
		<ellipse class="st14" cx="286.8" cy="295.1" rx="1.6" ry="1.2"/>
		<ellipse class="st14" cx="326.5" cy="296.3" rx="1.6" ry="1.2"/>
		<path class="st8" d="M259.5,331.6c-3.6-8.7,12-47.2,16.5-38.7c6.7,12.6,18.5,17.8,23.1,22.6c9.4,9.8,2.3,10.6,5.1,17.3
			c2.9,6.8-1.8,7.1-9.1,11.8C288.8,348.6,263.3,340.8,259.5,331.6z"/>
		<path class="st15" d="M291.3,341.7c23.2,11.7,6.8,24.7,8,39.7c0.7,8.1-19.7,7.8-30.3,9c-10,1.1-13.8,3.2-16.3,0.3
			c-1.9-2.2-1.7-5.6-1.7-7.3c0.3-7.2,2.3-46.1-1.1-46.7l3.9-2.5c1.7-0.9,5-1.6,7.8-1.3c3.6,0.5,11.5,3.5,13,3.9L291.3,341.7z"/>
		<path class="st6" d="M230.1,473.9c0.7,3.9-7.8,5.9-10.9,7.4c-5.9,2.8-14.8,5.4-22.3,7.6c-3.9,1.2-3.4,6.3,0.6,6.9
			c6.1,0.9,10.1,1.9,12.4,1.9c5.7,0,16.1-1.3,33.4-0.1c5.6,0.4,9.4-1.7,6.9-7.4c-2.6-5.9-2-19.8-2-22.2c0-34.4,0.6-46.5-2.9-18
			c-0.4,3.4-7.8,12.9-10.8,12.8c-4.8-0.1-7.5-18-8.1-12.5C226.3,450.5,229.3,469.5,230.1,473.9z"/>
		<path class="st6" d="M373.4,473.9c-0.7,3.9,7.8,5.9,10.9,7.4c5.9,2.8,14.8,5.4,22.3,7.6c3.9,1.2,3.4,6.3-0.6,6.9
			c-6.1,0.9-10.1,1.9-12.4,1.9c-5.7,0-16.1-1.3-33.4-0.1c-5.6,0.4-9.4-1.7-6.9-7.4c2.6-5.9,2-19.8,2-22.2c0-34.4-0.6-46.5,2.9-18
			c0.4,3.4,7.8,12.9,10.8,12.8c4.8-0.1,7.5-18,8.1-12.5C377.2,450.5,374.2,469.5,373.4,473.9z"/>
		<path class="st10" d="M275.1,235.1c-0.1,3.2-0.5,7.8-2.1,13c-1.2,3.9-2.5,6.5-4.6,10.6c-4.6,8.8-7.3,11.4-12.3,20.7
			c-1.7,3.1-2.9,5.7-3.7,7.3"/>
		<g>
			<g>
				<g>
					<g>
						<g>
							<g>
								<path class="st16" d="M419.5,245.1c0.3,11,1,22.1,2.1,33c0.1,1.3,2.2,1.8,2.5,0.3c0.7-4.8,1.5-9.7,2.1-14.5
									c0.6-4.8,0.5-9.5-0.9-14.1c-0.4-1.3-2.5-1.1-2.5,0.3c0,5.3-0.1,10.5-0.1,15.8c0,2.6,0,5.3-0.1,7.9c0,1.4-0.1,4.3,2,4.1
									c0.7-0.1,1.2-0.5,1.3-1.3c0.7-9.2,1-18.5,1-27.7c0-1.6-2.5-1.6-2.5,0c-0.1,5.2-0.1,10.5,0,15.7c0.1,2.6,0.1,5.2,0.3,7.8
									c0.1,1.2,0.7,5.4-1.2,5.7c-0.8,0.1-0.8-1.5-0.9-2.1c-0.2-1.3-0.4-2.5-0.6-3.8c-0.4-2.6-0.8-5.2-1-7.8
									c-0.6-5.1-0.9-10.3-1.1-15.5c0-1.6-2.6-1.6-2.5,0c0.3,9.4,1.2,18.9,2.9,28.2c0.3,1.6,0.9,3.3,2.8,3.4c1.6,0.1,3-0.9,3.6-2.3
									c0.8-1.8,0.7-3.8,0.6-5.7c-0.1-2.4-0.2-4.9-0.2-7.3c-0.1-5.5-0.1-10.9,0-16.4c-0.8,0-1.7,0-2.5,0c0,9.2-0.4,18.5-1,27.7
									c0.4-0.4,0.8-0.8,1.3-1.3c0.4,0.3,0.6,0.2,0.5-0.1c0-0.2,0-0.5,0-0.7c0-0.6,0-1.2,0-1.7c0-1,0-2,0-3c0-2.2,0-4.4,0-6.7
									c0-4.4,0.1-8.7,0.1-13.1c-0.8,0.1-1.6,0.2-2.5,0.3c1.3,4.4,1.3,8.9,0.8,13.4c-0.6,4.6-1.3,9.2-2,13.8
									c0.8,0.1,1.6,0.2,2.5,0.3c-1.1-11-1.8-22-2.1-33C421.9,243.5,419.4,243.5,419.5,245.1L419.5,245.1z"/>
							</g>
						</g>
						<g>
							<g>
								<path class="st16" d="M418.3,249.6c-0.3,5.6-0.6,11.1-0.9,16.7c-0.2,2.7-0.3,5.4-0.4,8.1c-0.1,2.2,0,4.6,0.9,6.7
									c0.4,1,1,1.9,2,2.4c0.9,0.5,2.1,0.5,3.1,0.5c2,0,4.6,0.5,5.1-2c0.6-2.7,0.8-5.5,1.1-8.3c0.3-2.7,0.5-5.5,0.6-8.2
									c0.3-6.2,0.2-12.5-0.4-18.7c-0.1-1.6-2.7-1.6-2.5,0c0.8,9.5,0.7,19.1-0.4,28.6c-0.2,1.3-0.3,2.5-0.5,3.8
									c-0.1,0.6-0.2,1.1-0.3,1.7c0,0.2,0,0.5-0.1,0.6c-0.1,0.2,0,0.2,0.1,0c-0.2,0-0.3,0-0.5,0c-1-0.2-2.2,0-3.2,0
									c-1.3,0-1.8-0.9-2.2-2.1c-0.6-1.9-0.5-4-0.4-6c0.1-2.4,0.3-4.9,0.4-7.3c0.3-5.5,0.6-11,0.9-16.4
									C420.9,248,418.4,248,418.3,249.6L418.3,249.6z"/>
							</g>
						</g>
						<g>
							<g>
								<path class="st16" d="M443,265.2c-7-0.3-14.1-0.7-21.1,0.1c-3.3,0.4-6.5,1.1-9.7,1.7c-3.1,0.6-6.4,1-9.3-0.6
									c-0.2,0.8-0.4,1.6-0.6,2.3c10.4-1.3,20.9-2.1,31.4-2.1c1.2,0,2.5,0,3.7,0c1,0,2.8-0.3,3.5,0.5c1.8,1.8-3.6,1.7-4.2,1.8
									c-5.3,0.3-10.6,0.6-15.9,0.7c-3,0.1-6,0.2-8.9,0.2c-0.7,0-7.9,0-7.8-0.1c0.3-1.6-2.1-2.3-2.4-0.7c-0.5,2.7,2.2,3.3,4.3,3.3
									c3.1,0,6.3-0.1,9.4-0.1c6.5-0.1,13.1-0.4,19.6-0.8c1.6-0.1,3.1-0.2,4.7-0.3c1-0.1,2.1-0.3,2.9-0.9c1.8-1.4,1.4-4.1-0.4-5.4
									c-1-0.7-2.1-0.8-3.3-0.8c-1.6,0-3.3,0-4.9,0c-3.3,0-6.6,0.1-9.9,0.2c-7.3,0.3-14.5,0.9-21.7,1.9c-1.1,0.1-1.8,1.7-0.6,2.3
									c6,3.3,13,0.2,19.3-0.6c7.3-0.9,14.8-0.5,22.1-0.2C444.6,267.8,444.6,265.2,443,265.2L443,265.2z"/>
							</g>
						</g>
					</g>
				</g>
				
					<ellipse transform="matrix(6.700451e-02 -0.9978 0.9978 6.700451e-02 192.1173 609.0643)" class="st17" cx="421.7" cy="201.8" rx="45.5" ry="38.8"/>
			</g>
			<g>
				<g>
					<g>
						<path class="st18" d="M476.2,138.5c7.4-6.5,11.3-15.9,17.6-23.3c1-1.2-0.7-3-1.8-1.8c-3.7,3.9-7.3,7.9-11,11.8
							c-1.8,1.9-3.6,3.9-5.4,5.8c-1.4,1.5-3.1,3.1-3.1,5.3c0,1.1,1.3,1.6,2.1,0.9c4.1-3.7,7.9-7.7,11.4-12c3-3.7,5.7-8.3,10.2-10.3
							c-0.6-0.2-1.2-0.5-1.8-0.7c0.7,2.1-1.8,4.6-2.9,6.2c-1.6,2.2-3.2,4.4-4.9,6.5c-3.2,4.1-6.6,8-10.2,11.7
							c0.7,0.2,1.4,0.4,2.1,0.6c-0.2-0.5,1.6-2.1,1.9-2.4c0.8-0.9,1.6-1.8,2.5-2.7c1.6-1.8,3.2-3.5,4.7-5.3c1.5-1.7,3.1-3.4,4.6-5.1
							c1.4-1.6,2.9-3.1,4.1-4.8c1-1.5,1.6-3.2,1.3-4.9c-0.2-1.4-1-3.3-2.6-3.5c-0.9-0.1-1.4,0.6-1.9,1.2c-0.7,1-1.5,1.9-2.2,2.9
							c-1.3,1.7-2.7,3.4-4.1,5.1c-3.3,3.9-6.7,7.7-10.2,11.4c-1.1,1.2,0.7,2.9,1.8,1.8c3.1-3.2,6-6.4,8.9-9.8c1.4-1.7,2.8-3.3,4.2-5
							c0.7-0.9,1.4-1.7,2-2.6c0.3-0.4,0.6-0.8,0.9-1.2c0.3-0.4,0.7-1.2,1.2-1.4c-0.3,0-0.6,0.1-1,0.1c0.9,0.4,0.7,2.3,0.5,3
							c-0.4,1.3-1.3,2.3-2.2,3.3c-2.1,2.4-4.2,4.7-6.3,7.1c-2.1,2.3-4.1,4.6-6.2,6.9c-1.1,1.2-2.2,2.4-3.3,3.6
							c-0.8,0.9-1.3,1.8-0.9,3c0.3,0.9,1.4,1.3,2.1,0.6c4-4.2,7.8-8.6,11.3-13.2c1.8-2.2,3.5-4.5,5.1-6.8c1.4-2,3.1-4.3,2.2-6.8
							c-0.3-0.8-1.1-1.1-1.8-0.7c-4.6,2.1-7.4,6.6-10.4,10.4c-3.6,4.4-7.5,8.5-11.7,12.3c0.7,0.3,1.4,0.6,2.1,0.9
							c0-1.1,0.8-1.9,1.5-2.6c0.8-0.8,1.6-1.7,2.4-2.5c1.6-1.8,3.3-3.5,4.9-5.3c3.3-3.6,6.6-7.1,9.9-10.7c-0.6-0.6-1.2-1.2-1.8-1.8
							c-6.2,7.5-10.2,16.9-17.6,23.3C473.2,137.8,475,139.5,476.2,138.5L476.2,138.5z"/>
					</g>
				</g>
				<g>
					<g>
						<path class="st18" d="M496.9,110.5c-5.2-3-10.7-5.4-16.5-7.1c-0.2,0.8-0.4,1.6-0.7,2.4c3.1,0.8,6.2,1.7,9.2,2.8
							c1.5,0.5,3,1.1,4.6,1.6c1.3,0.5,2.7,1,3.8,1.9c2,1.7,2.7,4.5,3.2,7c0.6,3,1.1,6.1,1.7,9.1c0.3,1.4,0.5,2.8,0.8,4.3
							c0.1,0.5,0.8,3.1,0.1,3.5c0,0-3.5-6.2-3.9-6.9c-1.3-2.6-2.5-5.3-3.2-8.2c-0.4-1.4-0.6-2.9-0.7-4.4c-0.1-1.2-0.4-2.3-1.4-3.1
							c-1.2-1-2.6-1.7-4-2.4c-1.4-0.8-2.9-1.5-4.4-2.1c-3.1-1.3-6.2-2.3-9.5-3.1c0,0.8,0,1.6,0,2.4c2-0.7,3.9,0,5.9,0.6
							c1.8,0.6,3.5,1.1,5.3,1.5c3.4,0.8,6.9,1.7,9.3,4.3c2.4,2.5,2.9,5.9,3.3,9.2c0.4,3.2,0.7,6.4,2.1,9.4c0.7-0.5,1.3-1,2-1.5
							c-2-2.3-2.4-5.6-3.1-8.5c-0.7-3.1-1.6-6.1-3.5-8.7c-3.5-4.9-8.9-7.9-14.5-9.7c-1.5-0.5-2.2,1.9-0.7,2.4
							c5.4,1.7,10.8,4.7,13.8,9.8c3.1,5.1,2.1,11.9,6.2,16.6c1,1.1,2.5-0.3,2-1.5c-1.6-3.4-1.5-7.2-2.1-10.8c-0.5-3.4-1.8-6.7-4.5-9
							c-2.9-2.4-6.5-3.4-10.1-4.3c-2.1-0.5-4.1-1.2-6.2-1.8c-1.9-0.6-3.9-0.9-5.9-0.2c-1.1,0.4-1.3,2.1,0,2.4
							c3.3,0.7,6.6,1.8,9.7,3.2c1.4,0.6,2.7,1.3,4,2c1.3,0.7,3.5,1.5,3.7,3.2c0.4,3.2,1,6.2,2.2,9.2c1.2,2.9,2.6,5.7,4.2,8.4
							c1,1.7,2.9,5.9,5.5,3.8c2-1.7,0.9-5.2,0.5-7.3c-0.6-3.5-1.3-7.1-1.9-10.6c-0.5-2.8-1.1-5.7-2.7-8c-2.1-2.9-5.5-3.9-8.7-5
							c-3.8-1.3-7.6-2.6-11.5-3.6c-1.6-0.4-2.2,2-0.7,2.4c5.6,1.6,10.9,3.9,15.9,6.8C497,113.4,498.3,111.3,496.9,110.5L496.9,110.5
							z"/>
					</g>
				</g>
				<g>
					<g>
						<path class="st18" d="M482,102.9c-2.6-0.8-5.6-1.2-7.5,1.1c-1.7,2-1.5,4.7,0.3,6.5c0.9,0.9,2,1.4,3.1,1.9
							c1.3,0.6,2.7,1.1,4,1.7c2.8,1.1,5.6,2,8.4,2.9c1.6,0.5,2.2-2,0.7-2.4c-4.3-1.3-8.7-2.7-12.8-4.7c-1.4-0.7-3.1-2-2.2-3.8
							c1.1-2,3.5-1.3,5.2-0.8C482.9,105.8,483.6,103.3,482,102.9L482,102.9z"/>
					</g>
				</g>
				<g>
					<g>
						<path class="st18" d="M479.1,105.7c3.5,0.8,7,1.4,10.4,2.5c1.6,0.5,3.1,1.2,4.5,2.1c1.4,0.8,2.7,1.7,4.3,2.1
							c1.6,0.4,2.2-2,0.7-2.4c-1.6-0.4-2.9-1.3-4.3-2.2c-1.4-0.8-2.9-1.5-4.5-2c-3.4-1.1-6.9-1.7-10.4-2.5
							C478.2,103,477.5,105.4,479.1,105.7L479.1,105.7z"/>
					</g>
				</g>
				<g>
					<g>
						<path class="st18" d="M500.6,109.5c-4.6-1.7-9.3-3.5-13.9-5.2c-3.8-1.4-8.9-3.1-12.3-0.1c-1.2,1.1,0.6,2.8,1.8,1.8
							c1.5-1.3,3.8-1,5.6-0.6c2.1,0.5,4.1,1.3,6.1,2c4,1.5,8.1,3,12.1,4.5C501.4,112.5,502.1,110.1,500.6,109.5L500.6,109.5z"/>
					</g>
				</g>
				<g>
					<g>
						<path class="st18" d="M499.4,111.1c1.2,4.2,2.3,8.3,3.3,12.6c0.5,2.2,1,4.4,1.4,6.6c0.4,1.9,0.9,4,1,6c0,0.7,0,1.7-0.9,1.7
							c-0.8,0-1.7-1.1-2.2-1.6c-1.2-1.4-1.9-3.1-2.5-4.8c-1.2-4-1.3-8.2-2-12.3c-0.3-1.6-2.7-0.9-2.4,0.7c1.2,6.5,0.7,15.8,7,19.8
							c1.3,0.8,2.9,1.1,4.2,0c1.1-0.9,1.3-2.5,1.2-3.8c-0.1-1.9-0.6-3.7-0.9-5.6c-0.4-2.1-0.8-4.1-1.3-6.2c-1-4.6-2.2-9.2-3.5-13.7
							C501.3,108.9,498.9,109.5,499.4,111.1L499.4,111.1z"/>
					</g>
				</g>
				
					<ellipse transform="matrix(3.930567e-02 -0.9992 0.9992 3.930567e-02 261.4704 611.7518)" class="st17" cx="448.9" cy="169.9" rx="45.6" ry="38.7"/>
			</g>
			<g>
				<g>
					<g>
						<path class="st19" d="M393.7,157.2c22.9,18.1,45.7,36.2,68.6,54.3c6.4,5.1,12.9,10.2,19.3,15.3c1.6,1.2,3.8-1,2.2-2.2
							c-22.9-18.1-45.7-36.2-68.6-54.3c-6.4-5.1-12.9-10.2-19.3-15.3C394.3,153.8,392.1,155.9,393.7,157.2L393.7,157.2z"/>
					</g>
				</g>
				<g>
					<g>
						<path class="st19" d="M396.6,236.6c20-22,40-43.9,60.1-65.9c5.7-6.3,11.4-12.5,17.1-18.8c1.3-1.5-0.8-3.7-2.2-2.2
							c-20,22-40,43.9-60.1,65.9c-5.7,6.3-11.4,12.5-17.1,18.8C393.1,235.8,395.2,238,396.6,236.6L396.6,236.6z"/>
					</g>
				</g>
			</g>
		</g>
		<path class="st20" d="M326.2,235c0.8-2.2,1.5-4.4,2.3-6.6c0.8-2.2,1.3-4.6,0.6-6.9c-0.7-2-6.9-3.2-0.9-6.3
			c0.8-0.4-1.1-2.9-3.1-3.7c-3.2-1.2-6-3-8.3-5.8c-3.9-4.7-8.1-4.6-13.9-0.6c-5.3,3.6-7.9,10-14.8,12.1c-3.3,1-0.3,6.1-3.1,8.3
			c-0.6-3.5-0.6-7-2.4-10.3c-1.3-2.6-1.2-5.7,0.1-8c2.3-4.1,4.6-8,4.1-13.1c-0.2-1.6,1.1-3,2.6-3.7c11.3-5.3,23.1-8,35.9-4.4
			c0.6,0.2,1.4,0.4,1.6,0.8c3.5,6.9,11.3,10.3,14.9,17.1c1.6,3.1,1.2,6.1-1.5,8.6c-1.4,1.3-3.4,2.5-2.5,4.9c1.2,3.2,3,6.3,0.4,9.4
			C335,230.6,331.7,234.3,326.2,235z"/>
		<path class="st6" d="M299.5,370c-1.9,0.7-3.9-0.2-4.8-2.2c-2.5-5.3-5.3-4.2-1.2-11.6c2.2-4.1-2.1-11.8,3.6-14.5
			c6.4-3.2,10.5-6.1,17.4-7.6c23.3-5.2,11.7-1.5,14,4.8c1.1,2.9,2.2,5.5-0.6,5.7c-3.7,0.3-10.1,2.5-13.8,4.7
			c-0.9,0.6-1.6,1.5-1.9,2.7c-2.2,7.5-1.6,5.5-3.6,12.5c-0.4,1.5-1.5,2.7-2.9,3.1C304,368.1,301.6,369.3,299.5,370z"/>
		<path class="st2" d="M278.8,189.6c1.4-4,0.1-8,1.4-11.5c-1.8-0.6,6.2,1,9.3-0.3c2.8-8.1,8.4-18.2,11.4-26.8
			c-3.2-2-8.9,0.2-12.2,1.1c-1.4,5-0.9,13.7-2.1,17.8c-1.3,0.9-10.6,0.9-14,0.7C273.6,177.2,277.3,186.4,278.8,189.6z"/>
		<path class="st21" d="M173.9,245.1c-0.1,1.1,0.3,2.1,0.8,3.1c5.2,11.1,12.2,21.4,21.1,30.8c3.6,3.7,7.6,7.2,11.4,10.8
			c0.8,0.7,1.6,1.4,2.8,1.5l0,0c0.1-1-0.2-1.9-0.7-2.8c-5.4-11.6-12.8-22.3-22.3-32C183.1,252.4,178.9,248.4,173.9,245.1
			L173.9,245.1z"/>
		<path class="st22" d="M87.8,292.4c0.6,1.9,2.2,2.9,4,3.8c19.4,10.8,41.8,18,67.4,21.1c10.2,1.2,21.1,1.5,31.8,2.1
			c2.1,0.1,4.3,0.2,7-1.3l0,0c-0.6-1.6-1.9-2.7-3.5-3.6c-20.2-11.3-43.7-18.6-70.7-21.5C112.4,291.8,100.6,291.1,87.8,292.4
			L87.8,292.4z"/>
		<path class="st23" d="M354.4,122.6"/>
		<g>
			<path class="st21" d="M397.5,64.2c-3.5,19.1-12.1,36.9-24.4,50.3c-5.8,6.4-12.5,11.8-19.2,16.8c-6.9,5.1-14.4,10-22.6,9.8"/>
		</g>
		<path class="st8" d="M254.8,334.4c-3.6,1.7-4.6,5.3,1.1-8.2c8.5-19.9,17.2-39.8,25.7-59.7l-4.5,19.9l-3.6,12.4
			c0,0.1-0.2,0.7-0.5,1.7c-2.4,7.5-2.8,15.8-1.1,23.6l2.8,13l-11.8-4c-2.8,0.6-4.7-0.1-5,0.2L254.8,334.4z"/>
		<path class="st7" d="M266.9,300.9c-6.1,9.6-11.4,26-15,33.3c-0.1,0.2-1,1.7-1,1.8c0.2,1.2,7.7-3.6,11.3-2.5
			c4.3,1.2,3.7-1.6,4.8-5.1c1.9-6.5,1.9-12.1,1.4-15.3C267.7,309,267.9,302.7,266.9,300.9z"/>
		<path class="st24" d="M488.6,383.4c1.4,11-1,17.5-3.9,33.8c-1.2,7-2.7,16.8-3.8,28.8c-0.2,2.1,1.7,3.8,3.5,3.1
			c17.5-6.5,29-18.2,42.1-26.6c0.9-0.6,1.5-1.7,1.4-2.8c-0.5-12.5-1.1-23.6-1.2-34.8c-0.1-12.6,0.9-25.3,6.3-36.8
			c4.3-9.3,11.8-11.6,20.7-9.3c9.6,2.5,12.9,9.4,11.4,19.7c-1.2,8.9-4.3,17.1-8,25.2c-2.7,6-14.6,17.3-12.2,26.5
			c0.2,0.7,21-14.6,26.9-18.6c11.5-7.8,15.3-9.2,27.1-19.6c9.1-8,15.2-11.5,19.5-14.9c6.2-4.8,18.7-12.6,26-14.6
			c14.3-3.9,17.3,8,17.2,21.8c0,0.1-0.6,4-0.6,4.1c-2.1,9.2-2.5,8.8-8.9,12.5c-11,6.5-37.6,13.5-50.8,17.1
			c-21.6,5.9-48.8,22.9-68.7,35.7c-0.8,0.5,20.9-15.8,21.6-15.2c4,3.3,12.2,3.2,16.5,2.6c8.2-1,16.1,0.2,23.9,2.3
			c8.2,2.3,12.7,8.4,11.4,17.8c-1.3,9-6.5,14.3-15.3,15c-10.5,0.9-19.9-2.8-29.1-7.1c-9.3-4.3-18.3-9.6-28.3-15
			c-0.8-0.5-1.9-0.4-2.7,0.1c-11.2,7.5-23.2,14-34,24.6c-1.7,1.6-1.1,4.7,1.1,5.3c23.8,6.4,48.9-7.1,66.3,16.9
			c0.2,0.3,3.6,5.3,4.3,8.7c4.1,19.7-8.7,20.4-24.1,17.4c-18.3-3.5-33-15.2-48.5-25c-4.9-3.1-8.6-8.4-15.7-9.8c-0.7-0.1-1.4,0-2,0.4
			c-12.4,8.4-24.9,18.3-37.6,30.5c-1.6,1.6-1.1,4.6,0.9,5.2c26.3,8,52.1,2.8,71,26.5c0.2,0.3,2.5,3.7,3.3,6.4
			c5.8,21-10.5,25.4-27.6,18.6c-15.3-6-27.9-16.9-39.9-28.5c-5.5-5.3-11-10.6-17.2-16.6c-0.9-0.9-2.3-1-3.4-0.3
			c-14.1,9.8-25.3,23.1-37.9,33.9c-1.1,1-1.4,2.7-0.7,4c4.2,7.3,10.4,5.9,15.4,6.8c16.5,3,33.1,5.8,48.4,13.4
			c12.2,6,17.6,15.4,14.7,24.9c-3.3,10.8-14.1,16.3-27.1,12.7c-20.1-5.6-35-20.5-50.5-34.1c-4.3-3.8-7.2-9.5-12.7-11.9
			c-0.7-0.3-1.4-0.3-2.1,0c-6.2,2.7-10.8,10.3-17.3,10c-26.8-1.1-30.3-8.6-5.1-10.3c5.3-0.4,9.6-5.7,14.3-9.8c1-0.9,1.3-2.7,0.7-3.9
			c-3.9-7.9-7.8-14.8-10.7-22.1c-7.8-20-17.9-39-18.1-62c-0.1-11.7,2.3-21.2,11.9-27.1c0.6-0.4,1.3-0.5,2-0.4
			c15,2.8,20.3,8.1,22.3,23.6c2.5,18.9,3.2,37.9,1.5,57.1c-0.5,6.1-0.6,12.3-0.9,20.4c-0.1,2.6,2.7,4,4.5,2.3
			c14.5-13.4,27-25,39.8-36.8c0.9-0.8,1.2-2.1,0.9-3.2c-2.3-8.4-5.8-15.5-8.5-22.9c-8.7-23.9-19.1-47.7-12.5-75.1
			c0.2-0.7,0.6-1.2,1-1.7c3.8-3.4,5.9-9.4,13.4-11c8-0.6,13.4,5.5,16.6,15c0.1,0.2,0.1,0.4,0.2,0.6c4.6,26.7-0.1,53.8-0.9,82.9
			c-0.1,2.4,2.4,3.9,4.3,2.5c14.2-10.3,26-19.4,35.7-29.5c0.8-0.8,1-2,0.8-3l-14.1-56.7c-0.5-1.5-6.9-21.9,3.9-35.4
			c0.7-0.9,8.6-10.5,16.3-8.4C485.9,362.1,488,378.5,488.6,383.4z"/>
		<path class="st25" d="M165.3,214.5c-3.1-8.7-2.5-14.5-3.3-28.6c-0.4-6.7-1.1-16.4-2.9-28.2c-15,9.6-22.3,23.3-32.2,33.8
			c2.9,10.8,5.6,20.2,7.9,29.8c2.5,10.3,4,20.9,1.9,31.5c-1.7,8.5-7.2,12-14.6,12c-8.1,0-11.9-5-12.7-13.7
			c-0.7-7.5,0.2-14.9,1.6-22.3c1-5.5,8.3-17.3,4.7-24.3c-0.3-0.6-13.9,16.4-17.8,21c-7.7,8.8-10.4,10.8-17.7,21.8
			c-5.7,8.5-9.9,12.7-12.7,16.4c-4,5.3-12.4,14.3-17.8,17.5c-10.7,6.3-15.3-3-17.7-14.5c-0.1-0.6-0.2-1.5-0.2-2.1
			c-0.1-9.1,0.1-8.7,4.7-13.3c7.5-7.7,27.3-19.1,37-24.8c16-9.4,34.4-29.2,47.7-43.9c0.5-0.6-13.6,17.4-14.3,17.1
			c-3.8-1.9-10.3,0-13.5,1.4c-6.3,2.6-12.8,3.3-19.4,3.2c-6.9-0.1-11.6-4.2-12.3-12.2c-0.7-7.7,2.5-13.1,9.3-15.6
			c8.1-3,16.3-1.9,24.4-0.4c8.6,1.6,17,4.2,26.4,6.6c8.5-9.9,18.2-18.8,25.3-32.2c-21.8-2.7-40.2,17.1-59.6,0.1
			c-0.3-0.2-3.9-3.6-5-6.2c-6.9-15.3,3.1-18.5,15.8-19.4c15.1-1,29,5.4,43.1,10.1c4.7,1.6,8.7,5.4,15.2,4.6
			c9.3-10.6,18.3-22.8,26.9-37.5c-24-2.5-44.6,9.4-65.1-6.8c-0.3-0.2-2.7-2.5-3.8-4.6c-8.5-16,3.5-23,18.4-21.2
			c13.2,1.6,25.2,7.9,36.9,14.8c5.8,3.4,11.6,6.9,18.2,10.8c10.4-11.8,17.2-26.6,26.1-39c-5.2-7.3-10.3-4.4-14.9-4.1
			c-13.7,1.1-27.3,2.3-40.9-0.6c-10.7-2.3-16.8-8.8-16.3-17.3c0.6-9.6,8.1-16.4,19.1-16.2c16.9,0.3,31.5,9.3,46.4,17.1
			c4.4,2.3,7.9,6.7,13.2,7.1c9.3-10.9,28-16,40.7-20.1c-2.5,15-25.9,16.6-32.8,27.8c5.1,6.3,9.9,11.5,13.9,17.5
			c9.9,14.7,21.5,28.1,26,46.9c2.3,9.8,2.2,18.4-5,25.4c-13,1.1-18.4-2-23-14.5c-5.5-14.9-9.6-30.4-11.9-46.4
			c-0.9-6.5-2.4-12.8-4.2-22.5C213.6,73,204.8,86.9,195.8,101c3.6,7.1,8,12.5,11.8,18.5c11.5,18,24.4,35.4,24,59.8
			c-2.9,3.6-3,9.4-9.1,12.6c-6.2,2.3-11.8-1.7-16.1-9c-9.3-22.3-10.2-47.2-15.9-73c-11,13.4-19.9,24.7-26.3,36.7
			c0,0,22.5,44.8,22.5,44.8c0.7,1.1,9.6,16.5,3.5,29.9c-0.4,0.9-4.9,10.5-11.3,10.3C171.4,231.4,166.7,218.3,165.3,214.5z"/>
	</g>
	<g>
		<g>
			<path class="st26" d="M618,324.3c0.5-19.8-4.6-39.9-14.9-56.8c-2.8-4.6-6-9-9.6-13.1c-0.9-1-2.6-0.9-3.5,0c-1,1-0.9,2.5,0,3.5
				c12.3,13.9,19.7,31.9,22.2,50.2c0.7,5.3,1,10.7,0.9,16.1C612.9,327.6,617.9,327.6,618,324.3L618,324.3z"/>
		</g>
	</g>
	<g>
		<g>
			<path class="st3" d="M192.8,550.2c17.7,13.2,39.3,21.1,61.4,21.9c6.1,0.2,12.3-0.2,18.3-1c1.3-0.2,2.1-1.9,1.7-3.1
				c-0.4-1.4-1.7-1.9-3.1-1.7c-20.6,2.9-42-1.1-60.4-10.6c-5.4-2.8-10.6-6.1-15.5-9.7c-1.1-0.8-2.8-0.2-3.4,0.9
				C191.1,548,191.7,549.4,192.8,550.2L192.8,550.2z"/>
		</g>
	</g>
	<g>
		<g>
			<path class="st3" d="M310.4,70.8c3.2,0,3.2-5,0-5C307.2,65.8,307.2,70.8,310.4,70.8L310.4,70.8z"/>
		</g>
	</g>
	<g>
		<g>
			<path class="st3" d="M268.6,546.6c3.2,0,3.2-5,0-5C265.4,541.6,265.4,546.6,268.6,546.6L268.6,546.6z"/>
		</g>
	</g>
	<g>
		<g>
			<path class="st3" d="M591.1,340.2c3.2,0,3.2-5,0-5C587.9,335.2,587.9,340.2,591.1,340.2L591.1,340.2z"/>
		</g>
	</g>
</g>
</svg>
