<svg id="Layer_1" data-name="Layer 1" xmlns="http://www.w3.org/2000/svg" viewBox="0 0 1130.23 665.12"><defs><style>.cls-1{fill:#a4c3b3;}.cls-1,.cls-2,.cls-3,.cls-4{stroke:#000;stroke-miterlimit:10;stroke-width:3.5px;}.cls-2{fill:#de876e;}.cls-3{fill:#f7b4a0;}.cls-4{fill:#232323;}</style></defs><polygon class="cls-1" points="612.66 307.72 612.66 307.71 612.66 307.72 612.66 307.72"/><path class="cls-2" d="M503.17,289.5c-.73.17-1.63.33-2.53.49a20.51,20.51,0,0,1-2.29.17,8.53,8.53,0,0,1-6.69-2.45,2.74,2.74,0,0,0-2.05-.74,7.41,7.41,0,0,0-2.45.57c-3.35,1.55-6,5.23-5.88,8,.25,3.59,8.5,10.86,14.87,15.51h.08a65.92,65.92,0,0,0,5.72-6.45c3.35-4.24,6.69-9.31,7.35-12.9.24-1.06.16-1.64,0-1.8C508.24,288.6,506.93,288.6,503.17,289.5Z"/><path class="cls-1" d="M383.92,145c.82-1.39,1.56-2.86,2.29-4.17a166.15,166.15,0,0,1,10.05-14.78c8.16-11.28,16.58-22.95,17.72-37.49a113.9,113.9,0,0,0,.08-15c-2.61,13.56-11.1,24.75-19.68,35.53l-1.06,1.3a.8.8,0,0,1-.33.41c-7.51,9.48-15.19,19.36-18.95,30.55a38.8,38.8,0,0,0-1.88,9.88,35.47,35.47,0,0,0,1,10.95l.9-2.45c.41,1.14.74,2.12,1.14,3a2.66,2.66,0,0,0,.33.65,27.62,27.62,0,0,1,2-5.06,12.4,12.4,0,0,0,.74-1.39c.9-2.2,1.88-4.16,2.77-6.12S382.94,146.89,383.92,145Z"/><path class="cls-3" d="M613.52,129.82a53.57,53.57,0,0,0-.41-7.1c-.16-.9-3.43-16.58-10.78-23.12-5.15-4.49-21.07,0-29.81,3.92a2.81,2.81,0,0,1-1.15.25c-14.37.08-23.52,3.43-27.19,10-5.72,10.38,3.67,26.06,3.75,26.22a1.43,1.43,0,0,1,.08.57c.09.17.25.25.33.49s4.17,23.36,31.53,43.05c-7.43-10.7-14.79-24.91-18.46-32.27a3.17,3.17,0,0,1-2.94-.57,3.63,3.63,0,0,1-.49-5.14,3.62,3.62,0,1,1,5.55,4.65c-.16.17-.41.17-.57.33.33.73.74,1.47,1.14,2.29,4.5,8.9,12.5,23.93,20,33.73,1.07,1.31,2,2.45,3,3.59a7.55,7.55,0,0,1,.73.82,8.9,8.9,0,0,1,.9,1l-1.14-1.88-1.47-2.29a5.86,5.86,0,0,0,1,.58c.49.32,1,.57,1.47.89-3.19-7.43-6.78-19-9.48-28-1.55-5.47-2.77-9.88-3.35-11.93-.49-.16-1-.08-1.38-.4a3.65,3.65,0,0,1-.5-5.15,3.7,3.7,0,0,1,5.07-.49,3.65,3.65,0,0,1,.49,5.15,3.57,3.57,0,0,1-1.88,1c.57,2.12,1.63,5.88,2.94,10.53.82,2.7,1.72,5.64,2.61,8.74,1.39,4.33,2.86,8.9,4.33,13,1.07,2.94,2.13,5.72,3.11,7.92.41-.08.81-.08,1.22-.16v1.88a6.73,6.73,0,0,0,.25-1.88c.16-1.15.16-2.29.24-3.6.33-8.57-.57-20.58-1.39-29.24-.4-4.08-.81-7.35-1-9.14-.57-.17-1.06-.09-1.55-.49a3.62,3.62,0,0,1-.49-5.07,3.57,3.57,0,0,1,5.07-.49,3.63,3.63,0,0,1,.57,5.07,3.57,3.57,0,0,1-1.88,1c.57,5.47,2.45,22.54,2.37,35.2,0,1.88-.08,3.67-.17,5.31,6.13-12.25,6.62-32.84,6.54-41.58V145c-.33-.17-.66-.09-.9-.25a3.65,3.65,0,0,1-.49-5.15,3.6,3.6,0,0,1,5.06-.48,3.61,3.61,0,0,1-2,6.37c.17,6.94.08,25.23-4.65,38.71A102.66,102.66,0,0,0,613.52,129.82Z"/><path class="cls-3" d="M627,155.14c-1.14,2.78-7.67,17.24-17.88,27.53,15.84-9.31,28.18-23.69,31-31.53,2.53-6.94-10.21-17.31-21.08-23.77a106.8,106.8,0,0,1-15.92,58.24,4.54,4.54,0,0,0,.73-.57c9.72-7.76,17.07-21,20.17-27.45.66-1.38,1.07-2.28,1.31-2.94h-.16a3.65,3.65,0,1,1,5.14-.49A3.42,3.42,0,0,1,627,155.14Z"/><path class="cls-1" d="M415.78,73.71c.16,5.15.24,10.21-.08,15-1.23,15-9.81,26.87-18.14,38.31-3.43,4.73-6.94,9.63-9.88,14.62-1.71,2.94-3.35,6.12-5,9.47-1,2-2,4.17-2.94,6.45a9.21,9.21,0,0,0-.74,1.56,10.44,10.44,0,0,0-.65,1.3c1.06-1.88,2.29-3.92,3.76-6.29a218.89,218.89,0,0,1,24-30.71C419.13,109.4,418.64,88.9,415.78,73.71Z"/><path class="cls-2" d="M453.51,263.69a8.71,8.71,0,0,1-7.1.33,16.81,16.81,0,0,1-2.13-.82c-.81-.41-1.63-.9-2.36-1.31-2.13-1.3-3.44-1.87-4.42-1.87a1.86,1.86,0,0,0-2,2.12c-.41,3.68,1.23,9.56,3.19,14.62a70,70,0,0,0,3.51,7.84h.08c7.52-2.53,17.56-7,18.87-10.37,1-2.62-.49-6.86-3.27-9.31C456.86,264,455.15,262.79,453.51,263.69Z"/><path class="cls-2" d="M361.3,242.05c-3.19,1.39-7.51,3.27-11.68.41a2.5,2.5,0,0,0-1.47-.41,5.86,5.86,0,0,0-3,1.14c-3,2.13-5,6.21-4.33,8.9.82,2.86,7.51,7.27,14,10.62,1.22.66,2.45,1.31,3.59,1.88a25,25,0,0,0,1.88-2.86c3.18-5.14,7.43-13.72,7.43-18.62a3.08,3.08,0,0,0-.33-1.8C366,240.25,364.73,240.58,361.3,242.05Z"/><path class="cls-3" d="M343,191.33a1.63,1.63,0,0,0-.41-.33,92.84,92.84,0,0,0-9.31-5.39,149.65,149.65,0,0,0-20.17-8.49c-3.51-1.23-6-1.88-6-2l.24-.81.25-.82a169.67,169.67,0,0,1,26.79,10.7,80.81,80.81,0,0,1,10.86,6.62c.49-.09,1.14-.09,1.39-.17,0-.49-.17-.9-.17-1.39-.08-.08-.08-.16-.08-.32C337,171.48,318.26,159.31,318,159.15l.9-1.39c.24.08,16.66,10.86,26.71,26.71-4.41-27.61-17.56-40.27-28.43-42.56-4.24-.9-8.16,0-9.31,2.21-3.59,6.61-9.8,9.63-14.37,11a9.78,9.78,0,0,0-6.54,6,20.33,20.33,0,0,1-7.59,9.47,2.65,2.65,0,0,0,.24.65c.57.82,2,1.56,4,2a4.86,4.86,0,0,1,4,4.09,4.94,4.94,0,0,1-1.64,4.65c.25,2.86,2,3.52,12.5,6,1.88.4,4.08.89,6.45,1.47,10.21,2.45,24.51,2.28,33.57,1.88l3.84-.25Z"/><path class="cls-1" d="M471.07,211c5.64,14,15.52,31.12,32.35,42.23,16.9,11.27,37.9,14.45,62.32,9.72,1.06-.17,2.12-.33,3.18-.57-1.39-.09-2.86-.25-4.24-.33C515,257.73,484.39,227.67,471.07,211Z"/><path class="cls-2" d="M444.28,235.68c2.45-1.23,4.25-5.39,3.84-9.07-.16-1.22-.65-3.43-2.45-3.84-4.9-1.3-6.29-5.8-7.35-9.06-1.22-3.6-1.88-4.82-3.51-5a4.51,4.51,0,0,0-1.55.82c-3.35,3-6.7,10.7-8.58,16.42a40.62,40.62,0,0,0-1.39,4.82c.82.32,1.72.73,2.62,1.06C432.93,234.62,441.42,237.07,444.28,235.68Z"/><path class="cls-2" d="M436.2,191.74c1.39-.25,2.37-.66,2.77-1.31,1.23-2,.66-3.35-1.14-6.54-1.71-2.94-4.08-7-1.71-11.92,1.06-2-.09-3.84-1.23-4.9-2.21-2.12-6.29-3.43-9.23-1.88-3.1,1.55-6.94,9.56-9.8,17.15-.65,1.72-1.31,3.43-1.8,5.07.66.32,1.55.65,2.53,1.06C421.82,190.35,430.72,192.63,436.2,191.74Z"/><path class="cls-1" d="M490.84,211.34a183.76,183.76,0,0,0,18.54,7.51c7.6,2.7,15.44,5.56,22.62,9.48a152.93,152.93,0,0,1,30,21.15c-9.31-14.29-26.22-34.14-51.54-40.35-19.52-4.74-31.69-8.9-39.2-12l2.2,2C478.59,203.74,482.75,207.42,490.84,211.34Z"/><path class="cls-1" d="M568.43,258.3c-.9-1-1.88-1.88-2.77-2.78-.25-.24-.5-.48-.66-.65a150.38,150.38,0,0,0-33.81-25.07c-7.11-3.92-14.87-6.7-22.38-9.4A194.58,194.58,0,0,1,490,212.89c-8.25-4.09-12.41-7.84-17.72-12.58-2-1.8-4.17-3.68-6.54-5.64-.49-.4-.81-.73-1.3-1.06l-.41,6v.08l.73-.49a73.69,73.69,0,0,0,4.17,6.21c10.37,14.37,40.92,49.25,93.6,54.72,2,.16,3.92.41,5.88.49.9.08,1.8.25,2.7.25-.49-.49-1.15-1.07-1.55-1.47A15.33,15.33,0,0,0,568.43,258.3Z"/><path class="cls-1" d="M392,109.4c1.06-1.38,2-2.69,3.1-4,.25-.32.49-.57.74-.9,9.8-12.66,18-25.23,17.23-41.57a2.82,2.82,0,0,1-.08-.82c-.08-.81-.08-1.55-.24-2.37l-.09.25c-.16-1.31-.24-2.61-.49-3.92-.08-.65-.16-1.23-.24-1.88l-.74,4.66A49.1,49.1,0,0,1,407.12,72l-2.86,6.2c-4,6.46-9.39,14.46-16.58,24.34-11.76,16.09-15.52,29.9-15.84,40.76a24.08,24.08,0,0,1,.57-2.45C376.33,129.17,384.33,119.12,392,109.4Z"/><path class="cls-2" d="M314.25,235.92c-1.63-.41-2.61.57-5,3.51-2.12,2.7-4.82,6.46-10,6H299c-1.72,0-2.78,1.71-3.35,2.77a11,11,0,0,0-.65,7.68c5.14.65,10.37,1.47,15.68,2.53,2.29.41,4.57,1,6.94,1.55a15.58,15.58,0,0,1,.17-1.87c.4-5.88.16-16.18-2.37-20.75A2.55,2.55,0,0,0,314.25,235.92Z"/><path class="cls-3" d="M535.68,165.19a3.32,3.32,0,0,1-4.17,0,3.6,3.6,0,1,1,4.58-5.55,3.44,3.44,0,0,1,.73,4.24V164c5.07,5.48,19.77,19.2,39.78,24.75l2,.49-6.29-3.84c-22.54-18-28.18-37.4-29.24-42.3-4.82-3.76-10.13-5.8-14.78-5.8a14.24,14.24,0,0,0-5.39,1c-5.8,2.53-9.31,9.55-10.05,20.33-1.39,20.18,44,29.82,65.83,32.43C557.08,185.85,541.15,171.07,535.68,165.19Z"/><path class="cls-1" d="M615.89,300.45c-1,2.45-1.72,4.49-2.29,6.29h.49a5.68,5.68,0,0,1,.41-.82,76.51,76.51,0,0,1,6.61-10.21c6.62-8.9,15.28-17.72,23.94-25.65,3.1-2.77,6.12-5.47,9.14-8,6.54-5.56,12.66-10.29,17.48-13.89-4.16,2.13-9.14,4.41-14.94,7-.82.41-1.56.73-2.45,1.14a37.88,37.88,0,0,0-5,2.78C630.83,269.49,620.71,288.11,615.89,300.45Z"/><path class="cls-1" d="M643.66,273.58a193.83,193.83,0,0,0-16.58,17.31A114.75,114.75,0,0,0,619,301.67c-1.06,1.55-2,3.19-2.86,4.74,0,.08-.08.16-.08.33l.24-.33c.66-.08,1.31-.16,1.88-.25A54.34,54.34,0,0,0,632,302.49a64.74,64.74,0,0,0,7.59-3.68c25.89-14.86,41.41-46.06,47-59.05.81-1.88,1.39-3.35,1.79-4.33l-6.2,6,.49.74.08.08c-.08.08-1.72,1.23-4.25,3-.49.41-1.06.74-1.71,1.23-5.56,4.08-14.38,10.78-23.85,18.87C649.86,267.94,646.76,270.72,643.66,273.58Z"/><path class="cls-1" d="M689.15,238.05c-4.74,11.59-21.4,47.61-50.64,63.21a61.51,61.51,0,0,1-7.43,3.52,63.3,63.3,0,0,1-14.87,3.35,5.82,5.82,0,0,0-1.06.16c-.16.24-.32.57-.49.81l-.73-.32-.57-.33c-.09,0-.25.08-.33.08-.08.25-.17.57-.25.82h2.29a90.85,90.85,0,0,0,14.29-.65c2.29-.25,4.41-.66,6.54-1.07A62,62,0,0,0,666.36,292c18-17.07,22.14-42.47,23.12-54.23Z"/><path class="cls-4" d="M720.39,72.68c-12.18,2.84-15.81,7.87-17.73,26.05-.21,2-2.48,2-2.69,0-1.93-18.18-5.55-23.21-17.73-26-1.52-.35-1.52-3.09,0-3.44,12.18-2.84,15.8-7.87,17.73-26,.21-2,2.48-2,2.69,0,1.92,18.18,5.55,23.21,17.73,26.05C721.9,69.59,721.9,72.33,720.39,72.68Z"/><path class="cls-4" d="M254,223.14c-8.1,1.88-10.51,5.22-11.79,17.31-.14,1.33-1.65,1.33-1.79,0-1.28-12.09-3.68-15.43-11.78-17.31a1.24,1.24,0,0,1,0-2.29c8.1-1.89,10.5-5.23,11.78-17.32.14-1.33,1.65-1.33,1.79,0,1.28,12.09,3.69,15.43,11.79,17.32A1.25,1.25,0,0,1,254,223.14Z"/><path class="cls-4" d="M510.53,43c-9.26,2.16-12,6-13.48,19.81-.16,1.52-1.89,1.52-2.05,0C493.54,49,490.78,45.16,481.52,43a1.42,1.42,0,0,1,0-2.62c9.26-2.16,12-6,13.48-19.81.16-1.53,1.89-1.53,2.05,0,1.46,13.83,4.22,17.65,13.48,19.81A1.43,1.43,0,0,1,510.53,43Z"/><path class="cls-4" d="M1110.27,341a107.64,107.64,0,0,0-122.88,4.26L873.25,431.06c16.27-17.43,34.37-40.21,54.41-68.77,49-69.87,73.15-152.71,84.8-209.92a2.75,2.75,0,0,0-.62-2.38,2.41,2.41,0,0,0-2.27-1,94.4,94.4,0,0,0-80.23,52.89c-3.56,7.29-7.27,15.19-11.15,23.44-20.24,43-45.3,96.13-76.32,124.13a33.18,33.18,0,0,0-12.54-14.74,35.14,35.14,0,0,0-6.89-3c.29-.3.66-.51.8-.93C848,258.44,857.65,185.15,851.82,113a2.81,2.81,0,0,0-3.7-2.43,94.36,94.36,0,0,0-62.37,73.11c-7.46,42.85-24,107.08-41.27,146.91a2.48,2.48,0,0,0,0,1.18c-15.19,2.58-33.21,5.38-52.73,8C714.81,283.1,728,231.7,731.68,183a2.81,2.81,0,0,0-.91-2.29,3,3,0,0,0-2.37-.68,94.4,94.4,0,0,0-73,62.46c-.86,2.52-1.91,5.45-3.06,8.6l-.26.11c-32.69,14.39-43.46,51.54-45.3,58.9a154.91,154.91,0,0,0-12.91,17.59c.09-.42.19-.81.28-1.23a355.11,355.11,0,0,0,7.36-63.77h0c5.08-14.86,16.3-24.07,22.67-28.35a11,11,0,1,0-3.61-4.35A66.16,66.16,0,0,0,601.38,250a259.62,259.62,0,0,0-6.8-55c24.51-6.73,46.28-29.39,50.81-41.93,5.06-14-20.48-29-27-32.57-1-4.39-4.66-18.35-12.36-25.11-9-7.91-30.85.86-35.26,2.77-16.21.18-26.79,4.51-31.45,12.86-4.18,7.52-2.53,16.51-.24,23-6.37-2.87-12.94-3.29-18.38-1s-12.35,8.63-13.48,25.08C505,189.42,578.68,196.67,581.82,197h.34a49.24,49.24,0,0,0,6.94-.75C596,225,597.6,256.31,594,289.89c-4.27-9.46-11.07-18-18.19-25.21a2.83,2.83,0,0,0,.06-1.47c-.81-2-20.37-48.81-64.1-59.52-40.54-9.94-48.07-16.65-48.31-16.86a2.8,2.8,0,0,0-3.27-.59,2.84,2.84,0,0,0-1.53,2.95c.29,1.87,7.48,46,41.6,68.74,12.88,8.56,27.83,12.86,44.65,12.86a119.27,119.27,0,0,0,25.79-3.18c10,9.8,19.57,22.37,21.72,35.93-1,7.16-2.3,14.4-3.81,21.75-1.73,8.41-3.63,16.64-5.51,24.8-2.91.12-5.87.27-8.69.34-6.46-11.32-15.48-20.83-22.21-27A14.32,14.32,0,0,0,549,305.28a14.52,14.52,0,0,0-18.43,22.45,14.31,14.31,0,0,0,18,0,118.48,118.48,0,0,1,19.32,22.81c-17.79.24-33.53-.46-45.26-2.6a201.91,201.91,0,0,1-26.46-7.08,121.08,121.08,0,0,0,5.47-27.28c4.83-5,11.84-14.14,13.19-20.6.55-2.65.19-4.83-1.08-6.49-3.38-4.37-8.19-3.26-11.76-2.47-3.36.78-5.09,1-6.35-.24-2.66-2.65-6.69-3.12-10.77-1.28-4.73,2.15-9.55,7.59-9.17,13.44.55,8,16,18.88,19.08,21a3,3,0,0,0,.92.28,113.55,113.55,0,0,1-4.71,22,519.13,519.13,0,0,1-52-22.05,113.92,113.92,0,0,1,1.94-26.44c.05,0,.09.06.15.06a2.89,2.89,0,0,0,.81-.12c3.57-1.07,21.54-6.81,24.47-14.33,2.1-5.45-.88-12.08-4.76-15.54-3.34-3-7.33-3.74-10.66-2-1.61.82-3.16.08-6.14-1.65-3.14-1.83-7.45-4.33-11.94-1.15a7.64,7.64,0,0,0-3,5.88c-.64,6.58,3.33,17.36,6.44,23.58a119.23,119.23,0,0,0-3,29c-7.7-3.79-14.77-7.43-21-10.74-1.18-3-2.52-5.92-3.54-8.92a57.44,57.44,0,0,1,12.83-58.56c4.65,2,13.66,5.53,20.32,5.53a11,11,0,0,0,4.93-1c5.21-2.63,7.44-9.54,6.88-14.7-.47-4.47-2.95-7.71-6.61-8.66-1.71-.44-2.39-2-3.45-5.33-1.12-3.45-2.65-8.18-8.14-8.84-1.94-.27-4.09.54-6.1,2.36-6.45,5.89-11.88,22.85-11.94,26.79a62.63,62.63,0,0,0-15.83,56.85,182.15,182.15,0,0,1-20.24-58.93c3.06-6.93,12.53-25.68,29.59-38.12,4.67,2.32,15,5.45,22.63,5.45a21.45,21.45,0,0,0,3-.18c3.37-.47,5.78-1.78,7.14-3.9,3.22-5,.75-9.25-1-12.36-1.65-2.83-2.52-4.54-1.49-6.65,1.89-3.88,1-8.16-2.38-11.44-3.69-3.59-10.29-5.67-15.75-2.82-7.23,3.79-13.2,21.77-14.77,26.9-14,10-23.2,23.68-28.29,33.17a230.14,230.14,0,0,1,0-50.94c2.72-5.63,11.29-21.5,30.27-42.08,25.29-27.41,5.7-74.07,4.85-76a.91.91,0,0,0-.07-.14,2.8,2.8,0,0,0-5.2,2c0,.92-.33,10-26.71,46.12-31.38,43-10,71.91-9.07,73.13h0a235.22,235.22,0,0,0-.07,44.91,85.48,85.48,0,0,0-21.75-23.81c0-.17.16-.3.15-.47-2.94-37.08-20.18-53.66-34.06-56.59-6.94-1.47-13,.53-15.45,5.06-2.68,5-7.47,7.24-11,8.29A15.57,15.57,0,0,0,281.73,159a13.62,13.62,0,0,1-6.11,7.27,2.82,2.82,0,0,0-1.6,1.94,7.7,7.7,0,0,0,.92,6.09c1.23,1.9,3.36,3.26,6.34,4.05a2.78,2.78,0,0,0-1,2.14c.07,9,5.35,10.21,16.91,12.83,1.91.43,4,.92,6.44,1.5,7.42,1.78,16.63,2.28,24.72,2.28,8.49,0,15.68-.55,18.3-.78,22.95,16.51,28.14,36.11,28.19,36.34s.14.16.18.26a2.57,2.57,0,0,0,.39.6,2.72,2.72,0,0,0,.91.84h0a185.66,185.66,0,0,0,22.85,62.18c-7.62-4.2-12.35-7-12.53-7.07-6.87-4.3-13.66-8.1-20.4-11.51a54.45,54.45,0,0,1-4.19-9.09c3.59-4.42,11.07-17.64,11.22-25.56a7.69,7.69,0,0,0-2.26-6.16c-4.13-3.69-8.68-1.71-12-.25-3.16,1.38-4.79,1.91-6.27.93-3.11-2.12-7.19-1.83-10.87.75-4.24,3-7.95,9.23-6.48,14.87,1.81,7,15.77,14,21.09,16.41.48,1.44,1.05,2.83,1.64,4.2A220.61,220.61,0,0,0,323,261.27c.86-6.39.86-19.89-2.52-26.43-1.25-2.41-2.92-3.88-4.94-4.35-5.38-1.29-8.44,2.64-10.68,5.5s-3.38,4-5.08,3.81c-3.76-.26-7.18,1.84-9.18,5.85a17.25,17.25,0,0,0-1.39,9.58c-74.79-6.88-133.33,30.2-157.18,45.33-51.12,32.44-100.7,29-101.18,29a2.85,2.85,0,0,0-3,2.58,2.8,2.8,0,0,0,2.57,3c.45,0,3.22.21,7.65.15,16.13-.21,55.56-3.7,97-30,23.63-15,82.11-52.06,156.56-44.11,2.13.23,4.27.52,6.42.82,2.8.39,5.63.86,8.46,1.39q5.11.94,10.3,2.19c.77.19,1.54.34,2.31.54,2.92.74,5.86,1.58,8.81,2.47a218.62,218.62,0,0,1,34.48,13.68q5.44,2.72,10.95,5.82c3.46,2,6.93,4,10.42,6.18,1.05.62,9.47,5.56,22.14,12.35l2,1.05c2.15,1.14,4.35,2.31,6.7,3.54l.92.47c5.59,2.91,11.68,6,18.15,9.15,1.88.92,3.85,1.84,5.79,2.76a504.56,504.56,0,0,0,49.68,20.87c1.75.61,3.47,1.13,5.2,1.71a209.63,209.63,0,0,0,27.29,7.26c13,2.37,30.25,3.05,49.49,2.69,2.09,0,4.09,0,6.22-.09,1.48,0,3-.14,4.52-.19,1.91-.07,3.86-.16,5.81-.25,8.51-.4,17.32-1,26.23-1.67h0l.09,0c23.64-1.83,48.11-4.55,70.78-7.53l4.58-.63c31.3-4.21,58.62-8.74,74.15-11.67,5.74-1.08,12.27-.84,18.6-.6,1.73.06,3.43.12,5.08.16l4.88.07c11.82.13,25.21.27,34.35,5.83,6.08,3.69,10.68,10.53,12.61,18.77,2,8.48.84,17.27-3.09,23.5-3.3,5.24-8.37,10-15.5,14.43-25.35,15.9-57.08,18.48-87.78,21-9.22.75-18.75,1.52-27.79,2.66-44.73,5.62-78.56,12.31-109.67,21.71-34.72,10.49-84.15,29.07-112.28,69.12-.14.2-.06.44-.14.65a2.68,2.68,0,0,0,.82,3.26,2.84,2.84,0,0,0,1.61.51,2.79,2.79,0,0,0,2.29-1.19c16-22.82,39.44-38.35,62.9-49.45,30.54,24.85,74.56,38,130.85,38.95a289.31,289.31,0,0,0,39.31-2.32,2.71,2.71,0,0,0,.67.2,2.58,2.58,0,0,0,1-.18c.22-.08.43-.2.64-.28a307.52,307.52,0,0,0,101.46-31.73c.1,0,.2,0,.3-.06,6-2.2,12.59-6,19.67-11.27,8.72-5.32,17.28-10.94,25.52-17.13l121-90.9a102.12,102.12,0,0,1,113.48-5.9c-25.84,25.21-239.09,232.42-284,247.83-28.8,9.88-83,16.23-140.32,22.95-20.25,2.38-40.81,4.81-60.65,7.43-.6-.3-1.18-.54-1.78-.84-66.16-33.74-142-31.77-193.3-27.33-9.75.84-19.59,2-29.27,3.06C307.1,558,233.58,543.35,176.38,540.11,159.06,527,142.52,519.63,126,518c-32.72-3.15-59.23,9.09-79,36.12a121.19,121.19,0,0,0-11.7,4.48,2.8,2.8,0,1,0,2.45,5c.81-.39,50.62-23.67,141.53-17.86,4.67,3.77,9.34,7.71,13.82,11.57,11.69,10.06,23.78,20.47,37.72,27.92,50.51,27,105.16,21.12,158.08,15.12,4.83,2.11,9.64,4.19,14.55,6.46.7.37,61,31.49,129.82,31.49a204.94,204.94,0,0,0,36-3.08c16.7-3,35.06-5.64,54.07-8.12,30.89,14.71,60.48,22.09,87.73,22.09,41.51,0,77.53-17,104.56-50.36,2.14-.63,4.46-1.24,6.39-1.9,48.8-16.74,278.89-242,288.66-251.62a2.8,2.8,0,0,0-.44-4.36ZM522.89,138.26a13.37,13.37,0,0,1,5.33-1c4.69,0,10,2.08,14.79,5.84,1.08,4.88,6.68,24.33,29.25,42.32l6.31,3.83c-.67-.16-1.31-.36-2-.55-20-5.53-34.68-19.24-39.8-24.67a.38.38,0,0,0,0-.1,3.47,3.47,0,0,0-.75-4.26,3.61,3.61,0,1,0-4.59,5.58,3.44,3.44,0,0,0,4.16,0c5.52,5.84,21.39,20.67,43,25.76-21.82-2.59-67.22-12.2-65.84-32.42C513.53,147.79,517,140.76,522.89,138.26Zm21.32-24.51c3.66-6.54,12.8-9.9,27.15-10a2.68,2.68,0,0,0,1.12-.24c8.81-3.91,24.72-8.41,29.83-3.92,7.39,6.49,10.63,22.25,10.81,23.14h0c0,.31,4,30.59-15.64,61.43,4.67-13.48,4.76-31.73,4.59-38.67a3.55,3.55,0,0,0,2.49-1.29,3.61,3.61,0,1,0-5.08.51c.25.21.59.13.88.26,0,.55,0,1.17,0,1.9.11,8.72-.38,29.3-6.53,41.6.1-1.65.16-3.45.17-5.38,0-12.63-1.79-29.69-2.42-35.13a3.58,3.58,0,0,0,1.88-1,3.62,3.62,0,1,0-5.09.5,3.33,3.33,0,0,0,1.51.46c.2,1.79.56,5.08,1,9.19.81,8.64,1.72,20.66,1.42,29.22,0,1.27-.11,2.48-.21,3.57-.07.7-.15,1.31-.25,1.91l-.05-1.86c-.39.09-.79.08-1.19.17-1-2.24-2.06-5-3.14-8-1.46-4.07-2.93-8.58-4.29-13-.94-3-1.82-6-2.61-8.72-1.34-4.59-2.39-8.42-3-10.51a3.52,3.52,0,0,0,1.9-1,3.61,3.61,0,1,0-5.09.5,3.24,3.24,0,0,0,1.43.44c.55,2,1.76,6.47,3.34,11.89,2.63,9,6.25,20.63,9.43,28l-1.43-.86-1-.6,1.43,2.26h0l1.2,1.9c-.32-.31-.65-.68-1-1s-.49-.53-.74-.81c-1-1.09-2-2.27-3-3.58-7.49-9.76-15.56-24.86-20-33.68-.44-.86-.83-1.64-1.19-2.36.19-.15.45-.13.61-.32a3.62,3.62,0,1,0-5.09.5,3.44,3.44,0,0,0,3,.61c3.63,7.33,11,21.54,18.43,32.27-27.32-19.73-31.51-42.85-31.55-43.11s-.21-.27-.27-.43,0-.4-.12-.58S538.42,124.12,544.21,113.75Zm95.9,37.43c-2.81,7.79-15.16,22.16-31,31.45,10.16-10.28,16.73-24.75,17.89-27.46a3.38,3.38,0,0,0,3.31-1,3.62,3.62,0,1,0-5.09.5s.11,0,.16.05c-.27.61-.69,1.52-1.36,2.9-3.12,6.44-10.44,19.7-20.18,27.48l-.69.55a106.43,106.43,0,0,0,15.91-58.24C629.92,133.85,642.64,144.23,640.11,151.18Zm-49.68,43.87Zm-87,58.23C486.58,242.09,476.74,225,471.08,211c13.27,16.64,43.94,46.72,93.61,51,1.41.12,2.81.26,4.25.34-1.08.24-2.13.38-3.2.59C541.32,267.69,520.34,264.52,503.42,253.28ZM464.05,199.7h0l.43-6.08c.45.36.82.69,1.25,1,2.44,2,4.59,3.89,6.57,5.66,5.29,4.75,9.48,8.49,17.75,12.56a184.39,184.39,0,0,0,18.78,7.54c7.53,2.7,15.29,5.5,22.34,9.37A148.82,148.82,0,0,1,565,254.85l.66.65c.92.94,1.93,1.83,2.81,2.79.26.29.69.69,1.16,1.13s1.07,1,1.54,1.51c-.93,0-1.77-.18-2.68-.24-2-.12-4-.31-6-.52-52.62-5.47-83.17-40.34-93.59-54.71-2.67-3.69-4.07-6.06-4.14-6.17l-.73.41ZM532,228.3c-7.16-3.93-15-6.75-22.58-9.47a185.51,185.51,0,0,1-18.6-7.47c-8.07-4-12.18-7.64-17.38-12.3l-2.19-1.94c7.55,3.13,19.71,7.23,39.21,12,25.32,6.21,42.21,26,51.53,40.38A155.33,155.33,0,0,0,532,228.3Zm-44.82,59.28a6.46,6.46,0,0,1,2.49-.62,2.76,2.76,0,0,1,2,.77,8.62,8.62,0,0,0,6.71,2.43,16.66,16.66,0,0,0,2.25-.17c.91-.15,1.79-.34,2.59-.53,3.7-.84,5.05-.89,6.06.42a2.61,2.61,0,0,1,.06,1.79c-.69,3.62-4.06,8.74-7.4,13a64.4,64.4,0,0,1-5.72,6.43l0,0c-6.41-4.61-14.67-11.93-14.92-15.5C481.08,292.76,483.79,289.11,487.16,287.58ZM436,260.47a2.4,2.4,0,0,1,1.42-.48c1,0,2.29.63,4.48,1.9.72.41,1.51.87,2.34,1.28a18.18,18.18,0,0,0,2.09.83,8.64,8.64,0,0,0,7.11-.32c1.64-.87,3.42.38,4.35,1.2,2.76,2.47,4.25,6.75,3.25,9.34-1.29,3.33-11.34,7.85-18.85,10.34l-.06,0a66.66,66.66,0,0,1-3.54-7.84c-1.92-5-3.61-10.91-3.19-14.57A2.67,2.67,0,0,1,436,260.47Zm-11.36-34.53c1.9-5.69,5.19-13.37,8.59-16.37a4.11,4.11,0,0,1,1.55-.85c1.66.2,2.29,1.36,3.47,5,1.06,3.27,2.5,7.76,7.38,9,1.82.47,2.31,2.6,2.44,3.83.4,3.68-1.36,7.84-3.83,9.09-2.82,1.43-11.38-1-18.34-3.81-.91-.36-1.81-.74-2.65-1.1C423.56,229.54,424,227.86,424.68,225.94Zm10.2-58.89c1.14,1.09,2.27,2.85,1.25,4.95-2.4,4.9-.05,9,1.67,11.92,1.86,3.2,2.44,4.59,1.2,6.52a4.29,4.29,0,0,1-2.83,1.32c-5.46.88-14.35-1.43-19.59-3.33-1-.36-1.86-.7-2.54-1,.53-1.62,1.15-3.34,1.8-5.08,2.87-7.61,6.75-15.58,9.8-17.18S432.67,164.91,434.88,167.05ZM338.5,191.23c-9.08.43-23.33.59-33.52-1.86-2.43-.58-4.59-1.07-6.52-1.5-10.53-2.39-12.21-3.06-12.49-5.91a5.06,5.06,0,0,0-2.31-8.8c-2-.41-3.5-1.1-4-1.9a1.56,1.56,0,0,1-.25-.71,20,20,0,0,0,7.54-9.48,10,10,0,0,1,6.53-5.95c4.59-1.35,10.8-4.35,14.39-11,1.2-2.23,5.07-3.14,9.37-2.24,10.84,2.29,24,15,28.42,42.55-10-15.82-26.52-26.56-26.72-26.69l-.9,1.43c.21.13,19,12.34,28.31,29.8l.06.34c.05.49.16.9.21,1.4l-1.38.11a89.53,89.53,0,0,0-10.88-6.61,166.68,166.68,0,0,0-26.8-10.66l-.23.81h0l-.23.82c.07,0,2.47.72,6,1.92a154.8,154.8,0,0,1,20.22,8.47,95,95,0,0,1,9.28,5.43l.46.33-.66-.31Zm9,2.21Zm25.65-31.28a35.62,35.62,0,0,1-1-11,38.93,38.93,0,0,1,1.86-9.83c3.75-11.25,11.47-21.07,19-30.56l.31-.4,1-1.32c8.57-10.83,17.08-22,19.7-35.5a122.89,122.89,0,0,1-.07,15c-1.14,14.53-9.6,26.19-17.78,37.47-3.44,4.75-7,9.67-10,14.75-.78,1.32-1.52,2.8-2.28,4.2-1,1.85-2,3.78-2.95,5.79s-1.89,3.93-2.82,6.09c-.16.4-.42.9-.69,1.46a26.11,26.11,0,0,0-2,5c-.1-.22-.19-.41-.29-.65-.38-.9-.75-1.93-1.11-3Zm9-8c-1.49,2.34-2.75,4.44-3.81,6.29l.65-1.34c.29-.6.55-1.12.74-1.54,1-2.29,2-4.36,3-6.43,1.62-3.37,3.26-6.56,5-9.47,2.94-5,6.48-9.89,9.91-14.62,8.32-11.46,16.9-23.32,18.1-38.32a127.56,127.56,0,0,0,.07-15c2.86,15.21,3.37,35.7-9.6,49.76A220.81,220.81,0,0,0,382.16,154.16Zm-6,11.79ZM411.94,54.23c.11.62.13,1.2.24,1.82.22,1.35.31,2.63.5,4l.12-.3c.1.81.13,1.6.18,2.4,0,.28,0,.55.07.82.85,16.34-7.38,28.94-17.2,41.55l-.75,1c-1,1.31-2.05,2.62-3.1,3.93-7.71,9.73-15.68,19.79-19.58,31.48-.27.81-.41,1.63-.62,2.44.33-10.82,4.11-24.65,15.89-40.76,7.21-9.87,12.57-17.85,16.59-24.35L407.14,72a50.53,50.53,0,0,0,4.06-13.17Zm-71.1,197.83c-.7-2.68,1.27-6.75,4.29-8.88a5.55,5.55,0,0,1,3-1.15,2.65,2.65,0,0,1,1.5.45c4.14,2.82,8.48.94,11.65-.43,3.48-1.51,4.78-1.82,6-.71a2.61,2.61,0,0,1,.4,1.74c0,5-4.32,13.53-7.46,18.66-.68,1.11-1.33,2.11-1.84,2.83-1.18-.55-2.42-1.18-3.67-1.83C348.34,259.4,341.59,255,340.84,252.06Zm450.43-67.41a88.77,88.77,0,0,1,55.25-67.52c5.15,70.19-4.46,141.46-28.58,211.88a2.73,2.73,0,0,0,.09,1.47c-8.48-2-17.82-2.29-25.9-2.37L787.3,328c-1.61,0-3.28-.09-5-.15-6.62-.25-13.47-.51-19.84.69-3.67.69-7.72,1.43-12,2.18C768.33,288.63,784.1,225.85,791.27,184.65Zm-130.6,59.61a88.79,88.79,0,0,1,65.12-58c-4.11,47.9-17.39,98.51-40.41,154.4-21.69,2.85-44.66,5.43-66.89,7.26,4.4-9.64,9.59-21.58,14.87-34.13,14.68-2.43,27.06-8.34,36.92-17.73,25.63-24.43,25.15-63,25.12-64.68a2.77,2.77,0,0,0-2-2.57,2.81,2.81,0,0,0-3.12,1c-.2.25-4.86,6-30.9,18.06C659.86,246.6,660.3,245.37,660.67,244.26ZM649.3,259.1a56.53,56.53,0,0,1,5-2.8l2.44-1.1c5.79-2.58,10.75-4.94,14.93-7.06-4.83,3.62-10.95,8.39-17.51,13.93-3,2.52-6,5.19-9.1,8-8.71,7.93-17.36,16.77-24,25.65A85,85,0,0,0,614.51,306c-.14.25-.28.5-.41.75l-.43.05h-.08c.58-1.8,1.33-3.88,2.28-6.3C620.73,288.11,630.87,269.53,649.3,259.1Zm-36.54,50.25c.07-.23.19-.59.27-.83.11,0,.21,0,.32,0l.57.27h0l.76.36c.14-.29.34-.58.48-.87.37,0,.72-.1,1.08-.14a59.1,59.1,0,0,0,14.8-3.35,66.51,66.51,0,0,0,7.51-3.48c29.2-15.61,45.85-51.68,50.58-63.27l.38-.26c-1,11.71-5.17,37.16-23.12,54.23a62.23,62.23,0,0,1-30.47,15.65c-2.12.45-4.3.8-6.53,1.09a93.73,93.73,0,0,1-14.3.64C614.31,309.34,613.56,309.38,612.76,309.35Zm-.1-1.64h0Zm73.92-68c-5.58,13-21.1,44.19-47,59.05a64.15,64.15,0,0,1-7.59,3.7,57.94,57.94,0,0,1-13.78,3.69c-.63.09-1.26.17-1.9.24l-.29.28.15-.26c.87-1.59,1.79-3.18,2.84-4.78a109.66,109.66,0,0,1,8.07-10.8,202.38,202.38,0,0,1,16.61-17.26c3.08-2.87,6.18-5.64,9.23-8.26,9.47-8.13,18.3-14.82,23.86-18.87l1.72-1.25c2.51-1.81,4.12-2.91,4.2-3l-.05-.08-.54-.8,6.25-6C688,236.41,687.38,237.86,686.58,239.74ZM589.7,346.31a154.78,154.78,0,0,1,20.52-31.51c2.4.14,4.78.25,7.08.25,3.4,0,6.53-.44,9.73-.75-5.38,12.75-10.61,24.72-14.94,34.09-7.9.6-15.66,1.11-23.19,1.48C589.18,348.7,589.42,347.49,589.7,346.31ZM295.65,248.14c.52-1.06,1.62-2.77,3.34-2.77l.26,0c5.2.52,7.93-3.23,10-5.94,2.35-3,3.33-3.9,5-3.51.26.06.7.45,1.19,1.36,2.47,4.58,2.7,14.88,2.3,20.79-.05.7-.1,1.29-.17,1.84-2.31-.55-4.63-1.11-6.92-1.57-5.31-1.07-10.52-1.87-15.68-2.5A11,11,0,0,1,295.65,248.14ZM596.82,447c14.32-4.32,29.29-8.06,45.61-11.39-6.62,10.85-22.74,35.67-39.92,50.17-17.84-5.87-33.34-13.85-46.34-24A352.79,352.79,0,0,1,596.82,447Zm53-12.86c16.79-3.22,35-6.06,55.73-8.66.78-.1,1.59-.16,2.38-.25-12.52,20.72-36.38,58.55-65.82,69.69a234.9,234.9,0,0,1-33.48-7.1C628.77,469.63,646.32,440.2,649.85,434.1Zm3,61.92c28.52-15.8,50.6-52.39,61.76-70.94l.38-.64c5.92-.59,11.91-1.12,18.17-1.63,16.45-1.34,33.17-2.76,49.19-6.15-8.2,22.6-30.94,66.65-61,78.77a279.91,279.91,0,0,1-39.94,2.4C671.38,497.65,662,497,652.81,496Zm135.1-78.32a2.71,2.71,0,0,0-.26-2.28c12.6-3.08,24.72-7.49,35.77-14.43,7.85-4.93,13.51-10.22,17.27-16.19,4.78-7.59,6.17-17.71,3.8-27.77-.14-.64-.42-1.2-.6-1.82,32.69-28.35,58.55-83.23,79.38-127.48,3.87-8.22,7.56-16.09,11.11-23.36a88.78,88.78,0,0,1,71.84-49.5c-11.82,56.51-35.74,136.58-83.16,204.2-37.6,53.61-64,80.74-82.1,94.19a305.34,305.34,0,0,1-104.12,39.82C762.1,474.94,780.35,439,787.91,417.7ZM51.74,552.64c18.89-23.92,43.75-34.75,74-31.81,14.87,1.43,29.81,7.86,45.41,19C113.14,537.17,72.65,546.17,51.74,552.64Zm180.39,30.2c-13.66-7.31-25.62-17.61-37.2-27.58-3.54-3-7.24-6.09-10.92-9.14,53.39,4,120.47,18,199.82,52.06C332.81,603.92,280.4,608.66,232.13,582.84Zm336.18,46.94c-80.4,14.35-161.44-27.43-162.38-27.92-2-.92-3.91-1.72-5.88-2.61,8.12-.9,16.27-1.85,24.37-2.55,50.42-4.35,124.72-6.29,189.78,26.09C598.17,625,582.58,627.23,568.31,629.78Zm60.32-3.26c17.11-2.19,34.63-4.27,51.94-6.3,50.95-6,99.34-11.66,130.18-19.85C767.57,650.7,702.09,660.05,628.63,626.52Z"/><circle class="cls-4" cx="390.45" cy="614.93" r="5.14"/><circle class="cls-4" cx="624.6" cy="609.79" r="5.14"/><circle class="cls-4" cx="185.38" cy="530.42" r="5.14"/><circle class="cls-4" cx="608.48" cy="41.69" r="7.71" transform="translate(428.11 624.31) rotate(-76.72)"/><circle class="cls-4" cx="342.78" cy="96.37" r="7.71" transform="translate(169.99 407.7) rotate(-76.67)"/><circle class="cls-4" cx="747.99" cy="259.02" r="7.71" transform="translate(35.92 604.77) rotate(-45)"/></svg>