<svg xmlns="http://www.w3.org/2000/svg" width="32.533" height="25.299" viewBox="0 0 32.533 25.299">
  <path id="Icon_awesome-home" data-name="Icon awesome-home" d="M15.834,8.817,5.422,17.393v9.256a.9.9,0,0,0,.9.9l6.329-.016a.9.9,0,0,0,.9-.9V21.227a.9.9,0,0,1,.9-.9h3.615a.9.9,0,0,1,.9.9v5.4a.9.9,0,0,0,.9.906l6.327.018a.9.9,0,0,0,.9-.9V17.386L16.7,8.817A.688.688,0,0,0,15.834,8.817Zm16.448,5.829L27.56,10.754V2.931a.678.678,0,0,0-.678-.678H23.72a.678.678,0,0,0-.678.678v4.1l-5.056-4.16a2.711,2.711,0,0,0-3.445,0L.245,14.646a.678.678,0,0,0-.09.954l1.44,1.751a.678.678,0,0,0,.955.092L15.834,6.5a.688.688,0,0,1,.864,0L29.983,17.443a.678.678,0,0,0,.954-.09l1.44-1.751a.678.678,0,0,0-.1-.956Z" transform="translate(0.001 -2.254)"/>
</svg>
