<svg id="Ebene_1" data-name="Ebene 1" xmlns="http://www.w3.org/2000/svg" viewBox="0 0 366 323"><defs><style>.cls-1{fill:#6b9080;}</style></defs><g id="Layer_1"><g id="_2145411705088"><path class="cls-1" d="M322.82,147.12a2,2,0,0,1,2-2,2,2,0,0,1,2,2v158a17.6,17.6,0,0,1-17.54,17.61H222.46a2,2,0,0,1-2-2.06V231H147.6v89.68a2.06,2.06,0,0,1-2,2.06H58.79a17.55,17.55,0,0,1-12.43-5.19h0a17.54,17.54,0,0,1-5.18-12.42v-158a2,2,0,0,1,2-2,2,2,0,0,1,2,2v158a13.59,13.59,0,0,0,13.62,13.55h84.82V229a2,2,0,0,1,2-2h76.86a2,2,0,0,1,2,2v89.67h84.82a13.59,13.59,0,0,0,13.55-13.55v-158Z"/><path class="cls-1" d="M3.19,146.26a2,2,0,0,1-2.79-.34,2,2,0,0,1,.33-2.79L181,.65a2.09,2.09,0,0,1,2.45,0L365.2,142.74a1.94,1.94,0,0,1,.4,2.78,2,2,0,0,1-2.79.4L182.2,4.77,3.19,146.26Z"/><path class="cls-1" d="M45.17,86.14a2,2,0,0,1-2,2,2,2,0,0,1-2-2v-52A8.78,8.78,0,0,1,43.77,28,8.94,8.94,0,0,1,50,25.36H94a2,2,0,0,1,0,4H50a4.77,4.77,0,0,0-3.39,1.39,5,5,0,0,0-1.46,3.39Z"/></g></g></svg>