<?xml version="1.0" standalone="no"?>
<!DOCTYPE svg PUBLIC "-//W3C//DTD SVG 20010904//EN"
        "http://www.w3.org/TR/2001/REC-SVG-20010904/DTD/svg10.dtd">
<svg version="1.0" xmlns="http://www.w3.org/2000/svg"
     width="150" height="40" viewBox="0 0 150 40"
     preserveAspectRatio="xMidYMid meet">

    <g transform="translate(0.000000,566.000000) scale(0.100000,-0.100000)"
       fill="#000000" stroke="none">
        <path d="M2610 5354 c-350 -31 -651 -114 -940 -259 -753 -378 -1263 -1110
-1371 -1970 -18 -145 -16 -473 5 -624 116 -859 633 -1589 1396 -1971 336 -169
793 -266 1150 -245 616 36 1127 251 1569 662 l74 68 -430 423 c-237 232 -434
422 -438 422 -4 0 -36 -27 -71 -60 -237 -221 -564 -335 -871 -302 -488 51
-898 405 -1052 907 -97 317 -80 679 46 975 192 449 596 743 1054 767 299 15
586 -90 837 -306 l73 -63 47 43 c26 24 222 214 435 423 l388 381 -58 52 c-406
370 -843 583 -1343 658 -103 15 -411 27 -500 19z"/>
        <path d="M5125 4050 c-676 -666 -1230 -1214 -1230 -1219 0 -12 2458 -2432
2467 -2428 16 6 833 813 833 824 0 6 -324 321 -720 699 -396 378 -770 736
-832 795 l-112 109 97 93 c53 52 426 403 827 781 402 378 734 694 740 702 8
11 -84 108 -410 434 -231 231 -422 420 -425 420 -3 0 -558 -545 -1235 -1210z"/>
        <path d="M7980 4894 c-206 -201 -397 -387 -423 -413 l-48 -47 836 -798 c459
-439 835 -801 835 -806 0 -7 -215 -212 -1268 -1205 l-403 -380 263 -257 c145
-142 336 -328 425 -414 l163 -156 230 223 c827 804 2238 2185 2237 2190 -2 7
-2457 2423 -2466 2426 -3 2 -175 -162 -381 -363z"/>
        <path d="M11360 2819 l0 -2370 948 4 c1038 4 1055 5 1362 67 1081 221 1793
979 1900 2024 16 153 8 525 -14 666 -67 422 -227 795 -473 1100 -79 97 -267
279 -367 354 -340 255 -764 423 -1241 490 -217 31 -398 36 -1252 36 l-863 0 0
-2371z m1950 1283 c271 -58 468 -159 635 -327 169 -168 278 -383 332 -651 25
-127 25 -446 0 -563 -72 -334 -230 -592 -475 -776 -93 -70 -247 -150 -354
-185 -170 -55 -234 -62 -560 -67 l-308 -5 0 1302 0 1302 318 -5 c268 -4 332
-8 412 -25z"/>
        <path d="M16130 2820 l0 -2370 1755 0 1755 0 0 530 0 530 -1140 0 -1140 0 0
405 0 405 1110 0 1110 0 0 540 0 540 -1110 0 -1110 0 0 365 0 365 1140 0 1140
0 0 530 0 530 -1755 0 -1755 0 0 -2370z"/>
    </g>
</svg>
