<?xml version="1.0" encoding="utf-8"?>
<!-- Generator: Adobe Illustrator 25.3.1, SVG Export Plug-In . SVG Version: 6.00 Build 0)  -->
<svg version="1.1" id="Layer_1" xmlns="http://www.w3.org/2000/svg" xmlns:xlink="http://www.w3.org/1999/xlink" x="0px" y="0px"
	 viewBox="0 0 1204.7 261.9" style="enable-background:new 0 0 1204.7 261.9;" xml:space="preserve">
<style type="text/css">
	.st0{fill:#232323;}
</style>
<g>
	<path class="st0" d="M425.3,102.5c1.8,1.1,4.2,1.1,4.7,0.3c0.5-0.9,1.7-4.2,2.3-6c0.2-0.5,0.3-0.9,0.4-1.1c0.6-1.3,0.6-2.8,0.6-3.7
		l0-0.1c0.1-0.3,0.1-0.6-0.1-0.9c-0.4-0.8-1.6-1.9-3.7-2.4c-0.7-0.3-1.5-0.5-2.2-0.5c-0.6,0-1.1,0.1-1.5,0.4
		c-0.3,0.2-0.5,0.5-0.5,0.8l-0.4,3.4c-0.1,0.4-0.4,1-0.6,1.7c-0.8,2.3-1.4,4.2-1.7,4.6l0,0.1c-0.2,0.2-0.3,0.5-0.3,0.9
		C422.5,100.7,423.5,101.8,425.3,102.5L425.3,102.5z"/>
	<path class="st0" d="M616.1,152.5l-0.5,0.6v-1.4c-0.2-13.4-1.3-23.5-1.4-24l0-0.1c-0.1-2.1-2.9-4.4-5-4.9c-0.6-0.1-1.5-0.2-1.8,0.5
		c-0.2,0.3-0.5,0.8-0.8,1.4c-0.5,0.9-1.2,2.1-2.1,3.4l-0.1,0.1l-0.6,0.3l-0.3-0.3c-7.2-2.9-14-4.5-19.9-4.5c-7.1,0-11,2.5-14.2,5.1
		c-0.1,0.1-0.1,0.2-0.2,0.3c-0.1,0.1-0.1,0.3-0.2,0.4l-0.1,0.1l-0.2-0.1c-1.9,1-4.7,3.2-7.9,5.6c-8.7,6.6-20.5,15.7-29.9,15.7
		c-2.9,0-5.2-0.8-7.2-2.5l0-0.1c-2-3.2-1.3-8.5-0.8-12.7c0.2-1.6,0.4-3,0.4-4c0-3.4-3.8-7.2-7.5-7.6c-0.9-0.1-1.8-0.1-2.7-0.1
		c-11.1,0-24.3,7.2-30.9,12.5l-0.4,0.3l0.4-8.1c0.2-1.2-1.5-3.1-3.2-4.3c-1.3-0.6-2.7-0.7-3.4-0.2c-0.3,0.2-0.5,0.5-0.5,0.9
		l-0.5,5.4h-0.4c-0.1-0.6-0.3-1.1-0.6-1.2c-0.2-0.1-0.4,0-0.6,0.2c-6.6,7.1-28.5,24.8-41.4,24.8c-2.4,0-4.5-0.7-6.2-2.1
		c-3.2-3,0.8-28,2.6-30.4c0.1-1-1.1-2.7-3.2-3.5c-1.8-0.5-3.4-0.5-4.1,0c-0.2,0.1-0.4,0.3-0.4,0.5l0,0.1c-1.7,2.9-2.9,7.9-3.3,13.7
		l0,0.1l-0.1,0.1c-8.8,7.2-23.6,15.8-34.9,18.4l-0.6,0.1l0.4-0.5c1.7-2.2,5.7-8.1,6.2-14.3c0.7-5.9-1.9-9.5-4.3-11.5
		c-4-3.4-10.4-4.6-15.4-3.1c-4.7,1.4-11.7,5.2-17.8,15.4l-0.4,0.7l0.2-3.8c0.6-13.5,0.9-23.2,1.3-28.5c0.2-1.5-1.2-3.4-3.2-4.5
		c-1.2-0.7-2.4-0.9-3-0.6c-0.3,0.2-0.5,0.5-0.6,0.9c-0.7,5.5-1.3,16.2-1.6,32.7l-0.4,0c-0.1-0.8-0.4-1.3-0.6-1.3
		c-0.1,0-0.4,0-0.9,0.8c-0.2,0.3-0.5,0.7-0.8,1.1c-23.4,32.6-33.9,35.7-38.7,32.6c-4.2-3.1-6.3-16.4-6.3-39.5
		c0-37.9,5.9-92.3,7.3-97.1c0-1-1.7-2.7-3.6-3.8c-1.2-0.5-2.2-0.7-2.7-0.4c-0.3,0.2-0.5,0.4-0.5,0.9c-2.6,8.9-8.5,57.3-8.5,95
		c0,2.6,0,5.2,0.1,8.1l0,0.1l-0.1,0.1c-0.5,0.4-0.9,0.8-1.3,1.3c-7.4,8.3-22.8,25.7-43.1,25.7c-7.3,0-14.8-7.3-15.4-11.6l0-0.2h0.2
		c6.8,0,16-5,18.8-12.4c1-2.7,0.5-5.7-1.3-8.3c-2-2.9-5.4-4.7-8.7-4.7c-6.4,0.3-11.8,4.6-14.5,11.6l0,0.1l-0.1,0
		c-12.4,2.3-26.5,4.2-39.9,5.6l-0.2,0v-0.2c0-35.5,0.3-57.5,1-73.5c0.8-19.4,4.1-48.6,6.3-52c0.8-1.1,0.1-3-1.6-4.7
		c-1.2-1.1-3.3-1.6-4.6-1.4c-0.5,0.1-0.8,0.2-0.9,0.4c-6.7,27.8-7.3,70.3-7.3,108v24l-0.2,0c-13.6,1.2-25.4,1.8-35.2,1.8
		c-3.8,0-7.1,0-10.2-0.2l-0.1,0l-5.8-3.8c-8.4-5.1-16-9.3-23.3-12.8L99,123l0-0.1l0.4-11.7c0.3-8.7,0.6-17.2,0.9-25.5
		c1.1-35,2.1-65.2,5.8-81.7c0.2-1.6-1.5-2.8-3.1-3.4c-2-0.7-4.6-0.8-5.4,0.4c-3.9,27.7-5.4,79.4-5.6,118.6v0.3l-0.3-0.1
		c-19.9-8.6-40.7-14.2-60.2-15.9c-4.7-0.5-8-0.4-11,0.2c-3,0.5-5.1,1.9-6.2,3.8c-1.1,2.1-0.9,4.9,0.5,8c3.2,7.8,27,22.2,77.2,27.7
		l0.2,0v0.2c0.5,30.3,1.8,52.7,3.9,64.6c0.2,0.2,0.4,0.5,0.5,0.7c1.2,1.8,2.4,3.4,4.3,3.6c1-0.2,1.4-0.7,1.5-1.7l-0.6-1.2
		c-1.3-18.2-2.3-42.5-2.7-65.2l0-0.2l0.2,0c8.9,0.7,18.2,1.1,28.3,1.3h0.1l0.1,0c12.4,9.9,42.2,36.8,51.4,72.5
		c0.2,1.8,0.4,3.6,1,4.7l0,0.1c0,0.2,0,0.4,0.2,0.8l0,0.1c0,0.1,0,0.1,0,0.1c0,0,0,0,0,0l0.2-0.2l0.2,0.2c1.6,1.7,3.8,3.1,5.5,3.3
		c0.5,0.1,0.9,0,1.2-0.2c0.3-0.2,0.4-0.7,0.4-1.3l-0.5-1.4h0.2c-0.4-0.9-0.9-3.4-2-11.7c-0.5-4.9-0.9-9.3-1.3-13.3
		c-2.1-20.5-3.2-31.8-3-54.4v-0.2l0.2,0c12.8-1.2,24.8-3.3,35.8-6.3c0.9-0.2,1.7-0.6,2.4-1l0.4-0.2l-0.1,0.7
		c-0.1,0.7-0.2,1.5-0.2,2.2c0,2,0.4,4.3,1,6.5c4.4,14.9,22,16.1,32.1,15.6c13.5-0.8,27.2-11,33.4-24.8c0.1-0.3,0.2-0.6,0.4-0.8
		c0.1-0.1,0.1-0.3,0.2-0.4l0.4-0.9l0,0.9c0.7,13.4,2.4,22.5,5,27c4.4,6.6,10.2,10.2,16.5,10.2c13.2,0,29.9-24.9,33.4-35.3
		c0.1-0.3,0.1-0.6,0.2-0.9l0.4,0c-0.3,16-0.4,37.5-0.4,65.6c0.2,3.7,0.4,7.5,0.5,11.3c0.4,8.6,0.8,16.8,1.3,23.3
		c0.3,2.7,3.2,4.5,5.1,4.5c0,0,0,0,0.1,0c0.7,0,1.8-0.3,1.9-1.7c-1.2-8.9-1.4-18.7-1.7-29.1c-0.1-2.8-0.1-5.6-0.2-8.4
		c0.6-23.1,1-38.4,3.3-48.8l0.1-0.3l1.9,1.3c3.5,2.3,11.9,4.7,19,2.7l0.1,0h1c0.6,0,1.1,0,1.7,0c13.7,0,28.4-7,39.8-19l0.3-0.4
		l0,0.5c0.4,7.2,2,13,4.4,15.8c3.9,4.7,9.4,5.8,13.6,5.8c0.4,0,0.7,0,1.1,0c13.9-0.7,32.9-17.8,37.1-26.2c0.5-1,0.8-1.9,1-2.7
		l0.4,0.1l-1.4,15.6c-0.4,2.6-0.2,4.8,0,6.7c0.1,1.2,1.1,2.4,2.6,3.2c1.5,0.7,3.1,0.9,3.8,0.4c0.3-0.2,0.4-0.5,0.4-0.9l0.2-5.3
		c3.8-9,19.2-20.3,35.4-22.2l0.3,0l0,0.3c-0.4,2.7-0.6,5.2-0.6,7.6c0,4.6,0.9,8.2,2.7,11.1c4,6.2,11,8.4,16.3,8.4
		c14.5,0,27.4-11.7,32.2-17.8l0.3-0.4l0.1,0.5c0.3,2.5,1.1,4.6,2.4,6.6c1.5,2.2,3.5,4.5,6,6.5c0.4,0.5,1,0.9,1.8,1.3
		c1.9,1,3.9,1.6,5.9,1.6c2.5,0,4.7-0.8,6.4-1.4l0.4-0.1c3.6-1.8,7.2-4.8,10.6-7.8c2.7-2.5,5.2-5.2,7.1-7.6l0,0l1-0.7v1.5l0.4,18.4
		l0.2,1l-0.1,0.1l-5.2,4c-22.2,17.8-37.8,38.9-40.8,55.1c-1,7.5,1.9,15.6,7.9,22.3c5.3,5.7,12.4,8.6,18.1,7.4
		c8.2-1.8,14.7-9.1,19.3-21.7c3.7-10.2,6.1-23.7,7.1-39.9l0.6-20.9l0.2-2.8l0.1-0.1l6-4.5c4.8-3.1,21-13.2,30.9-16.4
		c0.8-0.2,1.2-0.5,1.3-0.7c0-0.2-0.1-0.7-1.3-1.6C648.9,135.5,622.1,148.6,616.1,152.5z M92,136.6l-0.2,0c-32.2-4.3-65-14.6-70.2-22
		c-0.6-0.9-0.9-1.8-0.7-2.6c0.6-2.3,4-3.5,9.6-3.5c13.8,0,39,6.9,61.4,16.9l0.1,0.1V136.6z M116.1,138.6c-4.9,0-10.3-0.4-16.9-1.1
		l-0.2,0v-8.6l0.3,0.2c6.4,3.2,11.7,6,16.9,9.2l0.6,0.4H116.1z M176.2,190.8c-10.4-17.2-23.8-32.5-38.9-44.4l-0.5-0.4h0.6
		c1.5,0,3.3,0,5.1,0.1c2.2,0.1,4.7,0.1,7.4,0.1c8.2,0,16.2-0.3,24-0.9l0.2,0v0.2c0.2,18.9,1.1,28.7,2.2,41.2l0.4,4.9L176.2,190.8z
		 M226.8,140.4c-0.2-4.2,4.2-12,8.5-13.8c1.6-0.7,3-0.4,4.1,0.8c0.5,0.5,0.7,1.2,0.5,2c-0.6,3.1-6,7.8-12.9,11.1l-0.3,0.1
		L226.8,140.4z M369,151.4L369,151.4L369,151.4c-1-0.1-2.4-0.2-4-0.4c-4.5-0.4-10.1-0.9-11.8-1.9l-0.1-0.1v-0.8
		c1-4.9,9.6-17.2,17.7-20.7c3.1-1.3,5.8-1.3,8.1,0.1c1.9,1.2,2.7,3.6,2.3,6.8C380.2,141.3,374.1,149.8,369,151.4z M598.2,134.9
		l-4.6,4.7c-3.2,3-6.9,5.8-10.1,7.4c-1.7,0.9-3.2,1.4-4.7,1.4c-1.3,0-1.7-0.2-1.8-0.2l-1.5-1.2c-1.4-2-2.1-4.2-2.1-6.4
		c0-2.4,0.7-4.5,2.4-6.4c2.6-2.8,7-4.3,12.3-4.3c2.9,0,6.4,0.6,10.7,1.8l1.8,0.5L598.2,134.9z M584.1,242c-0.4,0.1-0.8,0.1-1.2,0.1
		c-2.5,0-5.9-1.7-8.6-4.5c-2.2-2.8-5.8-8.6-4.4-15.9c2.2-14.5,15-33.7,33.4-50l4.7-4.4l0,0.5C608.5,200.8,601.2,238.1,584.1,242z"/>
	<path class="st0" d="M1139.6,203.1h-0.2l-0.5-0.5c-0.5-1-1-2.8-1.9-6c-0.2-0.8-0.4-1.7-0.7-2.7c-1-5-1.7-11.7-1.9-19.4
		c-0.6-6.5-0.6-13.5-0.6-20.9c0-10.2,0.2-20.7,0.6-31.2c0.2-9.3,0.7-18.1,1.5-28.5c0.1-2,0.6-4.6,1.1-7.4c0.5-2.5,1-5.1,1.2-7.2
		c1.1-11.2,3.3-37.3,3.5-47.2c-0.3-2.3-3.9-5-6-5.1c0,0-0.1,0-0.1,0c-0.8,0-1.2,0.4-1.4,1.1c-0.3,0.9-4.2,32.9-5.6,51.7l-0.4,8.1
		c-2.7,12.8-5.4,23.8-9.6,35.8l-0.1,0.2l-0.2-0.1l-1.7-0.7c-5-1.4-9.2-2-13.9-2c-7.9,0-14.3,2.5-19,7.4c-0.2,0.2-0.4,0.5-0.7,0.9
		c-0.1,0.1-0.2,0.3-0.3,0.4l-0.2,0.3l-0.2-0.3c-0.1-0.3-0.2-0.3-0.2-0.3c-1.8,1-4.6,3.2-7.9,5.7c-8.7,6.6-20.5,15.7-29.9,15.7
		c-2.9,0-5.2-0.8-7.2-2.5l0-0.1c-2-3.2-1.3-8.5-0.8-12.7c0.2-1.6,0.4-3,0.4-4c0-3.4-3.8-7.2-7.5-7.6c-0.9-0.1-1.8-0.1-2.7-0.1
		c-11.1,0-24.3,7.2-30.9,12.5l-0.4,0.3l0.4-8.1c0.2-1.2-1.5-3.1-3.2-4.3c-1.3-0.6-2.7-0.7-3.4-0.2c-0.3,0.2-0.5,0.5-0.5,0.9l-0.5,5
		l-0.2-0.1c-0.5-0.1-1.3,0.3-2.1,1.1c-7.5,9-25.3,20.6-36.3,18.3c-4.8-1.4-4.9-7.8-4.8-9.7c0.3-3.1,1.4-6.1,2.3-8.8
		c0.4-1,0.7-2,1-2.9c0.4-0.8,0.1-1.6-0.3-2.2c-1.1-1.7-3.6-3.4-5.1-3.4c0,0-0.1,0-0.1,0c-0.5,0-0.8,0.2-1,0.6l-3.6,5.3l-0.4,0
		c-5.2-2.5-11-3.8-16.8-3.8c-7.4,0-14.5,2.1-19.9,6c-0.5,0.4-1,0.8-1.4,1.3c-0.2,0.2-0.3,0.3-0.5,0.5l-0.4,0.3l0-0.5
		c0-0.1,0-0.2,0-0.2l0,0c-12.8,2.4-27.9,4.6-42.5,6.1l-0.2,0v-0.2c0-25.1,0.1-53.4,1-73.5c0.9-21.2,4.2-48.9,6.3-52
		c0.8-1.1,0.1-3-1.6-4.7c-1.2-1.1-3.3-1.6-4.6-1.4c-0.5,0.1-0.8,0.2-0.9,0.4c-6.7,27.8-7.3,70.3-7.3,108v24l-0.2,0
		c-13.6,1.2-25.4,1.8-35.2,1.8c-3.8,0-7.1,0-10.2-0.2l-0.1,0l-5.8-3.8c-8.4-5.1-16-9.3-23.3-12.8l-0.1-0.1l0-0.1l0.4-11.7
		c0.3-8.6,0.6-17.2,0.9-25.5c1.1-35,2.1-65.2,5.8-81.8c0.2-1.6-1.5-2.8-3.1-3.4c-2-0.7-4.6-0.8-5.4,0.4
		c-3.9,27.8-5.4,79.4-5.6,118.6v0.3l-0.3-0.1c-19.9-8.6-40.7-14.2-60.2-15.9c-4.7-0.5-8-0.4-11,0.2c-3,0.5-5.1,1.9-6.2,3.8
		c-1.1,2.1-0.9,4.9,0.5,8c3.2,7.8,27,22.2,77.2,27.7l0.2,0v0.2c0.5,30.4,1.8,52.7,3.9,64.6c0.2,0.3,0.4,0.5,0.5,0.8
		c1.2,1.7,2.4,3.4,4.2,3.6c1-0.2,1.4-0.7,1.5-1.7l-0.6-1.2c-1.3-18.1-2.3-42.5-2.7-65.2l0-0.2l0.2,0c8.9,0.7,18.2,1.1,28.3,1.3h0.1
		l0.1,0c12.4,9.9,42.2,36.8,51.4,72.5l0,0.1c0.2,1.7,0.4,3.5,1,4.6l0,0.1c0,0.2,0,0.4,0.2,0.8l0,0.1c0,0.1,0,0.1,0,0.1c0,0,0,0,0,0
		l0.2-0.2l0.2,0.2c1.6,1.7,3.9,3.1,5.5,3.3c0.5,0.1,0.9,0,1.2-0.2c0.3-0.2,0.4-0.7,0.4-1.3l-0.5-1.4h0.2c-0.5-1.3-1.1-5.1-2-11.7
		c-0.5-4.9-0.9-9.2-1.3-13.2c-2.1-20.5-3.2-31.8-3.1-54.4v-0.2l0.2,0c12.8-1.2,24.8-3.3,35.8-6.3c0.9-0.3,1.8-0.6,2.7-1.1l0.6-0.3
		l-0.2,0.6c-0.8,2.1-1.2,4-1.2,5.8c0,4.7,2.1,8.9,6.2,12.2c2.1,1.5,4.6,2.2,7.4,2.2c12.2,0,27.5-14.2,30.5-17l0.2-0.2l0.1,0.3
		c2.5,7.5,7.3,12.1,14.6,14c8.6,2.2,22.8-4.7,28.1-10.5c2.9-3.1,5-6,6.4-8.7l0.5-1l-1.1,12.3c-0.4,2.6-0.2,4.8,0,6.7
		c0.1,1.2,1.1,2.4,2.6,3.2c1.5,0.7,3.1,0.9,3.8,0.4c0.3-0.2,0.4-0.5,0.4-0.9l0.2-5.3c3.8-9,19.2-20.3,35.4-22.2l0.3,0l0,0.3
		c-0.4,2.7-0.6,5.2-0.6,7.6c0,4.6,0.9,8.2,2.7,11.1c4,6.2,11,8.4,16.3,8.4c13.8,0,26.3-10.7,31.5-17l0.4-0.5v0.6
		c0,5.1,2.4,9.8,7,13.7c4.9,3.9,8.9,4.4,12.6,4.4c10.7-0.8,19.6-11.9,27.3-34l0.4-1.2v9.4c0,3.1-0.1,6.2-0.1,9.3
		c-0.1,3-0.1,6-0.1,8.9c0,7.3,0.2,14.2,0.6,20.4c0.2,6.9,0.9,14,2.1,20c0.7,4,2.2,9.7,5.4,13.6c1.3,1.6,3.5,3.5,5.9,4.2
		c1.1,0.2,1.8,0.1,2.2-0.3c0.4-0.4,0.2-1.1,0-1.7C1142.4,205.3,1140.8,203.8,1139.6,203.1z M766.5,136.6l-0.2,0
		c-32.2-4.3-65-14.6-70.2-22c-0.6-0.9-0.9-1.8-0.7-2.6c0.7-2.3,4-3.5,9.6-3.5c13.8,0,39,6.9,61.4,16.9l0.1,0.1V136.6z M790.7,138.6
		c-4.9,0-10.3-0.4-16.9-1.1l-0.2,0v-8.6l0.3,0.2c6.4,3.2,11.7,6,16.9,9.2l0.6,0.4H790.7z M850.8,190.8
		c-10.4-17.2-23.8-32.5-38.9-44.4l-0.5-0.4h0.6c1.5,0,3.3,0,5.1,0.1c2.2,0.1,4.8,0.1,7.4,0.1c8.2,0,16.2-0.3,24-0.9l0.2,0v0.2
		c0.2,19,1.1,28.8,2.2,41.3l0.4,4.8L850.8,190.8z M934.3,132.2c-7.2,8.2-20.8,17.6-31,18.9h0h0c-1.4-0.1-2.6-0.7-3.3-1.7
		c-0.8-1-1-2.5-0.6-4c2.2-10.1,15.4-14.8,26.7-14.8c3,0,6,0.4,8.2,1.1l0.3,0.1L934.3,132.2z M1116.1,129.3
		c-4.7,10.2-11.4,21.9-21.4,23c0,0,0,0,0,0c-2.3,0-4-0.6-5.6-2.1c-1.6-1.2-2.6-3.8-2.6-6.7c0-2.4,0.7-5.9,3.8-9.6
		c3.7-4.2,9.1-6.1,17.3-6.1c2.5,0,5.5,0.2,8.6,0.7l0.3,0L1116.1,129.3z"/>
	<path class="st0" d="M1194.5,113.4c-0.9-1.6-3-3.1-5-3.1c-0.2,0-0.3,0-0.5,0c-11,1.6-33.1,8.8-31.5,20.4c0.7,5.6,5,8.1,9.5,10.7
		c0.8,0.5,1.7,1,2.5,1.5c2.7,1.6,7,4,11.2,6.3c2.2,1.2,4.3,2.4,6.1,3.4l0.5,0.3l-0.5,0.1c-5.9,1.5-14.3,2.5-20.5,2.5
		c-2.7,0-5.1-0.2-6.9-0.7c-0.3-0.1-0.7-0.1-1-0.1c-0.6,0-1.2,0.2-1.4,0.8c-0.5,1.3,0.8,4,2.4,4.8c2.9,1.3,7.8,2,13.2,2
		c5.4,0,10.8-0.7,14.5-1.8c3.2-0.9,5.8-3.5,6.5-6.3c0.3-1.4,0.3-3.5-1.8-5.5c-3.3-2.8-7.9-5.5-13.7-9c-1.5-0.9-3-1.8-4.6-2.7
		c-0.6-0.4-1.3-0.8-1.9-1.2c-3.6-2.2-7-4.3-5.9-7.1c1.7-4.4,12.6-7.7,21.3-10.2c2.9-0.9,5.7-1.7,7.7-2.4
		C1195.3,115.1,1194.9,113.9,1194.5,113.4z"/>
</g>
</svg>
