<?xml version="1.0" encoding="utf-8"?>
<!-- Generator: Adobe Illustrator 25.3.1, SVG Export Plug-In . SVG Version: 6.00 Build 0)  -->
<svg version="1.1" id="_x2014_ŽÓť_x5F_1" xmlns="http://www.w3.org/2000/svg" xmlns:xlink="http://www.w3.org/1999/xlink"
	 x="0px" y="0px" viewBox="0 0 850.39 850.39" style="enable-background:new 0 0 850.39 850.39;" xml:space="preserve">
<style type="text/css">
	.st0{fill:#1C1C1E;}
</style>
<g>
	<path class="st0" d="M600.69,259.82H249.7c-20.49,0-37.11,16.61-37.11,37.11l0,0c0,20.49,16.61,37.11,37.11,37.11h350.98
		c20.49,0,37.11-16.61,37.11-37.11l0,0C637.79,276.43,621.18,259.82,600.69,259.82z"/>
	<path class="st0" d="M600.69,388.09H249.7c-20.49,0-37.11,16.61-37.11,37.11l0,0c0,20.49,16.61,37.11,37.11,37.11h350.98
		c20.49,0,37.11-16.61,37.11-37.11l0,0C637.79,404.7,621.18,388.09,600.69,388.09z"/>
	<path class="st0" d="M600.69,516.36H249.7c-20.49,0-37.11,16.61-37.11,37.11l0,0c0,20.49,16.61,37.11,37.11,37.11h350.98
		c20.49,0,37.11-16.61,37.11-37.11l0,0C637.79,532.97,621.18,516.36,600.69,516.36z"/>
</g>
</svg>
