<?xml version="1.0" encoding="utf-8"?>
<!-- Generator: Adobe Illustrator 25.3.1, SVG Export Plug-In . SVG Version: 6.00 Build 0)  -->
<svg version="1.1" id="Ebene_1" xmlns="http://www.w3.org/2000/svg" xmlns:xlink="http://www.w3.org/1999/xlink" x="0px" y="0px"
	 viewBox="0 0 987 805.5" style="enable-background:new 0 0 987 805.5;" xml:space="preserve">
<style type="text/css">
	.st0{fill:#F5FFFA;}
	.st1{fill:#86A89D;}
	.st2{fill:#6B9080;}
	.st3{fill:#2C665B;}
	.st4{fill:#E59F6A;}
	.st5{fill:#DFE0E3;}
	.st6{fill:#D8EFE9;}
	.st7{fill:#BBBDC4;}
	.st8{fill:#B8BBC2;}
	.st9{fill:#D89568;}
	.st10{fill:#DADCDF;}
	.st11{fill:#E8E9EB;}
	.st12{fill:#F6FFF8;stroke:#A4C3B3;stroke-width:0.25;stroke-miterlimit:10;}
	.st13{fill:#E5F9F1;}
	.st14{fill:#313D66;}
	.st15{fill:#161313;}
	.st16{fill:#DAEEEF;}
	.st17{fill:none;stroke:#DAEEEF;stroke-width:4.01;stroke-miterlimit:10;}
	.st18{fill:#FCECDB;}
</style>
<g>
	<g id="Ebene_1_1_">
		<path class="st0" d="M156.5,376.5c29-3.6,43.6-10.9,49.6-21.4c31.1-54.5-45.4-130.7-17.3-190.4c23.9-51,128.5-73.6,211.5-45.9
			c121.5,40.3,119.6,162.1,255.7,223.7c125.2,56.6,202.7-12.1,270.6,37.5c109.9,80.3,39.4,357.4-87.4,358.7
			c-53.4,0.5-173.1-36.6-260-86.2c-127.4-72.7-39.8,157.4-178.6,153c-174.2-5.5-234.4-79.6-269.8-129.2
			C54.6,569.9,3.5,521.5,10,475.6C20.4,402.1,135.8,380.1,156.5,376.5z"/>
		<path class="st1" d="M486.2,623.6c-120.5-42.1-98.3-109.1-196.1-129c-128.8-20.9-127.9-58.7-97.6-133
			c29-70.9,63.7-69.5,66.9-151.4c5.1-130.6,31-186.9,379.3-93.9c55.1,14.7,147.1,33.4,182.7,90.6c33.6,54-48.5,113.4,38.6,162.6
			c76.5,43.1,75.9,85.6,20.4,121.1c-47.6,43.3-138.6,0.8-183.3,69.4C641.7,645.1,630.8,674.1,486.2,623.6z"/>
		<path class="st2" d="M781.7,486.3c-11.1,12.5-13.8,11.5-23.7,20.4c-16.3,3.8-41.5-3.3-59.1-1.5s-49.3,7.6-63.5,10.4
			c-45.9-22.8-84.5-109.1-79-98.6c27.5,2.4,16.9,1.3,57,7.5c29.8,4.6,54.2,17.9,81,29.7c11.1,4.9,21.1,12,38.4,13.6
			c-4.5-22.4-21.2-39.6-30.3-59c-9.1-19.4-20.2-38.3-32-60.4c-32.9,11.7-69.5,13.8-104,6.1c-20.2-4.3-39.6-10.6-57.9-18.9
			c-20.8-9.3-32.1-24.7-36.4-43.1c-5.9-24.9,12.2-40.9,42.8-37.3c29.3,3.5,54.5,15.9,78.1,29.8c22.2,13.1,42.8,27.9,68.8,45.1
			c-8.5-39-14.7-72.8-42.2-102.2c-37.4-40.1-62.7-87.1-73.8-137c-5.1-22.1-3.9-43.1,9.4-63.2S587.7,2.9,613,13.6
			c13.9,5.9,23.6,15.1,32,25.7c21.1,26.9,25.7,56.6,23.4,87.2c-2.2,29.2-4.3,58.3-8.4,87.4c-4,29,2.4,56.2,15.3,83
			c-1.2,3.2-2.8,6.4,1,10.7c3.5-3.8,6.8-6.7,2.9-11.6c6.5-22.8,12.6-45.7,19.6-68.5c6.8-21,19.3-40.4,36.5-56.7
			c7.2-7.3,16.2-13.4,26.3-17.8c16.2-6.8,33.6-8.7,48.9,0.6c15.6,8.9,23,25,18.4,40.2c-11.8,46.9-43.9,84-84,116.9
			c-16,13.1-33.6,24.9-52,38.4c11.6,34.8,31.8,67.1,56.3,104c4.6-53.3,20.9-98.4,48.9-140.5c3.5-5.9,7.5-11.6,11.9-17.1
			c26-29.2,70.9-41.7,98.7,1c-1,2.5,0.2,5.3,2.9,6.7c0.6,24.2-16.2,43.3-27.5,63.9l-28.9,39.5l-31.2,36.6"/>
		<path class="st3" d="M209.2,509.4c22.9-2.8,34.3-8.6,38.6-16.9c22.8-43.1-40.8-103.5-20.7-150.8c17.2-40.4,99.5-58.1,166.4-36.2
			c97.9,32,100.9,128.5,211.3,177.3c101.6,44.9,160.7-9.4,216.4,29.9c90.3,63.6,49.6,199.6-51.1,200.4
			c-42.4,0.4-25.4,84.1-159.8,70.6c-124.2-12.4-55.6,3.6-166,0c-138.6-4.5-56.3-61.7-86.3-101c-64.2-84.3-265.2-58.7-261.7-95.1
			C102,529.7,192.9,512.3,209.2,509.4z"/>
		<path class="st2" d="M540.5,458.1c13.5,6.6,12.7,9.1,22.4,15.4c5,12.8-0.7,35.5,2.3,50c3,14.5,10.9,39.7,14.7,51
			c-20.3,43.7-106,95-95.5,88.1c0.7-23.6,0.2-14.5,3.9-49.5c2.8-26,14.8-49.5,25.1-74.6c4.3-10.4,10.9-20.3,11.5-35.2
			c-22.6,8.7-39.1,26.5-58.1,38.4c-19,11.9-37.8,25.4-59.6,40.2c14.5,25.9,18.4,54.5,12.9,86.1c-3.1,18-8.3,35.7-15.6,52.8
			c-6.9,17.5-21.9,32-41.8,40.1c-25,10.4-42.5-1.3-40.8-27.9c1.7-25.4,12.7-49.3,25.4-72.2c11.9-21.5,25.8-42.2,41.6-67.7
			c-39.2,15.9-73.4,28.5-101.5,58c-36.1,38.7-82.3,70.2-135,92.1c-22.3,9.2-43.9,12.9-65.1,6s-27.5-21.9-18.1-45.4
			c5.2-12.1,13.5-23.2,24.3-32.4c26.1-23.7,56.1-34.1,87.5-38.9c29.9-4.6,59.8-9.2,89.7-12.3c29.8-3,57.1-14.4,83.7-31
			c4.1,1,8.4-0.3,10.8-3.2c-4-2.1-7.3-4.2-12,0c-23.7-0.4-47.5-0.5-71.1-1.3c-21.8-1.1-42.7-7.4-60.2-18.2
			c-8.2-4.7-15-10.9-19.8-18.2c-8-12.1-11.1-26.4-2.6-41.3c8.9-15.7,23-24.2,39.8-24.4c48.6-0.5,88.5,18.3,124.6,44.8
			c14.4,10.6,27.5,22.8,42.5,35.2c34.8-17.4,66.4-41.5,102.5-70.2c-54.5,7.8-101.7,4.1-146.5-10.1c-6.2-1.6-12.2-3.6-18-6
			c-31.4-15.4-57.1-62.4-5.3-83.1c4.6-1.9,19.6-15.3,73.7,5.1c13.1,4.9,28,10.5,42,15.7l39.3,18"/>
		<path class="st4" d="M612.1,434.7c1-3.3,8.4-11,12.7-7.9c3.5,2.5,1.4,10.6,0.3,13.7c-1.2,4.4-4,8.5-8,11.6
			c-1.8,1.5-4.3,2.3-6.9,2.1c-3.1-0.6-2.6-4.3-2.7-6.6c-0.1-3.2,0.4-6.4,1.5-9.5c1-2.7,3.2-4.7,4.4-7.1"/>
		<path class="st4" d="M511.6,431.7c-1.9-2.8-4.1-8.8-9.2-8.4c-5.1,0.5-5.4,9.7-4.7,13c0.8,4.1,3.1,10.1,7.4,12.7
			c2.5,1.4,5.6,1.9,8.6,1.3c3.3-1,3.6-4,3.9-6.6c0.2-5.6-2.3-11-6.8-15.2"/>
		<g>
			<path class="st5" d="M621.9,426.2c-3.8,0.5-8.3,5.2-9.6,8l1.3-3.2c-1.2,2.5-3.4,4.4-4.4,7.1c-1.1,3.1-1.6,6.3-1.5,9.5
				c0,2.3-0.4,6,2.7,6.6c1.7,0.3,3.5-0.1,4.9-0.9C618,444.3,620.3,435.3,621.9,426.2z"/>
		</g>
		<g>
			<path class="st5" d="M510.8,428.3l0.8,3.4c-1.3-2.7-3.2-5.2-5.5-7.4c0,1.9,0,3.8,0,5.7c0.2,6.2,0.8,12.4,1.8,18.5
				c0,0.5,0.2,1.1,0.3,1.6c1.8,0.4,3.6,0.4,5.4,0c3.3-1,3.6-4,3.9-6.6C517.6,437.9,515.2,432.4,510.8,428.3z"/>
		</g>
		<path class="st6" d="M520.3,504.5c0,0-58.9,21.6-78.2,32.3c-19.3,10.7,6.6,153.5,5.9,164.9c-0.7,11.4-3.7,82.4-3.7,82.4
			c30.8,0.9,45.2,4.1,92.4-4.7c2.3-0.1,4.7-0.1,7,0c32.6,2.5,53.1,3.8,86.8,6.1c16.6,1.1,23.9,0.3,39.8-2.2c0.5-0.1,1.1-0.2,1.5-0.5
			c0.4-0.3,0.6-0.8,0.6-1.3c-1.4-15.5-11.5-128.1-11.8-145.7c-0.4-18.9-0.4-110.4-0.4-110.4l-63.2-23.7l-4.6,22.8
			c-8.1,14.3-28.7,20.4-46,13.7c-6.2-2.4-11.4-6.3-14.9-11.2L520.3,504.5z"/>
		<path class="st4" d="M520.6,473.1c0,0-1.1,30-0.3,31.4c0.8,1.4,11,39.9,40.3,35.7c29.3-4.1,36.3-38.7,36.3-38.7l-2.2-30.1
			c-11.4,3.9-23.7,5.5-36,4.6C538.8,474.4,520.6,473.1,520.6,473.1z"/>
		<path class="st7" d="M559.8,502.6c13.9-1.5,26.6-7,36-15.7l-1.1-15.4c-11.4,3.9-23.7,5.5-36,4.6c-19.9-1.6-38.1-3-38.1-3
			s-0.2,6.4-0.4,13.4C527.5,494.2,540.9,504.4,559.8,502.6z"/>
		<path class="st4" d="M511.1,408c0,0-3.1,47.2,5.4,61.1c8.4,13.9,28.8,24.4,42.8,26.2c14,1.8,32-7.6,41.1-17.8
			c9-10.1,17.3-45.7,18.5-59.1c1.3-13.4-9-37.6-22.5-44.7c-13.5-7.1-67.7-2.3-78,4.2C508.1,384.4,511.1,408,511.1,408z"/>
		<path class="st8" d="M638.7,629.4c-5.9,35.8-5.9,42.8-5.9,42.8l-67.6,14.1c-11.8,2.5-60.3,16.7-60.3,16.7l12.2,34.6
			c0,0-25.1,0.3-31.7-3.7c-6.6-4-18.8-13.2-22.5-10.4c-3.1,2.4-13.5,8.1-16.3,9.7c0,2.4-0.2,4.7-0.3,7.1c0.3,0,7.4,0.6,8.5,0.6
			c1.1,0,12.9,4.6,17.7,2.1s5.2-3.7,5.2-3.7s13.3,6.7,25.1,6.7s18.8-0.6,18.8-0.6s8.8,25.1,11.8,26s42-7.6,62.3-13.1
			c20.3-5.5,45.3-9.5,58.6-14.4l13.3-4.9l3.6-2.1c-4.7-39.6-10.4-90.4-10.6-101.5c-0.2-10.3-0.3-42-0.3-68.7
			c-2.9-6.6-4.8-10.8-4.8-10.8S644.6,593.7,638.7,629.4z"/>
		<path class="st8" d="M446.8,692.6c0,0,7.4,27.6,31.1,27.2s53.7-35.8,77.4-64.2s37.2-63.4,37.2-63.4l-41.7-21c0,0-48.1,100-68,104
			c-13.3,2.6-26.8,4.5-40.4,5.5L446.8,692.6z"/>
		<path class="st9" d="M508.4,710.2c0,0-32.4-8.9-48.3-8c-15.9,0.9-19.5,5.1-20.3,7.2c-0.3,1.7,0,3.4,0.9,4.9c0,0-5.5,7.8-3.3,12.7
			c1.9,3.5,5.5,6,10,7c1.2,0.2,2.4,0.1,3.5-0.2c0,0,7.7,4.9,14.2,3.8c3.7-0.5,6.8-2.6,8.3-5.5c0,0,10,7.4,21.4,8
			c8.8,0.1,17.5-0.8,26-2.5l-7-26.7L508.4,710.2z"/>
		<path class="st9" d="M460.1,702.2c-2.2,0.1-4.4,0.4-6.6,0.7c1.9,2.5,10.6,12.7,23.4,12c7.7-0.5,15-3.1,20.7-7.4
			C486.7,704.9,470.1,701.6,460.1,702.2z"/>
		<path class="st6" d="M451.3,531.9c0,0-25.4,9.8-35.4,29.7c-10,19.9,1.1,80.4,13.3,104.9c12.2,24.5,30.2,48.6,48.3,46.8
			s40.4-21.9,50.7-33.6c10.3-11.6-50.7-106.5-53.3-113.5C472.4,559.2,451.3,531.9,451.3,531.9z"/>
		<g>
			<path class="st10" d="M567.6,496.2c1.2-0.8,2-1.9,3.1-2.7c1.2-0.9,2.5-1.6,4-2.2c1.3-0.5,2.6-0.9,4-1.1c0.7-0.1,1.4-0.1,2.1,0
				l1,0.1c0.3,0,0.7,0,1,0c0.3,0,0.6-0.3,0.4-0.5c-0.4-0.5-1-0.8-1.7-0.9c-0.8-0.1-1.6-0.1-2.4,0c-1.6,0.2-3.1,0.6-4.5,1.2
				c-1.5,0.6-2.9,1.4-4.2,2.3c-0.6,0.4-1.2,0.9-1.7,1.5c-0.6,0.6-0.9,1.4-1.6,2c-0.1,0.1-0.1,0.3,0,0.4
				C567.2,496.4,567.4,496.4,567.6,496.2L567.6,496.2z"/>
		</g>
		<path class="st9" d="M550,500c-1.4-3.2-3.8-6.1-6.9-8.3c-4.9-3.7-9.2-5.1-11.5-3.2c-2.3,1.9,3.6,9,6.1,14.3c1,1.9,1.8,3.8,2.5,5.7
			c0,0,0,8.5,0,13.3c0,4.8,0.4,12.8,2.2,16c1.8,3.2,2.9,2.1,2.9,2.1s6.4-30.4,7-33.6C552.5,504.1,551.6,501.8,550,500z"/>
		<path class="st9" d="M538.3,546.5c2.4-6.8,4.2-13.8,5.3-20.9c0.8-8.2,1.4-22.8,5-28.4s16.7-18.6,27-19.3c7.7-0.7,15,2.8,18.1,8.7
			c2.8,4.3,2.2,10.3-2.2,8.9s-9.2-6.9-13.4-6.4c-4.5,0.9-8.3,3.4-10.3,6.9c-0.6,2.3-0.6,5.3,0.3,5.3s12.2-7.6,21.4-5.1
			c5.1,1.1,8.3,5.2,7.5,9.5c2.9,0.4,5.3,2,6.4,4.3c1.3,1.8,0.8,4.1-1.1,5.5c2.7,1.3,4.4,3.7,4.4,6.3c0,3.7-3.2,6.8-7.5,7.5
			c-2.6,0.4-5.3,0.3-7.8-0.4c-0.8,7-3.4,13.9-7.5,20.1c-4,5.8-9.5,10.8-16.2,14.7l-10.6,9.6l-23.7-13.7L538.3,546.5z"/>
		<path class="st8" d="M466.2,583l22.5,47.4l11-10.4c-7.6-6.9-14.5-14.2-20.6-22C475.3,592.7,471,587.7,466.2,583z"/>
		<path class="st6" d="M451.3,640.5c0,0,63.8-68.8,72.3-78.9c8.5-10.1,12.9-15.9,12.9-15.9c12.5,6,24.2,13.1,35,21.1
			c8.9,7.2,16.1,15.8,21,25.4c0,0-34,53.3-54.6,76.5c-20.6,23.2-32,33-43.4,38c-11.4,5.1-30.6-13.1-39.1-29
			C446.9,661.8,451.3,640.5,451.3,640.5z"/>
		<path class="st11" d="M481.7,615.4c19-17.5,52-54.9,62-66.1c-4.3-2.3-7.1-3.6-7.1-3.6s-4.4,5.8-12.9,15.9s-72.4,78.9-72.4,78.9
			c0,0.1,0,0.2,0,0.3C462.1,632.8,472.2,624.3,481.7,615.4z"/>
		<path class="st6" d="M650.9,521.5c0,0,32.5,9.5,41.3,22c8.8,12.5,12.2,64.8,14.4,82.8s5.9,64.2-1.5,78c-4.2,9-12.2,16.5-22.5,21.1
			c-5.8,2.9-11.8,5.5-17.9,7.8c0,0-20.1-39-24.9-45.4c-4.8-6.4-9.2-12.5-9.2-12.5l11.4-1.2c0,0,4.4-63.6,7-81.6s2.2-21.3,2.2-21.3
			L650.9,521.5z"/>
		<path class="st6" d="M504.8,702.8c0,0,4.7,17.8,8.8,28.9c4.2,11.1,14.7,34.9,14.7,34.9c23.9-2.6,47.4-6.9,70.4-12.8
			c36.5-9.6,64.9-19.3,73.2-23.2c7.2-3.4-4.6-32.7-6.8-37.5s-21-19-21-19s-53.3,7.8-78,14S504.8,702.8,504.8,702.8z"/>
		<path class="st12" d="M536.4,277.1c-5.9-5.1-16.4-7.5-20.6-0.2c-3.9,6.7-2.2,15.1,6.1,17.5C532.9,297.5,546.1,288.6,536.4,277.1z"
			/>
		<path class="st12" d="M510.2,224.7c1.4,5.8,1.9,33.9,2.7,36.2c0.6,1.6,14.7,1.9,22.4,2c2.2-0.1,4-1.7,3.8-3.5
			c0-0.3-0.1-0.6-0.2-0.8c-2-7.6-4-20.9,5.1-21.2c12.2-0.5,53,7.2,61.9-23.3s-16.8-59.5-64.9-63s-65.5,24.6-65.5,24.6
			s9.3,14.7,15.3,16.9c7.9,3,21.4-21.7,53.6-16.8s32.9,26.6,20.4,34.5C550,219.6,506.4,208.3,510.2,224.7z"/>
		<path class="st12" d="M651.3,305.8c-0.8-3.5-4.3-7.4-8.4-5.8c-3.5,1.2-5.2,4.5-3.7,7.3c0.2,0.4,0.4,0.7,0.7,1.1
			C643.2,312.6,651.5,312.9,651.3,305.8z"/>
		<path class="st12" d="M688.9,262c-1.3,2.5-10.3,13.5-10.7,14.6c-0.4,1.1,5.4,4.8,8.5,7c0.7,0.6,1.8,0.6,2.6,0.1
			c0.2-0.2,0.4-0.4,0.5-0.7c1.7-3.4,5.2-9.1,9.2-6.7c5.2,3.2,19.4,17.5,32.9,8.3s12.6-27.4-6.1-42.1c-18.7-14.7-34.8-8.8-34.8-8.8
			s-1,8.2,0.7,10.8c2.3,3.3,15.8-2.4,27.5,8.4c11.7,10.8,4.8,19.3-3.1,18.9C706.8,271,692.7,254.6,688.9,262z"/>
		<path class="st12" d="M773.5,639.8c-3.6-2-9.4-2.5-10.9,0.9c-1.5,2.9,0.2,6.2,3.6,7.4c0.5,0.2,1,0.3,1.5,0.4
			C773.8,649.4,779.8,644.6,773.5,639.8z"/>
		<path class="st12" d="M761.7,586.9c1.3,2.5,4.5,15.5,5.2,16.5c0.6,1,7.9,0.2,12-0.2c1-0.1,1.7-0.8,1.7-1.6c0-0.2-0.1-0.4-0.2-0.6
			c-1.9-3.4-4.3-9.4,0.5-10.1c6.4-0.9,28.6,0.6,30.1-13.8c1.4-14.5-15-26.5-40.7-25.7c-25.6,0.8-31.8,14.6-31.8,14.6s6.4,6.3,9.8,7
			c4.5,1,8.9-11.1,26.4-10.5c17.5,0.6,20,10.6,14.3,14.9C782.1,582.6,757.9,579.6,761.7,586.9z"/>
		<ellipse class="st13" cx="740.8" cy="376.1" rx="61.2" ry="50.7"/>
		<ellipse class="st2" cx="740.8" cy="376.1" rx="48.1" ry="39.9"/>
		<path class="st13" d="M774.7,340c8.6-8.3,12-19,18.8-28.2c2.3-3.1-3.3-5.7-5.8-2.8l-11.9,14.2l-5.8,6.8c-2,2.4-4.2,4.6-3.4,7.8
			c0.5,1.5,2.4,2.3,4.2,1.9c0.5-0.1,1-0.4,1.4-0.7c4.8-4.7,9.1-9.7,12.9-15c3.1-4.3,5.7-9.6,10.9-12.5l-4.6-1c0.4,0.5,0.3,0.3,0,1
			c-0.1,0.4-0.3,0.8-0.6,1.2c-0.7,1.3-1.5,2.5-2.3,3.7c-1.6,2.5-3.1,4.9-4.9,7.3c-3.4,4.8-7.1,9.5-11,14.1h5.9l-0.2-0.4l0.5,1.4
			c-0.2,0.3-0.2,0.2,0-0.2l0.8-1l1.7-2.1l3.4-4.2l6.7-8.3c2.2-2.5,4.3-5.2,6.1-7.9c1.7-2.4,1.8-5.4,0.3-7.9
			c-1.8-2.5-6.1-4.2-8.7-1.3c-2.6,2.9-3.8,5.5-5.7,8.2c-4,5.5-8.3,10.9-12.8,16.1c-0.9,1.3-0.4,3,1.2,3.8c1.6,0.7,3.6,0.3,4.6-1
			c3.4-3.9,6.7-7.9,9.8-12c3.1-4,5.6-8.3,8.8-12.3l-1.2,1l0.4-0.2l-1.7,0.4c-0.9,0-0.4-0.2-0.2,0.4c0.1,0.4,0.1,0.8,0,1.2
			c-0.6,1.2-1.4,2.4-2.4,3.4l-6.9,8.6l-6.7,8.3c-2,2.5-5.7,5.5-3.5,8.6c1,1.3,3,1.7,4.6,0.9c0.5-0.2,0.8-0.6,1.1-0.9
			c4.5-5.2,8.6-10.6,12.4-16.2c1.9-2.8,3.8-5.6,5.5-8.4c1.7-2.9,3.1-5.6,0.8-8.3c-1-1.3-3-1.7-4.6-1c-5.8,3.2-8.8,8.2-12.2,13
			c-3.8,5.4-8.2,10.5-13,15.4l5.6,1.2c-0.2-0.6,1.5-2,1.8-2.5l2.7-3.1l5.3-6.3l10.6-12.7l-5.5-2.6c-6.5,8.7-9.6,19.2-17.7,27
			C767.3,338.8,772,342.7,774.7,340L774.7,340z"/>
		<path class="st13" d="M795.5,304.2c-8.4-1.7-17-2.6-25.6-2.8v5.6c4.2,0,8.5,0,12.7,0.3c4.1,0,8.2,0.3,12.2,0.9
			c3,0.9,5.4,2.8,6.6,5.3c1.8,2.9,3.4,5.9,5,8.8l2.4,4.3c0.3,0.5,0.5,1.5,0.9,1.9s0,0.4,0,0.4l2-1.1l-0.5-0.3
			c-0.2-0.5-1.5-1.1-2-1.5l-1.7-1.3c-1.3-1.1-2.6-2.2-3.9-3.3c-2.4-2.1-4.5-4.5-6.1-7c-1.7-2.7-2-5.4-5.8-6.5
			c-8.8-2.3-18-3.3-27.3-2.9l1.7,5.1c2-0.8,4.3-1,6.5-0.8c2.6,0,5.1,0.2,7.6,0.2c4.8-0.4,9.7,0,14.3,1.3c3.5,1.7,6,4.4,7,7.6
			c1.3,3.5,3.4,6.7,6.1,9.6l4-4.4c-2.9-2-5-4.5-6.3-7.4c-1.8-3.1-4.5-5.8-7.8-8c-7.1-4-15.4-6.1-24-6.1c-4.3-0.2-4.3,5.4,0,5.5
			c7.4,0.3,15.8,1.6,21.4,6c5.6,4.4,6.5,11.3,13.2,14.8c3.3,1.7,6.5-2.1,4-4.4c-3.1-2.9-4.1-7-6.1-10.5c-2-3.8-5.8-6.8-10.6-8.3
			c-5.3-1.3-10.9-1.7-16.5-1.3c-5.6,0-11.4-1-16.6,1.3c-1.5,0.9-1.9,2.6-0.8,3.9c0.6,0.7,1.5,1.1,2.5,1.2c4.9-0.1,9.8,0.1,14.7,0.7
			c2.1,0.3,4.2,0.6,6.3,1c1.2,0.1,2.4,0.4,3.6,0.7c1,0.4,0.8,0.5,1.3,1.5c3.5,6.3,8.6,11.8,15,16.2c2.7,2.1,7,4.4,9.9,1.2
			c2.5-2.7,0.2-6-1.2-8.6c-2.1-3.7-4.1-7.4-6.1-11c-1.5-2.9-3.8-5.4-6.8-7.4c-4.1-2.5-9.5-2.4-14.3-2.5c-5.6-0.4-11.3-0.6-16.9-0.6
			c-1.8,0.1-3.2,1.5-3,3c0.2,1.3,1.4,2.4,3,2.5c8,0.1,16,1,23.8,2.5C798,310.3,799.8,305,795.5,304.2L795.5,304.2z"/>
		<path class="st13" d="M772.1,300.5c-4.2-0.1-8.6,0.3-11.2,3.4c-2.3,2.7-1.5,6.4,1.7,8.3c0.2,0.1,0.4,0.2,0.6,0.3
			c1.7,0.8,3.6,1.2,5.6,1.4c2.2,0.3,4.4,0.5,6.7,0.7c4.2,0.4,8.4,0.6,12.6,0.7c1.8,0,3.3-1.2,3.3-2.8c0-1.5-1.5-2.8-3.3-2.8
			c0,0,0,0,0,0c-6.3-0.1-12.5-0.5-18.7-1.3c-0.7-0.1-1.4-0.2-2-0.4l-0.3-0.1l-0.6-0.3c0,0-0.4-0.3-0.2,0c-0.7-0.5,0.2,0,0,0
			c0.2,0,0-0.4,0,0c0-0.3,0.2-0.4,0-0.2s0,0,0,0c0.1-0.3,0.3-0.5,0.6-0.7c0.4-0.2,0.8-0.3,1.2-0.4c1.4-0.2,2.7-0.3,4.1-0.2
			c1.8,0,3.3-1.2,3.3-2.8c0-1.5-1.5-2.8-3.3-2.8c0,0,0,0,0,0L772.1,300.5z"/>
		<path class="st13" d="M769,307c5-0.1,9.9-0.4,14.9-0.2c2.2,0.1,4.4,0.4,6.6,0.8c2.4,0.6,4.9,1,7.3,1c1.8,0,3.3-1.2,3.3-2.8
			c0-1.5-1.5-2.8-3.3-2.8c-2.2-0.1-4.4-0.5-6.6-1.1c-2.4-0.5-4.9-0.7-7.4-0.8c-5-0.2-9.9,0-14.9,0.2
			C764.7,301.4,764.7,307.1,769,307L769,307z"/>
		<path class="st13" d="M800,302.3l-20.7-1.5c-6.1-0.5-14.1-1-18.4,3.2c-2.8,2.7,1.9,6.6,4.7,3.9c1.9-1.4,4.4-2.1,6.9-1.9
			c3,0,6,0.1,8.9,0.4l18.6,1.4c1.8,0,3.3-1.3,3.3-2.8C803.4,303.5,802,302.3,800,302.3L800,302.3z"/>
		<path class="st13" d="M797.6,306.4c2.9,3.9,5.7,7.8,8.3,11.8c2.6,3.7,4.8,7.6,6.6,11.6c0.3,0.8-0.2,0,0,0s0.7,0,0-0.3
			c-0.8-0.2-1.6-0.4-2.3-0.8c-1.7-0.9-3.2-2.1-4.2-3.5c-2.4-3.8-4.6-7.7-6.4-11.7c-0.9-1.3-3-1.8-4.6-1c0,0,0,0,0,0
			c-1.6,0.8-2.1,2.5-1.2,3.8c4,6.9,6.1,15.8,16.2,18.4c2.4,0.8,5.2,0.4,7.2-1c1.7-1.5,2.3-3.7,1.5-5.7c-0.8-2-1.8-3.9-3.1-5.8
			c-1.1-1.9-2.2-3.8-3.4-5.7c-2.8-4.4-5.8-8.8-9-13c-2.3-3-8.1-0.2-5.8,2.8L797.6,306.4z"/>
		<path class="st12" d="M414.6,269c-4.3,0.5-9.2,3.3-7.3,6.7c1.3,2.9,5.2,4.5,8.7,3.4c0.5-0.1,0.9-0.3,1.3-0.5
			C422.7,275.8,423.2,269,414.6,269z"/>
		<path class="st12" d="M382,262.8c3.1,1.2,15.9,9,17.2,9.3c1.3,0.4,6-4.3,8.7-6.8c0.7-0.6,0.8-1.5,0.1-2.1
			c-0.2-0.2-0.5-0.3-0.8-0.4c-4.1-1.5-10.8-4.6-7.8-7.6c4.1-4.2,21.7-15.5,11-27c-10.6-11.5-32.5-11.2-50.9,3.7
			s-11.7,28.6-11.7,28.6s9.9,1.1,13-0.3c4.1-1.8-2.4-13.2,11-22.4c13.4-9.3,23.4-3.3,22.7,3C393.5,248.2,373.2,259.4,382,262.8z"/>
		<path class="st14" d="M508.5,416.1l-5.2,19.1"/>
		<path class="st15" d="M626.4,423.2c-2.8,3-8,3.5-11.6,1.1c-1.1-0.7-1.9-1.6-2.5-2.7c-1.7-3.6-4.7-6.2-12.2-5.6
			c-1.6,0.1-4.5-0.8-3.6-3c0.6-1.3,0.6-23.4-15.3-21.4c-9.6,1.2-26.2-8.8-28.3-0.4c-10.5,40.6-18.4,5.8-21,14.7
			c-1.4,4.8-0.9,10.1-2.4,14.9c-1.2,3.9-3.4,9-10.3,6.5c-1.8-0.8-3.8-1.4-5.8-1.8c-3.3-0.2-6.2-2-7.4-4.5c-8-19-2.2-33.9,12.2-50.1
			c10.2-11.3,28.9-13,43.7-15.6c19.9-3.5,23.7,0.8,43,7.2c5.8,2.9,10.9,6.8,15,11.3c0.5,0.6,6.3,7.6,6.6,8.4
			C631.2,395.1,638.4,410.5,626.4,423.2z"/>
		<path class="st16" d="M352.8,420.9c5.8,10.1,12.1,20.2,18.8,30c0.9,1.3,2.9,1.8,4.5,1.1c1.4-0.6,2.1-2,1.6-3.2
			c-2.8-9.6-4.4-20.3-12.8-27.9c-2.1-1.9-6.9,0-5.6,2.7l7.6,15l3.7,7.3c1.1,2.2,2.9,5.4,6.6,4.3c1.8-0.4,2.8-1.9,2.3-3.4
			c-3.7-9.2-7.8-18.2-12.2-27.1c-1.5-2.9-7.5-0.8-6.1,2.1c2.4,5.1,4.9,10,7.6,14.9c1.3,2.4,2.6,4.7,4,7c0.6,1,1.2,1.9,1.7,2.9
			c0,0.3,0.2,0.6,0.3,0.8s0,0.7,0,0.5c0-0.3-0.2,0.3-0.2,0.3c1,0.4,1.3,0.4,0.9,0c-0.2-0.2-0.4-0.4-0.5-0.6l-1.4-1.6
			c-0.9-1-1.7-2.1-2.5-3.1c-1.6-2.1-3.2-4.2-4.7-6.3c-3.1-4.4-6.1-9-8.7-13.7c-0.9-1.3-3-1.7-4.6-1c-1.6,0.8-2.1,2.5-1.2,3.8
			c3.1,5.5,6.6,10.9,10.5,16.1c1.9,2.5,3.9,5.1,6.1,7.6c2.2,2.5,4.3,5.1,8.4,3.8c3.4-1.1,5.3-4.2,4.4-7.2c-1.1-3-2.6-5.9-4.6-8.5
			c-3.2-5.7-6.3-11.5-9.2-17.4l-6.1,2.1c4.3,8.4,8.2,17.1,11.7,25.8l2.3-3.4l-0.4,0.1h1.8h-0.4l1.5,0.7c-0.7-0.7-1.1-1.4-1.4-2.3
			l-1.6-3.1l-3.1-5.9l-6.1-12.1l-5.6,2.7c3.4,3.3,5.8,7.3,7,11.5c1.5,4.6,2.8,9.3,4.1,14l6.1-2.1c-6.7-9.8-13-19.8-18.8-30
			c-0.9-1.3-2.9-1.9-4.5-1.1c-1.6,0.7-2.2,2.4-1.4,3.7C352.7,420.7,352.8,420.8,352.8,420.9L352.8,420.9z"/>
		<path class="st16" d="M353,425l7.5,17.5c2,4.7,3.5,11,9,13.8c3.1,1.6,5.9,0.9,9.2-0.2c3.3-1,7-2,6.1-5.7
			c-1.3-5.6-3.2-11.1-5.7-16.4c-2.7-6.1-6-12.1-9.9-17.8c-2.1-3.1-7.9-0.3-5.8,2.8c3.5,5.2,6.6,10.6,9.2,16.1
			c2.6,5.5,4.6,11.2,5.9,16.9v-1.5c0.7-0.7,0.6-0.8-0.4-0.3l-1.7,0.6c-0.7,0.3-1.5,0.5-2.3,0.7c-1.2,0.2-2-0.6-2.8-1.5
			c-1.7-2.4-2.9-5.1-3.8-7.8l-8.1-18.9C358.1,420.2,351.6,421.6,353,425L353,425z"/>
		<path class="st16" d="M394.8,426.8c-9.5,2.6-18.8,5.7-27.8,9.3c-4.3,1.8-8.3,3.9-12.4,6c-3.7,2.3-8.2,3.6-12.8,3.8l1.7,5.1
			c8-3.6,16.2-7,24.5-10.1c4-1.5,8.1-3,12.2-4.4c2.2-0.7,4.3-1.5,6.5-2.2l2.8-0.9c1.2-0.4,2.5-0.4,3.1-1.4c0.5-1-0.6-0.3-1.3,0
			c-0.7,0.3-1.9,0.7-2.8,1.1l-6.6,2.5c-4.1,1.6-8.2,3.1-12.2,4.6c-4,1.5-8.3,3-12.4,4.4l-6.9,2.4l-2.9,1l-1.5,0.5
			c-0.9,0-0.5,0.4,1,1.1c-0.6-1.5-2.4-2.3-4.2-1.8c-1.7,0.4-2.6,1.9-2.2,3.3c1.1,2.4,4.3,3.6,7.1,2.8c0.2-0.1,0.4-0.1,0.6-0.2
			c4.5-1.2,8.9-3,13.3-4.6c8.8-3.1,17.5-6.3,26.2-9.6c3.4-1.3,8.6-2.5,10.7-5.1c1.7-2.2,0.9-5.1-1.8-6.5c-0.6-0.3-1.2-0.5-1.9-0.6
			c-4.2-0.9-9.2,1.6-12.8,2.9c-4.3,1.4-8.7,3-12.9,4.5c-9.7,3.6-19.3,7.5-28.6,11.7c-1.5,0.9-1.9,2.6-0.8,3.9
			c0.6,0.7,1.5,1.1,2.5,1.2c9.9,0.3,17.8-5.7,26-9.4c9.3-3.9,18.9-7.2,28.8-9.9c4-1.2,2.3-6.5-1.8-5.4L394.8,426.8z"/>
		<ellipse class="st17" cx="336" cy="378.5" rx="55.9" ry="46.3"/>
		<path class="st18" d="M580.8,475.3c-9,3-18.6,4.5-28.2,4.4c-1.9-3.6,1.2-5.8,5.5-6.6C565.4,471.7,573.7,469.4,580.8,475.3z"/>
	</g>
</g>
</svg>
