<svg id="Layer_1" data-name="Layer 1" xmlns="http://www.w3.org/2000/svg" viewBox="0 0 1193.81 247.2"><defs><style>.cls-1{fill:#232323;stroke:#000;stroke-miterlimit:10;stroke-width:5px;}</style></defs><path class="cls-1" d="M424.41,102.46c1.78,1.05,4.17,1.06,4.71.29s1.65-4.21,2.28-6c.17-.5.32-.9.4-1.14a9,9,0,0,0,.61-3.74v-.08a1.14,1.14,0,0,0-.14-.94,5.65,5.65,0,0,0-3.67-2.36,5.75,5.75,0,0,0-2.16-.46,2.74,2.74,0,0,0-1.49.36.93.93,0,0,0-.46.78l-.41,3.4c-.14.38-.35,1-.6,1.74a43.46,43.46,0,0,1-1.73,4.64l-.05,0a.86.86,0,0,0-.27.86,4.26,4.26,0,0,0,2.91,2.6Z"/><path class="cls-1" d="M615.14,152.48l-.55.59v-1.45a220.68,220.68,0,0,0-1.44-24l0-.07c-.14-2.07-2.89-4.43-5-4.92a1.6,1.6,0,0,0-1.85.51c-.24.35-.51.82-.82,1.36a36.9,36.9,0,0,1-2.11,3.38l-.08.06-.57.3-.29-.31c-7.16-2.92-14-4.46-19.89-4.46a20.49,20.49,0,0,0-14.24,5.12,1.21,1.21,0,0,0-.18.31,1.63,1.63,0,0,1-.22.38l-.11.14-.2-.1a77.5,77.5,0,0,0-7.89,5.63c-8.66,6.63-20.53,15.71-29.89,15.71a10.48,10.48,0,0,1-7.23-2.52l0-.05c-2-3.15-1.35-8.45-.82-12.71a36.5,36.5,0,0,0,.37-4c0-3.37-3.8-7.22-7.52-7.65a23.37,23.37,0,0,0-2.67-.15c-11.11,0-24.31,7.21-30.93,12.46l-.38.3.44-8.12c.19-1.21-1.5-3.13-3.24-4.3a4,4,0,0,0-3.36-.2,1,1,0,0,0-.47.92l-.5,5.45H473c-.06-.62-.3-1.06-.64-1.18a.54.54,0,0,0-.56.16c-6.55,7-28.49,24.78-41.43,24.78a9.7,9.7,0,0,1-6.18-2.07c-3.18-3,.79-28,2.64-30.37.14-1.05-1.09-2.69-3.21-3.52-1.78-.48-3.36-.49-4.1,0a.82.82,0,0,0-.4.54l0,.07c-1.72,2.87-2.93,7.87-3.33,13.72v.1l-.08.06c-8.79,7.22-23.59,15.85-34.86,18.36l-.58.13.36-.47c1.7-2.23,5.7-8.08,6.21-14.27a12.37,12.37,0,0,0-4.28-11.48A17.46,17.46,0,0,0,367,121.52c-4.73,1.41-11.66,5.22-17.81,15.41l-.44.73.16-3.84c.55-13.48.95-23.23,1.34-28.47.19-1.48-1.19-3.41-3.22-4.51a3.58,3.58,0,0,0-3-.62,1.09,1.09,0,0,0-.6.91c-.73,5.53-1.25,16.22-1.59,32.69l-.43,0c-.13-.78-.35-1.27-.61-1.33s-.4,0-.95.82c-.2.27-.47.66-.83,1.14-23.4,32.63-33.94,35.75-38.66,32.63-4.22-3.1-6.35-16.4-6.35-39.5,0-37.88,5.93-92.29,7.3-97.1,0-1-1.65-2.75-3.64-3.82-1.22-.53-2.17-.66-2.69-.35a1.08,1.08,0,0,0-.53.87c-2.55,8.89-8.55,57.31-8.55,95,0,2.56,0,5.2.11,8.07v.1l-.08.07a16.94,16.94,0,0,0-1.34,1.34c-7.39,8.34-22.76,25.68-43.1,25.68-7.3,0-14.79-7.25-15.43-11.64l0-.25h.25c6.8,0,16-5,18.77-12.45a9,9,0,0,0-1.35-8.27,10.91,10.91,0,0,0-8.66-4.69c-6.37.28-11.81,4.6-14.55,11.56l-.05.11-.12,0c-12.38,2.26-26.54,4.24-39.87,5.6l-.24,0v-.24c0-35.49.31-57.47,1-73.48.79-19.38,4.05-48.64,6.29-52,.79-1.07.11-3-1.64-4.67a6.27,6.27,0,0,0-4.56-1.42,1.29,1.29,0,0,0-.92.45c-6.72,27.82-7.28,70.33-7.28,108v24l-.2,0c-13.56,1.19-25.42,1.8-35.25,1.8-3.81,0-7.1,0-10.23-.22l-.1,0-5.84-3.82c-8.41-5.12-16-9.3-23.32-12.8l-.13-.06v-.14l.41-11.68c.32-8.65.6-17.23.87-25.52,1.13-35,2.11-65.19,5.81-81.7.19-1.61-1.49-2.84-3.11-3.44-2-.75-4.57-.78-5.44.43C92.75,28.7,91.18,80.38,91,119.52v.33l-.3-.13c-19.9-8.64-40.7-14.15-60.18-15.93a34.8,34.8,0,0,0-11,.22c-3,.54-5.12,1.86-6.16,3.82s-.94,4.87.47,8c3.22,7.77,27,22.17,77.16,27.73l.19,0v.19c.45,30.34,1.82,52.68,4,64.64l.53.75c1.22,1.75,2.38,3.41,4.26,3.6A1.54,1.54,0,0,0,101.4,211l-.62-1.16c-1.3-18.18-2.31-42.55-2.71-65.17v-.24l.24,0c8.93.68,18.2,1.12,28.33,1.35h.07l.06,0c12.39,9.92,42.2,36.83,51.36,72.47a14,14,0,0,0,1,4.67l0,.11a1.58,1.58,0,0,0,.19.8l0,.09a.41.41,0,0,0,0,.12l0,0,.16-.17.16.17a10.56,10.56,0,0,0,5.49,3.3,1.43,1.43,0,0,0,1.19-.22,1.76,1.76,0,0,0,.44-1.33l-.52-1.38h.18c-.35-.89-.92-3.42-2-11.67-.48-4.9-.92-9.27-1.33-13.29-2.08-20.51-3.22-31.8-3.05-54.37v-.2l.19,0a216.67,216.67,0,0,0,35.82-6.28,11.6,11.6,0,0,0,2.44-1l.36-.19-.08.75a20.18,20.18,0,0,0-.17,2.19,22.34,22.34,0,0,0,1,6.45c4.45,14.85,22,16.12,32.09,15.58,13.48-.84,27.2-11,33.37-24.81.14-.28.25-.55.36-.83s.12-.29.19-.43l.37-.85.05.92c.69,13.39,2.38,22.47,5,27,4.37,6.59,10.23,10.23,16.49,10.23,13.19,0,29.85-24.86,33.36-35.35a9.09,9.09,0,0,0,.2-.89l.43,0c-.28,16-.42,37.45-.42,65.62.19,3.71.37,7.55.54,11.26.39,8.63.76,16.79,1.34,23.33.27,2.71,3.23,4.45,5.12,4.45h.06a1.74,1.74,0,0,0,1.89-1.75c-1.16-8.85-1.4-18.7-1.65-29.12q-.11-4.14-.22-8.39c.61-23.1,1-38.36,3.34-48.81l.07-.31,1.94,1.31c3.48,2.3,11.92,4.73,19,2.66h1.1c.55,0,1.11,0,1.66,0,13.66,0,28.41-7,39.79-19.05l.35-.37,0,.5c.36,7.25,2,13,4.4,15.8,3.94,4.7,9.36,5.8,13.56,5.8l1.06,0c13.92-.66,32.92-17.83,37.12-26.17a11.5,11.5,0,0,0,1-2.71l.43.07-1.44,15.57a23.62,23.62,0,0,0,0,6.69,4.21,4.21,0,0,0,2.65,3.2c1.48.74,3.09.91,3.82.43a.91.91,0,0,0,.39-.89l.23-5.27c3.76-9,19.22-20.27,35.39-22.15l.28,0,0,.28a50.79,50.79,0,0,0-.62,7.61c0,4.65.85,8.18,2.68,11.12,4,6.22,11,8.44,16.29,8.44,14.51,0,27.41-11.67,32.21-17.84l.31-.41.07.51a15.88,15.88,0,0,0,2.39,6.6,28.6,28.6,0,0,0,6,6.47,6.89,6.89,0,0,0,1.84,1.33,12.43,12.43,0,0,0,5.95,1.55,18.53,18.53,0,0,0,6.44-1.44l.36-.13c3.6-1.83,7.21-4.84,10.56-7.82a58.93,58.93,0,0,0,7.06-7.61l0-.05,1-.7v1.55l.41,18.42.24,1-.11.08-5.21,4c-22.21,17.79-37.84,38.92-40.77,55.14-1,7.5,1.91,15.63,7.87,22.29,5.28,5.7,12.41,8.6,18.13,7.35,8.22-1.83,14.69-9.12,19.25-21.66C610.64,215,613,201.59,614,185.33l.63-20.89.22-2.8.08-.06,6-4.5c4.77-3.05,21-13.24,30.92-16.43.78-.21,1.2-.46,1.25-.73s-.14-.7-1.32-1.59C648,135.52,621.19,148.61,615.14,152.48ZM91,136.59l-.25,0c-32.21-4.29-65-14.55-70.16-22A3.21,3.21,0,0,1,20,112c.65-2.32,4-3.54,9.59-3.54,13.78,0,39,6.94,61.37,16.87l.13.06Zm24.18,2a145.57,145.57,0,0,1-16.91-1.13l-.19,0v-8.63l.31.16c6.42,3.21,11.74,6,16.9,9.23l.64.4h-.75Zm60.05,52.24a166.75,166.75,0,0,0-38.93-44.43l-.49-.39h.63c1.52,0,3.28.05,5.15.1,2.22.06,4.75.13,7.36.13,8.16,0,16.22-.3,23.95-.9l.23,0v.23c.19,18.92,1.05,28.74,2.15,41.18l.43,4.9Zm50.6-50.44c-.16-4.15,4.23-12,8.54-13.75a3.43,3.43,0,0,1,4.13.8,2.2,2.2,0,0,1,.5,2c-.58,3.1-6,7.79-12.87,11.13l-.3.14Zm142.22,11H368c-.91-.13-2.32-.25-4-.39-4.48-.39-10-.88-11.76-1.88l-.11-.06v-.8c1-4.87,9.56-17.23,17.68-20.75,3.09-1.34,5.81-1.3,8.08.12,1.94,1.24,2.74,3.58,2.3,6.77C379.31,141.25,373.18,149.82,368.09,151.39Zm229.16-16.47-4.59,4.72a51.27,51.27,0,0,1-10.06,7.45,9.77,9.77,0,0,1-4.69,1.38,4,4,0,0,1-1.77-.25L574.6,147a11.43,11.43,0,0,1-2.13-6.41,9.63,9.63,0,0,1,2.35-6.43c2.56-2.77,7-4.34,12.25-4.34a40.09,40.09,0,0,1,10.69,1.8l1.77.55Zm-14.08,107a4.44,4.44,0,0,1-1.18.14c-2.51,0-5.85-1.7-8.6-4.47-2.23-2.81-5.75-8.59-4.44-15.92,2.21-14.5,15-33.66,33.42-50l4.73-4.37v.48C607.57,200.83,600.28,238.12,583.17,241.94Z"/><path class="cls-1" d="M1138.64,203.07h-.25l-.48-.51a32,32,0,0,1-1.85-6c-.21-.8-.44-1.69-.7-2.66a118.48,118.48,0,0,1-1.88-19.37c-.63-6.51-.63-13.5-.63-20.9,0-10.18.21-20.69.63-31.24.22-9.25.67-18.06,1.46-28.55a63.25,63.25,0,0,1,1.14-7.42c.47-2.48,1-5,1.16-7.19,1.1-11.16,3.35-37.31,3.54-47.17-.28-2.27-3.9-5-6-5.09h-.08a1.24,1.24,0,0,0-1.37,1.09c-.27.91-4.19,32.94-5.62,51.66l-.41,8.08a266.94,266.94,0,0,1-9.6,35.79l-.08.22-.21-.09-1.67-.68a49.26,49.26,0,0,0-13.88-2c-7.86,0-14.26,2.47-19,7.36a7.35,7.35,0,0,0-.66.85l-.3.43-.22.3-.15-.34c-.12-.27-.19-.3-.19-.3a79.4,79.4,0,0,0-7.91,5.66c-8.66,6.63-20.53,15.71-29.89,15.71a10.48,10.48,0,0,1-7.23-2.52l0-.05c-2-3.15-1.35-8.45-.82-12.71a36.5,36.5,0,0,0,.37-4c0-3.37-3.8-7.22-7.52-7.65a23.37,23.37,0,0,0-2.67-.15c-11.11,0-24.31,7.21-30.93,12.46l-.38.3.44-8.12c.19-1.21-1.5-3.13-3.24-4.3a4,4,0,0,0-3.36-.2,1,1,0,0,0-.47.92l-.46,5-.24,0c-.54-.13-1.32.26-2.06,1.06-7.5,9-25.34,20.58-36.27,18.26-4.82-1.45-4.86-7.76-4.75-9.66a36.76,36.76,0,0,1,2.34-8.81c.37-1,.72-2,1-2.93a2.24,2.24,0,0,0-.32-2.21c-1.08-1.72-3.57-3.35-5.1-3.35h-.09a1.06,1.06,0,0,0-1,.55l-3.62,5.28-.41,0a39.35,39.35,0,0,0-16.79-3.8A34.19,34.19,0,0,0,900,130a12,12,0,0,0-1.44,1.27c-.17.16-.33.33-.51.49l-.36.33v-.49a.7.7,0,0,0,0-.24h0c-12.83,2.43-27.94,4.59-42.54,6.07l-.24,0v-.24c0-25.09.12-53.43,1-73.48.87-21.18,4.22-48.89,6.29-52,.79-1.07.11-3-1.63-4.67A6.27,6.27,0,0,0,856,5.65a1.32,1.32,0,0,0-.93.45c-6.72,27.82-7.28,70.33-7.28,108v24l-.2,0c-13.55,1.19-25.42,1.8-35.24,1.8-3.81,0-7.1,0-10.23-.22l-.1,0-5.84-3.82c-8.41-5.12-16-9.3-23.32-12.8l-.13-.06v-.14l.41-11.68c.32-8.63.6-17.18.86-25.45,1.13-35,2.11-65.25,5.81-81.76.19-1.61-1.48-2.84-3.11-3.44-2-.75-4.56-.78-5.43.43-3.87,27.77-5.44,79.44-5.62,118.55v.33l-.3-.13c-19.89-8.64-40.7-14.15-60.18-15.93a34.87,34.87,0,0,0-11,.22c-3,.54-5.12,1.86-6.15,3.82s-.94,4.87.47,8c3.22,7.77,27,22.17,77.15,27.73l.19,0v.19c.46,30.36,1.82,52.71,3.95,64.63l.54.77c1.22,1.74,2.38,3.4,4.25,3.59A1.54,1.54,0,0,0,776,211l-.62-1.16c-1.3-18.1-2.31-42.47-2.71-65.17v-.24l.24,0c8.93.68,18.2,1.12,28.33,1.35h.07l.06.05c12.39,9.92,42.2,36.84,51.35,72.47v.08a14.13,14.13,0,0,0,1,4.59l0,.11a1.58,1.58,0,0,0,.19.8l0,.09a.41.41,0,0,0,0,.12l0,0,.16-.17.16.17a10.63,10.63,0,0,0,5.5,3.3,1.42,1.42,0,0,0,1.19-.21,1.76,1.76,0,0,0,.44-1.33l-.52-1.38h.18c-.5-1.3-1.14-5.14-2-11.67-.47-4.87-.92-9.24-1.33-13.25-2.08-20.52-3.23-31.83-3-54.42v-.2l.19,0a216.67,216.67,0,0,0,35.82-6.28,11.27,11.27,0,0,0,2.67-1.13l.55-.32-.24.59a14.8,14.8,0,0,0,4.92,18,12.54,12.54,0,0,0,7.36,2.2c12.2,0,27.54-14.18,30.49-17l.25-.24.11.33c2.52,7.51,7.3,12.09,14.65,14,8.61,2.24,22.78-4.73,28.13-10.5a41.24,41.24,0,0,0,6.42-8.69l.51-1-1.14,12.31a23.62,23.62,0,0,0,0,6.69,4.21,4.21,0,0,0,2.65,3.2c1.48.74,3.09.91,3.82.43a.91.91,0,0,0,.39-.89l.23-5.27c3.76-9,19.22-20.27,35.4-22.15l.28,0,0,.28a49.18,49.18,0,0,0-.63,7.61c0,4.64.85,8.17,2.68,11.12,4,6.22,11,8.44,16.28,8.44,13.78,0,26.29-10.67,31.51-17l.38-.46v.6c0,5.08,2.43,9.84,7,13.75a18.46,18.46,0,0,0,12.58,4.44c10.7-.83,19.63-12,27.31-34l.42-1.21v9.37c0,3.07-.06,6.22-.11,9.28s-.11,6-.11,8.92c0,7.28.21,14.16.63,20.44a127.38,127.38,0,0,0,2.07,20c.68,4,2.16,9.66,5.38,13.61a13,13,0,0,0,5.94,4.2c1.08.2,1.85.11,2.19-.3a1.79,1.79,0,0,0,0-1.67A7.25,7.25,0,0,0,1138.64,203.07Zm-373-66.48-.25,0c-32.22-4.29-65-14.55-70.17-22a3.2,3.2,0,0,1-.67-2.56c.65-2.32,4-3.54,9.59-3.54,13.78,0,39,6.94,61.37,16.87l.13.06v11.17Zm24.17,2a145.42,145.42,0,0,1-16.9-1.13l-.19,0v-8.63l.31.16c6.4,3.21,11.73,6,16.9,9.23l.64.4h-.76Zm60.05,52.24a166.75,166.75,0,0,0-38.93-44.43l-.49-.39h.63c1.52,0,3.28.05,5.14.1,2.23.06,4.75.13,7.36.13,8.16,0,16.22-.3,24-.9l.23,0v.23c.19,19,1.06,28.83,2.16,41.31l.42,4.77Zm83.51-58.61c-7.23,8.23-20.79,17.57-31,18.95h0a4.33,4.33,0,0,1-3.3-1.66,4.8,4.8,0,0,1-.64-4c2.25-10.15,15.41-14.77,26.68-14.77a28,28,0,0,1,8.19,1.13l.31.1Zm181.78-3c-4.71,10.15-11.41,21.94-21.43,23h0a7.69,7.69,0,0,1-5.59-2.07c-1.55-1.19-2.57-3.82-2.57-6.68a14.51,14.51,0,0,1,3.8-9.57c3.65-4.19,9.13-6.14,17.26-6.14a60.64,60.64,0,0,1,8.58.68l.29,0Z"/><path class="cls-1" d="M1193.58,113.34a6.45,6.45,0,0,0-5-3.1,3.59,3.59,0,0,0-.47,0c-11,1.62-33.13,8.75-31.5,20.43.69,5.59,5,8.07,9.45,10.69.83.49,1.69,1,2.54,1.51,2.72,1.61,7,4,11.18,6.27,2.19,1.21,4.31,2.38,6.11,3.39l.48.27-.53.13a95.68,95.68,0,0,1-20.47,2.48,30.26,30.26,0,0,1-6.93-.68,4.48,4.48,0,0,0-1-.14,1.32,1.32,0,0,0-1.38.78c-.5,1.31.8,4,2.36,4.8,2.93,1.26,7.76,2,13.24,2a54.38,54.38,0,0,0,14.53-1.79,9.38,9.38,0,0,0,6.49-6.28,5.46,5.46,0,0,0-1.79-5.49c-3.3-2.85-7.9-5.54-13.72-8.95-1.46-.86-3-1.75-4.58-2.7l-1.93-1.21c-3.6-2.22-7-4.32-5.87-7.15,1.74-4.43,12.61-7.66,21.35-10.24,2.93-.87,5.71-1.69,7.69-2.44A2.51,2.51,0,0,0,1193.58,113.34Z"/></svg>