<?xml version="1.0" encoding="utf-8"?>
<!-- Generator: Adobe Illustrator 25.3.1, SVG Export Plug-In . SVG Version: 6.00 Build 0)  -->
<svg version="1.1" id="Ebene_1" xmlns="http://www.w3.org/2000/svg" xmlns:xlink="http://www.w3.org/1999/xlink" x="0px" y="0px"
	 viewBox="0 0 981 824" style="enable-background:new 0 0 981 824;" xml:space="preserve">
<style type="text/css">
	.st0{fill:#5E8C80;}
	.st1{fill:#F5FFFA;}
	.st2{fill:#2C665B;}
	.st3{fill:#FEFEFE;}
	.st4{fill:#99AA86;}
	.st5{fill:#E3DBD0;}
	.st6{fill:#232323;}
	.st7{fill:#FDF7EA;}
	.st8{fill:#A4C3B3;}
	.st9{fill:#A1A2A4;}
	.st10{fill:#FDC031;}
	.st11{fill:#FDB003;}
	.st12{opacity:0.46;fill:#FF2B00;enable-background:new    ;}
	.st13{opacity:0.75;fill:#FF2B00;enable-background:new    ;}
	.st14{opacity:0.28;fill:#FF2B00;enable-background:new    ;}
	.st15{opacity:0.65;fill:#F0F2F1;enable-background:new    ;}
	.st16{opacity:0.65;fill:#A4C3B3;enable-background:new    ;}
	.st17{fill:#DFE5E1;}
	.st18{fill:#3D5B59;}
	.st19{fill:#FFFFFF;}
	.st20{fill:#CE6043;}
	.st21{fill:#DD916A;}
	.st22{fill:#E7B98C;}
	.st23{fill:#FEFAF1;}
	.st24{fill:#486969;}
	.st25{fill:#E6B387;}
	.st26{fill:#EADADA;}
	.st27{fill:#2D4241;}
	.st28{fill:#769174;}
	.st29{fill:#F0E6DE;}
	.st30{fill:#86A89D;}
</style>
<g>
	<path class="st0" d="M288.3,420.1c33.9-45.5-48.5-76.7-42.5-212.8C250.3,104.9,373,2.9,458,11.6c73.8,7.6,47.4,23.9,193.2,82
		c122.7,48.9,166.3,52.3,223,121.4c45.1,55.2-32.1,113.5-27.2,172.9c10.8,129.5,151.4,131.6,49.6,193.4
		C731.7,681,880.1,728.6,760.4,791.9c-46.6,24.4-447.5,32.8-576.1-52.8c-89.1-59.1-57.8-233.8-46.6-253
		C157.1,450.9,254.4,465.8,288.3,420.1z"/>
	<path class="st1" d="M200,286.4c28.7-5.5,43.6-12.9,51.1-22.1c38-48.1-25.4-105.6,10.4-157.9c30.6-44.7,134.6-72.2,211.1-56
		c111.9,23.6,92.5,125.8,215.5,166c113,37,198-27.1,256.5,8.9c95.1,58.1-12.7,296.1-135.7,307.7c-51.8,5-162.2-16.3-239.4-50.4
		c-113-50.2-60.8,135-194.6,142.9c-167.8,10-215.5-47-242.8-85.6C73.5,457.2,31,420.9,43.7,381.8C64.6,319.2,179.5,291.4,200,286.4z
		"/>
	<path class="st1" d="M167.9,365.7c28.7-5.5,43.6-12.9,51.1-22.1c38-48.1-25.4-105.6,10.4-157.9c30.6-44.7,134.6-72.2,211.1-56
		c111.9,23.6,92.5,125.8,215.5,166c113,37,198-27.1,256.5,8.9c95.1,58.1-12.7,296.1-135.7,307.7c-51.8,5-162.2-16.3-239.4-50.4
		c-113-50.2-60.8,135-194.6,142.9c-167.8,10-215.5-47-242.8-85.6C41.5,536.5-1,500.3,11.7,461.1C32.5,398.6,147.4,370.5,167.9,365.7
		z"/>
	<path class="st2" d="M183.2,310.8c28.7-5.5,43.6-12.9,51.1-22.1c38-48.1-25.4-105.6,10.4-157.9c30.6-44.7,134.6-72.2,211.1-56
		c111.9,23.6,92.5,125.8,215.5,166c113,37,198-27.1,256.5,8.9c95.1,58.1-12.7,296.1-135.7,307.7c-51.8,5-162.2-16.3-239.4-50.4
		c-113-50.2-60.8,135-194.6,142.9c-167.8,10-215.5-47-242.8-85.6c-58.5-82.8-101.1-119-88.4-158.2
		C47.8,343.4,162.7,315.6,183.2,310.8z"/>
	<g>
		<path class="st3" d="M582.5,722c-15.7,2.4-8.6,12.9-26.5,22.6c-14.5,7.9-24.6,6.3-25.7,10.5c-1.5,5.5,19,16.8,36.9,14.7
			c29.8-3.7,45.1-44.7,33.6-51C598.2,717.3,584.8,721.7,582.5,722z"/>
		<path class="st4" d="M572.5,744.9L572.5,744.9c0.7,0,1.1-0.8,1.9-0.8s1.1-0.5,1.9-0.5c0.4,0,0-0.3,0-0.3c1.5,0.3,3,0.8,4.1,1.6
			c0.4,0.3,0.7,0.5,1.1,0.5c0,0.3,0,0.5,0,0.8c0,1.1,1.1,2.1,2.6,2.1c1.1,0,2.2-0.3,2.6-1.1c0.4-0.8,0-1.8-0.7-2.4
			c-1.5-0.8-2.6-1.8-4.1-2.6c-0.4,0-0.4-0.3-0.7-0.3c-0.4-0.3-0.7-0.5-1.1-0.5c-0.4,0-0.7-0.3-0.4-0.5c0.4,0,0.7,0,0.4-0.3
			c0-0.3,0-0.5,0.4-0.5c1.1-0.8,1.9-1.8,3-2.4c1.5,0.5,2.2,1.1,3.4,1.8c0.4,0.3,0,0.5,0,1.1c0,0.8,0.4,1.3,1.1,1.8
			c0.7,0.3,1.5,0.3,2.2,0c1.5-0.8,1.5-2.6,0-3.4h-0.4c-1.1-1.3-2.6-2.4-4.1-3.2c-0.4-0.3-0.4-0.5,0-0.8s0.7-0.8,0.7-1.3
			c0.4,0,0.7-0.3,0.7-0.5c1.9-2.6,3.7-5.3,4.8-8.1c0.4-1.1,1.1-2.1,1.9-3.2c1.9-1.8,4.8-2.4,7.8-1.6c1.9,0.5,4.1,0.8,6,0.8
			c2.2,0,4.8-1.3,5.6-2.9c1.1,0.5,1.1,1.1,0.7,1.8c-0.4,2.6-0.7,5.5-1.5,8.1c-1.1,3.9-0.4,7.6,1.5,11.3c1.5,3.2,3,6.3,4.1,9.5
			c0.7,1.8,1.1,3.7,1.5,5.8c-1.1,0.8-2.2,1.3-3.7,1.3c-3.7,0.5-7.5,1.1-10.8,1.3c-7.5,1.1-14.9,2.1-22.7,2.6
			c-6,0.5-12.3,0.8-18.6,0.5c-1.9,0-3.7,0-5.2-0.3c4.1,0,7.8-0.5,11.6-1.3c-4.5,0.8-8.9,1.1-13.4,1.3c-1.1,0-1.9,0-2.6-0.3
			c0,0,0,0,0-0.3c1.5,0,3,0,4.5,0c-0.7-0.3-4.1-0.3-4.8,0c-0.4-0.3-0.7-0.5-1.1-1.1c0.4-0.3,0.4-0.5,0.4-0.8c0-1.1,0.4-2.1,1.1-2.9
			c0.7-0.8,1.9-1.3,2.6-1.6c1.1,0.5,2.2,1.3,3.4,1.8c0,1.6,0.7,2.4,2.2,2.9c1.1,0.3,2.6,0,3-1.1s-0.7-1.8-1.9-2.4l0,0
			c0-0.3-0.4-0.3-0.4-0.5c-0.7-1.1-1.9-1.6-3-2.1c0-0.3,0-0.5,0.4-0.5c0.7-0.3,1.1-0.5,1.9-0.8c2.2,0.3,3.7,1.3,5.6,2.1
			c0,1.3,1.1,2.4,3,2.4c1.5,0,2.2-0.8,2.2-1.6c0-1.1-1.5-1.8-3-1.8c-0.7-1.1-1.9-1.6-3-2.1l-0.4-0.3c0-0.3,0-0.3,0-0.5
			c0.7-0.5,1.5-1.1,3-0.5c-0.4-0.3-0.7-0.3-0.7-0.5l0,0c0.7,0,0.4-0.3,0.7-0.5c1.5,0,2.6,0.5,3.7,0.8l0,0c0,0.3,0.4,0.3,0.4,0.3
			c0.4,0.3,1.5,0.5,1.9,1.1c-0.4,0.8,0.4,1.6,1.1,1.8c1.1,0.5,2.6,0.5,3.4,0c0.7-0.5,0.7-1.6-0.4-2.4c-0.4-0.3-0.7-0.5-1.5-0.5l0,0
			l0,0c-0.7-1.1-1.9-1.6-3-2.1C574,745.9,573.2,745.4,572.5,744.9z M590,748.3c-0.4,0-0.4,0-0.4,0.3c0,0,0,0.3,0,0
			C590,748.5,590,748.5,590,748.3c0.4-0.3,0.4-0.5,0.4-0.8C590,747.7,590,748,590,748.3z M588.1,750.1c-0.7,0.3-1.5,0.5-1.5,1.3
			c-0.7,0-0.7,0.3-1.1,0.8c-0.7,0.3-1.5,0.8-1.9,1.3c-1.1,0-1.5,0.5-1.9,1.1c0.7-0.3,1.5-0.5,1.9-1.3c0.7-0.3,1.5-0.5,1.9-1.3
			c0.7,0,0.7-0.3,1.1-0.8C587.4,750.9,587.8,750.6,588.1,750.1c0.4-0.3,0.7-0.3,0.7-0.8h-0.4C588.5,749.3,588.1,749.6,588.1,750.1z
			 M596.7,737.8c2.2,1.1,3.4,3.4,2.2,5c-0.7,1.3-0.7,2.4-1.1,3.7c0,2.1,0,3.9-0.4,6c0,0.5,0.4,0.8,0.7,1.1c0,1.1-0.4,2.1-0.4,3.4
			c0,0.3-0.4,0.5,0.4,0.5c0.7,0,0.7-0.3,0.7-0.5c0-1.1,0-2.1,0.4-3.4c0.7-0.3,1.1-0.5,1.1-1.1c0-0.8,0-1.3,0-2.1
			c0-2.4,0-4.7,1.1-7.1c0.7-1.3,0.7-2.6,0-3.9c-0.7-1.6-2.6-2.9-4.5-4.2c1.1-1.1,1.5-2.1,1.5-3.2l0,0c-0.7,1.1-1.1,2.1-1.9,3.2
			c-0.4,0-0.4,0-0.4-0.3c0.4-0.3,0.7-0.5,0.4-1.1c-0.4,0.3-0.4,0.8-0.7,1.1c-0.7-0.3-1.5-0.8-1.9-1.6c0-0.5-0.7-1.1-1.9-1.1
			c-1.1,0-1.9,0.3-2.2,1.1c-0.7,1.3,0.4,2.9,1.9,2.6c1.5,0,2.2,0.5,3,1.1c0,0.5-0.7,1.1-0.7,1.8c0.7-0.5,0.7-1.1,1.1-1.6l0.4,0.3
			c-0.4,0.3-0.4,0.8-0.7,1.1v0.3c0.4,0,0.4,0,0.4-0.3C596.3,738.3,596.7,738,596.7,737.8z M594.8,726.7c0,0.5,0,1.1,0.4,1.3
			c0.4,0.8,1.9,1.1,2.6,0.3c0.7-0.8,1.1-1.8,0.4-2.9c-0.4-0.5-0.7-0.5-1.5-0.5c-0.7,0-1.1,0.3-1.5,0.5
			C595.2,725.9,594.8,726.2,594.8,726.7z M576.2,755.9C575.8,755.9,575.8,755.9,576.2,755.9c-3,1.1-6,1.8-8.9,2.4
			c-0.4,0-0.4,0-0.4,0.3c0,0.3,0.4,0.3,0.7,0c1.9-0.5,3.7-0.8,5.6-1.3C574,756.9,575.5,756.7,576.2,755.9z M566.1,758.5
			c-0.4-0.3-0.7-0.3-1.1,0c-1.5,0.3-3.4,0.3-4.8,0.5c-0.4,0-1.1-0.3-1.1,0.3c0,0.5,0.7,0,1.1,0C562.4,759.3,564.3,758.8,566.1,758.5
			z M602.7,724.9L602.7,724.9c1.1-1.3,1.5-2.4,1.9-3.7v-0.3c-0.4,0-0.4,0-0.4,0.3c0,0.5-0.4,0.8-0.4,1.3
			C603.1,723.3,602.7,724.1,602.7,724.9z M593.7,740.6c-0.4,0-0.4,0.3-0.7,0.5c-0.4,1.1-1.1,2.1-1.9,2.9v0.3c0.4,0,0.4,0,0.4-0.3
			c0.7-1.1,1.1-1.8,1.9-2.9C593.7,741.2,594.1,740.9,593.7,740.6z M601.9,724.9c0.4-1.1,1.1-2.4,1.5-3.4c0-0.3,0-0.3-0.4-0.3
			s-0.4,0.3-0.4,0.3c-0.4,0.8-0.7,1.6-0.7,2.1C601.9,723.8,601.6,724.4,601.9,724.9z M599.3,730.4
			C599.3,730.4,599,730.4,599.3,730.4c-0.7,1.1-1.5,1.8-1.9,2.9h0.4C598.2,732.5,599,731.5,599.3,730.4z M600.8,727h-0.4
			c-0.4,1.1-0.7,2.1-1.5,2.9c0,0,0,0,0.4,0C600.1,729.1,600.4,728,600.8,727z M580.7,754c-0.7,0.3-1.5,0.3-1.9,1.1
			C579.6,754.8,580.3,754.6,580.7,754z M572.5,758c-0.7,0-1.5,0.3-1.9,0.3l-0.4,0.3c0,0.3,0.4,0.3,0.4,0.3
			C571.4,758.5,571.7,758.5,572.5,758z M591.5,745.9c-0.7,0.3-0.7,0.8-1.1,1.1v0.3h0.4C591.5,747,591.5,746.4,591.5,745.9z
			 M593.7,740.4c0.7-0.8,1.1-1.1,0.7-1.6C594.5,739.3,593.7,739.9,593.7,740.4z M574.7,757.5c-0.7,0-1.5,0-2.2,0.5
			C573.6,758,574.3,757.7,574.7,757.5z M584.4,751.7c-0.4,0.3-1.1,0.5-1.5,0.8v0.3h0.4C583.7,752.5,584.4,752.2,584.4,751.7z
			 M601.9,726.5c0.7-0.5,0.7-1.1,0.7-1.6C601.9,725.4,601.9,725.9,601.9,726.5z M600.1,730.4c-0.7,0.5-0.7,1.1-0.7,1.3
			C600.1,731.5,600.1,730.9,600.1,730.4z M601.9,727C601.9,727,601.6,727,601.9,727c-0.7,0.3-0.7,0.8-1.1,1.3h0.4
			C601.6,728,601.6,727.5,601.9,727z M579.6,755.6L579.6,755.6c-0.7,0-1.5,0.3-1.9,0.5c0,0,0,0,0,0.3
			C578.4,756.2,579.2,756.2,579.6,755.6z M601.2,726.7c0.4-0.5,0.7-1.1,0.7-1.8C601.2,725.4,600.8,725.9,601.2,726.7z M579.9,755.4
			c0.7,0,1.5-0.3,1.9-0.8C580.7,754.8,580.3,755.1,579.9,755.4z M577.3,756.4c-1.5,0.3-1.5,0.3-1.9,0.8
			C575.8,756.9,576.6,757.2,577.3,756.4z M600.8,728.6c-0.4,0.5-0.7,0.8-0.7,1.6C600.8,729.6,600.8,729.1,600.8,728.6z M586.6,750.4
			c-1.1,0.3-1.1,0.5-1.5,1.1C585.9,751.2,586.3,750.9,586.6,750.4z M594.1,742.2c0.4-0.3,0.7-0.8,0.7-1.6
			C594.1,741.4,594.1,741.7,594.1,742.2z M578.4,755.1c-0.7,0.3-1.5,0.5-1.9,0.8C577.3,755.6,578.1,755.6,578.4,755.1z M586.6,750.1
			c0.7-0.3,1.1-0.8,1.1-1.1C587.4,749.3,587,749.6,586.6,750.1z M593,744.1c0.4-0.3,0.7-0.8,0.7-1.3C593.4,743,593,743.5,593,744.1z
			 M595.6,739.3c-0.4,0.3-0.7,0.8-0.7,1.6C595.6,740.1,595.6,739.6,595.6,739.3z M592.6,744.3c-0.4,0.5-0.7,1.1-1.1,1.6
			C592.6,745.1,592.6,744.9,592.6,744.3z"/>
		<path class="st5" d="M517.3,765.9c-0.4,0-0.4-0.3-0.4-0.3c0-2.1-0.4-4.5-0.4-6.6c0-1.1,1.1-1.8,2.6-2.1c1.9,0,3.7,0.3,5.6,0.3
			c2.2,0,4.5,0.3,6.7,0.5c5.2,0.5,10.4,1.3,15.7,1.8c4.8,0.5,9.3,1.1,14.2,1.3c3.7,0.3,7.1,0.3,10.8,0.3c-0.4,0.3-0.4,0.5-0.4,0.8
			c0,1.6,0,3.2-0.4,4.7c0,0.5,0.4,0.8,0.7,0.8c-1.1,0-0.7,0.5-0.7,1.1c0,0.5,0,1.1,0,1.6c0,0.5,0,1.1-0.4,1.3c-0.4,0-0.7,0-1.1,0
			c-3,0-6-0.3-8.9-0.5c-4.1-0.3-7.8-0.5-11.6-1.3c-4.8-0.8-9.7-1.3-14.9-1.8c-3.7-0.3-7.1-0.8-10.8-1.1
			C521.8,766.4,519.5,765.9,517.3,765.9z"/>
		<path class="st6" d="M517.3,765.9c2.2,0,4.5,0.3,6.7,0.5c3.7,0.3,7.1,0.8,10.8,1.1c4.8,0.5,10.1,1.3,14.9,1.8
			c3.7,0.5,7.8,1.1,11.6,1.3c3,0.3,6,0.3,8.9,0.5c0.4,0,0.7,0,1.1,0c1.1,0,2.2,0,3.4,0c4.5,0,8.9-0.3,13.4-1.1
			c7.8-1.6,15.7-2.9,23.9-3.7c2.2-0.3,4.1-0.5,6.3-0.5c0.4,0,0.7,0.3,1.1,0.3s0.7,0.3,0.7,0.5c0,0.3-0.7,0.5-1.1,0.5
			c-1.1,0-1.9,0.3-3,0.3c-6.7,0.5-13.8,1.3-20.5,2.4c-4.5,0.8-8.6,1.8-13.1,2.4c-5.6,0.8-11.6,1.3-17.2,1.8
			c-7.1,0.5-14.2,0.8-21.6,0.8c-4.8,0-9.7,0.3-14.5,0c-3-0.3-6-0.3-8.9-1.1c-0.7-0.3-1.5-0.3-1.5-0.8c0-0.5,0.7-0.8,1.5-0.8
			c3.7-1.1,7.5-1.8,11.6-2.4c0.4,0,0.7-0.3,1.1-0.3c-1.5-0.3-2.6-0.3-4.1-0.5c-3-0.3-6-0.8-8.9-1.6
			C519.2,767.2,518,766.9,517.3,765.9z"/>
		<path class="st7" d="M572.5,767.4c-0.7,0-0.7-0.3-0.7-0.8c0-1.6,0-3.2,0.4-4.7c0-0.3,0-0.5,0.4-0.8c2.2,0,4.1-0.3,6.3-0.3
			c5.2-0.3,10.1-0.8,15.3-1.3c6.3-0.8,12.7-1.6,19.4-2.4c2.2-0.3,4.5-0.3,6.3-1.3c0.4,0.3,0.4,0.8,0.4,1.3c0.4,1.3,0.4,2.9,0.4,4.2
			c-2.6,0.5-5.2,1.3-8.2,1.6c-6.7,0.8-13.4,1.6-20.1,2.9C585.5,766.9,579.2,767.4,572.5,767.4z"/>
		<path class="st8" d="M613.1,718.1c-0.7,1.6-3.4,2.9-5.6,2.9c-2.2,0-4.1-0.3-6-0.8c-2.6-0.5-6-0.3-7.8,1.6
			c-1.1,1.1-1.5,2.1-1.9,3.2c-1.5,2.9-3,5.5-4.8,8.1c0,0.3-0.4,0.5-0.7,0.5c-1.5-1.6-3.4-2.9-5.6-4.2c-1.1-0.5-2.2-1.1-3.4-1.3
			c-0.4-0.3-0.4-0.5-0.4-1.1c0.4-0.8,1.1-1.6,1.5-2.6c0.4-1.1,1.1-1.8,1.5-2.9c1.1-1.3,1.1-2.6,1.9-3.9l0,0c0.4,0,0.4,0,0-0.3
			c0.4-1.6,1.1-3.2,1.5-4.7c0-0.3,0.4-0.3,0.7-0.5c2.2-0.5,4.5-0.3,6.7,0.5c3.7,1.1,7.1,2.9,9.7,5c1.1,1.1,2.2,1.3,4.1,0.5
			c2.2-0.8,4.5-1.1,6.7-1.1C611.6,717.8,612.4,717.8,613.1,718.1z"/>
		<path class="st7" d="M618,765.9c-2.2,0-4.1,0.3-6.3,0.5c-8.2,0.5-16,2.1-23.9,3.7c-4.5,0.8-8.9,1.1-13.4,1.1c-1.1,0-2.2,0-3.4,0
			c0.7-0.5,0.4-1.1,0.4-1.3c0-0.5,0-1.1,0-1.6c2.2,0,4.1,0,6.3,0c4.5-0.3,8.6-0.5,12.7-1.3c3.4-0.5,6.7-1.3,9.7-1.8
			c6.7-1.1,13.8-1.3,20.1-3.2c0,1.1,0,1.8-0.7,2.6c-0.4,0.3-0.7,0.5-1.1,0.5C618.3,765.3,618,765.6,618,765.9z"/>
		<path class="st5" d="M553.8,759.6L553.8,759.6c-2.6,0-4.8-0.3-7.1-0.5c-3.7-0.5-7.5-1.1-10.8-1.3c-4.5-0.5-8.6-0.8-13.1-1.1
			c0.4-0.5,1.1-0.5,1.5-0.8c3-1.1,6-1.8,9.3-2.4c0.7,0,1.1-0.3,1.9-0.3c0,0.3,0.4,0.3,0.4,0c1.5-0.3,3.4,0,4.8,0
			c3,0.5,5.6,1.3,7.8,2.6c1.5,0.8,3,1.8,4.5,2.9C553.1,758.8,553.1,759,553.8,759.6C553.8,759.3,553.8,759.3,553.8,759.6z"/>
		<path class="st9" d="M522.5,756.4c4.5,0.3,8.6,0.5,13.1,1.1c3.7,0.5,7.5,1.1,10.8,1.3c2.2,0.3,4.8,0.5,7.1,0.8
			c0.7,0.3,1.9,0.3,2.6,0.3c0.4,0.3,1.1,0,1.9,0.3c1.9,0.3,3.7,0.3,5.2,0.3c6.3,0.3,12.3,0,18.6-0.5c7.5-0.5,15.3-1.6,22.7-2.6
			c3.7-0.5,7.5-1.1,10.8-1.3c1.5-0.3,2.6-0.5,3.7-1.3c0,0.3,0,0.5,0,0.8c-1.9,1.1-4.1,1.1-6.3,1.3c-6.3,0.8-12.7,1.6-19.4,2.4
			c-4.8,0.5-10.1,1.1-15.3,1.3c-2.2,0.3-4.1,0.3-6.3,0.3c-3.7,0.3-7.5,0-10.8-0.3c-4.8-0.3-9.7-0.8-14.2-1.3
			c-5.2-0.8-10.4-1.3-15.7-1.8c-2.2-0.3-4.5-0.3-6.7-0.5c-1.9,0-3.7-0.3-5.6-0.3C520.3,756.4,521.4,756.4,522.5,756.4z"/>
		<path class="st4" d="M581.4,718.1c-0.7,1.3-0.7,2.6-1.9,3.9c-1.5,0.3-2.6,2.1-1.5,2.9c0,0,0,0,0.4,0c-0.4,0.8-1.1,1.6-1.5,2.6
			c-0.4,0.3-0.4,0.8,0.4,1.1c-0.7,0-1.9-0.3-2.2,0.5c-0.4,0.5-0.7,1.3-0.4,2.1c-1.1,1.3-1.9,2.4-3,3.7c-1.1,0.3-1.9-0.3-2.6-0.5
			c-0.4,0,0-0.3,0-0.5c2.2-3.4,3.7-7.1,6-10.8c0.7-1.3,1.5-2.6,3-3.7C578.8,718.6,579.9,718.1,581.4,718.1z"/>
		<path class="st9" d="M620.6,762.2c-6.3,1.8-13.4,2.1-20.1,3.2c-3.4,0.5-6.7,1.1-9.7,1.8c-4.1,0.8-8.6,1.1-12.7,1.3
			c-2.2,0-4.1,0-6.3,0c0-0.5-0.4-1.1,0.7-1.1c6.7,0,13.1-0.3,19.4-1.6c6.7-1.3,13.4-2.1,20.1-2.9c3-0.3,5.6-1.1,8.2-1.6
			C620.6,761.4,620.6,761.7,620.6,762.2z"/>
		<path class="st8" d="M552.7,758.5c-1.5-1.1-2.6-2.1-4.5-2.9c-2.2-1.3-4.8-2.1-7.8-2.6c0.4,0,0.4-0.3,0.7-0.3
			c1.9-0.5,4.1-1.1,6-1.8c3.4,0.5,7.1,0.8,10.1,2.4c-1.1,0.5-1.9,1.1-2.6,1.6c-0.7,0.8-1.1,1.8-1.1,2.9
			C553.1,758,552.7,758.3,552.7,758.5z"/>
		<path class="st8" d="M571.4,734.3c1.1-1.3,1.9-2.4,3-3.7l0,0l0,0c0.4-0.3,1.1-0.3,1.5,0c1.5,0.5,2.2,1.1,3.4,1.8
			c1.1,0.8,1.9,1.3,3,2.1c-0.7-0.3-1.1-0.3-1.9-0.5c-3-0.5-5.6-0.5-8.2,0.3C572.1,734.3,571.7,734.3,571.4,734.3z"/>
		<path class="st8" d="M582.9,737.5c-1.1,0.5-1.9,1.6-3,2.4c-0.4,0.3-0.4,0.3-0.4,0.5c0,0.3-0.4,0.3-0.4,0.3c0-0.3,0-0.5-0.4-0.5
			c-1.5-1.6-3.4-3.2-5.2-4.5C577,735.9,580.3,736.4,582.9,737.5z"/>
		<path class="st8" d="M569.1,736.7c1.5,0.5,2.6,1.1,3.7,1.8c1.1,0.5,1.9,1.3,3,1.8c-0.7,0.3-1.5,0-2.2,0c-2.2,0-4.8,0-7.1,0.3
			c-0.4,0-0.7,0-1.1,0c0.4-0.8,1.5-1.1,1.9-1.8S568.7,737.5,569.1,736.7z"/>
		<path class="st7" d="M581.1,742c0.4-0.3,0.4,0,0.7,0.3c1.5,0.8,2.6,1.8,4.1,2.6c1.1,0.5,1.1,1.6,0.7,2.4c-0.4,0.8-1.5,1.1-2.6,1.1
			c-1.1,0-2.6-1.1-2.6-2.1c0-0.3,0-0.5,0-0.8c0.4,0,0.4,0.5,0.7,0.3c0.4,0,0-0.5,0.4-0.8c0-0.8,0-0.8,0.7-1.1
			c-0.7,0-1.1-0.3-1.9-0.8C581.1,743,580.7,742.5,581.1,742z M582.9,746.4c0.4,0.8,1.1,1.1,1.9,1.1c0.7-0.3,1.1-0.8,0.7-1.3
			c0,0,0-0.3-0.4-0.3c-0.7,0.3-1.5,0.5-1.5,1.1C583.3,746.7,583.3,746.7,582.9,746.4z"/>
		<path class="st4" d="M547.1,750.9c-1.9,1.1-3.7,1.3-6,1.8c-0.4,0-0.7,0.3-0.7,0.3c-1.5,0-3.4-0.3-4.8,0h-0.4
			c1.9-0.8,4.1-1.6,6-2.1c1.5-0.5,3-0.3,4.5-0.3C546,750.6,546.7,750.6,547.1,750.9z"/>
		<path class="st4" d="M569.1,736.7c-0.4,0.8-1.5,1.3-1.9,2.1s-1.5,1.1-1.9,1.8l0,0c-1.9-0.5-1.9-0.5-0.7-1.6
			c0.7-0.5,1.1-1.3,1.5-1.8C566.9,735.9,567.6,735.9,569.1,736.7z"/>
		<path class="st8" d="M556.4,746.4c0.7,0.3,1.5,0.5,2.2,1.1c-0.4,0.5-1.1,0.3-1.5,0.5c0.7,0.3,1.5,0,2.2,0c0.4,0.3,1.1,0.3,1.5,0.5
			c0.4,0.3,0.7,0.5,1.1,0.8c-2.2-0.3-4.5-0.3-6.3-0.3c-0.7,0-1.9,0-2.2-0.5c0.4-0.3,1.1-0.3,1.5-0.5
			C555.3,747.2,555.7,746.7,556.4,746.4z M556.4,747.2L556.4,747.2L556.4,747.2L556.4,747.2L556.4,747.2L556.4,747.2L556.4,747.2z"
			/>
		<path class="st4" d="M556.4,746.4c-0.7,0.3-1.5,0.8-1.9,1.3c-0.4,0.3-1.1,0.3-1.5,0.5c-1.1,0-1.9-0.5-3-0.5
			C552,745.9,555,745.4,556.4,746.4z"/>
		<path class="st7" d="M569.9,751.7c1.9,0,3,0.8,3,1.8s-0.7,1.6-2.2,1.6c-1.9,0-3-1.1-3-2.4c0.4,0.3,1.1,0.5,1.5,0.8
			c0.4,0.8,1.5,1.1,2.2,0.5c0.4-0.3,0.4-0.5,0.4-0.8c0-0.3-0.4-0.5-0.7-0.8c-0.4-0.3,0,0.5-0.4,0.5
			C570.6,752.7,571,752.2,569.9,751.7z"/>
		<path class="st7" d="M563.5,754.6c1.5,0.5,2.2,1.3,1.9,2.4c-0.4,0.8-1.5,1.3-3,1.1c-1.9-0.5-2.6-1.6-2.2-2.9
			c0.7,0.3,0.7,1.1,1.5,1.1l0,0v0.3c-0.4,0.5,0.4,0.5,0.7,0.8c0.4,0.3,1.1,0.3,1.5-0.3c0-0.5,0.4-0.8-0.7-1.1
			C563.5,755.4,563.5,755.1,563.5,754.6z"/>
		<path class="st8" d="M563.9,747L563.9,747c1.9-0.3,3.7-0.3,5.6,0.3c0,0.3,0,0.8-0.7,0.5c0-0.3,0-0.3-0.4-0.5c0,0.3,0,0.5,0,0.5
			c0,0.3,0.4,0.3,0.7,0.5c-1.5-0.5-2.2,0-3,0.5c-0.4,0.3,0,0.3,0,0.5c-0.4,0-1.1,0-0.4-0.5c0.4-0.3-0.4-0.3-0.4-0.5
			c-0.4-0.3-0.7-0.8-1.1-1.1C564.3,747.2,564.3,747.2,563.9,747z"/>
		<path class="st7" d="M589.3,738.8h0.4c1.5,0.5,1.9,2.6,0,3.4c-0.7,0.3-1.5,0.3-2.2,0c-1.1-0.5-1.1-1.1-1.1-1.8
			c0-0.3,0.4-0.5,0-1.1c0.7,0.3,0.7,1.1,1.5,1.3c-0.4,0.5,0,0.8,0.7,0.8l0,0c0,0.3,0.4,0,0.4,0c1.1-0.5,1.5-1.3,0.4-1.8
			C589.6,739.3,589.3,739.1,589.3,738.8z"/>
		<path class="st8" d="M575.8,743.3C575.8,743.3,576.2,743.5,575.8,743.3c-0.7,0.3-1.1,1.1-1.9,0.8c-0.7,0-0.7,0.8-1.9,0.5
			c-0.7-0.8-1.5-1.3-2.2-1.8C571.7,742.8,574,742.8,575.8,743.3z"/>
		<path class="st4" d="M559.8,744.6c-0.7,0-1.1-0.3-1.9-0.3c-0.7,0-0.4-0.3-0.4-0.5c0.7-0.3,1.5-0.8,2.2-1.1c0.7-0.5,1.5-0.5,2.6,0
			c0,0.3,0,0.5-0.4,0.5C561.3,743.5,560.5,744.1,559.8,744.6z"/>
		<path class="st8" d="M559.8,744.6c0.7-0.5,1.5-1.1,2.2-1.6c0.4-0.3,0.4-0.3,0.4-0.5c0.7,0.3,1.1,0.5,1.9,0.8c0,0.3,0,0.3,0.4,0.3
			l0,0h-0.4c-0.7,0.3-1.5,0.3-1.5,1.1h-0.4c0,0,0,0-0.4,0l0,0c-0.4,0-0.7,0-1.1,0C560.5,744.9,560.2,744.9,559.8,744.6z"/>
		<path class="st8" d="M562.4,750.9c-0.7,0.3-1.1,0.5-1.9,0.8c-0.4,0-0.4,0.3-0.4,0.5c-1.1-0.3-1.5-1.1-2.6-1.8
			C559.4,750.1,560.9,750.4,562.4,750.9z"/>
		<path class="st8" d="M570.6,753.3c0.4,0,0-0.5,0.4-0.5s0.7,0.5,0.7,0.8c0,0.3,0,0.5-0.4,0.8c-0.7,0.3-1.9,0-2.2-0.5
			C569.5,753.3,569.9,753.3,570.6,753.3z"/>
		<path class="st8" d="M563.5,755.9c0.7,0,0.7,0.5,0.7,1.1c-0.4,0.5-0.7,0.5-1.5,0.3c-0.4-0.3-1.1-0.3-0.7-0.8
			C562.4,756.2,563.2,755.9,563.5,755.9z"/>
		<path class="st4" d="M546,749.1c1.1-0.8,3-0.5,4.5,0.3C549,749.1,547.5,749.3,546,749.1z"/>
		<path class="st8" d="M589.3,739.6c1.1,0.5,1.1,1.3-0.4,1.8h-0.4l0,0v-0.3C588.5,740.6,588.5,740.1,589.3,739.6z"/>
		<path class="st8" d="M562.8,744.9c-0.4-0.8,0.7-0.8,1.5-1.1h0.4c0.4,0,0.4,0.3,0.7,0.5l0,0c-0.4,0-1.1,0-1.5,0
			c-0.4,0.3-0.4,0.5,0,0.5C563.5,744.9,563.2,744.9,562.8,744.9z"/>
		<path class="st8" d="M588.5,741.2v0.3c-0.7,0-0.7-0.3-0.7-0.8C587.8,740.9,588.1,741.2,588.5,741.2z"/>
		<path class="st7" d="M563.2,754c0.4,0,0.4,0.3,0.4,0.5C563.2,754.6,562.8,754.6,563.2,754z"/>
		<path class="st10" d="M564.6,743.5C564.3,743.5,564.3,743.5,564.6,743.5C564.3,743.5,564.3,743.5,564.6,743.5z"/>
		<path class="st10" d="M565.4,744.3L565.4,744.3H565C565,744.3,565,744.1,565.4,744.3C565.4,744.1,565.4,744.1,565.4,744.3z"/>
		<path class="st7" d="M561.7,755.9L561.7,755.9L561.7,755.9L561.7,755.9z"/>
		<path class="st10" d="M574.7,730.7C574.7,730.7,574.3,730.7,574.7,730.7C574.3,730.7,574.3,730.7,574.7,730.7z"/>
		<path class="st7" d="M599,753.5c-0.7-0.3-0.7-0.5-0.7-1.1c0-2.1,0-3.9,0.4-6c0-1.3,0.4-2.6,1.1-3.7c0.7-1.6-0.4-3.9-2.2-5
			c0-0.3-0.4-0.3-0.4-0.5l-0.4-0.3l-0.4-0.3c-0.7-0.5-1.5-1.1-3-1.1c-1.5,0-2.6-1.6-1.9-2.6c0.4-0.8,1.1-1.1,2.2-1.1
			c1.1,0,1.5,0.5,1.9,1.1c0.4,0.8,1.1,1.1,1.9,1.6c0,0,0.4,0,0.4,0.3s0.4,0.3,0.4,0.3s0,0,0.4,0.3c1.9,1.1,3.4,2.4,4.5,4.2
			c0.7,1.3,0.7,2.6,0,3.9c-1.1,2.4-1.1,4.7-1.1,7.1c0,0.8,0,1.3,0,2.1c0,0.5-0.4,0.8-1.1,1.1C599.7,753.5,599.3,753.5,599,753.5z
			 M592.2,735.1c0.4-0.5,1.1-1.1,1.1-1.6c0-0.3,0.4-0.5,0-0.8c-0.4-0.3-1.1-0.3-1.5,0C591.5,733.6,591.5,734.3,592.2,735.1z"/>
		<path class="st3" d="M573.2,748.3c0.7-0.3,1.1-0.8,1.1-1.3c0-0.3,0-0.5,0.4-0.5c1.5,0.5,2.6,1.1,3,2.1l0,0l0,0
			c0,0.3,0.4,0.5,0.4,1.1c0,0.5,0,1.1-1.1,1.1c-0.4,0-0.4,0.3-0.7-0.3c-0.4-0.5-1.1-0.8-1.5-1.1c-0.4-0.5-1.1-0.5-1.9-1.1
			C573.6,748.3,573.2,748.3,573.2,748.3L573.2,748.3z"/>
		<path class="st7" d="M594.8,726.7c0-0.5,0-1.1,0.4-1.3c0.4-0.5,0.7-0.5,1.5-0.5c0.7,0,1.1,0.3,1.5,0.5c0.7,1.1,0.4,2.1-0.4,2.9
			c-0.7,0.8-1.9,0.5-2.6-0.3C594.8,727.8,594.8,727.3,594.8,726.7z M596,726.7c0,0.5,0,1.1,0.7,1.1c0.7,0,0.7-0.5,0.7-0.8
			c0-0.5,0.4-1.3-0.7-1.3C596,725.7,596.3,726.5,596,726.7z"/>
		<path class="st7" d="M575.5,749.3c0.4,0.3,1.1,0.5,1.5,1.1c0,0.3,0.4,0,0.7,0.3c0,0,0,0.3,0.4,0.3s1.1,0.3,1.5-0.3
			c0.4-0.5,0-0.8-0.7-1.1c0-0.3-0.4-0.8-0.4-1.1c0.7,0,1.1,0.3,1.5,0.5c0.7,0.8,1.1,1.8,0.4,2.4c-0.7,0.5-2.2,0.5-3.4,0
			C575.5,750.9,575.1,750.1,575.5,749.3z"/>
		<path class="st5" d="M599,753.5c0.4,0,0.7,0,1.1,0c-0.4,1.1-0.4,2.1-0.4,3.4c0,0.3,0,0.5-0.7,0.5c-0.7,0-0.4-0.3-0.4-0.5
			C598.6,755.6,599,754.6,599,753.5z"/>
		<path class="st7" d="M558.3,760.1c-0.7,0-1.1,0-1.9-0.3c4.5,0,8.9-0.5,13.4-1.3C566.1,759.6,562.4,760.1,558.3,760.1z"/>
		<path class="st7" d="M576.2,755.9c-0.7,0.8-1.9,1.1-3,1.3c-1.9,0.5-3.7,0.8-5.6,1.3c-0.4,0-0.4,0.3-0.7,0c0-0.3,0.4-0.3,0.4-0.3
			C570.2,757.7,572.8,756.9,576.2,755.9C575.8,755.9,575.8,755.9,576.2,755.9z"/>
		<path class="st7" d="M566.1,758.5c-1.9,0.3-4.1,0.5-6,0.8c-0.4,0-1.1,0.3-1.1,0c0-0.5,0.7-0.3,1.1-0.3c1.5-0.3,3.4-0.3,4.8-0.5
			C565.4,758.5,565.8,758.3,566.1,758.5z"/>
		<path class="st7" d="M602.7,724.9c0-0.8,0.7-1.6,0.7-2.1c0-0.5,0.4-0.8,0.4-1.3c0,0,0-0.3,0.4-0.3s0.4,0,0,0.3
			C604.2,722.5,603.4,723.6,602.7,724.9L602.7,724.9z"/>
		<path class="st7" d="M593.7,740.6c0.4,0.3,0,0.5,0,0.8c-0.4,1.1-1.1,1.8-1.9,2.9c0,0.3-0.4,0.3-0.4,0.3v-0.3
			c0.7-1.1,1.1-1.8,1.9-2.9C593.4,740.9,593.4,740.6,593.7,740.6z"/>
		<path class="st7" d="M601.9,724.9c-0.4-0.5,0-1.1,0-1.3c0.4-0.8,0.7-1.6,0.7-2.1c0,0,0-0.3,0.4-0.3s0.4,0.3,0.4,0.3
			C603.1,722.5,602.3,723.6,601.9,724.9z"/>
		<path class="st7" d="M597.8,735.4C597.5,735.4,597.5,735.1,597.8,735.4c0.4-1.1,0.7-2.1,1.5-3.2l0,0
			C599,733.3,598.6,734.3,597.8,735.4z"/>
		<path class="st7" d="M599.3,730.4c-0.4,1.1-1.1,2.1-1.5,2.9h-0.4C597.8,732.2,598.6,731.5,599.3,730.4
			C599,730.4,599.3,730.4,599.3,730.4z"/>
		<path class="st7" d="M600.8,727c-0.4,1.1-0.7,2.1-1.5,2.9c0,0,0,0-0.4,0c0.4-1.1,0.7-2.1,1.5-2.9C600.8,727,600.8,727,600.8,727z"
			/>
		<path class="st7" d="M553.8,759.6C553.8,759.3,553.8,759.3,553.8,759.6c0.7-0.3,4.1-0.3,4.5,0
			C556.8,759.3,555.3,759.3,553.8,759.6z"/>
		<path class="st7" d="M595.6,737l0.4,0.3c-0.4,0.5-0.4,1.1-1.1,1.6C594.8,738,595.6,737.5,595.6,737z"/>
		<path class="st7" d="M580.7,754c-0.4,0.5-1.1,0.8-1.9,1.1C579.2,754.3,579.9,754,580.7,754z"/>
		<path class="st7" d="M572.5,758c-0.7,0.5-1.1,0.5-1.9,0.5c0,0-0.4,0-0.4-0.3c0,0,0-0.3,0.4-0.3C571,758.3,571.7,758,572.5,758z"/>
		<path class="st7" d="M584,753.3c-0.4,0.5-1.1,0.8-1.9,1.3C582.5,753.8,582.9,753.5,584,753.3L584,753.3z"/>
		<path class="st7" d="M596.3,737.5c0.4,0,0.4,0.3,0.4,0.5c-0.4,0.3-0.4,0.5-0.7,0.8c0,0,0,0.3-0.4,0.3s0-0.3,0-0.3
			C596,738.3,596,737.8,596.3,737.5z"/>
		<path class="st7" d="M591.5,745.9c0,0.5-0.4,1.1-0.7,1.3c0,0-0.4,0.3-0.4,0c-0.4,0,0-0.3,0-0.3
			C590.7,746.7,591.1,746.4,591.5,745.9z"/>
		<path class="st7" d="M593.7,740.4c0-0.8,0.4-1.1,0.7-1.6C594.8,739.3,594.8,739.9,593.7,740.4z"/>
		<path class="st7" d="M574.7,757.5c-0.4,0.3-1.1,0.5-2.2,0.5C573.2,757.5,574,757.5,574.7,757.5z"/>
		<path class="st7" d="M584.4,751.7c0,0.5-0.7,0.8-1.1,1.1h-0.4v-0.3C583.3,752.2,584,751.9,584.4,751.7z"/>
		<path class="st7" d="M601.9,726.5c0-0.5,0-1.1,0.7-1.6C602.7,725.7,602.7,726.2,601.9,726.5z"/>
		<path class="st7" d="M600.1,730.4c0,0.5,0,1.1-0.7,1.3C599.7,731.5,599.3,730.7,600.1,730.4z"/>
		<path class="st7" d="M585.5,751.9c0,0.8-0.7,1.1-1.9,1.3l0,0C584.4,752.7,584.8,752.2,585.5,751.9L585.5,751.9z"/>
		<path class="st7" d="M601.9,727c-0.4,0.5-0.4,1.1-0.7,1.3h-0.4C601.2,727.8,601.2,727.3,601.9,727C601.6,727,601.9,727,601.9,727z
			"/>
		<path class="st7" d="M579.6,755.6c-0.4,0.5-1.1,0.5-1.9,0.8c0,0,0,0,0-0.3C578.1,756.2,578.8,755.9,579.6,755.6L579.6,755.6z"/>
		<path class="st7" d="M601.2,726.7c-0.4-0.8,0-1.3,0.7-1.8C601.6,725.7,601.6,725.9,601.2,726.7z"/>
		<path class="st7" d="M579.9,755.4c0.4-0.5,0.7-0.8,1.9-0.8C581.1,755.1,580.7,755.4,579.9,755.4z"/>
		<path class="st7" d="M586.6,751.4c0-0.5,0.7-1.1,1.5-1.3l0,0C587.8,750.6,587.4,750.9,586.6,751.4L586.6,751.4z"/>
		<path class="st7" d="M577.3,756.4c-0.7,0.5-1.5,0.5-1.9,0.8C575.8,756.9,575.8,756.9,577.3,756.4z"/>
		<path class="st7" d="M600.8,728.6c0,0.5,0,1.1-0.7,1.6C600.1,729.6,600.8,729.1,600.8,728.6z"/>
		<path class="st7" d="M586.6,750.4c-0.4,0.3-0.7,0.8-1.5,1.1C585.2,750.9,585.5,750.6,586.6,750.4z"/>
		<path class="st7" d="M594.1,742.2c0-0.5,0.4-1.1,0.7-1.6C594.8,741.4,594.5,742,594.1,742.2z"/>
		<path class="st7" d="M578.4,755.1c-0.4,0.5-1.1,0.8-1.9,0.8C577,755.6,577.7,755.1,578.4,755.1z"/>
		<path class="st7" d="M586.6,750.1c0.4-0.5,0.7-0.8,1.1-1.1C587.8,749.3,587.4,749.8,586.6,750.1z"/>
		<path class="st7" d="M593,744.1c0-0.5,0.4-0.8,0.7-1.3C593.7,743.3,593.4,743.5,593,744.1z"/>
		<path class="st7" d="M595.6,739.3c0,0.5-0.4,0.8-0.7,1.6C594.8,740.1,595.2,739.6,595.6,739.3z"/>
		<path class="st7" d="M592.6,744.3c0.4,0.5,0,0.8-1.1,1.6C591.9,745.1,592.2,744.6,592.6,744.3z"/>
		<path class="st7" d="M597.1,734.9C597.1,734.9,596.7,734.9,597.1,734.9c0-0.5,0-0.8,0.4-1.1C597.8,734.3,597.5,734.6,597.1,734.9z
			"/>
		<path class="st7" d="M588.1,750.1c0-0.3,0-0.5,0.7-0.8h0.4C589.3,749.6,588.5,749.8,588.1,750.1L588.1,750.1z"/>
		<path class="st7" d="M585.5,751.9c0-0.5,0.4-0.5,1.1-0.8l0,0C586.6,751.7,586.3,751.9,585.5,751.9L585.5,751.9z"/>
		<path class="st7" d="M590,748.3c0,0.3,0,0.3-0.4,0.3c0,0-0.4,0,0,0C589.6,748.3,589.6,748.3,590,748.3L590,748.3z"/>
		<path class="st7" d="M590,748.3c0-0.3,0-0.5,0.4-0.8C590.4,748,590.4,748,590,748.3L590,748.3z"/>
		<path class="st7" d="M573.2,748.3c0.4,0,0.4,0,0.4,0.3C573.6,748.3,573.2,748.3,573.2,748.3z"/>
		<path class="st7" d="M578.1,748.3L578.1,748.3L578.1,748.3z"/>
		<path class="st7" d="M578.1,724.9L578.1,724.9c-1.1-0.8-0.4-2.6,1.5-2.9C579.6,723,578.8,723.8,578.1,724.9z"/>
		<path class="st8" d="M559.4,747.5c-0.7,0.3-1.5,0.5-2.2,0c0.7,0,1.1,0,1.5-0.5C559.1,747.5,559.4,747.2,559.4,747.5z"/>
		<path class="st8" d="M565,744.3c0,0,0.4,0,0.4,0.3c0,0,0,0.3,0.4,0.3v0.3c-0.4,0-0.7,0-1.1,0h-0.4l0,0h-0.4c0,0,0,0-0.4,0
			c-0.4-0.3-0.7-0.3,0-0.5C564.3,744.1,564.6,744.3,565,744.3z"/>
		<path class="st10" d="M565.8,744.9v-0.3C565.8,744.6,566.1,744.6,565.8,744.9C566.1,744.9,566.1,744.9,565.8,744.9z"/>
		<path class="st3" d="M563.9,744.9h0.4C564.3,745.1,564.3,745.1,563.9,744.9z"/>
		<path class="st10" d="M564.6,744.9L564.6,744.9L564.6,744.9z"/>
		<path class="st10" d="M562.4,744.9L562.4,744.9L562.4,744.9z"/>
		<path class="st8" d="M582.9,746.4c0.4,0.3,0.4,0.3,0.7,0.5c0-0.8,0.7-0.8,1.5-1.1c0.4-0.3,0.4,0,0.4,0.3c0.4,0.5,0,1.3-0.7,1.3
			S583.3,747.2,582.9,746.4z"/>
		<path class="st10" d="M556.4,747.2L556.4,747.2L556.4,747.2L556.4,747.2L556.4,747.2z"/>
		<path class="st8" d="M556.4,747.2L556.4,747.2L556.4,747.2L556.4,747.2L556.4,747.2z"/>
		<path class="st10" d="M568.7,748c-0.4-0.3-0.4-0.3,0-0.5C568.7,747.5,568.7,747.7,568.7,748L568.7,748z"/>
		<path class="st10" d="M588.5,741.4h0.4C588.5,741.7,588.5,741.7,588.5,741.4z"/>
		<path class="st8" d="M592.2,735.1c-0.7-0.8-0.7-1.6,0-2.1c0.4-0.3,0.7-0.3,1.5,0c0.4,0.3,0,0.5,0,0.8
			C593.4,734.3,592.6,734.6,592.2,735.1z"/>
		<path class="st8" d="M578.4,749.3c0.7,0.3,0.7,0.8,0.7,1.1c-0.4,0.5-0.7,0.3-1.5,0.3c-0.4,0-0.4-0.3-0.4-0.3
			C578.4,750.4,578.4,750.1,578.4,749.3z"/>
		<path class="st8" d="M596,726.7c0-0.5,0-1.1,0.7-1.1c0.7,0,0.7,0.8,0.7,1.3c0,0.3,0,1.1-0.7,0.8C596,727.8,596.3,727.3,596,726.7z
			"/>
	</g>
	<g>
		<path class="st3" d="M453.9,721.5c15.3,3.7,6.3,13.4,22.7,24.7c13.4,8.9,23.5,8.1,23.9,12.6c0.7,5.5-21.6,15.2-38.8,11.8
			c-29.1-6-38-48.1-25.4-53.3C439.4,715.7,452,721.2,453.9,721.5z"/>
		<path class="st4" d="M458,746.4c-1.5,0.3-2.6,0.8-3.4,1.8l0,0l0,0c-0.7,0-1.1,0.3-1.5,0.5c-1.1,0.5-1.1,1.6-0.7,2.1
			c0.7,0.5,2.2,0.8,3.4,0.3c0.7-0.5,1.5-1.1,1.5-1.8c0.4-0.5,1.1-0.5,1.9-0.8c0,0,0.4,0,0.4-0.3l0,0c1.1-0.3,2.6-0.5,3.7-0.5
			c0,0.3,0,0.8,0.7,0.8l0,0c0,0.3-0.4,0.3-1.1,0.5c1.5-0.3,2.2,0.3,3,0.8c0.4,0.3,0,0.5,0,0.5s-0.4,0-0.4,0.3
			c-1.1,0.5-2.6,0.8-3.4,1.8c-1.9,0-3,0.5-3.4,1.6c-0.4,1.1,0.4,1.8,1.9,1.8c1.9,0.3,3.4-0.8,3.4-2.1c1.9-0.8,3.7-1.6,5.6-1.8
			c0.4,0.3,1.1,0.8,1.9,0.8c0.4,0,0.4,0.3,0.4,0.5c-1.1,0.5-2.6,1.1-3.4,1.8c-0.4,0-0.4,0.3-0.4,0.3l0,0c-1.5,0.3-2.2,1.3-2.2,2.1
			c0,0.8,1.5,1.3,2.6,1.1c1.9-0.3,2.6-1.3,3-2.6c1.1-0.5,2.2-1.3,3.4-1.6c1.1,0.5,1.9,1.1,2.6,1.8c0.7,1.1,0.7,1.8,0.7,2.9
			c0,0.3,0,0.5,0.4,0.8c-0.4,0.3-0.7,0.5-1.1,0.8c-0.7-0.3-4.1-0.5-4.8-0.3c1.5,0.3,3,0.3,4.5,0.5c0,0,0,0,0,0.3c-1.1,0-1.9,0-3,0
			c-4.5-0.5-8.9-1.1-13.1-2.1c3.7,1.3,7.5,1.8,11.2,2.4c-1.9,0-3.7,0-5.6,0c-6.3-0.3-12.3-1.1-18.3-2.1c-7.5-1.1-14.9-2.9-22-4.2
			c-3.7-0.8-7.1-1.6-10.4-2.1c-1.5-0.3-2.6-0.8-3.4-1.6c0.7-1.8,1.5-3.7,2.6-5.5c1.5-3.2,3.7-6,5.6-9.2c2.2-3.7,3.7-7.4,3.4-11.3
			c-0.4-2.6-0.4-5.5-0.4-8.1c0-0.8,0-1.3,1.1-1.8c0.7,1.6,3,3.2,5.2,3.2c2.2,0.3,4.1,0,6-0.3c3-0.5,6,0.3,7.5,2.1
			c0.7,1.1,1.1,2.4,1.5,3.4c0.7,2.9,2.2,5.8,3.7,8.7c0,0.3,0.4,0.5,0.7,0.5c0,0.5,0.4,0.8,0.7,1.3c0.4,0.3,0.4,0.5-0.4,0.8
			c-1.9,0.8-3.4,1.6-4.5,2.9h-0.4c-1.9,0.5-2.2,2.4-0.7,3.4c0.7,0.3,1.5,0.5,2.2,0.3c1.1-0.3,1.5-1.1,1.5-1.8c0-0.3,0-0.8,0.4-1.1
			c1.1-0.5,2.2-1.3,3.7-1.6c1.1,0.8,1.5,1.8,2.6,2.6c0,0.3,0.4,0.3,0,0.5c-0.4,0.3,0,0.3,0.4,0.3c0.4,0.3,0,0.5-0.4,0.5
			c-0.4,0-0.7,0.3-1.1,0.5c-0.4-0.3-0.4,0-0.7,0c-1.5,0.5-2.6,1.6-4.5,2.4c-1.1,0.5-1.5,1.6-1.1,2.1c0.4,0.8,1.1,1.3,2.6,1.3
			c1.1,0,2.6-0.8,3-1.8c0-0.3,0-0.5,0-0.8c0.4-0.3,0.7-0.3,1.5-0.5c1.5-0.5,3-1.1,4.5-1.1c0,0-0.4,0.3,0,0.3
			c0.7,0.3,1.1,0.8,1.9,0.8c0.7,0,0.7,0.8,1.5,0.8c0,0,0,0,0,0.3C459.9,745.6,459.1,746.2,458,746.4z M442.3,746.4
			c-0.4,0.3,0,0.5,0.4,0.8c0,0.3,0,0.3,0.4,0.5h0.4c0-0.3-0.4-0.3-0.4-0.3C442.7,747,442.7,746.7,442.3,746.4z M443.8,748.3
			C443.8,748.3,443.5,748.3,443.8,748.3c-0.4,0.5,0,0.5,0.4,0.8c0.4,0.5,0.7,1.1,1.1,1.3c0,0.5,0.4,0.8,1.1,0.8
			c0,0.8,0.7,1.1,1.5,1.3c0.4,0.5,1.1,0.8,1.9,1.3c-0.4-0.5-0.7-1.1-1.9-1.3c-0.4-0.5-0.7-1.1-1.5-1.3c0-0.5-0.4-0.8-0.7-0.8
			c0-0.5-0.4-1.1-1.1-1.3C444.2,748.8,444.2,748.5,443.8,748.3z M437.9,737.2C437.9,737.2,438.2,737.5,437.9,737.2
			c0.7,0.3,0.7,0,0.4,0c-0.4-0.3,0-0.8-0.4-1.1l0.4-0.3c0.4,0.5,0.4,1.1,0.7,1.8c0-0.8-0.4-1.3-0.4-1.8c0.7-0.5,1.5-1.1,3-0.8
			c1.5,0.3,3-1.3,2.2-2.6c-0.4-0.8-0.7-1.1-1.9-1.1s-1.9,0.3-1.9,1.1c-0.4,0.8-1.1,1.1-2.2,1.3c-0.4-0.3,0-0.8-0.7-1.1
			c-0.4,0.5,0,0.8,0.4,1.1l-0.4,0.3c-0.4-1.1-0.7-2.1-1.1-3.2l0,0c0,1.1,0.4,2.4,1.1,3.4c-1.9,1.1-3.7,2.1-4.8,3.7
			c-0.7,1.3-1.1,2.6-0.7,3.9c0.7,2.4,0.4,4.7,0,7.1c0,0.8,0,1.3-0.4,2.1c0,0.5,0,0.8,0.7,1.1c0.4,1.1,0,2.1,0,3.4
			c0,0.3,0,0.5,0.4,0.8c0.7,0,0.4-0.3,0.4-0.5c0-1.1,0-2.1,0-3.4c0.7-0.3,1.1-0.5,1.1-1.1c0.4-2.1,0.4-3.9,0.7-6
			c0-1.3,0-2.6-0.4-3.7c-0.7-1.8,0.7-3.9,3-4.7C437.5,736.7,437.9,737,437.9,737.2z M440.8,724.1c-0.4-0.5-0.7-0.5-1.5-0.8
			c-0.7,0-1.1,0-1.5,0.5c-0.7,1.1-0.7,2.1,0,2.9s1.9,0.8,2.6,0c0.4-0.5,0.7-0.8,0.7-1.3C441.2,724.9,441.2,724.4,440.8,724.1z
			 M458.4,757.5c1.9,0.8,3.7,1.1,5.2,1.6c0.4,0,0.4,0.3,0.7,0c0-0.3,0-0.3-0.4-0.3c-3-0.8-5.6-1.6-8.2-2.9h-0.4
			C456.1,756.7,457.3,756.9,458.4,757.5z M470.7,760.6c0.4,0,1.1,0.5,1.1,0c0-0.5-0.7-0.3-1.1-0.3c-1.5-0.3-3.4-0.5-4.8-1.1
			c-0.4,0-0.7-0.3-1.1,0C466.6,759.8,468.4,760.4,470.7,760.6z M433.4,720.7c0-0.5-0.4-0.8-0.4-1.3c0,0,0-0.3-0.4-0.3
			s-0.4,0-0.4,0.3c0.4,1.3,0.4,2.4,1.1,3.7c0,0,0,0,0.4,0C434.1,722,433.4,721.2,433.4,720.7z M440.1,740.1c0.4,1.1,0.7,2.1,1.1,2.9
			c0,0.3,0,0.3,0.4,0.3V743c-0.7-1.1-0.7-2.1-1.1-3.2c0-0.3,0-0.5-0.4-0.5C439.7,739.6,440.1,739.9,440.1,740.1z M434.5,721.5
			c0-0.8-0.4-1.6-0.4-2.4c0-0.3,0-0.3-0.4-0.3s-0.4,0.3-0.4,0.3c0.4,1.3,0.7,2.4,1.1,3.7C434.9,722.3,434.5,722,434.5,721.5z
			 M437.1,731.7C437.1,731.7,437.5,731.7,437.1,731.7c0.4-1.1-0.4-2.1-0.7-3.2H436C436.4,729.6,436.7,730.7,437.1,731.7z M436,728.3
			C436.4,728.3,436.4,728.3,436,728.3c0-1.1-0.4-2.1-0.7-3.2h-0.4C435.3,726.2,435.6,727.3,436,728.3z M452.8,754.8
			c-0.4-0.5-0.7-0.8-1.5-1.1C451.3,754.3,452,754.6,452.8,754.8z M460.2,759h0.4v-0.3c-0.7,0-1.1-0.5-1.9-0.5
			C459.1,758.8,459.9,758.8,460.2,759z M442,746.2l0.4,0.3c0.4,0,0-0.3,0-0.3c-0.4-0.3-0.4-0.8-0.7-1.1
			C441.6,745.4,441.6,745.6,442,746.2z M439.7,737.5c-0.4,0.5-0.4,0.8,0.4,1.6C440.1,738.5,439.7,738,439.7,737.5z M458.4,758.3
			c-0.7-0.5-1.5-0.5-2.2-0.8C456.9,758,457.3,758.3,458.4,758.3z M448.7,752.2c0,0,0.4,0.3,0.4,0v-0.3c-0.4-0.3-0.7-0.5-1.5-0.8
			C447.9,751.7,448.3,751.9,448.7,752.2z M434.1,723c-0.4,0.5-0.4,1.1,0.4,1.6C434.1,724.1,434.5,723.6,434.1,723z M436,730.1
			c0-0.5,0.4-1.1-0.4-1.6C435.3,729.1,435.3,729.6,436,730.1z M434.5,726.5C434.9,726.5,434.9,726.5,434.5,726.5c0-0.5,0-1.1,0-1.6
			h-0.4C434.5,725.7,434.5,726.2,434.5,726.5z M453.5,756.4C453.9,756.4,453.9,756.2,453.5,756.4c-0.4-0.5-1.1-0.8-1.5-1.1
			c0,0,0,0-0.4,0.3C452.4,755.9,453.2,756.2,453.5,756.4z M434.5,723c0,0.8,0,1.1,0.4,1.8C435.3,724.1,435.3,723.6,434.5,723z
			 M449.8,754c0.4,0.5,1.1,0.8,1.5,1.1C451.3,754.8,450.9,754.3,449.8,754z M455.8,757.5c-0.4-0.5-0.4-0.5-1.9-0.8
			C454.6,756.9,455.4,757.2,455.8,757.5z M435.3,728.3c0.4-0.5-0.4-1.1-0.4-1.6C434.9,727.3,434.9,727.8,435.3,728.3z M447.2,750.6
			c0-0.5-0.4-0.8-1.1-1.1C446.1,750.1,446.4,750.4,447.2,750.6z M439,739.6c0,0.8,0,1.1,0.4,1.6C439.7,740.4,439.7,740.1,439,739.6z
			 M454.6,755.9c-0.4-0.3-0.7-0.8-1.9-1.1C453.5,755.4,454.3,755.6,454.6,755.9z M444.6,748c0,0.5,0.4,0.8,1.1,1.3
			C445.7,748.8,445.3,748.3,444.6,748z M439.7,741.4c0,0.5,0,1.1,0.4,1.3C440.5,742.2,440.1,741.7,439.7,741.4z M439,739.3
			c0.4-0.8-0.4-1.1-0.7-1.6C438.6,738.3,438.6,738.8,439,739.3z M441.6,744.6c-0.4-0.8-0.4-1.1-0.7-1.6
			C440.5,743.5,440.5,743.8,441.6,744.6z"/>
		<path class="st5" d="M512.4,770.6c0.4,0,0.4-0.3,0.4-0.3c0.4-2.1,1.1-4.2,1.1-6.6c0-1.1-0.7-1.8-2.2-2.4c-1.9,0-3.7-0.3-5.6-0.3
			c-2.2,0-4.5,0-6.7,0c-5.2,0-10.4,0.5-15.7,0.8c-4.8,0.3-9.7,0.3-14.2,0.3c-3.7,0-7.1-0.3-10.8-0.8c0.4,0.3,0.4,0.5,0.4,0.8
			c-0.4,1.6-0.4,3.2-0.4,4.7c0,0.5-0.4,0.8-1.1,0.8c1.1,0,0.7,0.8,0.7,1.1c0,0.5,0,1.1,0,1.6c0,0.5-0.4,1.1,0.4,1.6
			c0.4,0,0.7,0,1.1,0c3,0.3,6,0.3,8.9,0.3c4.1,0,7.8,0,11.9-0.3c4.8-0.3,10.1-0.5,14.9-0.8c3.7,0,7.1-0.3,10.8-0.3
			C508,770.6,510.2,770.3,512.4,770.6z"/>
		<path class="st6" d="M512.4,770.6c-2.2-0.3-4.5,0-6.7,0c-3.7,0-7.1,0.3-10.8,0.3c-4.8,0.3-10.1,0.5-14.9,0.8
			c-4.1,0.3-7.8,0.3-11.9,0.3c-3,0-6,0-8.9-0.3c-0.4,0-0.7,0-1.1,0c-1.1,0-2.2-0.3-3-0.3c-4.5-0.5-8.9-1.1-13.4-2.1
			c-7.5-2.1-15.3-4.2-23.1-5.5c-2.2-0.3-4.1-0.8-6.3-1.1c-0.4,0-0.7,0-1.5,0.3c-0.4,0-1.1,0.3-1.1,0.5c0,0.5,0.4,0.5,1.1,0.8
			c0.7,0.3,1.9,0.3,3,0.5c6.7,1.1,13.4,2.4,19.8,3.9c4.1,1.1,8.2,2.4,12.3,3.4c5.6,1.3,11.2,2.4,16.8,3.2c7.1,1.1,14.2,1.8,21.3,2.6
			c4.8,0.5,9.7,0.8,14.2,1.1c3,0,6,0,8.9-0.3c0.7,0,1.5,0,1.9-0.8c0-0.5-0.7-0.8-1.5-1.1c-3.4-1.3-7.5-2.4-11.2-3.4
			c-0.4,0-0.7-0.3-1.1-0.5c1.5,0,3,0,4.1,0c3,0,6.3-0.3,8.9-1.1C510.2,771.7,511.3,771.4,512.4,770.6z"/>
		<path class="st7" d="M457.3,767.7c0.7,0,0.7-0.3,1.1-0.8c0-1.6,0.4-3.2,0.4-4.7c0-0.3,0-0.5-0.4-0.8c-2.2-0.3-4.1-0.5-6.3-0.8
			c-4.8-0.8-10.1-1.6-14.9-2.6c-6.3-1.3-12.3-2.6-18.6-3.9c-2.2-0.5-4.5-0.8-6.3-1.8c-0.4,0.3-0.4,0.8-0.4,1.3
			c-0.4,1.3-0.7,2.9-1.1,4.2c2.6,0.8,5.2,1.8,7.8,2.4c6.7,1.3,13.1,2.6,19.8,4.5C444.2,766.4,450.5,767.2,457.3,767.7z"/>
		<path class="st8" d="M424.4,715.4c0.7,1.6,3,3.2,5.2,3.2c2.2,0.3,4.1,0,6-0.3c3-0.5,6,0.3,7.5,2.1c0.7,1.1,1.1,2.4,1.5,3.4
			c0.7,2.9,2.2,5.8,3.7,8.7c0,0.3,0.4,0.5,0.7,0.5c1.9-1.3,3.7-2.6,6-3.7c1.1-0.5,2.2-0.8,3.7-1.1c0.7-0.3,0.4-0.5,0.4-1.1
			c-0.4-0.8-0.7-1.8-1.1-2.6c-0.4-1.1-0.7-2.1-0.7-3.2c-0.7-1.3-0.7-2.6-1.1-4.2l0,0c-0.4,0-0.4,0,0-0.3c-0.4-1.6-0.4-3.2-0.7-4.7
			c0-0.3-0.4-0.3-0.7-0.5c-2.2-0.5-4.5-0.5-6.7,0c-3.7,0.8-7.5,2.4-10.4,4.2c-1.5,0.8-2.2,1.1-4.1,0.3c-1.9-0.8-4.1-1.3-6.7-1.6
			C425.9,714.9,425.2,714.9,424.4,715.4z"/>
		<path class="st7" d="M412.1,762.7c2.2,0.3,4.1,0.8,6.3,1.1c7.8,1.3,15.7,3.4,23.1,5.5c4.1,1.1,8.9,1.8,13.4,2.1
			c1.1,0,2.2,0.3,3,0.3c-0.4-0.5-0.4-1.1-0.4-1.6c0-0.5,0-1.1,0-1.6c-2.2,0-4.1-0.3-6-0.5c-4.1-0.5-8.6-1.1-12.3-2.4
			c-3-0.8-6.3-1.8-9.7-2.6c-6.7-1.6-13.4-2.4-19.8-4.7c0,1.1-0.4,1.8,0.4,2.6c0.4,0.3,0.4,0.5,1.1,0.8
			C412.1,762.2,412.1,762.5,412.1,762.7z"/>
		<path class="st5" d="M477,761.1C477,761.1,477,761.4,477,761.1c2.6,0.3,4.8,0,7.5,0c3.7-0.3,7.5-0.5,11.2-0.5
			c4.5-0.3,8.6-0.3,13.1,0c0-0.5-0.7-0.8-1.5-1.1c-2.6-1.3-5.6-2.4-8.9-2.9c-0.7,0-1.1-0.3-1.9-0.5c0,0.3-0.4,0.3-0.4,0
			c-1.5-0.3-3-0.3-4.8-0.5c-3,0.3-5.6,0.8-8.2,2.1c-1.9,0.8-3.4,1.6-4.8,2.6C477.8,760.6,477.4,760.9,477,761.1L477,761.1z"/>
		<path class="st9" d="M508.3,760.6c-4.5-0.3-8.6-0.3-13.1,0c-3.7,0-7.5,0.5-11.2,0.5c-2.2,0-4.8,0.3-7.1,0.3c-1.1,0-1.9,0-3,0
			c-0.7,0.3-1.1,0-1.9,0c-1.9,0-3.7,0-5.6,0c-6.3-0.3-12.3-1.1-18.3-2.1c-7.5-1.1-14.9-2.9-22-4.2c-3.7-0.8-7.1-1.6-10.4-2.1
			c-1.5-0.3-2.6-0.8-3.4-1.6c-0.4,0.3-0.4,0.5-0.4,0.8c1.9,1.3,4.1,1.6,6.3,1.8c6.3,1.3,12.3,2.6,18.6,3.9c4.8,1.1,9.7,1.8,14.9,2.6
			c2.2,0.3,4.1,0.8,6.3,0.8c3.7,0.5,7.1,0.5,10.8,0.8c4.8,0,9.7,0,14.2-0.3c5.2-0.3,10.4-0.5,15.7-0.8c2.2,0,4.5,0,6.7,0
			c1.9,0,3.7,0,5.6,0.3C510.9,760.6,509.5,760.6,508.3,760.6z"/>
		<path class="st4" d="M455.8,717.5c0.4,1.3,0.4,2.9,1.1,4.2c1.5,0.3,2.2,2.4,1.1,3.2c0,0,0,0-0.4,0c0.4,0.8,0.7,1.8,1.1,2.6
			c0,0.5,0.4,0.8-0.4,1.1c0.7,0,1.9-0.3,2.2,0.5s0.4,1.3,0,2.1c0.7,1.3,1.5,2.6,2.6,3.9c1.1,0.3,1.9-0.3,2.6-0.3c0.4,0,0-0.3,0-0.5
			c-1.9-3.7-2.6-7.4-4.1-11.3c-0.4-1.3-1.1-2.6-2.6-3.7C458.4,718.3,457.3,717.8,455.8,717.5z"/>
		<path class="st9" d="M410.3,758.8c6.3,2.4,13.1,3.2,19.8,4.7c3.4,0.8,6.3,1.6,9.7,2.6c4.1,1.1,8.2,1.8,12.3,2.4
			c1.9,0.3,4.1,0.3,6,0.5c0-0.5,0.4-1.1-0.7-1.1c-6.7-0.5-13.1-1.3-19-3.2c-6.3-1.8-13.1-3.2-19.8-4.5c-2.6-0.5-5.2-1.6-7.8-2.4
			C410.3,758,410.3,758.3,410.3,758.8z"/>
		<path class="st8" d="M478.1,760.4c1.5-0.8,3-1.8,4.8-2.6c2.6-1.1,5.2-1.8,8.2-2.1c-0.4,0-0.4-0.3-0.7-0.3
			c-1.9-0.8-3.7-1.3-5.6-2.4c-3.4,0.3-7.1,0.3-10.1,1.6c1.1,0.5,1.9,1.1,2.6,1.8c0.7,1.1,0.7,1.8,0.7,2.9
			C478.1,759.8,478.1,760.1,478.1,760.4z"/>
		<path class="st8" d="M463.2,734.9c-0.7-1.3-1.5-2.6-2.6-3.9l0,0l0,0c-0.4-0.5-1.1-0.3-1.5,0c-1.5,0.3-2.6,1.1-3.7,1.6
			c-1.1,0.5-2.2,1.3-3.4,1.8c0.7,0,1.1-0.3,1.9-0.3c3-0.3,5.6,0,8.2,0.8C462.8,734.6,463.2,734.9,463.2,734.9z"/>
		<path class="st8" d="M451.3,737.2c1.1,0.8,1.5,1.8,2.6,2.6c0,0.3,0.4,0.3,0,0.5c-0.4,0.3,0,0.3,0.4,0.3c0-0.3,0.4-0.3,0.4-0.5
			c1.9-1.6,3.7-2.9,6-4.2C457.6,735.9,454.3,736.2,451.3,737.2z"/>
		<path class="st8" d="M465.1,737.2c-1.5,0.3-2.6,1.1-3.7,1.6c-1.1,0.5-1.9,1.1-3,1.6c0.7,0.3,1.5,0,2.2,0c2.2,0,4.5,0.3,6.7,0.8
			c0.4,0,0.7,0.3,1.1,0c-0.4-0.8-1.1-1.3-1.5-2.1C466.6,738.8,465.5,738,465.1,737.2z"/>
		<path class="st7" d="M452,743c-0.4,0.3-1.1,0.5-1.9,0.5c0.7,0.5,0.7,0.5,0.7,1.1c0,0.3-0.4,0.5,0,0.8c0.4,0.3,0.4-0.3,0.7-0.3
			c0,0.3,0,0.5,0,0.8c-0.4,1.1-1.5,2.1-3,1.8c-1.1,0-2.2-0.5-2.6-1.3c-0.4-0.8,0-1.8,1.1-2.1c1.5-0.5,2.6-1.6,4.5-2.4
			c0.4,0,0.4-0.3,0.7,0C452.8,742.2,452.4,742.8,452,743z M449.4,746.4c0-0.8-0.7-1.1-1.1-1.3c-0.4-0.3-0.4,0-0.4,0.3
			c-0.4,0.5-0.4,1.3,0.4,1.6c0.7,0.3,1.5,0,2.2-0.8C449.8,746.2,449.4,746.2,449.4,746.4z"/>
		<path class="st4" d="M484.8,753c1.5,1.1,3.7,1.8,5.6,2.4c0.4,0,0.4,0.3,0.7,0.3c1.5,0,3.4,0,4.8,0.5h0.4c-1.9-0.8-3.7-1.8-5.6-2.6
			c-1.1-0.5-2.6-0.5-4.1-0.5C486,753,485.2,752.7,484.8,753z"/>
		<path class="st4" d="M465.1,737.2c0,1.1,1.1,1.6,1.9,2.4c0.4,0.8,1.1,1.3,1.5,2.1l0,0c2.2-0.3,2.2-0.3,1.1-1.6
			c-0.4-0.5-1.1-1.3-1.5-1.8C467.3,736.7,466.9,736.7,465.1,737.2z"/>
		<path class="st8" d="M477.8,749.3c0.4,0.3,1.1,0.3,1.5,0.5c-0.7,0.3-1.5,0.5-2.6,0.3c-2.2-0.3-4.1-0.3-6.3-0.3
			c0.7-0.3,1.1-0.5,1.5-0.8c0.4,0,1.1-0.3,1.5-0.3c0.7,0.3,1.5,0.5,2.2,0.3c-0.7,0-1.1,0-1.5-0.5c0.7-0.3,1.5-0.5,2.2-0.8
			C477,748.3,477.4,748.8,477.8,749.3z M476.3,748.8L476.3,748.8L476.3,748.8C475.9,748.8,475.9,748.8,476.3,748.8
			C475.9,748.8,475.9,748.8,476.3,748.8C475.9,748.8,475.9,748.8,476.3,748.8L476.3,748.8z"/>
		<path class="st4" d="M476.3,747.7c0.7,0.3,1.1,0.8,1.9,1.3c0.4,0.3,1.1,0.3,1.5,0.5c1.1,0,1.9-0.5,3-0.5
			C481.1,747.7,478.1,747,476.3,747.7z"/>
		<path class="st7" d="M462.1,752.2c-1.9,0-3,0.5-3.4,1.6c-0.4,1.1,0.4,1.8,1.9,1.8c1.9,0.3,3.4-0.8,3.4-2.1
			c-0.4,0.3-1.1,0.5-1.5,0.5c-0.4,0.5-1.5,0.8-2.2,0.5c-0.4-0.3-0.4-0.5-0.4-0.8s0.4-0.5,0.7-0.8c0.4,0,0,0.5,0.4,0.5
			C461.4,753.3,461,752.5,462.1,752.2z"/>
		<path class="st7" d="M468.1,755.6c-1.5,0.3-2.2,1.3-2.2,2.1c0,0.8,1.5,1.3,2.6,1.1c1.9-0.3,2.6-1.3,3-2.6
			c-0.7,0.3-0.7,0.8-1.9,0.8l0,0c0,0,0,0.3-0.4,0.3c0,0.5-0.7,0.5-1.1,0.8c-0.4,0.3-1.1,0.3-1.1-0.3c0-0.5,0-1.1,0.7-1.1
			C467.7,756.4,468.1,755.9,468.1,755.6z"/>
		<path class="st8" d="M468.8,748C468.8,748,468.8,747.7,468.8,748c-1.9-0.3-3.7-0.5-5.6-0.3c0,0.3,0,0.8,0.7,0.8
			c0-0.3,0-0.3,0.4-0.5c0,0.3,0,0.5-0.4,0.5c0,0.3-0.4,0.3-1.1,0.5c1.5-0.3,2.2,0.3,3,0.8c0.4,0.3,0,0.5,0,0.5c0.4,0,1.1,0,0.4-0.5
			c-0.4-0.3,0.4-0.3,0.4-0.5c0.4-0.3,0.7-0.8,1.5-1.1C468.4,748.3,468.4,748,468.8,748z"/>
		<path class="st7" d="M444.9,738C444.6,737.8,444.6,737.8,444.9,738c-2.2,0.5-2.6,2.4-1.1,3.2c0.7,0.3,1.5,0.5,2.2,0.3
			c1.1-0.3,1.5-1.1,1.5-1.8c0-0.3,0-0.8,0.4-1.1c-0.7,0.3-0.7,0.8-1.5,1.1c0.4,0.5,0,0.8-0.7,0.8l0,0c0,0.3-0.4,0-0.4,0
			c-1.1-0.5-1.1-1.3,0-1.8C444.6,738.5,444.9,738.3,444.9,738z"/>
		<path class="st8" d="M457.6,743.3C457.6,743.5,457.3,743.5,457.6,743.3c0.4,0.5,0.7,1.1,1.9,1.1c0.7,0,0.7,0.8,1.5,0.8
			c0.7-0.5,1.9-1.3,2.6-1.8C461.4,743,459.5,743,457.6,743.3z"/>
		<path class="st4" d="M473.3,745.9c0.7,0,1.1-0.3,1.9-0.3c0.7,0,0.4-0.3,0.4-0.5c-0.7-0.3-1.1-0.8-1.9-1.3
			c-0.7-0.5-1.5-0.8-2.6-0.3c0,0.3,0,0.5,0.4,0.5C472.2,744.9,472.5,745.4,473.3,745.9z"/>
		<path class="st8" d="M473.3,745.9c-0.7-0.5-1.1-1.1-1.9-1.6c-0.4-0.3-0.4-0.3-0.4-0.5c-0.7,0.3-1.5,0.5-1.9,0.8
			c0,0.3-0.4,0.3-0.4,0.3l0,0c0,0,0.4,0,0.4,0.3c0.7,0.3,1.5,0.3,1.1,1.1h0.4c0,0,0,0,0.4,0l0,0c0.4,0,0.7,0,1.1,0.3
			C472.5,746.2,472.9,746.2,473.3,745.9z"/>
		<path class="st8" d="M469.9,751.9c0.4,0.3,1.1,0.8,1.9,0.8c0.4,0,0.4,0.3,0.4,0.5c1.1,0,1.9-0.8,2.6-1.6
			C472.9,751.4,471.4,751.4,469.9,751.9z"/>
		<path class="st8" d="M461.4,753.8c-0.4,0,0-0.5-0.4-0.5c-0.4,0-0.7,0.3-0.7,0.8c0,0.3,0,0.5,0.4,0.8c0.7,0.3,1.9,0.3,2.2-0.5
			C462.5,753.8,461.7,753.8,461.4,753.8z"/>
		<path class="st8" d="M467.7,756.7c-0.7,0-1.1,0.5-0.7,1.1c0,0.5,0.7,0.5,1.1,0.3c0.4,0,1.1-0.3,1.1-0.8
			C468.8,757.2,468.4,756.9,467.7,756.7z"/>
		<path class="st4" d="M486.3,751.4c-1.1-0.8-2.6-0.8-4.5,0C483.4,751.4,484.8,751.4,486.3,751.4z"/>
		<path class="st8" d="M444.9,738.8c-1.1,0.5-1.1,1.3,0,1.8h0.4l0,0v-0.3C445.3,739.9,445.3,739.3,444.9,738.8z"/>
		<path class="st8" d="M470.3,745.9c0.4-0.8-0.7-0.8-1.1-1.1c0,0-0.4,0-0.4-0.3c-0.4,0-0.4,0.3-0.7,0.3l0,0c0.4,0,1.1,0,1.5,0.3
			c0.4,0.3,0.4,0.5,0,0.5C469.6,745.9,469.9,745.9,470.3,745.9z"/>
		<path class="st8" d="M445.3,740.4v0.3c0.7,0,1.1-0.3,0.7-0.8C446.1,740.1,445.7,740.4,445.3,740.4z"/>
		<path class="st7" d="M468.4,755.1c-0.4,0-0.4,0.3-0.4,0.3C468.4,755.6,468.8,755.6,468.4,755.1z"/>
		<path class="st8" d="M468.8,744.6c0.4,0,0.4,0,0.4-0.3C468.8,744.3,468.8,744.3,468.8,744.6z"/>
		<path class="st8" d="M467.7,745.1L467.7,745.1h0.4C468.1,745.1,468.1,745.1,467.7,745.1L467.7,745.1z"/>
		<path class="st7" d="M469.6,757.2L469.6,757.2L469.6,757.2L469.6,757.2z"/>
		<path class="st10" d="M460.6,730.7C460.6,730.9,461,730.9,460.6,730.7C461,730.7,461,730.7,460.6,730.7z"/>
		<path class="st7" d="M431.9,751.7c-0.7-0.3-1.1-0.5-0.7-1.1c0-0.8,0-1.6,0.4-2.1c0.4-2.4,0.7-4.7,0-7.1c-0.4-1.3,0-2.6,0.7-3.9
			c1.1-1.6,3-2.6,4.8-3.7c0,0,0,0,0.4-0.3c0.4,0,0.4,0,0.4-0.3c0,0,0.4,0,0.4-0.3c0.7-0.3,1.9-0.5,2.2-1.3c0.4-0.5,1.1-1.1,1.9-1.1
			c1.1,0,1.5,0.5,1.9,1.1c0.7,1.3-0.7,2.9-2.2,2.6c-1.1-0.3-2.2,0.3-3,0.8c0,0-0.4,0-0.4,0.3l-0.4,0.3c-0.4,0-0.4,0.3-0.4,0.3
			c-2.2,0.8-3.7,3.2-3,4.7c0.4,1.3,0.4,2.6,0.4,3.7c-0.4,2.1-0.4,3.9-0.7,6c0,0.5-0.4,0.8-1.1,1.1
			C432.6,751.7,432.3,751.7,431.9,751.7z M443.1,732c-0.4-0.3-0.7-0.5-1.5-0.3c-0.4,0.3,0,0.5,0,0.8c0,0.5,0.7,1.1,1.1,1.6
			C443.5,733.3,443.5,732.5,443.1,732z"/>
		<path class="st3" d="M459.5,748.5c-0.4-0.5-0.7-0.8-0.7-1.6c0-0.3,0-0.5-0.4-0.5c-1.5,0.3-2.6,0.8-3.4,1.8l0,0l0,0
			c0,0.3-0.7,0.5-0.4,1.1c0,0.5,0,1.1,0.7,1.3c0.4,0,0.4,0.3,0.7,0c0.4-0.5,1.1-0.5,1.5-1.1c0.4-0.5,1.1-0.5,1.9-0.8
			C459.1,748.3,459.1,748.3,459.5,748.5L459.5,748.5z"/>
		<path class="st7" d="M440.5,726.7c-0.7,0.8-1.9,0.8-2.6,0c-0.7-1.1-0.7-2.1,0-2.9c0.4-0.5,0.7-0.5,1.5-0.5c0.7,0,1.1,0.3,1.5,0.8
			c0.4,0.5,0.4,1.1,0.4,1.3C441.2,725.9,440.8,726.5,440.5,726.7z M439.4,724.1c-0.7,0-0.7,0.8-0.7,1.3c0,0.3,0,1.1,0.7,1.1
			c0.7,0,0.7-0.5,0.7-1.1C439.7,724.9,440.1,724.1,439.4,724.1z"/>
		<path class="st7" d="M457.3,749.3c-0.7,0.3-1.5,0.5-1.5,1.1c-0.4,0.3-0.4,0-0.7,0c0,0,0,0.3-0.4,0.3c-0.4,0-1.1,0-1.5-0.3
			c-0.4-0.5,0-0.8,0.7-1.1c0-0.5,0.4-0.5,0.4-1.1c-0.7,0-1.1,0.3-1.5,0.5c-1.1,0.5-1.1,1.6-0.7,2.1c0.7,0.5,2.2,0.8,3.4,0.3
			C456.5,750.9,457.3,750.4,457.3,749.3z"/>
		<path class="st5" d="M433,751.7c-0.4,0-0.7,0-1.1,0c0.4,1.1,0,2.1,0,3.4c0,0.3,0,0.5,0.4,0.8c0.7,0,0.4-0.3,0.4-0.5
			C433,754,433,753,433,751.7z"/>
		<path class="st3" d="M472.2,761.4c0.7,0,1.1,0.3,1.9,0c-4.5-0.5-8.9-1.1-13.1-2.1C464.7,760.4,468.4,761.1,472.2,761.4z"/>
		<path class="st3" d="M455.4,755.9c0.7,0.8,1.9,1.1,3,1.6c1.9,0.8,3.7,1.1,5.2,1.6c0.4,0,0.4,0.3,0.7,0c0-0.3,0-0.3-0.4-0.3
			C461,758.3,458.4,757.2,455.4,755.9C455.8,755.9,455.4,755.9,455.4,755.9z"/>
		<path class="st3" d="M464.7,759.3c1.9,0.5,3.7,1.1,6,1.1c0.4,0,1.1,0.5,1.1,0c0-0.5-0.7-0.3-1.1-0.3c-1.5-0.3-3.4-0.5-4.8-1.1
			C465.5,759.3,465.1,759,464.7,759.3z"/>
		<path class="st11" d="M433.8,722.8c0-0.8-0.4-1.6-0.4-2.4c0-0.5-0.4-0.8-0.4-1.3c0,0,0-0.3-0.4-0.3s-0.4,0-0.4,0.3
			C432.6,720.4,433,721.5,433.8,722.8L433.8,722.8z"/>
		<path class="st3" d="M440.1,739.3c-0.4,0.3,0,0.5,0,0.8c0.4,1.1,0.7,2.1,1.1,2.9c0,0.3,0,0.3,0.4,0.3V743
			c-0.7-1.1-0.7-2.1-1.1-3.2C440.5,739.6,440.5,739.3,440.1,739.3z"/>
		<path class="st11" d="M434.5,722.8c0.7-0.5,0-1.1,0-1.3c0-0.8-0.4-1.6-0.4-2.4c0-0.3,0-0.3-0.4-0.3s-0.4,0.3-0.4,0.3
			C433.8,720.4,434.1,721.7,434.5,722.8z"/>
		<path class="st3" d="M437.1,733.8C437.1,733.6,437.1,733.6,437.1,733.8c0-1.3-0.7-2.4-1.1-3.4l0,0
			C436,731.5,436.4,732.8,437.1,733.8z"/>
		<path class="st3" d="M436.4,728.6c0.4,1.1,0.7,2.1,1.1,3.2h0.4C437.5,730.7,436.7,729.6,436.4,728.6L436.4,728.6z"/>
		<path class="st3" d="M435.3,725.1c0.4,1.1,0.4,2.1,1.1,3.2c0,0,0,0,0.4,0c-0.4-1.1-0.7-2.1-0.7-3.2
			C435.3,725.1,435.3,725.1,435.3,725.1z"/>
		<path class="st3" d="M477,761.1L477,761.1c-0.4-0.3-3.7-0.8-4.5-0.5C474,760.9,475.5,761.1,477,761.1z"/>
		<path class="st3" d="M439,735.4c0,0-0.4,0-0.4,0.3c0.4,0.5,0.4,1.1,0.7,1.8C439.4,736.7,439,736.2,439,735.4z"/>
		<path class="st3" d="M450.9,753.8c0.4,0.5,1.1,0.8,1.5,1.1C452.4,754,451.7,753.8,450.9,753.8z"/>
		<path class="st3" d="M458.7,758.3c0.4,0.5,1.1,0.5,1.9,0.8h0.4v-0.3C459.9,758.8,459.5,758.3,458.7,758.3z"/>
		<path class="st3" d="M447.9,752.7c0.4,0.5,1.1,0.8,1.9,1.3C449.4,753.5,449.1,753,447.9,752.7L447.9,752.7z"/>
		<path class="st3" d="M437.9,735.9c-0.4,0-0.4,0.3-0.4,0.3c0,0.3,0.4,0.5,0.4,0.8c0,0,0,0.3,0.4,0.3s0.4-0.3,0-0.3
			C438.2,736.7,438.2,736.2,437.9,735.9z"/>
		<path class="st3" d="M441.6,744.9c0,0.5,0,1.1,0.4,1.3l0.4,0.3c0.4,0,0-0.3,0-0.3C442,745.6,442,745.1,441.6,744.9z"/>
		<path class="st3" d="M440.1,739.1c0-0.8-0.4-1.1-0.4-1.6C439.4,738,439.4,738.3,440.1,739.1z"/>
		<path class="st3" d="M456.5,757.5c0.4,0.5,1.1,0.8,2.2,0.8C457.6,757.7,457.3,757.5,456.5,757.5z"/>
		<path class="st3" d="M447.6,751.2c0,0.5,0.4,0.8,0.7,1.1c0,0,0.4,0.3,0.4,0v-0.3C448.7,751.7,448.3,751.4,447.6,751.2z"/>
		<path class="st11" d="M434.5,724.6c0-0.5,0-1.1-0.4-1.6C433.8,723.6,433.8,724.1,434.5,724.6z"/>
		<path class="st3" d="M435.6,728.6c-0.4,0.5,0,1.1,0.4,1.6C436,729.6,436,729.1,435.6,728.6z"/>
		<path class="st3" d="M446.4,751.4c0,0.8,0.7,1.1,1.5,1.3l0,0C447.6,752.2,447.2,751.7,446.4,751.4L446.4,751.4z"/>
		<path class="st11" d="M434.1,725.1c0,0.5,0.4,1.1,0.4,1.6h0.4C434.9,725.9,434.9,725.4,434.1,725.1
			C434.5,725.1,434.1,725.1,434.1,725.1z"/>
		<path class="st3" d="M452,755.4c0.4,0.5,1.1,0.8,1.9,1.1c0,0,0,0,0-0.3C453.2,755.9,452.8,755.6,452,755.4L452,755.4z"/>
		<path class="st11" d="M435.3,724.9c0.4-0.8,0-1.3-0.4-1.8C434.5,723.6,434.9,724.1,435.3,724.9z"/>
		<path class="st3" d="M451.7,755.1c-0.4-0.5-0.7-0.8-1.5-1.1C450.5,754.8,450.9,755.1,451.7,755.1z"/>
		<path class="st3" d="M445.3,750.6c0-0.5-0.4-1.1-1.1-1.3l0,0C444.6,749.6,444.9,750.1,445.3,750.6L445.3,750.6z"/>
		<path class="st3" d="M453.9,756.4c0.4,0.5,1.1,0.5,1.9,0.8C455.4,756.9,455.4,756.9,453.9,756.4z"/>
		<path class="st3" d="M434.9,726.7c0,0.5,0,1.1,0.4,1.6C435.6,727.8,434.9,727.3,434.9,726.7z"/>
		<path class="st3" d="M445.7,749.6c0.4,0.5,0.7,0.8,1.1,1.1C447.2,750.1,446.8,749.8,445.7,749.6z"/>
		<path class="st3" d="M439.7,740.9c0-0.5,0-1.1-0.4-1.6C439,740.1,439.4,740.6,439.7,740.9z"/>
		<path class="st3" d="M453.2,754.8c0.4,0.5,1.1,0.8,1.9,1.1C454.3,755.4,453.9,755.1,453.2,754.8z"/>
		<path class="st3" d="M445.7,749.3c0-0.5-0.4-0.8-1.1-1.3C444.9,748.5,444.9,749.1,445.7,749.3z"/>
		<path class="st3" d="M440.5,742.8c0-0.5,0-1.1-0.4-1.3C439.7,742,440.1,742.2,440.5,742.8z"/>
		<path class="st3" d="M438.2,737.8c0,0.5,0,1.1,0.7,1.6C439.4,738.5,438.6,738.3,438.2,737.8z"/>
		<path class="st3" d="M440.8,743c-0.4,0.5,0,0.8,0.7,1.6C441.2,744.1,440.8,743.5,440.8,743z"/>
		<path class="st3" d="M437.9,733.3L437.9,733.3c0-0.5,0.4-0.8-0.4-1.1C437.1,732.8,437.5,733,437.9,733.3z"/>
		<path class="st3" d="M444.2,749.1c0-0.3,0-0.5-0.4-0.8h-0.4C443.5,748.8,443.8,748.8,444.2,749.1L444.2,749.1z"/>
		<path class="st3" d="M446.4,751.4c0-0.5-0.4-0.8-0.7-0.8l0,0C445.7,750.9,445.7,751.2,446.4,751.4L446.4,751.4z"/>
		<path class="st3" d="M442.7,747.2c0,0.3,0,0.3,0.4,0.5h0.4C443.1,747.5,443.1,747.2,442.7,747.2L442.7,747.2z"/>
		<path class="st3" d="M442.7,747.2c0-0.3,0-0.5-0.4-0.8C442.3,747,442.3,747,442.7,747.2L442.7,747.2z"/>
		<path class="st7" d="M459.5,748.5c0,0-0.4,0-0.4,0.3C459.1,748.5,459.1,748.5,459.5,748.5z"/>
		<path class="st7" d="M454.6,748.3L454.6,748.3L454.6,748.3z"/>
		<path class="st7" d="M458,724.9C458,724.9,458.4,724.9,458,724.9c1.5-0.8,0.7-2.6-0.7-3.2C457.3,722.8,457.6,723.8,458,724.9z"/>
		<path class="st8" d="M473.3,748.8c0.7,0.3,1.5,0.5,2.2,0.3c-0.7,0-1.1,0-1.5-0.5C473.7,748.8,473.3,748.5,473.3,748.8z"/>
		<path class="st8" d="M468.1,745.1h-0.4c0,0,0,0-0.4,0.3c0,0,0,0.3-0.4,0.3c0.4,0,0.7,0,1.1,0h0.4l0,0h0.4c0,0,0,0,0.4,0
			s0.7-0.3,0.4-0.5C468.8,745.1,468.4,745.1,468.1,745.1z"/>
		<path class="st8" d="M467.3,745.6c0,0,0-0.3,0.4-0.3C467.3,745.4,466.9,745.4,467.3,745.6C466.9,745.6,466.9,745.6,467.3,745.6z"
			/>
		<path class="st3" d="M468.8,745.9h-0.4C468.8,745.9,468.8,745.9,468.8,745.9z"/>
		<path class="st8" d="M468.4,745.6L468.4,745.6L468.4,745.6z"/>
		<path class="st8" d="M470.7,745.9L470.7,745.9L470.7,745.9z"/>
		<path class="st8" d="M450.2,745.9c-0.4,0.3-0.4,0.3-0.7,0.5c0-0.8-0.7-1.1-1.1-1.3c-0.4-0.3-0.4,0-0.4,0.3
			c-0.4,0.5-0.4,1.3,0.4,1.6C448.7,747,449.4,746.7,450.2,745.9z"/>
		<path class="st8" d="M475.9,748.8C476.3,748.8,476.3,748.8,475.9,748.8C476.3,748.8,476.3,748.8,475.9,748.8
			C476.3,748.8,476.3,748.8,475.9,748.8L475.9,748.8z"/>
		<path class="st10" d="M475.9,748.8L475.9,748.8L475.9,748.8L475.9,748.8L475.9,748.8z"/>
		<path class="st8" d="M464,748.5c0.4-0.3,0.4-0.3,0.4-0.5C464,748,464,748.3,464,748.5L464,748.5z"/>
		<path class="st10" d="M445.3,740.6h-0.4C444.9,740.6,445.3,740.9,445.3,740.6z"/>
		<path class="st8" d="M442.3,734.1c1.1-0.8,1.1-1.6,0.4-2.1c-0.4-0.3-0.7-0.5-1.5-0.3c-0.4,0.3,0,0.5,0,0.8
			C441.6,733,442,733.3,442.3,734.1z"/>
		<path class="st8" d="M453.9,749.3c-0.7,0.3-1.1,0.5-0.7,1.1c0.4,0.5,0.7,0.5,1.5,0.3c0.4,0,0.4-0.3,0.4-0.3
			C453.9,750.4,453.9,749.8,453.9,749.3z"/>
		<path class="st11" d="M440.1,725.4c0-0.5,0.4-1.1-0.7-1.1c-0.7,0-0.7,0.8-0.7,1.3c0,0.3,0,1.1,0.7,1.1
			C440.1,726.2,439.7,725.7,440.1,725.4z"/>
	</g>
	<g>
		<g>
			<path class="st2" d="M314.1,218.1c14.2,0,14.2-15.5,0-15.5C300.3,202.9,300.3,218.1,314.1,218.1L314.1,218.1z"/>
		</g>
	</g>
	<g>
		<g>
			<path class="st2" d="M163,657.4c14.2,0,14.2-15.5,0-15.5C148.9,641.9,148.9,657.4,163,657.4L163,657.4z"/>
		</g>
	</g>
	<g>
		<g>
			<path class="st2" d="M613.1,129.8c14.2,0,14.2-15.5,0-15.5C599,114.3,599,129.8,613.1,129.8L613.1,129.8z"/>
		</g>
	</g>
	<g>
		<g>
			<path class="st2" d="M726.1,763c14.2,0,14.2-15.5,0-15.5C712.3,747.5,712.3,763,726.1,763L726.1,763z"/>
		</g>
	</g>
	<path class="st8" d="M536.3,463.2c-6.3-12.3-12.7-24.7-18.6-37c45.9-10,71.2-36,70.5-79.9c-0.7-49.1-19-95.4-56.7-137.1
		c49.6-3.2,96.2,1.6,124.9,34.4c22,25.5,21.3,53.9,11.6,82.5c-17.9,53.1-33.6,68-49.2,110.3c-8.9,23.9-17.5,59.9-10.8,107.5
		C584,517.1,560.2,490.3,536.3,463.2z"/>
	<path class="st8" d="M458,393.3c-0.7,11-3,208.1-4.8,219.1c-5.2,30.5-29.5,104.8-29.5,104.8C398,747.7,357.3,615.9,347.3,587
		c-9.7-28.6-23.9-102.7-20.5-128.7c3-24.7,15.3-48.6,39.2-67.5c18.3-14.4,61.5-31.8,83.2-35.7c7.5-1.3,14.9,1.6,17.9,6.6l0,0
		c2.6,4.7,9.3,7.6,16.4,6.8c57.1-5.3-4.1,19.2-3.4,19.2C484.8,387.5,452.4,393.3,458,393.3z"/>
	<ellipse class="st12" cx="507.6" cy="159.8" rx="70.1" ry="49.4"/>
	<ellipse class="st13" cx="509.1" cy="160" rx="38" ry="26.8"/>
	<ellipse class="st14" cx="509.1" cy="161.9" rx="57.4" ry="40.5"/>
	<path class="st15" d="M346.1,103.8c15.7,43.3,27.6,76.5,39.9,110.6c-26.1,6-50.7,11.8-76.4,17.9c5.6,23.4,10.8,45.5,19.4,80.7
		c-25-41.5-42.5-70.4-61.5-101.4c28-4.2,52.6-7.9,78.3-11.8C346.1,170.5,346.1,142.2,346.1,103.8z"/>
	<path class="st16" d="M647.4,566.5c67.1,24.4,118.6,43.3,171.2,62.8c-13.1,22.1-25,43.1-37.7,64.6c33.9,15.2,65.6,29.4,117.1,52.3
		c-72-16.8-122.3-28.6-176.7-41.2c16.8-21.8,31.7-41.2,47-61.2C731.3,620.1,695.9,597.2,647.4,566.5z"/>
	<path class="st17" d="M437.9,387.8c24.2,6.6,49.2,10.8,74.6,14.4c29.8,4.5,59.3,2.9,88-4.5c16.8,37.8,7.8,130,29.5,182.9
		c3.4,34.7,6.3,76.5-0.7,78.6c0,0-16.4,58.3-17.5,59.1c-9.7,2.9-29.1,8.4-32.4,1.1c-6.7-16.3-12.3-14.7-7.5-29.2
		c-11.9-10-1.5-10.8-4.5-24.4c-3.4-15-1.9-23.1-8.2-52.8c-13.4-11.3-4.5-51-11.6-65.7c-10.1-21-4.5-49.1-18.3-69.9
		c-8.9,14.2-10.8,28.9-16.4,42.6c-15.3,38.4-14.9,78.6-23.1,118c-5.6,27.1-13.4,54.1-16.8,81.7c-1.1,10.2-9.3,9.5-17.9,8.9
		c-8.6-0.8-17.2-1.3-25.7-2.1c-7.1-1.8-10.4-6-10.1-12.3c0.4-5.5,0.4-10.8,0.7-16.3c2.2-25,3.7-49.9,1.5-75.1
		c-1.9-19.7,0.4-39.1,3.4-58.9c3.7-22.6,4.8-45.5,3.7-68.3C427,459.5,431.9,423.5,437.9,387.8z"/>
	<g>
		<path class="st18" d="M528.8,477.7c-16,28.4-26.8,49.4-30.9,75.7s-12.3,50.4-17.5,76.7c-6,30-10.1,61.7-7.1,92"/>
	</g>
	<path class="st19" d="M528.5,419.6c-9.3,14.7-24.2,25.7-40.3,35.7c-6.7,4.2-14.5,1.1-19.4-4.5c-8.6-9.5-16.8-19.2-25-28.9
		c-2.6-3.2-4.1-7.1-9.3-8.7c-3.7-1.8-0.7-3.9,0-5.8C464.7,416.2,496.4,419.9,528.5,419.6z"/>
	<path class="st19" d="M605.3,401.5c-5.6,16-10.8,32.3-19.8,47.3c-3.4,5.3-7.8,10.2-16,7.6c-19-6.3-36.2-15.2-48.1-29.2
		c26.1-5,50-13.9,73.8-22.6C598.2,403.3,601.9,402.5,605.3,401.5z"/>
	<path class="st3" d="M525.9,625.1l0.4,0.3C526.2,625.6,525.9,625.3,525.9,625.1z"/>
	<path class="st20" d="M529.6,69.4c-3.7,8.7-6.3,15.5-9.3,22.6c-6.3-0.8-11.9-1.3-18.3-2.1c-2.6,4.5-4.8,8.9-8.9,15.8
		c1.5-9.2,2.6-15.5,3.7-22.3c6.3,1.1,11.9,2.1,17.5,3.4C519.2,81.2,523.6,76.2,529.6,69.4z"/>
	<path class="st4" d="M397.2,302.7c3.7-13.4,8.6-26.8,15.7-39.4c8.2-14.4,20.1-25.7,42.5-29.4c8.2-1.3,20.1-3.4,28-5
		c3.7,2.1,3.4,4.2,7.1,6.6v0.3c-2.6,10.5,1.5,19.2,10.1,28.1c3.7,3.9,11.9,5.8,11.6,11.8l0,0c-3.7-0.5-7.1-1.8-9.3-4.2
		c-2.6-2.4-5.6-4.5-10.1-2.9c-3.4,1.3-1.9,3.2-0.7,5h-0.4h0.4c0.4,0.3,0.4,0.5,0.7,0.8c-0.4,0.5-0.7,1.1-0.7,1.3
		c-4.8,0.5-5.6,2.4-2.2,4.7c4.1,2.9,8.9,5.5,13.8,8.4c-3.4,1.1-6.7,1.6-8.2-0.3c-1.9-2.4-4.1-1.8-6-0.8c-2.6,1.3-1.1,2.9,0.4,4.2
		c3.4,3.4,9.7,1.3,13.1,3.9c8.2,6,20.5,7.9,28.3,14.7c8.6-6.8,16.8-13.4,25.4-20.5c-6.7-1.1-7.1-4.5-8.6-7.6
		c-3-6.6-2.6-13.9-8.9-19.7c-1.1-1.1-1.5-2.6-3.7-2.1s-2.2,2.1-2.2,3.4c-0.4,3.7,4.1,7.4,0.7,11.3c-9.3-2.1-14.2-8.1-21.3-12.3
		c0-0.3,0.4-0.3,0.4-0.5C527,255.9,538.5,248,546,237c0-0.5,0-0.8,0-1.3c0-1.6-0.4-2.9-0.4-4.5c0-0.8,0-1.3,0-2.1c0-0.5,0-1.1,0-1.6
		s0-1.1,0-1.6c0-0.5,0-1.1,0-1.6c0-2.1-0.4-3.9-0.4-6c0.4-0.3,0.7-0.5,0.7-0.8c19.4,10.5,44,12.6,64.9,20.2c2.6,1.1,4.8,2.9,7.5,4.2
		c17.9,23.6,25.4,49.4,23.5,75.9c-1.5,23.9-16,37.6-40.3,41.8c1.1,11.3,4.1,37.8,5.2,49.1c-7.8,11.6-84.3,44.1-171.5,0
		c-10.1-12.9,7.8-47.3,3.7-64.4c-4.8,6.3-17.2,4.7-17.5,4.2c0-2.4,0-4.7-0.4-6.8c0-1.1,0-1.8,0-2.9c0-3.4-0.4-6.6-0.4-10
		c0-0.8,0-1.3,0-2.1c0-0.3,0-0.3,0-0.5c0-2.6-0.4-5-0.4-7.6c0-0.5,0-1.3,0-1.8c-8.2-2.4-16,0.8-24.2,0.3
		C395.4,312.7,396.1,307.7,397.2,302.7z M496,302.7c-3.4,1.3-6.7,2.6-10.4,3.9c-2.2-1.8-4.5-3.9-6.7-5.8c-5.2,2.9-9.7,5.5-14.5,8.1
		c7.8-2.1,15.7-5.5,20.5,3.7C488.9,308.7,492.7,305.6,496,302.7C496,302.4,496.4,302.4,496,302.7C496.4,302.2,496,302.4,496,302.7z
		 M583.7,242.3c-5.6,7.1-9.3,12.3-13.4,17.6c-5.2-1.1-10.1-2.1-15.7-3.4c-1.1,7.1-1.9,13.7-3.4,23.1c3.4-7.1,5.6-11.6,7.8-16.3
		c5.6,0.8,10.8,1.3,16.4,2.1C577.7,258.6,580.3,251.5,583.7,242.3z M577.7,284.6c5.6-3.2,10.8-6,17.9-10
		c-10.1,2.4-17.9,8.1-22.4-0.5c-4.5,2.9-8.9,5.8-13.1,8.7C566.5,279.8,573.2,275.4,577.7,284.6z"/>
	<path class="st21" d="M553.1,189.2c0.4,0,0.4-0.3,0.7-0.3c3.4,3.7,4.5,7.4,0,11C555.3,196.3,555.7,192.6,553.1,189.2z"/>
	<path class="st21" d="M543.4,211.5c0.4,2.4,0.7,4.7,1.1,7.1c-0.4,0.3,0.7,18.9,0.4,19.2C541.9,237.8,541.9,214.2,543.4,211.5z"/>
	<path class="st21" d="M543.8,202.9c2.6-0.3,4.8-0.5,7.5-1.1C549,203.9,546.4,203.4,543.8,202.9z"/>
	<path class="st21" d="M550.8,201.8c0.4-0.3,0.7-0.3,1.5-0.5C552,201.5,551.6,201.8,550.8,201.8z"/>
	<path class="st21" d="M552.3,201.3c0.4-0.3,0.4-0.8,0.7-1.1C552.7,200.8,552.7,201,552.3,201.3z"/>
	<path class="st21" d="M553.1,200.5c0.4-0.3,0.4-0.3,0.7-0.5C553.5,200,553.1,200.2,553.1,200.5z"/>
	<path class="st22" d="M528.5,233.9c3,2.1,6,3.4,10.8,1.3c0,0,0.7-0.8,1.5-1.8c0.7,0.8,1.5,1.3,2.2,1.8c0.4-1.1,0.7-2.1,1.1-3.2l0,0
		c0,1.6,0.4,2.9,0.4,4.5c0,0.5,0,0.8,0,1.3c-7.5,11-19.8,19.7-33.6,26.3c-0.4,0-0.7,0-1.1-0.3c-1.9-1.3-3.4-1.8-5.6-1.1
		c-0.4,0.3-0.7,0.8-1.5,1.1c0,0,1.1-1.3,1.1-1.1l-1.1,1.3c0.4-0.3,0.4-0.8,0.7-1.1c3-1.8,4.5,0.5,6.7,0.5c0.4,0.3,0.4,0.3,0.7,0.5
		c6.7,4.2,11.6,10.2,21.3,12.3c3.4-3.9-1.1-7.4-0.7-11.3c0-1.6,0-2.9,2.2-3.4c2.6-0.5,3,1.1,3.7,2.1c6,5.8,6,13.1,8.9,19.7
		c1.5,3.2,2.2,6.6,8.6,7.6c-8.9,7.1-17.2,13.7-25.4,20.5c-7.8-6.8-20.1-8.7-28.3-14.7c-3.4-2.6-9.7-0.5-13.1-3.9
		c-1.5-1.3-3-2.9-0.4-4.2c2.2-1.1,4.1-1.6,6,0.8c1.9,2.1,5.2,1.3,8.2,0.3c-4.8-2.9-9.7-5.5-13.8-8.4c-3.4-2.4-2.2-4.2,2.2-4.7
		c0.7,0,1.5,0.3,1.9,0.3c0.4,0.3,0.7,0.5,0.7,0.8l0.4-0.3c-0.4-0.3-0.7-0.5-1.1-0.5c-0.4-0.5-1.1-1.1-1.5-1.6
		c-0.4-0.3-0.4-0.5-0.7-0.8l0,0c-1.1-1.8-2.6-3.9,0.7-5c4.5-1.6,7.5,0.5,10.1,2.9c2.6,2.4,5.6,3.7,9.3,4.2h0.4c0,0,0,0-0.4,0
		c0.7-6-7.8-8.1-11.6-11.8c-8.6-8.7-12.7-17.6-10.1-28.1c0.7,0,1.1,0,1.9,0l0,0c0.7,0.3,1.5,0.3,1.9,0.5c0.4,3.9,0.7,7.9,1.1,11
		C508.7,245.9,519.5,241.2,528.5,233.9z M497.5,278.3c0,0-0.4,0-0.4-0.3C497.2,278,497.2,278.3,497.5,278.3c0,0.3,0,0.3,0.4,0.3
		C497.5,278.3,497.5,278.3,497.5,278.3z M499,278.8c0,0-0.4,0.3,0,0.3c0,0,8.6,5.3,0.4,0.3l0.4-0.3C499.4,279,499.4,279,499,278.8z"
		/>
	<path class="st20" d="M583.7,242.3c-3.4,9.2-6,16-8.6,23.4c-5.6-0.8-10.8-1.6-16.4-2.1c-2.2,4.7-4.5,9.2-7.8,16.3
		c1.5-9.5,2.2-16,3.4-23.1c5.6,1.3,10.4,2.4,15.7,3.4C574.3,254.6,578.1,249.4,583.7,242.3z"/>
	<path class="st20" d="M542.3,357.9c7.8,7.6,13.4,13.7,19.8,19.7c-4.5,2.4-8.6,4.7-13.1,7.4c3.7,4.2,7.1,8.4,12.3,14.7
		c-9.3-6.8-15.7-11.6-22.7-16.8c4.8-2.1,9.3-4.2,13.8-6.3C549.4,370.7,546.4,365.2,542.3,357.9z"/>
	<path class="st20" d="M462.8,118.8c-8.2-7.1-14.5-12.6-21.3-18.4c4.1-2.9,7.8-5.8,11.6-8.7c-4.1-4.2-7.8-7.9-13.8-13.9
		c9.7,6.3,16.8,10.5,23.9,15.2c-4.5,2.6-8.6,5-12.7,7.6C454.6,106.2,458,111.4,462.8,118.8z"/>
	<path class="st20" d="M458.7,271.4c6.7-0.3,13.1-0.8,23.5-1.3c-12.7,2.6-21.3,4.7-30.6,6.6c-0.7-3.9-1.1-7.6-1.9-11.3
		c-8.6-0.5-16.4-1.1-29.1-1.8c13.8-1.6,23.9-3.2,33.6-3.2c3.4,0,1.9,5,3,7.4C458,268.8,458.4,270.1,458.7,271.4z"/>
	<path class="st20" d="M577.7,284.6c-4.5-9.2-10.8-4.7-17.5-1.8c4.5-2.9,8.6-5.8,13.1-8.7c4.5,8.7,12.3,2.9,22.4,0.5
		C588.5,278.5,583.3,281.4,577.7,284.6z"/>
	<path class="st20" d="M455,297.4c-4.5-14.7-10.8-7.6-17.5-3.2c4.5-4.7,8.6-9.5,13.1-14.2c4.5,14.2,12.3,4.7,22.4,1.1
		C465.8,287.7,460.6,292.2,455,297.4z"/>
	<path class="st20" d="M496,302.7c-3.4,3.2-6.7,6-11.2,10c-4.8-9.2-12.7-5.8-20.5-3.7c4.8-2.6,9.3-5.3,14.5-8.1
		c2.2,2.1,4.5,3.9,6.7,5.8C489.3,305.3,492.7,304,496,302.7L496,302.7z"/>
	<path class="st21" d="M419.2,327.1c0-2.6-0.4-5-0.4-7.6C418.8,322.1,418.8,324.5,419.2,327.1z"/>
	<path class="st21" d="M544.1,230.7c0-0.3,0-0.8,0-1.1c0,0.8,0,1.3,0,2.1l0,0C544.1,231.5,544.1,231.2,544.1,230.7z"/>
	<path class="st20" d="M496,302.7C496,302.4,496.4,302.2,496,302.7C496.4,302.4,496,302.4,496,302.7L496,302.7z"/>
	<path class="st21" d="M419.2,329.7c0-0.8,0-1.3,0-2.1C419.2,328.4,419.2,329,419.2,329.7z"/>
	<path class="st20" d="M491.9,235.7c-0.7,0-1.1,0-1.9,0v-0.3C490.8,235.4,491.2,235.7,491.9,235.7z"/>
	<path class="st21" d="M544.1,228.3c-0.4,0-0.4,0-0.7,0c0-0.5,0.4-1.1,0.4-1.3C544.1,227.3,544.1,227.8,544.1,228.3z"/>
	<path class="st21" d="M544.9,237.8c0-0.5,0-0.8,0-1.3C544.9,236.7,544.9,237.3,544.9,237.8z"/>
	<path class="st21" d="M491.2,273.8L491.2,273.8L491.2,273.8z"/>
	<path class="st21" d="M409.9,367.8L409.9,367.8c0-0.3,0.4,0,0.4,0S410.3,367.8,409.9,367.8z"/>
	<path class="st21" d="M475.5,221.8c0,0.3,0,0.5,0,1.1C475.5,222.6,475.5,222,475.5,221.8z"/>
	<path class="st21" d="M528.5,233.9c-8.9,7.4-19.8,12.3-33.6,13.7c-0.4-3.2-0.7-7.1-1.1-11c0.4,0,0.4,0,0.7,0l0,0
		c8.2,2.1,15.7,0.8,23.1-2.1l0,0c1.1-0.3,2.2-0.8,3.4-1.1l0,0c0.4-0.3,0.7-0.3,1.5-0.5l0,0c0.7-0.3,1.5-0.3,1.9-0.5l0,0
		c0.4-0.3,0.4-0.3,0.7-0.5c1.9-0.8,3.7-1.6,6.7-3.2C530.3,231.2,529.2,232.5,528.5,233.9z"/>
	<path class="st23" d="M512.8,218.9c0.7-1.3,1.9-2.6,2.6-3.9c0.4-0.3,0.4-0.3,0.7-0.5c2.2-1.1,4.1-1.6,5.6,0.8
		C518.8,216.5,515.8,217.6,512.8,218.9L512.8,218.9z"/>
	<path class="st20" d="M517.7,234.4c-7.5,2.6-14.9,3.9-23.1,2.1C502.4,236.7,510.2,236,517.7,234.4z"/>
	<path class="st21" d="M542.3,196.8c0.4-3.7,3.4-5.3,7.8-6c-0.4,1.1-0.7,1.8-0.7,2.6C544.5,191.6,544.9,195.5,542.3,196.8z"/>
	<path class="st20" d="M521,233.3c-1.1,0.3-2.2,0.8-3.4,1.1C518.8,233.9,519.9,233.6,521,233.3z"/>
	<path class="st20" d="M494.5,236.2c-0.4,0-0.4,0-0.7,0c-0.7-0.3-1.5-0.3-1.9-0.5C492.7,236,493.8,236.2,494.5,236.2z"/>
	<path class="st20" d="M524.4,232.3c-0.7,0.3-1.5,0.3-1.9,0.5C523.3,232.5,523.6,232.5,524.4,232.3z"/>
	<path class="st21" d="M506.8,192.1c0.4,0,0.7,0,1.1,0C507.6,192.1,507.2,192.1,506.8,192.1z"/>
	<path class="st20" d="M522.5,232.8c-0.4,0.3-0.7,0.3-1.5,0.5C521.4,233.1,522.1,233.1,522.5,232.8z"/>
	<path class="st20" d="M502,193.4C502,193.4,502.4,193.4,502,193.4C502.4,193.4,502,193.4,502,193.4L502,193.4z"/>
	<path class="st21" d="M480.4,193.1c0.4,0,0.7,0.3,1.1,0.3C481.1,193.1,480.7,193.1,480.4,193.1z"/>
	<path class="st22" d="M516.2,214.4c-0.4,0.3-0.4,0.3-0.7,0.5C515.8,214.7,516.2,214.4,516.2,214.4z"/>
	<path class="st23" d="M512.8,218.9L512.8,218.9L512.8,218.9z"/>
	<path class="st21" d="M551.6,188.4c0.4,0,0.4,0.3,0.7,0.3C552,188.7,552,188.4,551.6,188.4z"/>
	<path class="st20" d="M525.1,231.8c-0.4,0.3-0.4,0.3-0.7,0.5C524.7,232.3,524.7,232,525.1,231.8z"/>
	<path class="st24" d="M530.7,179.7c0-1.1-0.4-2.4-0.4-3.4C530.3,177.6,530.3,178.7,530.7,179.7z"/>
	<path class="st25" d="M534.8,190c-0.4-0.3-0.4-0.3-0.7-0.5C534.1,189.5,534.4,189.7,534.8,190z"/>
	<path class="st25" d="M474,197.9c0-1.1,0-2.1,2.2-1.8C476.6,197.6,475.9,197.9,474,197.9L474,197.9z"/>
	<path class="st25" d="M490.4,191.8c0-1.1-0.4-2.1-0.4-2.9C492.3,189.7,493.1,190.8,490.4,191.8z"/>
	<path class="st20" d="M517.7,181.8c-0.7,0-1.1,0-1.9,0C516.5,181.8,516.9,181.8,517.7,181.8z"/>
	<path class="st25" d="M507.2,186.6c-0.7,0.3-1.1,0.3-1.9,0.5C506.1,186.8,506.5,186.6,507.2,186.6z"/>
	<path class="st25" d="M489.7,192.9c0.4-0.3,0.4-0.5,0.7-1.1C490.1,192.3,490.1,192.6,489.7,192.9z"/>
	<path class="st25" d="M513.6,191.6c0.4,0,0.7-0.3,0.7-0.3S513.9,191.3,513.6,191.6z"/>
	<path class="st25" d="M505.4,186.8c-0.4,0.3-0.4,0.3-0.7,0.5C505,187.4,505.4,187.1,505.4,186.8z"/>
	<path class="st21" d="M504.6,262.2c2.2-0.8,5.2,0.3,7.5,1.6c0,0-0.4,0.3-0.4,0c-1.9-0.3-4.8-2.9-7.8,0
		C499.8,267.5,502.4,262.5,504.6,262.2z"/>
	<path class="st21" d="M505,262.8c-0.4,0.3-1.1,0.5-1.5,1.1l0,0C503.9,263.3,504.2,263,505,262.8C504.6,262.8,504.6,262.8,505,262.8
		z"/>
	<path class="st4" d="M491.2,273.8c0.4,0.3,17.5,10.2,17.9,10.5l-14.9-7.4c-0.4-0.3-4.8-1.3-4.8-1.6
		C488.9,275.4,490.8,274.1,491.2,273.8z"/>
	<path class="st24" d="M511.7,275.6C511.7,275.6,511.7,275.9,511.7,275.6C511.7,275.9,511.7,275.9,511.7,275.6L511.7,275.6z"/>
	<path class="st21" d="M503.5,263.8c0,0-0.4,0-0.4,0.3C503.1,263.8,503.1,263.8,503.5,263.8C503.1,263.8,503.5,263.8,503.5,263.8z"
		/>
	<g>
		<path class="st25" d="M513.6,191.6c-0.4,0-1.1,0.3-1.5,0.3c-1.5,0-2.6,0.3-4.1,0.3c-0.4,0-0.7,0-1.1,0c-2.6-1.1-2.6-2.6-1.9-4.5
			h-0.4c0.4-0.3,0.4-0.3,0.7-0.5l0,0c0.7-0.3,1.1-0.3,1.9-0.5c5.6,1.3,5.2-3.4,8.6-4.5c0.7,0,1.1,0,1.9,0c6.3,4.5,1.1,6.8-3,9.5
			C514.3,191.3,513.9,191.3,513.6,191.6z"/>
		<path class="st25" d="M478.9,192.6c-3-1.6-5.6-3.7-3-6c2.6-2.6,4.1,0.8,6.3,1.3c2.2,0.8,5.2,0.8,7.8,1.1c0,1.1,0.4,2.1,0.4,2.9
			l0,0c-0.4,0.3-0.4,0.5-0.7,1.1v-0.3c-2.6,0.3-5.6,0.3-8.2,0.5c-0.4,0-0.7-0.3-1.1-0.3S479.3,192.9,478.9,192.6z"/>
		<g>
			<path class="st25" d="M544.1,230.7c0,0.3,0,0.8,0,1.1c-0.4,1.1-0.7,2.1-1.1,3.2c-0.7-0.8-1.5-1.3-2.2-1.8
				c-0.7,1.1-1.5,1.6-1.5,1.8c-4.8,2.1-7.8,0.8-10.8-1.3c0.7-1.3,1.9-2.6,3.4-5c-3,1.3-4.8,2.1-6.7,3.2c-0.4,0.3-0.4,0.3-0.7,0.5
				l0,0c-0.7,0.3-1.5,0.3-1.9,0.5l0,0c-0.4,0.3-0.7,0.3-1.5,0.5l0,0c-1.1,0.3-2.2,0.8-3.4,1.1l0,0c-7.5,1.8-15.3,2.4-23.1,2.1l0,0
				c-0.7-0.3-1.9-0.3-2.6-0.5l0,0c-0.7-0.3-1.1-0.3-1.9-0.5c-3.7-2.1-9.3-11.3-13.4-15.2c-5.6-7.6-4.5-10.8-6-17.3
				c-0.4-2.1-0.4-4.5,3.7-5l0,0c0,0.5,0,1.1,0.4,1.6c1.5-0.3,3-0.8,4.1-1.1c0-0.8,0.4-1.8,0.4-2.6c2.6,2.4,5.6,3.4,9.7,1.6
				c-2.6-0.8-4.8-1.3-7.1-1.8c1.5,0,3-0.3,2.6-0.3c0,0-1.9-2.9-3.7-0.3c-0.7,0.3-1.1,0.5-1.9,0.8c0-1.1,0-2.1-0.4-3.2
				c0.4,0.3,0.7,0.3,1.5,0.5c0.4,0,0.7,0.3,1.1,0.3c2.6-0.3,5.6-0.3,8.2-0.5c0,0.8-0.4,1.6-0.4,2.1c2.2,0.5,4.5,0.8,6.3,1.3
				c1.1,4.7,1.9,9.2,3,13.7c0.4,0,0.7,0,1.1-0.3c-0.7-4.7-1.9-9.5-2.6-14.2c0.7,0,1.5-0.3,1.5-0.3c0.7-1.3,1.1-2.4,1.5-3.4
				c0.7,0.5,1.5,1.1,1.9,1.6h0.4h-0.4c-0.4-1.1-0.7-2.4-0.7-3.4c1.1-0.8,2.6-1.6,3.7-2.4c-0.7,1.8-1.1,3.4,1.9,4.5
				c0.4,0,0.7,0,1.1,0c1.5,0,2.6-0.3,4.1-0.3c1.1,1.1,1.9,2.1,3,2.9c-0.7,0.3-1.9,0.8-3.7,1.3c6.7,1.1,9.7-0.8,10.8-4.5
				c0.7,0.3,1.1,0.5,1.9,0.8c2.2-0.8,4.5-1.6,6.7-2.6c0.4,0.5,1.1,1.3,1.5,1.8c2.2,0.3,2.6-0.8,2.6-1.8c1.9,0.8,3.7-1.3,5.6-2.6
				c3.4-2.4,8.9-1.3,13.1,0.8c0.4,0-1.1-0.5-1.1-0.5c0.4,0,1.5,0.5,1.9,0.5c2.6,3.4,1.5,8.1-0.4,11.8l0,0c-0.4,0.3-0.4,0.3-0.7,0.5
				l0,0c-0.4,0.3-0.4,0.8-0.7,1.1l0,0c-0.4,0.3-0.7,0.3-1.5,0.5l0,0c-2.6,0.3-4.8,0.5-7.5,1.1c0,2.9,0,5.8-0.4,8.7
				c0,2.6-0.4,5.3-0.4,7.9 M542.3,196.8c2.6-1.3,2.2-5,6.7-3.4c0.4-0.8,0.4-1.6,0.7-2.6C545.6,191.6,543,193.1,542.3,196.8z"/>
			<path class="st25" d="M466.2,183.7c0.4-4.5,1.1-8.7,1.5-13.7c10.1,3.9,10.8-3.2,17.9-6.8c7.5-3.9,27.2-10,35.1-3.4
				c13.1-3.2,15.7,6.3,17.5,12.3c0,1.1,4.5,6,4.5,7.1c1.1,3.2-9.7,6.8-8.6,10c0.4,0.3,0.4,0.3,0.7,0.5l0,0c0,1.3-0.4,2.1-2.6,1.8
				c-0.4-0.5-0.7-1.1-1.5-1.8c-2.2,0.8-4.5,1.6-6.7,2.6c-0.4-0.3-1.1-0.5-1.9-0.8c-2.2,1.1-4.8,2.1-7.1,3.2c-1.1-1.1-1.9-2.1-3-2.9
				c0.4,0,1.1-0.3,1.5-0.3c0.4,0,0.7-0.3,0.7-0.3c4.1-2.6,9.3-5,3-9.5c-0.7,0-1.1,0-1.9,0c-3.4,1.1-3,5.8-8.6,4.5
				c-0.7,0.3-1.1,0.3-1.9,0.5l0,0c-0.4,0.3-0.4,0.3-0.7,0.5h0.4c-1.1,0.8-2.6,1.6-3.7,2.4c-2.2,0-0.4,1.3-1.1,1.8
				c-0.4,1.1-1.1,2.1-1.5,3.4c-0.4,0-1.1,0.3-1.5,0.3c0.7,4.7,1.9,9.5,2.6,14.2c-0.4,0-0.7,0-1.1,0.3c-1.1-4.5-1.9-8.9-3-13.7
				c-1.9-0.3-4.1-0.8-6.3-1.3c0-0.8,0.4-1.6,0.4-2.1v0.3c0.4-0.3,0.4-0.5,0.7-1.1l0,0c2.2-1.3,1.9-2.1-0.4-2.9
				c-2.6-0.3-5.2-0.5-7.8-1.1c-2.2-0.5-3.7-3.9-6.3-1.3c-2.6,2.6,0,4.7,3,6c0,1.1,0,2.1,0.4,3.2l0,0c0,0.8-0.4,1.8-0.4,2.6
				c-1.5,0.3-2.6,0.8-4.1,1.1c0-0.5-0.4-1.1-0.4-1.6c1.5,0,2.6-0.5,2.2-1.8c-2.2-0.3-2.2,0.8-2.2,1.8c-4.1,0.5-4.1,2.9-3.7,5
				c1.5,6.3,5.6,9.2,7.5,15.8c-1.9-4.5-4.1-5-6-9.5C470.7,200.8,467.7,191.8,466.2,183.7z"/>
			<path class="st25" d="M515.1,194.7c2.2-1.1,4.8-2.1,7.1-3.2c-1.1,3.9-4.1,5.5-10.8,4.5C513.2,195.5,513.9,195.2,515.1,194.7z"/>
			<path class="st25" d="M481.9,195.5c2.2,0.5,4.5,1.3,7.1,1.8c-4.1,1.8-7.1,0.8-9.7-1.6l0,0c0.7-0.3,1.1-0.5,1.9-0.8l0,0
				C481.1,195,481.5,195.2,481.9,195.5L481.9,195.5z"/>
			<path class="st25" d="M481.9,195.5L481.9,195.5c-0.4-0.3-0.7-0.5-1.1-0.5l0,0c1.5-2.4,3.7,0.3,3.7,0.3
				C484.8,195.2,483.4,195.5,481.9,195.5z"/>
			<path class="st25" d="M500.1,191.8c0.7-0.5-1.1-1.8,1.1-1.8c0.4,1.1,0.7,2.4,0.7,3.4l0,0C501.3,192.9,500.9,192.3,500.1,191.8z"
				/>
			<path class="st25" d="M480.7,195c0.4,0.3,0.4,0.3,0.7,0.5C481.5,195.2,481.1,195,480.7,195z"/>
		</g>
	</g>
	<path class="st26" d="M470.3,202.9c1.5-4.5-10.4-28.6-0.4-29.2c1.1,0,10.1-7.1,22-7.1c7.1,0,13.1-2.6,20.9-2.4
		c30.2,1.3,16.4,24.7,20.1,27.6c2.2,1.6,16.8-7.6,19-3.9c8.2-17.1-1.1-28.4-16.4-39.7c-8.9-6.6-23.1-6.3-34.3-6.8
		c-15.3-0.8-29.5,5.3-42.9,11c-0.4,0.3-0.4,0.3-0.7,0.5c-3,2.9-4.1,6-2.2,9.5C461.4,173.2,459.9,187.1,470.3,202.9z"/>
	<path class="st27" d="M499,327.1c0.4-0.8-22.7-7.4-30.9-9.5c-1.9-0.5-6-2.4-17.2-4.5c-3.7-0.8,0.4-13.1-1.5-11.6
		c-0.7,0.5-6,8.1-8.6,11.8c-1.5,1.8-1.9,3.9-0.7,5.8c0.7,1.1,1.5,2.1,3,2.1c5.6,0,20.1,1.8,20.1,1.8
		C484.5,324.8,498.6,327.9,499,327.1z"/>
	<path class="st28" d="M613.5,357.1c12.3-2.9-28.3-16.6-42.5-25.7c-23.1-14.7-48.8-30.2-40.6-18.1c4.1,6.3,19,19.7,27.6,27.6
		C594.8,375.5,594.5,361.5,613.5,357.1z"/>
	<path class="st22" d="M496.4,328.4c-3-0.5-6.3-1.1-9.3-1.8l0,0c-20.5-2.4,16.8,20,16.8,20l16.8,3.7c11.6-1.1,22.7-3.9,35.8-3.2
		c8.6,0.5,4.5-3.2,3.7-3.9l-19.4-0.5c-3.7-2.6,13.8-3.4,14.5-3.9l7.8-1.3c1.1-0.5,0.4-2.6-0.7-2.9c-2.6-0.8-19,0.8-21.3,0.3
		c-1.5-0.3,1.1-3.7,8.2-5.3c2.2-0.5,8.9-2.4,11.2-3.4c3.7-3.9,1.1-3.9-1.5-3.9c-3,0.5-20.5,6-23.1,5s5.6-4.2,7.1-5
		c1.1-0.8,9.3-3.7,10.4-4.5c4.1-2.6,2.6-3.4-0.7-4.2l-22.4,5.3c-0.7,0.3-7.8,2.6-8.2,1.8c-1.1-2.9,3.7-8.4,2.6-10.8
		c-0.4-1.1-2.2-1.3-3-0.5c-7.8,6.3-15.7,12.3-23.1,18.7C497.5,328.4,496.8,328.4,496.4,328.4z"/>
	<path class="st4" d="M487.5,325c-20.5-1.6-22.4-1.8-44.7-3.9c-1.1,0-1.5,0.8-3-2.1c-1.1-2.1,0-5,0.7-5.8c0.7-0.8,2.2-3.2,2.2-3.2
		c-3.7-1.1-9.3-3.7-16-6.6c-6.3-2.6-14.5-2.9-22.4-0.5c-5.6,1.6,0-21-2.2-17.3c-3.4,6.3-14.9,37.3-17.5,43.9
		c-3.7,9.5,4.5,19.4,17.5,21c19.4,2.6,34.3,7.1,54.8,4.5c3-0.3,15.7-1.6,16.8-1.6c6.7-0.5,5.6,2.1,13.4,1.6c-3,0.3,11.6-3.4,16-3.9
		c6-0.8,8.6,1.6,11.2-2.9c0,0-5.6-11.3-11.2-17.1c-3.7-3.7-9.3-6-15.3-6.6C487.8,325,487.5,325,487.5,325z"/>
	<path class="st28" d="M519.9,351.3c0,0.8-11.9,5.3-16.8,8.7c-10.4,6.8-16,5.5-33.2,10c-1.5,0.3-13.8,3.4-14.9,3.7
		c-10.8,1.1-17.2,4.2-22,4.5c-0.7,0,5.2-23.9,5.2-23.6C438.2,357.3,519.5,348.4,519.9,351.3z"/>
	<path class="st27" d="M594.1,284.3c-2.2,4.2-3,5.8-6.3,8.7c-2.2,2.1-22-2.1-24.6-1.1c4.5,0.8,28,13.7,32.4,14.4
		C597.5,302.7,592.2,288.5,594.1,284.3z"/>
	<path class="st19" d="M490.8,235.7c3.7-0.5-4.8,7.6,3.4,17.1c7.5,8.4,9.7,8.9,8.6,10.2c-1.5,1.8-11.9,0-17.2-1.6
		c-7.1-1.8-1.9-7.1-3-13.4C481.9,244.1,486.7,236.2,490.8,235.7z"/>
	<path class="st19" d="M544.9,234.4c-2.2-1.6-2.6,10.2-16.8,18.7c-13.1,7.6-14.9,7.6-15.3,9.5c-0.4,2.6,8.9,3.2,14.5,2.9
		c7.1-0.3,7.5-7.6,13.8-14.4C544.5,246.5,547.5,236.2,544.9,234.4z"/>
	<path class="st29" d="M505.7,219.4c4.8,0,10.4,2.4,7.8,2.9c-0.7,2.9-5.2,3.4-9.7,3.7c-3.7,0.3-10.1,0.8-10.1-1.6
		C493.8,221,503.1,220.5,505.7,219.4z"/>
	<path class="st30" d="M714.5,399.9c8.2,5,10.8,9.5,19,19.2c3.7,4.2,8.9,9.7,15.7,16.6c1.1,1.3,3.7,1.3,4.8,0
		c9.7-10.8,11.2-21.8,16-31.8c0.4-0.8,0-1.6-0.7-2.1c-8.6-6.3-16.4-11.8-23.9-17.6c-8.2-6.6-15.7-13.4-19-21.8
		c-2.6-6.6,1.9-11,10.4-13.7c9.3-2.9,16.4-0.5,22,5.3c4.8,5,7.8,10.8,10.1,16.6c1.9,4.2-0.4,15.2,7.8,18.9
		c0.7,0.3,7.1-16.6,9.3-21.3c4.1-8.9,6-11.3,8.6-21.8c1.9-8.1,4.5-12.6,5.6-16c1.9-5.3,6.7-14.4,11.2-18.7c8.9-8.1,19-3.4,28,3.9
		l2.2,2.4c4.5,5.5,3.7,5.5,1.1,10.2c-4.5,8.1-20.9,23.1-29.1,30.7c-13.4,12.3-23.9,32.8-30.9,47.8c-0.4,0.5,6.3-17.1,7.1-17.1
		c5.2,0,11.9-3.7,14.9-5.8c6-3.9,13.1-6.8,20.5-8.9c8.2-2.4,15.7-1.1,20.5,4.2c4.8,5.3,4.1,10.2-2.2,14.4c-7.8,5-17.5,7.1-27.6,8.9
		c-10.4,1.8-20.9,2.9-32.4,4.5c-1.1,0-1.9,0.5-1.9,1.3c-4.1,8.7-9.3,17.1-10.8,27.3c-0.4,1.6,2.2,2.9,4.1,2.4
		c23.1-6.8,34.3-24.7,63.8-19.7c0.4,0,6.3,1.3,8.9,2.6c16,8.4,6.3,14.2-7.8,19.4c-16.8,6-36.2,6.3-54.8,7.9c-6,0.5-12.3-0.5-19,1.6
		c-0.7,0.3-1.1,0.5-1.1,1.1c-4.5,9.7-7.8,20.2-9.7,32.1c-0.4,1.6,2.2,2.9,4.1,2.4c26.1-7.1,43.3-21,73.8-16.8c0.4,0,4.5,0.8,6.7,1.8
		c18.3,8.4,8.2,17.6-9.7,21.5c-16,3.4-33.2,3.2-50.3,2.4c-7.8-0.3-15.7-0.8-24.6-1.3c-1.5,0-2.6,0.5-3,1.3
		c-4.8,11-4.8,22.9-7.8,33.9c-0.4,1.1,0.7,2.1,2.2,2.4c8.2,1.8,12.3-1.3,16.8-3.2c14.9-5.5,30.2-11.3,47.4-13.9
		c13.4-2.1,24.2,0.5,28,6.6c4.5,7.1-0.4,14.4-13.1,18.1c-19.4,5.8-41,4.5-62.3,3.9c-6,0-11.9-1.8-17.9-0.8c-0.7,0-1.5,0.5-1.5,1.1
		c-3,3.9-4.8,8.4-7.1,12.6c-2.6,4.5-13.1,1.6-10.8-3.2c1.9-3.7,3.7-7.1,4.8-11.3c0.4-0.8-0.7-1.8-1.9-2.4c-8.2-2.4-16-4.2-23.1-6.8
		c-19.4-7.1-39.9-12.3-54.8-24.2c-7.8-6-11.9-11.8-8.2-19.2c0.4-0.5,0.7-0.8,1.5-1.1c13.8-5,21.6-4.5,33.2,2.6
		c14.2,8.7,27.2,18.1,38.4,28.9c3.7,3.4,7.5,6.6,12.7,11c1.5,1.3,4.8,1.1,5.2-0.8c2.6-13.1,5.2-24.4,7.5-36c0-0.8-0.4-1.6-1.5-2.1
		c-7.5-3.4-14.9-5.5-21.6-8.1c-22.4-8.7-46.6-16.6-58.9-33.4c-0.4-0.5-0.4-0.8-0.4-1.3c0.7-3.4-1.5-7.4,3.4-11.6
		c6-3.7,14.2-2.9,23.1,0.5l0.4,0.3c21.3,11.8,35.1,27.8,53.7,43.3c1.5,1.3,4.5,1.1,5.2-0.5c4.5-11.3,7.8-21.3,8.9-30.5
		c0-0.8-0.4-1.6-1.5-1.8l-48.5-23.1c-1.5-0.5-19.8-8.4-20.1-20c0-0.8,0-9.2,7.5-11.3C698.5,389.9,710.8,397.5,714.5,399.9z"/>
	<path class="st30" d="M130.2,485c18.6,2.1,27.6,6,52.2,13.1c10.4,3.2,25.4,7.4,44,11.8c3.4,0.8,7.1-0.3,7.1-2.1
		c0.4-16.6-11.6-29.7-16.8-43.1c-0.4-1.1-1.9-1.8-3.7-2.1c-20.5-3.2-38.8-6-57.1-9.2c-20.5-3.7-40.3-8.1-55.6-16
		c-12.3-6.3-11.2-13.4-2.2-20c10.1-7.4,23.1-7.9,38.8-3.7c13.4,3.7,25,8.7,35.8,14.2c8.2,3.9,19,17.3,35.1,17.9
		c1.5,0-10.4-21.8-13.4-28.1c-5.2-11.8-5.6-15.5-14.9-28.4c-7.5-10-8.9-16-11.9-20.8c-3.7-6.6-8.9-19.4-7.5-26
		c2.6-13.1,23.5-12.1,45.9-7.9c0.4,0,6,1.6,6.3,1.8c13.4,4.5,12.7,4.7,14.5,11c3.7,11-1.5,35.5-4.1,47.6c-3.7,19.7,6.7,47.6,14.9,68
		c0.4,0.8-12.7-22.1-11.2-22.6c7.8-2.4,12.7-9.2,14.5-13.1c3.4-7.1,10.1-13.4,18.6-19.2c8.9-6.3,21.3-8.1,35.8-4.2
		c13.8,3.7,19,9.7,14.9,17.1c-5.2,8.9-16.8,15.8-29.5,22.3c-12.7,6.6-26.8,12.3-41.8,19.2c-1.1,0.5-1.9,1.3-1.5,2.4
		c5.2,11.6,8.2,23.4,18.6,35.7c1.5,1.8,6.7,2.4,8.9,0.8c25-18.1,18.6-43.1,68.2-50.4c0.7,0,10.8-1.6,16.8-1.1
		c34.3,2.4,27.6,13.1,13.1,25.2c-16.8,14.2-44.7,23.1-70.5,33.4c-7.8,3.2-18.6,4.7-25.4,10.2c-0.7,0.5-0.7,1.1-0.4,1.8
		c6,12.9,14.2,26.3,26.1,40.5c1.5,1.8,6.7,2.4,8.9,0.8c29.1-19.7,36.9-42.8,86.5-51.5c0.7,0,7.5-1.1,12.3-0.8
		c37.7,1.3,34.3,16.3,13.1,28.6c-19,11-44.4,18.4-70.5,25c-11.9,3.2-23.9,6-37.3,9.5c-1.9,0.5-3,1.6-2.6,2.6
		c7.1,14.7,21.6,27.8,31.3,41.8c0.7,1.3,3.4,2.1,6,1.8c14.5-1.3,16-6.8,20.5-10.8c14.9-12.9,29.8-26,51.5-36.5
		c17.2-8.4,35.8-10.2,49.2-5c15.3,6,17.5,16.6,3.7,26.5c-21.3,15.2-54.8,23.1-86.1,32.3c-8.9,2.6-19.8,3.2-27.2,7.1
		c-0.7,0.5-1.5,1.1-1.1,1.8c0.7,6,3.4,11.6,5.6,17.3c2.2,6.3-17.2,7.4-19.8,1.3c-1.9-4.7-3.4-9.7-6.7-15c-0.7-1.1-3.4-1.8-5.6-1.8
		c-15.3,1.1-28.7,2.1-42.1,2.4c-36.9,0.5-73.8,3.4-111.1-3.2c-19-3.4-32.8-8.1-36.5-17.9c-0.4-0.5,0-1.3,0.7-1.8
		c13.8-11.6,25.7-14.7,51.8-11.8c32.1,3.4,63,8.4,92.8,15.5c9.7,2.4,19.4,4.2,32.4,6.8c4.1,0.8,8.2-1.1,6.7-3.2
		c-12.7-16-23.5-30-34.7-44.1c-0.7-1.1-2.6-1.6-4.8-1.8c-14.9-0.5-28.7,0.3-42.1,0.3c-44,0.3-88.7,2.1-128.6-11.6
		c-1.1-0.3-1.5-0.8-2.2-1.3c-3.4-4.2-11.6-7.6-9.3-14.4c3.7-6.8,17.2-9.5,34.3-9.5c0.4,0,0.7,0,1.1,0c45.9,3.9,86.5,16,133.1,25.2
		c3.7,0.8,7.8-0.8,6.7-2.9c-7.8-15-15.3-27.6-25.4-38.6c-0.7-0.8-2.6-1.6-4.5-1.6l-100.3-4.7c-2.6,0-39.5-0.8-54.8-13.7
		c-1.1-0.8-11.6-10.2-3.4-16C94.1,481.1,122,484.2,130.2,485z"/>
</g>
</svg>
