<?xml version="1.0" encoding="utf-8"?>
<!-- Generator: Adobe Illustrator 25.3.1, SVG Export Plug-In . SVG Version: 6.00 Build 0)  -->
<svg version="1.1" id="Ebene_1" xmlns="http://www.w3.org/2000/svg" x="0px" y="0px"
	 viewBox="0 0 724 783" style="enable-background:new 0 0 724 783;" xml:space="preserve">
<style type="text/css">
	.st0{fill:#6B9080;}
	.st1{fill:#F6FFF8;}
	.st2{fill:#86A89D;}
	.st3{fill:#255149;}
	.st4{fill:#E3F0F6;}
	.st5{fill:#D6EAF4;}
	.st6{fill:#E27D03;}
	.st7{fill:#F89562;}
	.st8{fill:#BC6650;}
	.st9{fill:#24260D;}
	.st10{fill:#FE6841;}
	.st11{fill:#DD7957;}
	.st12{fill:#2D2D2D;}
	.st13{fill:#E57D61;}
	.st14{fill:#FDFCFC;}
	.st15{fill:#A4C3B3;}
	.st16{fill:#E2E8E5;}
	.st17{fill:#FBD8BA;}
	.st18{fill:#E0F1F8;}
	.st19{fill:#EFBF9B;}
	.st20{fill:#D6D4D3;}
	.st21{fill:#F4F6F8;}
	.st22{fill:#D7D5D6;}
	.st23{fill:#CECCCC;}
	.st24{fill:#CAC8C8;}
	.st25{fill:#C3C0C2;}
	.st26{fill:#C1BEBE;}
	.st27{fill:#A9A5B0;}
	.st28{fill:#C8C5C6;}
	.st29{fill:#B5B3BD;}
	.st30{fill:#D4D2D1;}
	.st31{fill:#A8A4B2;}
	.st32{fill:#CCD9E4;}
	.st33{fill:#C1BFC5;}
	.st34{fill:#F2F8FB;}
	.st35{fill:#FBE5D3;}
	.st36{fill:#FCE6D4;}
	.st37{fill:#FCE6D3;}
	.st38{fill:#F4B27C;}
	.st39{fill:#F4B37D;}
	.st40{fill:#FBE4D0;}
	.st41{fill:#F7C397;}
	.st42{fill:#F8C499;}
	.st43{fill:#FCFDFD;}
	.st44{fill:#F9FBFC;}
	.st45{fill:#F9FCFD;}
	.st46{fill:#FAFCFD;}
	.st47{fill:#D6D4D4;}
	.st48{fill:#D2D0D1;}
	.st49{fill:#D2D0D0;}
	.st50{fill:#CDCBCD;}
	.st51{fill:#CECCCE;}
	.st52{fill:#BFBDC4;}
	.st53{fill:#B8B5BF;}
	.st54{fill:#B0ACB9;}
	.st55{fill:#B7B4BD;}
	.st56{fill:#ACAAB6;}
	.st57{fill:#ADAAB6;}
	.st58{fill:#C8C6C6;}
	.st59{fill:#ABA8B4;}
	.st60{fill:#C3C0C6;}
	.st61{fill:#BFBCC4;}
	.st62{fill:#B1AEBA;}
	.st63{fill:#FDFDFD;}
	.st64{fill:#CCE3DE;}
	.st65{fill:#FF5F5F;}
	.st66{fill:#DFE5E1;}
	.st67{fill:#CDE4DE;}
</style>
<g>
	<path class="st0" d="M237.6,161.9c-41.6,13.4-58-14.2-108.2-5.8C79.6,164.5,22.4,204,11.2,254c-13.7,61.1,54,80.8,59.8,164.2
		c6,86.4-63,117.5-46.9,188.9c10.3,45.8,50.7,86.8,93.9,103.4c118,45.4,211-108.5,344.6-67.7c65.5,20,77.9,67.5,135.3,61.9
		c54.8-5.4,114.3-55.8,116.8-108c3.4-71.4-102.9-83.3-121-172.8c-18.3-90.2,79.3-127.9,69.8-239.1c-5.6-65.6-46.8-136.8-111.1-165.6
		C476-14.9,381.1,16.9,328.8,65.4C284.6,106.3,283.8,147,237.6,161.9z"/>
	<path class="st1" d="M406.6,541.9c56.1,39.8,72.2,57.8,121.7,20.3c49.5-37.5,73.7-54.2,61.3-82.9c-12.4-28.7-47.5-37.5-23.6-69
		c24-31.5,45.1-58.2,23.1-94.3c-18.7-30.7-60.5-21.4-71.8-54.2c-11.3-32.8,7.1-55.1-2.9-88.9c-6.4-21.9-33.4-59.1-78.8-36.5
		c-88.6,44.2-64.5,13-104.2,13.4c-40.7,0.4-63.7,22.3-70.6,60.3s50.3,47,34.5,73.5c-15.8,26.5-38.4,40.7-21.2,54.5
		c17.2,13.8,38.1-5.3,42.2,35.8c4.2,41.1-31,73.1-0.4,94.9c30.5,21.8,88.9-4.3,89.7,34.4C406.6,541.9,406.6,541.9,406.6,541.9z"/>
	<g>
		<g>
			<path class="st2" d="M383.5,152.4c-1.1,0.3-2.2,0.5-3.3,0.7c-0.3,0-0.6,0.1-0.8,0.1c0.7-0.1,0,0-0.1,0c-0.6,0.1-1.2,0.1-1.9,0.2
				c-2.3,0.2-4.6,0.1-6.9-0.1c-0.6,0-1.1-0.1-1.7-0.2c-0.3,0-0.6-0.1-0.8-0.1c0.7,0.1,0,0-0.1,0c-1.2-0.2-2.4-0.4-3.6-0.6
				c-2.3-0.5-4.6-1-6.9-1.6c-9.5-2.5-18.8-5.7-28.6-6.9c-15.8-2-32,3-44.7,12.4c-13.3,9.8-23.3,24-26.9,40.3
				c-2.2,9.8-2.3,20.3,0.7,30c2.9,9.2,8.8,16.7,14.6,24.2c-0.4-0.6,0.5,0.7,0.6,0.8c0.3,0.4,0.7,0.9,1,1.3c0.7,0.9,1.4,1.9,2.1,2.8
				c1.3,1.8,2.5,3.7,3.7,5.6c0.5,0.8,0.9,1.6,1.4,2.5c0.2,0.4,0.4,0.8,0.6,1.2c0.1,0.2,0.3,0.7,0-0.1c0.1,0.3,0.2,0.5,0.3,0.8
				c0.7,1.7,1.2,3.5,1.6,5.3c0.2,0.9,0.4,1.7,0.5,2.6c0,0.2,0.1,0.8,0-0.1c0,0.2,0.1,0.4,0.1,0.7c0,0.4,0.1,0.9,0.1,1.3
				c0.1,1.8,0.1,3.7-0.1,5.5c0.1-1,0,0.1-0.1,0.4c-0.1,0.4-0.2,0.8-0.3,1.2c-0.2,0.8-0.4,1.6-0.7,2.4c-0.1,0.4-0.6,1.2-0.1,0.4
				c-0.2,0.4-0.3,0.7-0.5,1.1c-0.2,0.4-0.4,0.7-0.6,1c-0.2,0.3-1.1,1.5-0.4,0.6c-0.5,0.6-1,1.1-1.5,1.6c-0.3,0.3-0.6,0.5-0.9,0.8
				c-0.4,0.4,0.6-0.3,0.1-0.1c-0.2,0.1-0.4,0.3-0.6,0.4c-1.8,1.2-2.8,3.8-1.5,5.8c1.2,1.8,3.8,2.8,5.8,1.5
				c6.8-4.4,9.8-12.1,9.9-20.1c0.1-8-2.4-15.8-6.6-22.5c-2.5-3.9-5.3-7.6-8.2-11.3c-0.3-0.4-0.7-0.9-1-1.3c0.4,0.5,0,0-0.1-0.1
				c-0.2-0.2-0.3-0.4-0.5-0.6c-0.7-1-1.5-1.9-2.2-2.9c-1.3-1.7-2.5-3.5-3.7-5.4c-1.2-1.9-2.3-3.9-3.2-5.9c0-0.1-0.4-0.9-0.2-0.4
				c0.2,0.4-0.2-0.4-0.2-0.5c-0.2-0.5-0.4-1.1-0.6-1.6c-0.4-1.2-0.7-2.3-1.1-3.5c-0.3-1.1-0.5-2.3-0.7-3.4c0-0.3-0.1-0.6-0.1-0.9
				c0-0.1-0.1-0.8,0-0.2c-0.1-0.7-0.2-1.3-0.2-2c-0.2-2.4-0.3-4.8-0.1-7.2c0-1.1,0.1-2.2,0.2-3.3c0-0.3,0.1-0.6,0.1-0.9
				c0-0.1,0.1-1,0.1-0.5c-0.1,0.5,0.1-0.4,0.1-0.5c0.1-0.4,0.1-0.7,0.2-1.1c0.4-2.2,0.9-4.4,1.5-6.6c0.5-1.9,1.2-3.8,1.9-5.7
				c0.1-0.2,0.6-1.5,0.3-0.7c0.2-0.4,0.4-0.9,0.6-1.3c0.4-0.9,0.9-1.8,1.3-2.7c0.9-1.8,1.9-3.5,3-5.1c0.5-0.8,1-1.6,1.6-2.4
				c0.3-0.4,0.6-0.8,0.8-1.2c0.2-0.2,0.9-1.2,0.4-0.6c2.4-3.1,5.1-6,8-8.6c0.7-0.6,1.4-1.3,2.1-1.9c0.4-0.3,0.7-0.6,1.1-0.9
				c0.2-0.1,0.4-0.3,0.6-0.4c-0.5,0.4-0.2,0.1,0.1-0.1c1.6-1.2,3.2-2.3,4.8-3.3c1.6-1,3.3-2,5-2.8c0.8-0.4,1.6-0.8,2.4-1.1
				c0.4-0.2,0.8-0.4,1.3-0.6c-0.8,0.3-0.2,0.1,0,0c0.3-0.1,0.6-0.3,1-0.4c3.5-1.4,7.1-2.4,10.8-3c0.5-0.1,0.9-0.2,1.4-0.2
				c0.2,0,0.5-0.1,0.7-0.1c0.6-0.1-0.7,0.1-0.1,0c1-0.1,1.9-0.2,2.9-0.3c1.9-0.1,3.8-0.2,5.7-0.1c0.9,0,1.7,0.1,2.6,0.2
				c0.5,0,1,0.1,1.5,0.2c0.3,0,0.6,0.1,0.9,0.1c-0.8-0.1,0.6,0.1,0.6,0.1c2.3,0.4,4.5,0.8,6.8,1.3c4.7,1.1,9.3,2.5,13.9,3.8
				c9.1,2.6,18.7,5.1,28.3,4.2c2.5-0.2,4.9-0.6,7.4-1.3c2.1-0.6,3.6-3,2.9-5.2C388,153.2,385.8,151.8,383.5,152.4L383.5,152.4z"/>
		</g>
	</g>
	<g>
		<path class="st3" d="M248.2,623.1c-8.9,1.1-16.3,7.6-19,16.6l-7.8,26l-2.2,7.5c-4.5,15.2,6,30.7,21,31.2l121.8,3.6
			c14,0.4,25-12.5,23.2-27.1l-5.7-45.9c-1.6-12.6-12.2-21.8-24.3-20.8l-103.1,8.4L248.2,623.1z"/>
		<path class="st3" d="M440.7,566.6c-30.4,27.5-53-28-72.8-20c-7.7-4.5,21.3,124.5,13.6,120c-1.3-7.3-15.8-21.3-17.1-28.7
			c3.5-3.2-19.8,13.6-15.9,10c-2.2-5.7,5.3-11.6,3-17.5c-0.6-1.5,15-22,13.4-21.8c-4.2,0.5-6.1,2.3-7.6,4.2
			c-27.9,35.2-60.7,29.4-94.8,13.1c-1.2-0.6-2.6-0.5-4-0.7c-24-6.8-29.8,8.8-44.3-136.9c2.8,46.6,18,91.1,20.5,134.1
			c-24.6,12.6-39.3,22.1-31.9,49.1c-5.4,3.1-12.5,4.5-17.8,7.5c-21.2,0.1-24.6-29-26.1-44.2c-4.7-46.5-3.2-93.4,13.1-138.5
			c7.4-20.3,20.1-29.2,39.8-28.8c8.7,0.2,17.4,0.2,26.2,0.3c1.9,9.5,8.1,33.2,11.9,41c8,16,14.3,22.6,30.6,25.4
			c6.1,1,24.4-8.5,29.9-18.1c9.8-17.2,14-37.9,20.6-57.2c31.3-20.4,51.8-18.9,67,16.1c2.5,5.7,5.9,12.6,6.7,14.8
			c2.2,4,4.1,2.8,6.4,4.3C442.1,513.7,450.2,524.6,440.7,566.6z"/>
		<path class="st4" d="M242,465.7c1.2-0.6,2.7-2.4,4-2.1c5.6,17,8.8,35.5,17.4,50.5c10,17.4,29.2,18.4,38,3
			c9.3-16.3,13.7-37,20.7-54.8c0.1-0.3,0.3-0.6,0.6-0.7c2.5-1.3,5.8-1.1,8.2-2.6c-6.6,19.2-10.8,40-20.6,57.2
			c-5.5,9.6-15.7,20.1-29.9,18.1c-15-2-16.6-2.9-26.8-17.4c-5-7.1-13.8-39.5-15.7-49C239.3,466.6,240.6,467,242,465.7z"/>
		<path class="st5" d="M356.6,407.6c-0.4-5.5-0.8-11-1.2-16.4"/>
		<path class="st6" d="M262.4,625.9c-8.9-1.1-23.5-0.6-32.2-1.4c-7.2-0.6-7.6,4.5-7.5-7.7c0.1-39.7-2.8-85.1-5.4-128.1
			C232.6,536.2,225,617.2,262.4,625.9z"/>
		<path class="st7" d="M245.9,364.9c5.8-13.2,12.7-21.7,29.4-18.3c8.3,1.7,18.3-5.3,28.6-8.8c-6,23.3,17,9.1,25.6,19.7
			c6.9,26.3-3.7,49.4-18.5,71.4c-18.3,11-35.8,10.3-52.2-4.4C254.6,404.6,250.2,384.7,245.9,364.9z"/>
		<path class="st7" d="M315.2,447.1c2.2,4.4,3.8,8.3,6,12.6c1.3,2.7,1.5,5.9,0.4,8.7c-6.3,16.6-11.5,33.8-20.1,48.9
			c-8.8,15.4-28,14.3-38-3c-6-10.5-12.5-33-16.4-46.9c-0.7-2.4-0.5-4.9,0.5-7.2c0.4-0.9,9.8-20.7,10.8-22.9c10-4.1,7.4,13,17.4,8.8
			c12.4,4.9,23.8,4.9,36.7-6.9l0.2,0.9C313.2,442.4,314,444.8,315.2,447.1z"/>
		<path class="st8" d="M258.3,437.2c0.2-4.2,0.4-8.5,0.6-12.7c16.4,14.7,33.8,15.4,52.2,4.4c0,3.9,2.6,13.5,0.8,16.9
			C304.2,460.8,275.1,452.4,258.3,437.2z"/>
		<path class="st9" d="M364.7,515.6c0.5,0.2,0.4,3.3,6.9,11.7c5.2,6.7,4.3,11.8,8.7,20.4c0,0.1,0.4,0.5,0.3,0.7
			c-0.5,1-7.8-4.2-11.4-1.6c-2.3,1.6-1.5,7.1-1.6,9.9c-0.1,4.4,0.5,5.8,0.1,6.7c-0.5,0.8-5.6,0.5-7.6-7.7c-0.4-1.6,0.5-9,0.6-9.5
			C360.9,537.7,362.2,514.5,364.7,515.6z"/>
		<path class="st10" d="M258.9,424.5"/>
		<path class="st11" d="M351.8,608.4c-1.5-0.6-3.3-1.8-4.2-3.7c-3.7-7.8,19.1-14.7,9-22.5c-0.8-0.6-7.5,4.6-28.8,24.8
			c-45.8,3-85.4,6.9-133.4,14.9c-3.4,0.6-6.5,2.8-8.2,6c-10.6,20.2-15,51.1,3.4,48.7c11.9-2.9,46.2-19.1,57.3-24.4
			c4-1.9,7.6-3.9,8.7-4.6c32.1-20.4,59.2-26.8,90.8,4.7c2.1,2.1,10.6,9.5,10.9,3.6c0.2-3.6-11.9-13.5-12.3-16.9
			c-0.8-5.3,6,0.7,9.6,3.1c9.4,6,21.6,6.8,15.8-0.1c-1.7-1.3-2.6-1.9-7.3-4.1c-10.5-4.9-17.1-9.2-13.8-11.7
			c0.8-0.6,6.2,3.2,14.2,5.5c8.7,2.5,12,4.4,14.6,1.8c2.4-4.5-1.3-4.6-7.6-7.5c-8.8-4-20-5.4-18.5-7.2c0.8-1,4.4-1.3,26.2,1.2
			c3.3-4.4-1.9-6.8-10.5-8.6C366.2,611.1,352.5,609,351.8,608.4z"/>
		<path class="st12" d="M310.4,304.9c-7.3-3.5-13.5-4.4-19.7-4.6c-16.7-0.4-16,1-28.8,4.4c-35.7,9.3-35.8,27.1-41.6,48.8
			c-6.4,23.8-2.5,28.6-4.3,52.6c-0.2,2.9-0.1,5.6-2.7,7.3c-4.6,6.2-9.3,12.3-14.8,17.5c-17.8,16.8-22.5,38.1-19.4,62.1
			c2.5,19,5.9,37.9,8.9,56.9c1.4,9.1,3.4,18.5,1.2,27.6c-10.7,42.8,8.1,62.8,44.1,69.9c3.7,0.7,7.5-0.8,9.5-4.1
			c10.4-16.8,6.2-35.3,1.5-53.1c-7.9-29.4-18.9-57.9-23.6-88.3c-6.3-41.6,29.9-21.3,37.7-64.8c0-1.4,3.4-10.8-1.8-29.1
			c-2.1-7.3-10-28.1,17.2-21.1c10.6,2.7,14.9-13,20.7-21.4c2.6-3.8,2.8-11,8.5-10.6c5.8,0.4,7.8,7.1,10.3,11.9
			c3.7,7.3,2.7,15.1,1.3,22.8c-0.5,1.8-0.8,3.7-1.2,5.5c-0.5,8.8,10.7,12,7.1,18.6c-2.2,4-6,11.7-11.8,16.6
			c-2.1,4.2,4.1,16.1,9.2,24.9c2.9,4.9,9,6.5,13.7,3.5c13.3-8.6,5.8-3.7,31.1-11.5c8.4-2.6,19,4.2,19.8,5.1
			c18.8,18.9,2.7-11.6-5.3-18.4c-4.8-4-20-15.7-21.2-16.6c-12.1-9.1-23.9-27.4-21.1-40.2C342.2,342.1,341.2,319.7,310.4,304.9z"/>
		<path class="st13" d="M323.2,376.1c1.3,0.9,3.2,1.9,5.3,1.5c8.2-1.3,0.6-24.9,12.4-20.6c0.8,0.3,0.7,7-1.7,28.4
			c-0.8,6.9,0.7,14,4.2,20c20.6,35,32.1,66.9,66.1,87.7c7,4.3,2.9,10.4-9.4,16.7c-18.2,9.3-18.5,16.7-31.9,8.4
			c-1.7-1-3.7-1.9-4.8-3.5c-1.7-2.5-2.2-1.5-10.2-16.5c-5-9.5-7.6-27.6-7.6-28.6c-2.4-38.4-11.6-54.2-53.6-63.7
			c-2.8-0.6-13.4-3.9-9-7.5c2.7-2.2,17.3,2.6,20.2,1.2c4.6-2.3-4-4.8-7.8-6.6c-10-4.8-17.5-14.9-8.9-13.8c2,0.7,3,1.2,7.4,4
			c9.8,6.3,16.9,9.6,17,5.4c0-1-6.1-3.6-12.4-9.2c-6.9-6.2-10.3-7.9-9.7-11.6c2.2-4.7,4.3-1.5,10.2,2.3c8.1,5.3,15.6,14.3,16.1,11.9
			c0.3-1.3-1.4-4.6-15.8-22c1.6-5.3,6.4-2.2,12.7,4.2C313,365.1,322.3,375.8,323.2,376.1z"/>
		<path class="st9" d="M372.9,551.8"/>
	</g>
	<path class="st14" d="M301.9,424.5c-9.1-3-17.6,0.3-26.1-1.6c2.6-8,6.4-10.6,14-10.2C296.1,413,300,416.3,301.9,424.5z"/>
	<g>
		<g>
			<path class="st2" d="M312.9,751.8c-0.4,0.7,0,0,0.2-0.1c0.1-0.1,0.8-0.5,0.4-0.2c-0.6,0.4,0.9-0.5-0.1,0c0.1,0,0.9,0.2,0.1,0
				c-1-0.3,0,0,0,0c-0.1-0.1-0.2-0.1-0.3-0.2c0.3,0.3,0.4,0.3,0.2,0.1c-0.1-0.1-0.4-0.8-0.5-1c-0.8-2.4-0.6-5.5-0.4-8.3
				c0.3-5.5,1.2-10.6,3-16.2c3.4-10.6,9.6-20.7,17.1-28.9c8.2-9.1,17.6-15.8,28.6-21.4c11.4-5.8,23.7-9.8,36.2-12.9
				c26.6-6.7,54.1-9.3,80.2-17.8c13.2-4.3,25.7-10.2,37.5-17.4c11.8-7.2,22.8-15.5,33.6-24.1c22.2-17.5,43.5-36.3,63.7-56.1
				c2.5-2.4,5-4.9,7.5-7.4c3.8-3.8-2.1-9.8-6-6c-20.7,20.8-42.6,40.5-65.5,59c-21.8,17.5-44.6,34.3-71.4,43.3
				c-26.9,9-55.3,11.6-82.6,18.5c-25.4,6.5-50.8,17.1-68.6,37.1c-8.3,9.3-14.9,20.2-18.6,32.2c-1.8,5.9-2.9,12-3.2,18.2
				c-0.3,6.2-0.1,15.3,7.3,17.3c3.4,0.9,7.2-0.3,8.9-3.5c1.1-2,0.5-4.6-1.5-5.8C316.7,749.1,314,749.8,312.9,751.8L312.9,751.8z"/>
		</g>
	</g>
	<g>
		<g>
			<path class="st15" d="M581.7,29.8c-12.7-0.5-22.5,9.5-29.2,19.2c-7.7,11.2-12.9,24.2-17,37.1c-2,6.1-3.6,12.3-4.9,18.6
				c-0.6,2.9,0.8,6.2,3.9,6.9c2.8,0.6,6.3-0.8,6.9-3.9c2.3-11.6,6.1-22.7,10.5-33.7c-0.7,1.6-0.1,0.3,0-0.1c0.2-0.4,0.3-0.8,0.5-1.2
				c0.3-0.8,0.7-1.5,1-2.3c0.7-1.5,1.4-2.9,2.1-4.4c1.4-2.9,3-5.7,4.7-8.4c0.8-1.3,1.6-2.5,2.5-3.8c0.4-0.6,0.8-1.2,1.3-1.7
				c0.1-0.1,0.2-0.3,0.3-0.4c0,0-0.9,1.2-0.4,0.5c0.2-0.3,0.5-0.6,0.7-0.9c1.7-2.1,3.6-4.1,5.7-5.9c0.3-0.2,0.6-0.5,0.9-0.7
				c0.6-0.5-1.2,0.9-0.2,0.1c0.6-0.4,1.2-0.8,1.8-1.2c0.6-0.4,1.2-0.7,1.8-1c0.3-0.1,0.5-0.3,0.8-0.4c0.1-0.1,0.3-0.1,0.4-0.2
				c0.8-0.4-1.2,0.5-0.6,0.3c1.2-0.4,2.4-0.9,3.7-1.1c0.3-0.1,1.5-0.2,0.3-0.1c-1.2,0.2,0,0,0.3,0c0.7,0,1.3,0,2,0
				c3,0.1,5.8-2.7,5.6-5.6C587.2,32.3,584.8,30,581.7,29.8L581.7,29.8z"/>
		</g>
	</g>
	<g>
		<g>
			<path class="st16" d="M548.9,108c0.5-1.7,1-3.3,1.7-5c0.2-0.4,0.4-0.9,0.5-1.3c0.3-0.7-0.6,1.4-0.2,0.5c0.1-0.3,0.2-0.5,0.3-0.8
				c0.5-1,0.9-2.1,1.4-3.1c2.1-4.4,4.4-8.6,6.9-12.8c2.7-4.6,5.5-9.1,8.5-13.4c1.5-2.2,3.1-4.4,4.7-6.6c0.7-1,1.5-2,2.2-3
				c0.2-0.3,0.4-0.5,0.6-0.8c-0.9,1.2-0.5,0.6-0.3,0.4c0.5-0.6,0.9-1.2,1.4-1.8c3-3.8,6.2-7.5,9.8-10.8c2.2-2,2.2-6,0-8
				c-2.3-2.1-5.7-2.1-8,0c-7.3,6.8-13.4,15-19,23.2c-6,8.6-11.5,17.6-16.1,26.9c-2.1,4.3-4.1,8.8-5.4,13.4c-0.8,2.8,1,6.3,3.9,6.9
				C544.9,112.6,548.1,111,548.9,108L548.9,108z"/>
		</g>
	</g>
	<g>
		<g>
			<path class="st15" d="M382.3,106.4c-0.3-6.1-1.8-12.3-3.2-18.2c-1.4-6.1-2.9-12.1-4.6-18.1c-0.6-2.3-1.3-4.6-1.8-6.9
				c-0.3-1.5-0.6-3-0.8-4.4c-0.1-0.4-0.1-0.7-0.2-1.1c-0.2-1.2,0.1,1.1,0,0.1c-0.1-0.9-0.2-1.7-0.3-2.6c-0.7-7-0.8-14.1-0.1-21.1
				c0.1-0.5,0.1-1.1,0.2-1.6c0-0.2,0-0.4,0.1-0.5c0.1-0.7-0.2,1.3,0,0.3c0.1-1,0.3-2,0.5-2.9c0.4-1.9,0.8-3.8,1.3-5.7
				c0.3-0.9,0.5-1.8,0.8-2.7c0.1-0.4,0.3-0.8,0.4-1.2c0.1-0.3,0.7-1.7,0.3-0.8c-0.4,0.9,0.3-0.6,0.4-0.8c0.2-0.4,0.4-0.8,0.6-1.1
				c0.4-0.8,0.9-1.6,1.4-2.4c1.6-2.5,0.6-6.3-2-7.7c-2.8-1.5-6.1-0.7-7.7,2c-3.8,6.1-5.8,13.2-6.8,20.2c-1.1,7.6-1.4,15.2-0.8,22.8
				c0.5,6.4,1.3,12.8,3.1,19c1.6,5.7,3.1,11.3,4.4,17.1c0.9,3.6,1.7,7.3,2.4,11c0.3,1.6,0.6,3.3,0.9,4.9c0,0.1,0,0.3,0.1,0.4
				c0.2,1-0.2-1.2-0.1-0.6c0,0.3,0.1,0.7,0.1,1c0.1,0.6,0.1,1.2,0.2,1.8c0.2,2.9,2.5,5.8,5.6,5.6C379.6,112,382.5,109.6,382.3,106.4
				L382.3,106.4z"/>
		</g>
	</g>
	<g>
		<g>
			<path class="st15" d="M472.5,6.2c-5.7,20.6-9.6,41.8-13,62.9c-0.9,5.8-1.8,11.6-2.5,17.4c-0.2,1.3,0.8,3.1,1.7,4
				c1,1,2.6,1.7,4,1.7c1.5-0.1,3-0.5,4-1.7c1.1-1.2,1.4-2.4,1.7-4c0-0.3,0.1-0.6,0.1-0.9c0.1-1.1-0.2,1.2-0.1,0.4
				c0.1-0.6,0.2-1.1,0.2-1.7c0.2-1.2,0.3-2.4,0.5-3.6c0.4-2.4,0.7-4.8,1.1-7.2c0.9-5.4,1.8-10.7,2.7-16.1c2-10.9,4.1-21.8,6.6-32.6
				c1.2-5.2,2.5-10.5,3.9-15.7c0.8-2.8-1-6.3-3.9-6.9C476.5,1.6,473.4,3.2,472.5,6.2L472.5,6.2z"/>
		</g>
	</g>
	<g>
		<g>
			<path class="st16" d="M394.4,99.5c-0.2-4.2-1.1-8.4-1.9-12.5c-1-4.8-2.1-9.5-3.3-14.2c-1-3.8-2-7.6-3-11.4c-0.8-3-1.6-6-2.2-9
				c-0.3-1.6-0.6-3.2-0.8-4.9c0,0-0.2-1.6-0.1-0.7c0.1,0.9-0.1-0.6-0.1-0.7c-0.1-0.9-0.2-1.9-0.3-2.8c-0.7-7.7-0.6-15.4,0.4-23.1
				c0.2-1.3-0.8-3.1-1.7-4c-1-1-2.6-1.7-4-1.7c-1.5,0.1-3,0.5-4,1.7c-1.1,1.2-1.5,2.4-1.7,4C370,34.2,371,48.5,374.6,62
				c2.3,8.5,4.6,17,6.5,25.6c0.5,2.4,1,4.9,1.4,7.3c0.1,0.5,0.2,1.1,0.3,1.6c0,0.3,0.1,0.5,0.1,0.8c0.2,1-0.2-1.5-0.1-0.5
				c0.1,0.9,0.2,1.8,0.3,2.8c0.2,2.9,2.5,5.8,5.6,5.6C391.7,105,394.6,102.7,394.4,99.5L394.4,99.5z"/>
		</g>
	</g>
	<g>
		<g>
			<path class="st16" d="M480.9,93.2c0.8-10.3,1.7-20.6,3-30.9c0.2-1.5,0.4-2.9,0.6-4.4c0.1-1-0.2,1.3,0-0.1c0-0.4,0.1-0.7,0.1-1.1
				c0.1-0.8,0.2-1.5,0.3-2.3c0.4-3,0.9-6.1,1.4-9.1c1-5.6,2.1-11.3,3.5-16.8c0.7-2.8,1.5-5.5,2.3-8.2c0.4-1.2,0.8-2.4,1.3-3.6
				c0.1-0.3,0.2-0.5,0.3-0.8c0.4-1.1-0.6,1.3-0.1,0.2c0.2-0.5,0.5-1,0.7-1.6c1.3-2.7,0.8-6.2-2-7.7c-2.5-1.3-6.4-0.8-7.7,2
				c-4.7,9.7-6.9,20.5-8.8,31c-2.2,12.3-3.7,24.7-4.9,37c-0.5,5.4-1,10.7-1.4,16.1c-0.2,3,2.8,5.8,5.6,5.6
				C478.5,98.7,480.7,96.3,480.9,93.2L480.9,93.2z"/>
		</g>
	</g>
	<path class="st17" d="M504,358.9c0.4,2.5-0.4,4.9-0.9,7.3c-2.1,2.3-1.8,4.5,0.4,6.5c1.4,6.1,1.4,6.3-6.6,13
		c4.3,1.5,5.1,4.2,2.4,7.9c-0.8,0-1.2-0.6-1.5-1.2c-0.2-3.2-3-2.8-4.8-3.8c-4.3-4.5-6.3-4.8-10.2-1.5c-5.5,4.6-8.4,3.9-12.4-3.1
		c3.5-1.4,6.9-3,10.2-4.9c-3.2,2-6.8,3.2-10.2,5c-4.7,0.5-8.3,2.1-8.8,7.9c-0.2,2-2,2.5-3.4,3.4c-4.7,3.1-5.2,6.9-1.2,11
		c2.3,2.4,3.8,4.8,2.1,8.2c-4.8,1.5-9.6,0.7-14.3-0.2c-9.1-1.7-17.2,0-24.3,6c-2.7,2.2-3.9,1.6-5.8-1c-4.4-5.9-9-11.6-13.5-17.4
		c-1.2-2.3,0.4-3.5,1.8-4.7c5.4-4.9,9.8-10.5,13.2-17.1c7.6-12.6,18.1-22.9,25.2-36c1.4-2.5,3.5-4.6,6-6c5.3-0.4,6.8,0.7,6.9,6
		c0.1,7.7-1.3,14.8-7.9,19.8c-2.6,2-4.5,5-7.1,7.2c-2.7,2.2-2.8,5.4-1.4,8.6c1.3,3.1,3.9,4.2,6.9,3.9c3.3-0.2,5.6-2.3,5.8-5.5
		c0.3-4.3,1.8-8.5,1.4-12.8c-0.3-3,0.7-4.7,3.1-5.8c9.8-4.3,19.1-9.8,28.8-14.1c2.9-1.3,6.1-2.3,8.3,1.5c-0.8,1.6-2.4,1.6-3.8,1.9
		c-1.4,0.3-2.6,0.7-2.6,2.5c0,1.3,0.7,2.4,2,2.6c1.7,0.3,2.7-0.9,3.3-2.4c0.5-1.4-0.3-3.2,1.2-4.3c4.4,2.7,4.6,4.8,1,8.1
		C496.9,356.5,501.7,353.4,504,358.9z"/>
	<path class="st18" d="M449,309.3c5.1,0.6,8.5,3.7,10.8,8.3c-0.3,2-1.7,2.9-3.1,3.9c-8.7,5.8-17,12.3-25.9,17.7
		c-1.7,1-3.6,2.8-5.4,1.1c-1.6-1.5-0.4-3.6,0-5.4c1.1-4.3,1.6-8.6,1.2-13c-0.1-1.8-0.2-3.7-2.2-4.2c-1.9-0.5-3.1,0.9-4.1,2.3
		c-0.9,1.2-1.8,2.5-2.4,4c-6.8,16.6-17.2,31.1-23.8,47.8c-1,2.5-1.9,5.9-5.8,5.2c-4.5-3.1-3.9-9.4-6.6-12.7c-2.6-3.1-8.7-3-11.8-7.4
		c-5.9-8.2-3.4-19.5,5.7-24.2c2.2-1.2,3.1-1.9,2.1-4.9c-2.4-7.6,0.7-15.1,6.9-18.8c6.2-3.7,14.1-2.4,18.9,3.5
		c1.8,2.2,2.7,2.3,5.5,1.3c4.4-1.6,6.9-4.1,9.1-8.5c4.1-8.2,13.7-9.6,21.4-4.2c2.3,1.3,2.9,4.1,4.7,6
		C445.8,308.6,447.2,309.1,449,309.3z"/>
	<path class="st19" d="M388.3,377c3-0.9,3.9-3.7,4.9-6.2c6.4-16.9,17.2-31.4,24-48.2c1.3-3.3,3-7.9,7.7-6.7c4.8,1.2,2.8,6,3.1,9.3
		c0.5,4.9-1.3,9.6-2.9,15.5c12.9-6.9,23.5-15.6,34.7-23.2c6.4-1.9,8.2-0.9,10,5.2c0,6.8-3.5,10.3-9,9.2c-3.5-0.7-6.5,0.4-9.2,2.6
		c-1.4,1.2-2.5,2.7-4.2,3.6c-1.4,1.3-2.9,1.1-4.7,0.9c-9-1.2-15.1,4.4-14.9,14.1c0.1,3.2-0.7,5.1-3.6,6.5c-7.9,3.9-9.8,8.4-7.6,17.2
		c0.3,1.2,0.7,2.3,0.3,3.6c-2.6,7.5-7.9,12.7-13.3,17.8c-1.1,1.1-2.4,1.9-2.4,3.7c-5-4.7-9.9-9.7-15.1-14.1
		c-2.8-2.4-2.7-4.1-0.2-6.4C387.2,380.3,388.5,379,388.3,377z"/>
	<path class="st18" d="M447.1,337.9c4.8-7.1,8-8.4,16.2-6.4c0.9,0.2,2.1,0.9,2.4-0.6c0.6-3.2,3.5-5,4.1-8.1c1.6,0.5,2.8-0.7,4.2-1.2
		c7.3-2.7,14.7,0.6,17.6,8.1c0.9,2.4,1.7,3.5,4.4,3.6c6,0.3,10.4,3.5,12.3,9.6c2,6.2,0.6,11.7-4.3,16c-3.1-3.4-7.2-1.5-11.2-2.1
		c1.3-3.3,3.6-6.8-0.8-9.2l0,0c-2-2.1-4.2-2.4-6.7-1.1c-10.2,5-20.4,9.9-30.6,14.8c-0.7,0.3-1.2,1-1.9,1.6c3.4,4.1-1.3,7.9-0.4,12.1
		c0.9,4.2-2,8.9-5.4,10c-4.3,1.4-8.7-0.5-10.5-4.5c-2-4.5-0.4-8.3,3.5-11.7c6.9-6,13.7-12.2,13.3-23.3c-0.2-4.9-1.3-7.3-6.3-6.5
		c-0.3-0.2-0.4-0.4-0.3-0.7C446.9,338,447,337.9,447.1,337.9z"/>
	<path class="st18" d="M470.8,383.6c1,0.9,2.2,1.6,3,2.7c2.7,3.6,5,3.4,7.9,0.1c4.2-4.8,9.1-3.8,12.2,2.1c1.7,1.3,3.9,2,4.9,4.2
		c0.2,0.3,0.5,0.6,0.7,1c0.6,2.2,1.6,4,3.5,5.2c-1,2.4,0.2,2.5,1.9,2.2c2.6,6.2,0.3,11.1-5.6,11.6c-2.1,0.2-3,0.6-4,2.7
		c-2.1,4.5-5.9,5.9-9.8,3.6c-2-1.2-3.6-0.2-5.3-0.4c-5.2-0.6-10.3-0.8-15.5,0.3c-2.3,0.5-4-2.1-5.3-4.1c-0.3-3.3-1.2-5.8-3.9-8.2
		c-3.9-3.4-2.6-9.5,2.2-12.1c2.1-1.1,3.2-2.1,3.5-4.8C461.8,384.4,465.2,382.6,470.8,383.6L470.8,383.6z"/>
	<path class="st20" d="M446.1,282.1c2.1-12.3,10.8-20.3,23.3-21.4c1.5-0.6,2.9-0.7,4.2,0.4c1.1,2-0.6,3.2-1.3,4.7
		c-0.6,0.8-1.3,1.4-2,1.9c-1.1,0.8-2.2,1.6-3.3,2.4c-0.8,0.5-1.6,0.9-2.6,0.6c-1.5-0.8-0.9-2.3-1-3.5c-0.3,1.6,0.4,3.2,0.5,4.9
		c0,0.5-0.1,0.9-0.3,1.4c-0.5,1.3-1.1,2.6-1.8,3.8c-0.7,1-1.6,1.7-2.5,2.4c-0.6,0.5-1.2,0.8-1.8,1.1c-1.4,0.4-2.8,0.5-4.1-0.2
		c-0.2-0.5-1.2-0.8-0.3-1.5c-0.4,0-0.5,0.3-0.5,0.7c0.1,1-0.1,1.9-0.5,2.8c-2,1.5-2.4,5.2-5.9,4.9
		C445.5,285.7,445.5,283.9,446.1,282.1z"/>
	<path class="st21" d="M490.2,246.9c-2.8,0-5.6-0.1-8.4,0.2c-2.8,0.3-3.7-0.7-3.7-3.7c0-3,0.8-3.8,3.6-3.8c9.1,0,18.2-0.2,27.3-0.5
		c2.9-0.1,3.6,0.9,3.7,3.8c0.1,3.1-1.1,3.8-3.7,3.7c-2.8-0.1-5.6,0.1-8.4,0.1C497.1,248.9,493.7,248.9,490.2,246.9z"/>
	<path class="st22" d="M447,308.8c-5.8,0.7-8.9-1.6-6.8-8.1c-0.4-1.3,2.7-2.2,5-1.8c5.4-2.3,10.8-2.1,16.3-0.2
		c3.3-0.3,4.9,1.2,4.9,4.7c0,3.5-2.3,4.2-5,4.2c-4.2,0.1-8.5,0.1-12.7,0.3c-0.2,0,0,0-0.8,0.4C447.6,308.5,446.7,308.4,447,308.8z"
		/>
	<path class="st23" d="M490.2,246.9c3.4-0.1,6.8-0.1,10.3-0.2c-0.4,12.5-0.4,12.5,11,12.3c2.3,0,4.6,0,6.9,0.1
		c0.2,0.7,0,1.2-0.6,1.6c-6.3,1.9-12.7,1-19.1,1.2c-8.3,0.2-16.7,0.9-25,0c-1.3-0.9-2.8-1.1-4.3-1.1c5.7-1.7,11.5-0.9,17.2-1
		c3.2-0.1,4.5-1,4-4.5C490.3,252.5,490.4,249.7,490.2,246.9z"/>
	<path class="st24" d="M505.8,274.8c-9.6,0.9-19.2,0.7-28.9,0.6c-0.6-0.7-0.6-1.5-0.3-2.4c2.7-3.4,6.7-1.6,10-2.6
		c1.4-0.1,2.7,0.4,4.1,0.7c4.9,1.4,10.1-0.9,15,1.2C506.3,273.1,506.4,273.9,505.8,274.8z"/>
	<path class="st25" d="M476.9,273.3c0,0.7,0,1.3,0,2c-3,0.4-5.9,0.8-8.9,1.3c-4.6,0.2-1-3.2-1.9-4.7c0-0.8,0.2-1.4,0.8-2
		c0.6-0.4,1.3-0.5,2.1-0.3c2.6,1.3,5.8-0.7,8.2,1.6C477.5,272,477.4,272.7,476.9,273.3z"/>
	<path class="st26" d="M459.4,289c2.1,2.7,0.7,5.8,1,8.7c-4.5,1.1-9.1,0.7-13.7,0.5c-0.7-4.1,3-3.6,4.9-5c0.5-0.2,0.9-0.3,1.4-0.3
		C456.3,293.6,458,291.6,459.4,289z"/>
	<path class="st27" d="M446.5,296.9c4.5,2.2,9.3,0.4,13.9,0.8c0.4,0.3,0.7,0.6,1.1,0.9c-5.4,0.1-10.9,0.2-16.3,0.2
		c0.9-5.6-1.2-11.3,0.9-16.8c0.6,1.8-0.6,3.9,1.1,5.5c0.8,1.7,0.2,3.6,0.7,5.4C447.9,294.5,447.1,295.7,446.5,296.9z"/>
	<path class="st28" d="M459.4,289c0.5,5.3-2,6.1-6.1,4.7c-1.5-2-0.4-3.3,1.1-4.5c1.2-0.8,2.5-1.5,4-1.4c0.5,0.1,0.8,0.4,1.1,0.8
		L459.4,289z"/>
	<path class="st29" d="M518.4,259.9c0-0.3,0-0.6,0-0.9c2.1,5.1,1.4,10.3,0.3,15.4c-3.8-2.3-8.2,0.6-12-1.6c-0.3-0.6-0.2-1.1,0.2-1.6
		c1.9-1.5,4.1-1.2,6.2-1.2c3,0.1,4.2-1.1,4.1-4.3C517.1,263.8,517,261.7,518.4,259.9z"/>
	<path class="st30" d="M506.7,272.7c2.9,0,5.8-0.1,8.6-0.1c1.4,0,3-0.2,3.3,1.9c-4.3,0.7-8.6,0.7-12.9,0.3c0-0.6,0-1.3,0-1.9
		C506,272.4,506.4,272.4,506.7,272.7z"/>
	<path class="st31" d="M466.9,272.3c2,1-2.4,3.8,1.1,4.3c-2,1.4-4,2.8-6,4.3c-1.5-1.1-0.5-2.9-0.9-4.2c0.6-1.1,1.2-2.1,1.8-3.2
		c0.7-0.8,0.2,2.8,1.3,0.4C464.8,272.8,465.5,271.9,466.9,272.3z"/>
	<path class="st32" d="M503.6,372.7c-1.4-0.8-2.9-1.6-4.7-2.5c1.5-1.4,2.9-2.7,4.3-4C503.7,368.3,504.8,370.4,503.6,372.7z"/>
	<path class="st33" d="M461.1,276.7c1.4,1.1,0.8,2.8,0.9,4.2c-0.9,2.5-1.7,5.1-2.6,7.6c0,0-0.4-0.3-0.4-0.3c-0.9-1.1-1-2.3-0.8-3.6
		c0.4-1.9,0.8-3.8,0.7-5.8C459.7,278.1,460.4,277.4,461.1,276.7z"/>
	<path class="st34" d="M504.9,400.9c-0.2,1.8-1.2,2.5-2.7,1.6c-0.9-0.6-2.2-1.3-1.8-2.8c0.3-1.2,1.6-0.8,2.6-1
		C504,399.1,504.7,399.8,504.9,400.9z"/>
	<path class="st18" d="M447.1,337.9c0,0.3,0,0.7,0,1c-9.9,13.9-19.5,28.2-30.1,41.5c-5.2-10.2-2.7-17.6,7.6-22.3
		c1.4-0.6,2.2-1,2.2-3.3c-0.5-13,6-18.9,18-16.6C445.5,338.3,446.3,338,447.1,337.9z"/>
	<path class="st35" d="M492.1,347.5c0.7,2.5,1.7,5-1,7.1c-1.5,1.1-2.9,2.1-4.5,0.9c-1.7-1.2-2.6-3.2-2.3-5.4
		c0.3-2.2,2.1-2.4,3.8-2.5C489.4,347.6,490.8,347.6,492.1,347.5C492.1,347.5,492.1,347.5,492.1,347.5z"/>
	<path class="st36" d="M502.4,377.1c-0.4,2.4-1.7,3.7-3.9,3.9c-3.2,0.2-4.4-2.4-4.8-4.9c-0.4-2.8,2-3.2,4-3.4
		C500.8,372.3,501.6,374.7,502.4,377.1z"/>
	<path class="st37" d="M497.7,358c3.4-0.3,3.8,2.5,4.1,4.8c0.3,2.4-2,3.2-3.7,3.3c-2.9,0.3-4.2-2.3-4.4-4.6
		C493.4,359,495.6,358.1,497.7,358z"/>
	<path class="st38" d="M471.8,368.6c-2.6,2.2-5.2,4-8.4,4.3C465.7,370.3,468.4,368.5,471.8,368.6z"/>
	<path class="st39" d="M470.8,383.6c3.2-2.6,7.1-3.7,10.9-5C478.2,380.8,475.2,383.9,470.8,383.6
		C470.8,383.6,470.8,383.6,470.8,383.6z"/>
	<path class="st40" d="M498.7,392.6c-1.9-1.1-4.1-1.7-4.9-4.2C497.9,386.7,499.1,388.6,498.7,392.6z"/>
	<path class="st41" d="M478.9,364.5c1.4-1.4,2.7-2.7,5.1-2.8C482.4,363.8,480.8,364.6,478.9,364.5z"/>
	<path class="st42" d="M484.3,377.4c1.7-1.7,2.7-2.7,4.5-2C487.8,376.6,486.7,377.3,484.3,377.4z"/>
	<path class="st43" d="M428.8,300.4c1.6-0.1,3.1,0.1,3.5,2c0.4,2-0.7,2.9-2.4,3.2c-3.1,0.4-5,2.2-6.1,5.3c-0.5,1.3-1.3,2.7-3,1.6
		c-1.3-0.8-2.1-1.9-1.5-3.9C420.7,304.6,425,300.6,428.8,300.4z"/>
	<path class="st43" d="M496.2,336c3.7,0.1,9,4.8,9.9,8.3c0.4,1.7-0.1,2.7-1.3,3.5c-1.4,0.9-2.1-0.2-2.8-1.3
		c-1.9-2.9-3.9-5.6-7.8-5.5c-1.2,0-2.4-0.9-1.9-2.4C493,336.9,494.3,335.9,496.2,336z"/>
	<path class="st43" d="M480.2,322.6c3.8,1.1,7.2,3,8.7,7.4c0.5,1.4,1,2.7-0.6,3.5c-1.3,0.7-2.7,0.8-3.4-0.8c-1.5-3.3-3.8-5-7.3-5
		c-1.5,0-1.9-1.2-1.7-2.6C476.3,322.6,478.2,322.6,480.2,322.6z"/>
	<path class="st44" d="M439.3,375.4c-0.8,0.1-1.4-0.2-1.4-1c-0.1-1.4,0.7-2.3,1.9-2.6c0.7-0.1,1.4,0,1.4,0.9
		C441.3,374.1,440.3,374.8,439.3,375.4z"/>
	<path class="st45" d="M447.3,366.1c-0.7-0.1-1.4-0.1-1.4-1.1c0.1-1,0.7-1.5,1.6-1.7c0.9-0.2,1.7,0.1,1.6,1.3
		C449,365.4,448.2,366,447.3,366.1z"/>
	<path class="st46" d="M467.6,386.4c-0.2,1.6-1.2,1.8-2.1,2.2c-0.7,0.3-1.3,0-1.4-0.9c-0.1-1.6,1.1-2,2.2-2.2
		C466.6,385.4,467.2,386.1,467.6,386.4z"/>
	<path class="st45" d="M488.3,385.6c1,0.1,2,0.5,2,1.8c0.1,0.9-0.7,1.1-1.4,1c-0.9-0.1-1.6-0.6-1.8-1.5
		C486.9,386.1,487.5,385.7,488.3,385.6z"/>
	<path class="st44" d="M455.5,402.6c-0.7-2.6-0.3-4,1.8-4.9C458,399.8,457.1,400.9,455.5,402.6z"/>
	<path class="st47" d="M518.4,259.9c0.5,11.7,0.5,11.7-11.6,11.7c-0.3-0.5-0.3-1,0.2-1.4c2.2-0.3,4.5-0.1,5.7-0.2
		c-1.6,0.2-4.3-0.5-6.9,0.6c-1.3,0.5-2.8,0.8-4.1,1.5c-1.1,0.3-2.3,0.2-3.5,0.2c-1-0.2-1.5-0.9-1.9-1.8c-1.1-0.5-1.1-3.6-3.2-1.3
		c-4.5,1.5-8.7-1.3-13.1-0.8c-0.4-0.2-0.8-0.4-1.2-0.6c-2-1.2-4.5-0.1-6.5-1.3c-0.2-0.2-0.3-0.4-0.5-0.5c-0.4-1.9,0.8-3,1.9-4.2
		c1.6-1.1,3.4-1.2,5.2-1.2C492.1,260.4,505.2,260.2,518.4,259.9z"/>
	<path class="st48" d="M459.2,284.1c0,1.4,0,2.8-0.1,4.2c-1.3,0.4-2.6,0.8-3.9,1.2c-3,1.3-2.8-1.3-3.3-3c-0.1-2.2,0-4.4,1.2-6.4
		c1.6,0,3.3-0.1,4.9-0.1C460.8,280.6,459.5,282.5,459.2,284.1z"/>
	<path class="st49" d="M479.8,266.9c0,0.3,0,0.7,0,1c0.6,1,0,1.8-0.5,2.5c-0.7,0.6-1.4,1.2-2.4,0.7c-2.6-1.1-5.6,2.2-8-0.9
		c-0.3-1.3,0.8-2.2,0.9-3.3c0.7-0.3,1.3-0.7,2-1c0,0,0,0,0,0C474.4,267.4,477.2,265.6,479.8,266.9z"/>
	<path class="st50" d="M447.4,292.7c-1.9-1.6-0.9-3.4-0.2-5.1c1.3-1.8,2.7-3.7,4-5.5c2.7,0.4,1,2.6,1.5,3.9c0,1.6,0.3,3.3-0.5,4.9
		C451,292.7,449.3,293.1,447.4,292.7z"/>
	<path class="st51" d="M466.9,272.3c-0.7,0.9-1.4,1.7-2.1,2.6c-0.4,0.5-0.9,1.3-1.3,0.9c-0.4-0.5-0.3-1.5-0.5-2.3c0,0,0,0,0,0
		c0.9-0.9,0.9-2.4,1.9-3.2c0.6-0.4,1.3-0.7,1.9-1.1c0.3,0.2,0.4,0.4,0.3,0.6c-0.1,0.2-0.1,0.4-0.2,0.4
		C466.9,271,466.9,271.7,466.9,272.3z"/>
	<path class="st52" d="M464.9,270.4c0,1.5-0.6,2.6-1.9,3.2c0-2.4-0.1-4.8-0.1-7.6C464.6,267.2,463.2,269.6,464.9,270.4z"/>
	<path class="st53" d="M452.3,286.4c-0.2-1.5,0.4-3.1-1.1-4.2c0.5-1.1,0.9-2.2,1.4-3.3c0.2,0.4,0.4,0.8,0.6,1.2c0,2.1,0,4.2,0,6.3
		C452.9,286.8,452.6,286.8,452.3,286.4z"/>
	<path class="st54" d="M466.9,270.3c0-0.3-0.1-0.7-0.1-1c1-0.8,2-1.5,3-2.3c1.1,1.5-0.1,2.4-0.9,3.3
		C468.3,270.3,467.6,270.3,466.9,270.3z"/>
	<path class="st55" d="M459.2,284.1c-0.2-1.4,0.4-3.1-1.1-4.2c0.3-0.4,0.6-0.7,0.9-1.1C460.6,280.5,460.6,282.3,459.2,284.1z"/>
	<path class="st49" d="M478.8,270.1c0.3-0.7,0.6-1.4,1-2.1c4.5-2.2,8.6,1.1,13,0.8c0.9,1,0.9,2.1,0.3,3.2c-1,0.6-2.1,0.7-3.1,0
		c-1-0.3-2.1-0.7-3.1-1C484.1,271.1,481.2,273.3,478.8,270.1z"/>
	<path class="st56" d="M489.9,272c1,0,1.9-0.1,2.9-0.1c0.4-0.3,0.8-0.6,1.3-0.9c1.4-0.4,2.5,0.1,3.7,0.7c1.3,0,2.7,0,4-0.1
		c1.1-0.9,2.5-0.9,3.8-1.3c0.5-0.2,0.9-0.1,1.2,0.3c0,0.3,0,0.7,0,1c0,0.4,0,0.7,0,1.1c-0.3,0-0.6,0.1-1,0.1
		C500.5,272.1,495.1,274.3,489.9,272z"/>
	<path class="st57" d="M478.8,270.1c2.4,2,5.3,0.5,7.9,0.9c-2.9,2.5-6.9-0.2-9.8,2.3c0-0.7,0-1.4,0-2.1
		C477.5,270.8,478.2,270.5,478.8,270.1z"/>
	<path class="st58" d="M447.4,292.7c0.8-1.7,3.2-0.5,4-2.2c2.2,0.4,1.5,1.8,1,3.2c-1.4,2.1-4,2-5.9,3.2
		C446.2,295.4,446.7,294,447.4,292.7z"/>
	<path class="st59" d="M452.4,293.7c-0.1-1.2,0.1-2.4-1-3.2c0.3-1.4,0.6-2.8,1-4.1c0.3,0,0.6,0,0.9,0c0.1,1.5,0,3.1,2.1,3.1
		c-1.1,1.2-2.3,2.3-1.9,4.2c0,0-0.5,0-0.5,0L452.4,293.7z"/>
	<path class="st43" d="M429.3,350.3c-0.1-0.9,0.2-2.5,1.1-3.8c1.2-1.7,2.1-4.9,4.7-3.4c2.5,1.5-0.6,3.1-0.9,4.8
		c-0.2,1.2-0.6,2.3-0.8,3.5c-0.3,1.6,1.8,4.3-1.5,4.4C429.1,355.8,429.5,353.1,429.3,350.3z"/>
	<path class="st60" d="M506.7,270.6c-0.3,0-0.7,0-1,0c-1,0.4-1.2-0.1-1-1c3.2-0.1,6.5-0.1,9.7-0.2c0,0.3,0,0.7,0,1
		C511.9,270.5,509.3,270.6,506.7,270.6z"/>
	<path class="st61" d="M493.8,271.9c-0.4,0-0.7,0-1.1,0c0-1,0-2,0-3.1c2.2-3.8,2.7,0.3,4,1C496.1,270.9,494.5,270.8,493.8,271.9z"/>
	<path class="st62" d="M479.8,266.9c-2.6-0.4-5.5,1.1-7.9-0.9C474.5,266.4,477.3,264.9,479.8,266.9z"/>
	<path class="st49" d="M493.8,271.9c0-2.2,1.5-2.1,2.9-2.1c0.3,0.7,0.7,1.3,1,2C496.4,271.8,495.1,271.8,493.8,271.9z"/>
	<path class="st49" d="M504.7,269.6c0.3,0.3,0.7,0.7,1,1c-1,1.6-2.6,1-4,1.1C502.3,270.4,503.3,269.6,504.7,269.6z"/>
	<path class="st23" d="M524.3,273.5l-5.9-14.4l-47.6,0.8c-2.9,0-5.7,0.7-8.4,1.9l-2.5,1.2c-4.1,1.9-7.7,5-10.4,8.8l-1.7,2.5
		c-0.8,1.1-1.1,2.5-1.6,3.8l-0.9,3.7c-0.1,0.6-0.2,1.5-0.2,2.1l0.3,13h16.6v-9.1c0-1.9,0.3-3.8,1-5.6l0,0c2-3.9,5.4-6.8,9.5-8
		l6.5-1.8l44.6,2.2C524.1,274.6,524.5,274,524.3,273.5z"/>
	<path class="st63" d="M326.6,349.8c1.5,2.4,2.7,4.8,3,7.8c0.4,3.8-0.7,6.3-3.7,7.6c-3.1,1.4-5.6,0.5-7.9-2.8
		c-0.2-0.3-0.5-0.4-0.7-0.6c-2.7-4.1-2.6-8.9-2.5-13.7c0.1-3.4,0.3-6.7,0.6-10.7C319.9,341.5,323.2,345.7,326.6,349.8z"/>
	<path class="st64" d="M177.9,400.3c-25.5-18.9-47.8-35.5-69.6-51.6c-0.9-4.7,5.5-4.6,9.5-4.8c28.2-1.7,34.4-7.7,14.3-22.1
		c-15.8-11.3-28.4-24-41.8-36.3c-5.5-5-15.9-10.3-1.7-15.7c16.5-6.2,18.7,3.1,23.9,7.6c18.9,16.3,36,33.2,55.4,49.3
		c15.6,13,29,24.4-8.6,29.7c-14.2,2-7.6,7.4-3.2,13C163.3,378.7,179.3,386.7,177.9,400.3z"/>
	<path class="st64" d="M542.1,241.2c6.9-6.4,13.3-13.6,20.9-19.1c16.3-11.9,28.3-23.7,7.1-42.5c-4-3.6-5.2-8,1.4-11.5
		c14.4-7.6,28.5-15.8,42.8-23.7c4.9-2.7,8.8-2.2,11.7,3.5c3.5,6.9-1.5,8.4-5.6,10.9c-5.3,3.1-10.2,6.9-15.6,9.7
		c-12.8,6.7-19,14.5-5.8,27.2c7,6.8,5,11.4-2.7,16.1c-17.4,10.5-34.4,21.6-51.6,32.5C543.8,243.4,542.9,242.3,542.1,241.2z"/>
	<path class="st64" d="M62,564.9c7.6-5.5,14.8-11.8,22.8-16.3c17.5-9.8,30.8-20,11.8-41.3c-3.6-4-4.2-8.6,2.7-11.2
		c15.1-5.7,30.1-12.1,45.1-18.2c5.1-2.1,9-1,11.3,4.9c2.7,7.3-2.4,8.2-6.7,10.1c-5.6,2.5-10.9,5.6-16.6,7.7
		c-13.5,5-20.5,12-8.9,26.3c6.2,7.6,3.7,12-4.5,15.6c-18.4,8.2-36.6,17.2-54.9,25.8C63.5,567.3,62.7,566.1,62,564.9z"/>
	<path class="st63" d="M200.2,286.1c-16-18.5-32.2-36.9-47.9-55.7c-5-6-5.3-14.9,1.2-18.7c7.7-4.5,8.8,5.5,11.7,10.2
		c12.7,20.5,25.1,41.2,37.6,61.8C202,284.6,201.1,285.4,200.2,286.1z"/>
	<path class="st64" d="M254.1,273.6c-2.8-6.8-6.2-13.3-8.4-20.5c-4.8-15.7-10.1-27.6-24-11.2c-2.6,3.1-5.4,3.6-6.5-2.6
		c-2.5-13.5-5.4-26.8-8.2-40.3c-0.9-4.6-0.1-8,3.6-9.9c4.5-2.3,4.7,2.3,5.6,6.2c1.1,5,2.7,9.7,3.6,14.8c2.2,12,6,18.4,15.2,8.3
		c4.9-5.3,7.4-3,9.1,4.3c3.8,16.5,8.1,32.7,12.2,49C255.6,272.3,254.9,272.9,254.1,273.6z"/>
	<g>
		<path class="st65" d="M344.2,282.8c-13.2-20.9-26.6-41.5-39.4-62.6c-4.1-6.7-3.2-15.6,3.8-18.3c8.2-3.2,7.9,6.9,10.1,12
			c9.6,22.3,18.9,44.7,28.4,67.1C346.1,281.6,345.2,282.2,344.2,282.8z"/>
		<ellipse class="st65" cx="352.3" cy="297.9" rx="9.1" ry="9.6"/>
	</g>
	<g>
		<path class="st0" d="M537.4,383.6c2.7-18.1,5.2-36.2,8.4-54.3c1-5.7,6.8-10.2,13.4-8.2c7.8,2.4,1.7,7.7,0.3,11.6
			c-6.2,17.1-12.6,34.1-18.9,51.2C539.5,383.8,538.4,383.7,537.4,383.6z"/>
		<ellipse class="st0" cx="534.3" cy="395.9" rx="8.6" ry="7"/>
	</g>
	<path class="st63" d="M174.9,431.4c-23.6,2.7-47.2,5.6-70.9,7.8c-7.5,0.7-14.5-4.3-13.6-12.1c1.1-9.2,9.4-4.2,14.7-3.9
		c23.2,1.4,46.3,3,69.5,4.6C174.7,429.1,174.8,430.3,174.9,431.4z"/>
	<g>
		<g>
			<path class="st66" d="M122.9,606.2c-2.8,21.7-5.3,44.9,5.4,65.1c2.6,4.9,6,9.5,10.1,13.2c1.6,1.5,4.4,1.7,6,0
				c1.5-1.6,1.8-4.4,0-6c-1.7-1.5-3.2-3.2-4.7-4.9c-0.5-0.6,0.6,0.8-0.2-0.2c-0.2-0.2-0.3-0.4-0.5-0.6c-0.3-0.4-0.6-0.8-0.9-1.3
				c-0.7-1-1.3-2-1.9-3c-0.6-1-1.1-2-1.6-3c-0.2-0.5-0.5-1-0.7-1.4c-0.1-0.2-0.2-0.5-0.3-0.7c-0.1-0.3-0.1-0.2,0,0.1
				c-0.1-0.2-0.2-0.4-0.2-0.6c-0.9-2.2-1.6-4.4-2.2-6.7c-0.6-2.2-1.1-4.4-1.5-6.7c-0.1-0.6-0.2-1.2-0.3-1.8c0-0.1-0.1-0.9-0.1-0.4
				c0.1,0.5,0-0.3-0.1-0.4c-0.2-1.5-0.3-3-0.4-4.5c-0.4-5.6-0.2-11.2,0.2-16.8c0.5-6.4,1.3-12.8,2.1-19.2c0.3-2.2-2.1-4.3-4.2-4.2
				C124.5,602.1,123.2,603.8,122.9,606.2L122.9,606.2z"/>
		</g>
	</g>
	<g>
		<g>
			<path class="st2" d="M637.4,517.2c3.4,2.5,6.8,5,10.3,7.5c1.8,1.3,4,3,6.4,2.4c2.6-0.7,3.9-3.9,2.5-6.3c-0.2-0.4-0.6-0.8-0.9-1.1
				c-0.4-0.5-0.9-0.9-1.4-1.3c-1.9-1.7-3.9-3.3-5.8-5c-6.1-5.1-12.2-10-18.3-15c-5.6-4.5-11.2-9-16.8-13.5c-2.5-2-4.9-4-7.5-5.9
				c-6.9-5.3-14.3-10-21.9-14.1c-15.5-8.4-31.9-14.9-48.3-21.4c-8.6-3.4-17.3-6.6-26.6-7.1c-8.6-0.4-16.8,2.2-23.5,7.6
				c-11.6,9.4-16.7,25.6-17.5,40c-0.5,8.7,0.9,17.9,6.3,25c4.8,6.3,11.3,10.7,18.5,13.8c16.8,7.4,35.5,10.9,53.8,11.1
				c4.5,0,9-0.2,13.5-0.6c2.2-0.2,4.3-1.8,4.2-4.2c-0.1-2.1-1.9-4.4-4.2-4.2c-16.1,1.4-31.5,0.1-46.8-3.9c-3.8-1-7.6-2.2-11.4-3.5
				c-0.8-0.3-1.6-0.6-2.4-0.9c-0.3-0.1-0.7-0.3-1-0.4c-0.2-0.1-0.3-0.1-0.5-0.2c-0.1,0-0.8-0.3-0.4-0.1c0.4,0.2-0.5-0.2-0.7-0.3
				c-0.3-0.2-0.7-0.3-1-0.5c-0.8-0.4-1.6-0.8-2.4-1.2c-1.4-0.7-2.7-1.5-4.1-2.3c-0.7-0.4-1.4-0.9-2-1.3c-0.3-0.2-0.6-0.4-0.9-0.7
				c-0.4-0.3,0.1,0.1,0.1,0.1c-0.2-0.2-0.4-0.3-0.6-0.5c-1.2-1-2.4-2.1-3.5-3.3c-0.5-0.5-1-1.1-1.4-1.7c0.4,0.6-0.1-0.1-0.2-0.3
				c-0.3-0.4-0.6-0.8-0.8-1.2c-0.4-0.6-0.8-1.3-1.1-1.9c-0.2-0.3-0.3-0.7-0.5-1c0,0-0.3-0.6-0.1-0.2c0.1,0.3-0.2-0.4-0.2-0.5
				c-0.7-1.8-1.1-3.6-1.5-5.5c0-0.2-0.2-1.2-0.2-1c0,0.2-0.1-0.7-0.1-1c-0.1-1-0.1-2.1-0.2-3.1c0-1.8,0-3.7,0.1-5.5
				c0.1-0.8,0.1-1.7,0.2-2.5c0-0.4,0.1-0.7,0.1-1.1c0.1-0.5,0,0.2,0,0.2c0-0.2,0.1-0.5,0.1-0.7c0.2-1.6,0.5-3.1,0.9-4.7
				c0.7-3,1.6-6,2.7-8.9c0.1-0.2,0.4-1.1,0.3-0.7c-0.2,0.4,0.3-0.6,0.4-0.8c0.3-0.7,0.7-1.4,1-2.1c0.7-1.4,1.5-2.7,2.3-4
				c0.4-0.6,0.8-1.2,1.2-1.7c0.2-0.3,0.4-0.6,0.6-0.8c0.3-0.4-0.1,0.1-0.1,0.2c0.1-0.2,0.3-0.4,0.4-0.5c0.9-1.1,1.9-2.2,3-3.2
				c0.5-0.5,1.1-1,1.6-1.5c0.1-0.1,0.9-0.7,0.5-0.4c-0.4,0.3,0,0,0.1-0.1c0.2-0.1,0.4-0.3,0.5-0.4c1.2-0.8,2.4-1.6,3.7-2.2
				c0.3-0.1,0.6-0.3,0.9-0.4c0.7-0.3-0.5,0.2,0.2-0.1c0.9-0.3,1.7-0.6,2.6-0.9c0.9-0.3,1.9-0.5,2.8-0.6c0.2,0,1.2-0.2,0.6-0.1
				c0.5-0.1,1-0.1,1.5-0.1c1.9-0.1,3.9-0.1,5.8,0.1c0.4,0,0.9,0.1,1.3,0.1c0.5,0.1,0.1,0,0,0c0.2,0,0.4,0.1,0.7,0.1
				c1,0.2,1.9,0.3,2.9,0.5c3.9,0.8,7.7,2.1,11.5,3.4c7.2,2.6,14.2,5.5,21.3,8.4c1.8,0.7,3.5,1.4,5.3,2.2c0.4,0.2,0.1,0,0,0
				c0.2,0.1,0.4,0.2,0.6,0.3c0.4,0.2,0.8,0.3,1.2,0.5c0.9,0.4,1.7,0.8,2.6,1.1c3.5,1.5,7,3.1,10.4,4.7c6.8,3.2,13.4,6.8,19.8,10.7
				c3.2,2,6.3,4,9.3,6.2c0.7,0.5,1.4,1,2.1,1.6c0.4,0.3,0.8,0.6,1.2,0.9c0.2,0.1,0.4,0.3,0.5,0.4c-0.3-0.3,0.1,0.1,0.2,0.2
				c0.8,0.6,1.6,1.3,2.4,1.9c1.4,1.1,2.8,2.2,4.2,3.4c4.9,3.9,9.8,7.9,14.7,11.8c5.5,4.4,11,8.9,16.4,13.4c3.4,2.8,6.9,5.5,10,8.5
				c0.1,0.1,0.2,0.3,0.4,0.4c0.4,0.4-0.7-1.1-0.5-0.7c-0.6-1.1-0.9-2.9,0-4.1c0.5-0.5,1-1,1.5-1.5c0.8-0.6,2.4-0.6,3.1-0.4
				c0,0,1.3,0.7,0.8,0.3c-0.2-0.1-0.4-0.3-0.7-0.4c-0.8-0.5-1.7-1.1-2.5-1.7c-3.4-2.3-6.7-4.8-10-7.2c-1.8-1.3-4.8-0.4-5.8,1.5
				C634.7,513.6,635.5,515.8,637.4,517.2L637.4,517.2z"/>
		</g>
	</g>
	<g>
		<g>
			<path class="st2" d="M169.2,722.4c9.1,3.3,18.9,1.2,27.7-2.1c4.7-1.8,9.2-3.9,13.8-5.8c0.1,0,0.7-0.3,0.2-0.1
				c0.2-0.1,0.4-0.2,0.6-0.3c0.6-0.2,1.1-0.5,1.7-0.7c1.1-0.4,2.2-0.9,3.4-1.3c2.2-0.8,4.5-1.6,6.8-2.3c4.5-1.4,9.1-2.5,13.7-3.4
				c2.3-0.5,4.7-0.9,7-1.2c1.7-0.3,3.9-0.5,6.2-0.7c9.5-0.9,19-1,28.5-0.5c5.3,0.3,10.5,0.8,15.7,1.5c0.9,0.1,0.4,0.1,0.2,0
				c0.4,0.1,0.7,0.1,1.1,0.2c0.7,0.1,1.3,0.2,2,0.3c1.3,0.2,2.7,0.4,4,0.6c2.7,0.4,5.3,0.9,8,1.5c2.2,0.4,4.7-0.6,5.2-2.9
				c0.5-2.1-0.6-4.7-2.9-5.2c-18.8-3.7-38.1-5.6-57.3-4.3c-9.6,0.7-19.1,2.1-28.5,4.6c-9.4,2.5-18.3,6.3-27.2,10.1
				c0,0-0.7,0.3-0.3,0.1c0.3-0.1-0.6,0.3-0.7,0.3c-0.6,0.3-1.2,0.5-1.9,0.8c-1.2,0.5-2.5,1-3.8,1.4c-2.4,0.8-4.8,1.6-7.3,2.1
				c-0.6,0.1-1.3,0.2-1.9,0.3c-0.7,0.1,0.6-0.1-0.1,0c-0.3,0-0.7,0.1-1,0.1c-1.2,0.1-2.5,0.2-3.8,0.1c-0.6,0-1.1-0.1-1.7-0.1
				c-0.9-0.1-0.3,0-0.1,0c-0.3,0-0.7-0.1-1-0.2c-1.3-0.3-2.6-0.6-3.9-1.1c-2.1-0.7-4.7,0.8-5.2,2.9
				C165.7,719.6,166.9,721.6,169.2,722.4L169.2,722.4z"/>
		</g>
	</g>
	<g>
		<path class="st65" d="M408.9,275.9c-2.8-4.8-8.8-8.1-12.5-2.8c-3.4,4.9-3.7,11.9,1.1,14.8C403.7,291.8,413.1,286.4,408.9,275.9z"
			/>
		<path class="st65" d="M400.9,230.4c0,4.8-4,27.5-3.9,29.4c0.1,1.4,8.7,3.4,13.4,4.5c1.5,0.3,2.9-1.1,2.9-3
			c-0.1-6.3,0.7-17.3,6.3-16.4c7.6,1.2,31.3,12.5,41.3-10.8c10-23.3-1.2-49.9-30-58.9c-28.8-9-43.7,11.3-43.7,11.3s3.5,13,6.8,15.6
			c4.4,3.4,16.3-14.7,35.2-6.7c18.9,8,16,25.6,7.2,30.4C425.9,231.5,400.9,216.7,400.9,230.4z"/>
	</g>
	<path class="st67" d="M643.3,509.1c9.6,5.9,13.7,3.8,20.7,9.5c3.6,11.5-5.1,36.2-2.9,49.2c1.7,10.1,1.9,16.8,6,31.3
		c2.3,7.9,6.1,15.3,11,21.7c41.2,53.9-79.2,88.7-72.1,82.8c0.4-21.1-2-24.4,0.5-55.7c1.9-23.3,10.4-44.3,17.6-66.7
		c3-9.3,7.7-18.2,8-31.5c-16,7.8-27.8,23.6-41.4,34.2c-13.7,10.7-26.8,22.6-42.3,35.8c10.4,23.2,13.2,48.9,9.5,77.1
		c-2.1,16.3-5.8,31.9-10.9,47.3c-5.8,17.4-16.4,28.9-29.6,35.8c-17.8,9.3-30.3-1.3-29.2-25.1c1.1-22.7,8.9-44.1,17.8-64.6
		c8.4-19.3,18.2-37.7,29.4-60.5c-27.9,14.1-52.2,25.3-72.1,51.6c-27.7,36.6-60,63.6-95.9,82.1c-15.8,8.2-31.2,11.4-46.4,5.2
		c-15.3-6.2-19.6-19.7-13.1-40.7c3.6-11.6,9.8-20.7,17.1-29c18.5-21.1,39.8-30.3,62.3-34.5c21.3-4,42.6-8.1,63.9-10.7
		c21.2-2.6,40.7-12.7,59.5-27.5c2.4,0.3,4.8,0.9,7.7-2.8c-2.9-1.9-5.2-3.8-8.5,0.1c-16.9-0.5-33.8-0.6-50.7-1.4
		c-15.8-0.8-30-6.8-43-16.4c-5.7-4.2-10.5-9.5-14.2-16.3c-5.8-10.9-8-23.6-2-37c6.3-14,16.3-21.6,28.3-21.7
		c34.6-0.3,63.2,16.7,89,40.6c10.3,9.5,19.8,20.5,30.4,31.7c24.7-15.5,47.2-37,72.8-62.6c-38.9,6.8-72.5,3.4-104.5-9.6
		c-4.4-1.8-8.9-3.1-13-5.6c-22.5-13.9-41-56.1-4.1-74.5c3.3-1.6,13.9-13.7,52.6,4.8c9.4,4.5,20,9.5,30,14.2
		c9.4,5.4,18.7,10.9,28.1,16.3"/>
	<path class="st64" d="M491.5,201.3c-2.8-6.8-6.2-13.3-8.4-20.5c-4.8-15.7-10.1-27.6-24-11.2c-2.6,3.1-5.4,3.6-6.5-2.6
		c-2.5-13.5-5.4-26.8-8.2-40.3c-0.9-4.6-0.1-8,3.6-9.9c4.5-2.3,4.7,2.3,5.6,6.2c1.1,5,2.7,9.7,3.6,14.8c2.2,12,6,18.4,15.2,8.3
		c4.9-5.3,7.4-3,9.1,4.3c3.8,16.5,8.1,32.7,12.2,49C492.9,200.1,492.2,200.7,491.5,201.3z"/>
</g>
</svg>
